<?xml version="1.0" encoding="utf-8"?>
<!-- Generator: Adobe Illustrator 24.3.0, SVG Export Plug-In . SVG Version: 6.00 Build 0)  -->
<svg version="1.1" id="Layer_1" xmlns="http://www.w3.org/2000/svg" xmlns:xlink="http://www.w3.org/1999/xlink" x="0px" y="0px"
	 viewBox="0 0 720 720" style="enable-background:new 0 0 720 720;" xml:space="preserve">
<style type="text/css">
	.st0{fill:#070807;}
	.st1{fill:#F4EA5B;}
	.st2{fill:#779B3E;}
	.st3{fill:#C3932D;}
	.st4{fill:#355326;}
	.st5{fill:#769B3E;}
	.st6{fill:#FFFEF8;}
	.st7{fill:#FEFEF8;}
	.st8{fill:#C3D0E7;}
	.st9{fill:#C0912D;}
	.st10{fill:#C3D0E6;}
	.st11{fill:#365226;}
	.st12{fill:#C3D0E4;}
	.st13{fill:#F3E95A;}
	.st14{fill:#F2E759;}
	.st15{fill:#FFFFFF;}
	.st16{fill:#080806;}
	.st17{fill:#080C0B;}
	.st18{fill:#11110D;}
	.st19{fill:#0A0B08;}
	.st20{fill:#DC2939;}
	.st21{fill:#E0576A;}
</style>
<g>
	<path class="st0" d="M500.6,427.76c2.96,4.49,5.7,8.56,8.34,12.69c0.84,1.32,2.16,1.64,3.44,2.15
		c21.59,8.74,40.96,20.8,56.67,38.22c9.38,10.4,16.03,22.65,22.96,34.71c0.58,1.01,0.97,2.14,1.32,3.26
		c1.93,6.07-0.12,10.02-6.25,11.8c-8.36,2.43-16.92,2.02-25.47,1.52c-0.5-0.03-1.01,0-1.86,0c1.69,3.25,3.25,6.26,4.81,9.28
		c11.41,22.04,22.15,44.37,29.07,68.32c0.41,1.41,0.94,1.84,2.43,1.71c3.84-0.34,7.69-0.37,11.46,0.7c5.12,1.44,6.22,4.41,3.19,8.82
		c-0.84,1.22-1.92,2.28-3.01,3.56c0.74,0.38,1.5,0.67,2.13,1.13c3.24,2.3,3.04,5.41-0.5,7.33c-2.86,1.55-6.02,2.34-9.2,2.62
		c-12.21,1.07-23.95,4.24-35.67,7.61c-6.37,1.83-12.86,3.14-19.53,3.48c-2.55,0.13-4.3-0.61-6.07-2.58
		c-10.87-12.08-21.83-24.09-32.92-35.98c-7.17-7.68-15.01-14.61-24.05-20.11c-1.68-1.02-2.81-1.17-4.48,0.12
		c-5.26,4.06-10.95,7.46-17.16,9.91c-1.51,0.6-1.9,1.13-1.22,2.76c4.4,10.41,6.99,21.3,8.4,32.48c0.24,1.88,0.62,2.82,2.91,2.48
		c2.85-0.43,5.76-0.15,8.47,1.14c5.11,2.43,6.18,6.3,2.98,10.92c-0.36,0.52-0.76,1.01-1.33,1.77c2.85,1.05,5.7,1.49,8.17,2.91
		c3.55,2.03,4.04,4.37,1.5,7.58c-1.97,2.48-4.61,4.15-7.39,5.54c-11.77,5.89-24.42,9.18-37.24,11.51
		c-5.69,1.03-11.73,0.13-17.61,0.05c-6.2-0.07-12.4-0.28-18.6-0.26c-1.97,0.01-3.36-0.55-4.78-1.94
		c-14.88-14.67-28.28-30.64-41.46-46.82c-0.81-0.99-1.63-1.97-2.74-3.33c-0.87,1.69-1.58,3.17-2.37,4.6
		c-2.02,3.67-3.94,7.43-8.35,8.83c-0.75,0.24-0.82,0.59-0.72,1.4c0.42,3.71-0.28,4.94-4.09,5.78c-10.57,2.33-20.82,1.83-30.28-4.18
		c-0.99-0.63-1.97-1.35-3.06-1.7c-6.92-2.22-11.28-6.93-13.95-13.57c-2.24-5.57-4.29-11.19-5.38-17.09
		c-0.45-2.41-1.23-3.36-3.87-3.25c-7.05,0.32-14.11,0.33-21.17,0.38c-1.39,0.01-2.37,0.45-3.39,1.39
		c-16.14,14.89-33.45,28.32-51.32,41.05c-1.02,0.72-2.13,1.26-2.51,2.73c-1,3.8-3.86,5.71-7.43,6.83
		c-7.83,2.45-15.39,1.38-22.26-2.7c-7.41-4.41-14.43-9.47-21.1-15c-3-2.48-3.9-5.32-3.7-9.2c1.45-28.84,8.25-56.38,19.64-82.84
		c3.34-7.76,6.92-15.41,10.96-22.83c0.95-1.74,0.69-2.48-0.98-3.44c-36.21-20.92-58.18-53.29-73.17-91.24
		c-2.42-6.12-3.85-12.45-3.33-19.11c0.21-2.6,0.81-5.06,2.04-7.35c2.12-3.97,4.54-4.73,8.38-2.46c2.57,1.52,5.05,3.22,7.46,4.99
		c3.63,2.65,7.25,5.31,10.72,8.15c25.08,20.57,54.32,30.98,86.07,35.22c5.61,0.75,11.28,1.02,16.88,1.84
		c8.76,1.28,16.24-2.18,23.86-5.85c-1.66-1.4-3.28-2.61-4.71-4.01c-3.81-3.73-4.07-7.86-0.74-12.01c4.18-5.2,9.62-8.76,15.61-11.51
		c14.32-6.58,29.58-8.93,45.15-9.8c12.37-0.69,24.56,0.25,36.46,3.96c4.59,1.43,8.96,3.37,13.39,6.1c0.57-3.99-0.23-7.43-1.32-10.85
		c-0.32-1-1.08-1.12-1.99-1.23c-21.46-2.51-39.09-12.93-54.94-26.89c-1.35-1.19-2.09-1.49-3.69-0.4
		c-11.78,8.04-24.62,12.06-39.06,10.49c-2.66-0.29-5.45,0.92-8.2,1.17c-19.05,1.74-34.42-5.73-47.14-19.33
		c-11.16-11.94-16.08-26.48-17.01-42.58c-0.34-5.89-0.37-11.79,0.35-17.62c0.39-3.12-0.74-3.55-3.29-3.55
		c-8.19-0.02-16.28,0.71-23.95,3.68c-8.45,3.27-17.16,5.14-26.13,6.11c-5.11,0.55-6.15-0.23-6.45-5.24
		c-0.81-13.58,2.72-26.28,7.97-38.59c11.3-26.47,26.42-50.7,42.61-74.44c24.24-35.55,53.71-65.93,87.8-91.93
		c19.67-15,40.48-28.24,62.84-38.99c12.32-5.93,24.36-12.43,37.1-17.48c8.6-3.4,17.49-5.52,26.98-6.46
		c-0.79,2.18-2.16,3.76-3.35,5.42c-6.74,9.38-13.31,18.86-19.03,28.92c-6.65,11.7-11.77,23.9-13.93,37.32
		c-2,12.47-8.56,22.67-17.21,31.61c-1.03,1.07-2.26,1.96-3.42,2.91c-0.3,0.24-0.7,0.37-1.35,0.71c0.54-4.54,1.24-8.75,1.5-12.99
		c0.44-7.06-2.59-11.03-9.49-12.67c-6.41-1.53-12.78-0.73-19.03,0.9c-9.61,2.51-18.4,6.86-26.53,12.54
		c-3.08,2.15-5.83,4.7-7.92,7.87c-5.2,7.85-2.83,16.96,5.65,21.06c7.38,3.57,15.1,3.32,22.89,1.55c6.68-1.52,12.96-4.26,19.58-6.6
		c0.34,1.5-0.56,2.5-1.16,3.53c-1.81,3.07-4.22,5.68-6.88,8c-23.15,20.23-48.48,36.44-78.97,43.36
		c-10.67,2.42-21.53,3.43-32.34,4.61c-16.6,1.82-28.81,9.84-36.9,24.39c-5.15,9.27-10.23,18.55-12.14,29.15
		c-0.53,2.95-0.77,5.93-0.69,8.93c0.06,2.19,0.94,3.1,3.33,3.16c12.45,0.29,24.41-2.37,36.29-5.64c1.46-0.4,2.06-1.27,2.51-2.56
		c10.9-31.27,53.11-58.76,78.69-62.32c16.73-2.33,32.38,0.92,47.11,8.71c20.82,11.01,39.42,25.18,56.95,40.82
		c25.03,22.34,45.31,48.57,63.09,76.86c0.61,0.98,1.28,1.92,2.14,3.18c1.26-4.3,2.26-8.29,3.59-12.16
		c8.58-24.99,24.23-44.45,46.33-58.8c2.61-1.7,5.4-3.1,8.53-3.52c4.72-0.64,8.25,1.45,10.42,6.24c2.38,5.26,3.1,10.93,3.19,16.59
		c0.47,30.7-8.71,58.07-28.69,81.61c-4.3,5.06-8.94,9.8-13.91,14.2c-1.38,1.22-1.68,2.1-0.55,3.69c1.37,1.93,2.22,0.25,3.11-0.28
		c34.37-20.85,70.29-23.43,107.58-9.01c5.2,2.01,10,4.88,13.87,9.04c3.49,3.74,3.7,6.32,0.94,10.61
		c-3.87,6.01-9.31,10.24-15.46,13.67c-12.91,7.19-26.9,10.19-41.54,10.45c-15.4,0.27-30.79,0.19-46.08-2.1
		C501.85,427.71,501.42,427.76,500.6,427.76z"/>
	<path class="st1" d="M247.83,389.3c-14.24-2-25.59-9.16-34.95-19.76c-10.54-11.93-14.83-26.25-15.58-41.85
		c-0.27-5.57,0.01-11.12,0.45-16.67c0.14-1.8,0.63-2.22,2.32-1.46c2.77,1.26,4.73,3.31,6.03,5.97c1.46,2.97,2.65,6.07,4.09,9.05
		c0.83,1.73,1.74,3.46,2.9,4.97c3.26,4.2,6.48,3.89,9.1-0.74c1.29-2.35,3.66-3.54,5.61-5.16c7.63-6.32,11.32-14.82,13.44-24.17
		c1.38-6.08,1.97-12.22,0.48-18.4c-1-4.17-2.94-7.79-6.32-10.51c-2.54-2.05-5.26-3.32-8.52-1.47c-0.65,0.37-1.39,0.57-2.13,0.13
		c-1.79-0.43-3.06,0.61-4.37,1.54c-3.99,2.86-7.52,6.36-11.92,8.65c-1.09,0.57-2.1,1.4-3.47,1.46c-0.35-1.22,0.42-2.09,0.82-3.02
		c3.54-8.23,8.34-15.63,14.5-22.15c10.67-11.29,22.96-20.43,36.74-27.6c24.42-12.71,48.68-12.13,72.67,0.97
		c19.89,10.86,37.81,24.5,54.71,39.56c26.51,23.63,47.53,51.68,66.14,81.72c14.4,23.26,27.95,47.05,42.91,69.96
		c4.25,6.51,8.66,12.93,13.51,20.14c-2.47-0.75-4.12-1.33-5.82-1.74c-3.42-0.84-6.92-1.4-10.29-2.42c-5.47-1.65-9.65,0.08-13.43,4.1
		c-9.09,9.64-12.78,20.99-11.33,34.09c-0.17,1.74-1.69,1.69-2.81,1.95c-2.14,0.49-4.29,1.17-6.54,0.78
		c-1.99-0.39-2.85-2.13-4.06-3.44c-4.29-4.65-9.77-5.76-15.75-5.3c-4.7,0.36-9.11,1.38-11.86,5.78c-0.22,0.36-0.67,0.51-1.07,0.66
		c-1.7,0.24-3.1-0.63-4.56-1.27c-9.12-4.01-16.44-10.18-22.38-18.18c-7.3-9.82-12.99-20.6-19-31.19c-2.42-4.27-4.93-8.49-7.53-12.66
		c-1.52-7-5.29-12.68-10.31-17.63c-6.6-6.51-13.65-12.46-21.41-17.54c0.14-1.75,1.59-1.47,2.64-1.55c2.23-0.17,4.48,0.06,6.71-0.1
		c6.67-0.48,12.18-3.09,15.6-9.09c2.04-3.58,1.54-6.6-1.19-9.69c-2.38-2.7-5.41-4.56-8.6-6c-9.87-4.43-20.16-6.79-31.07-5.89
		c-1.2,0.1-3.1,0.76-2.64-1.79c0.17-1.57,0.46-3.14,0.46-4.71c0-1,0.78-2.79-0.89-2.82c-1.35-0.03-0.76,1.69-0.81,2.64
		c-0.12,2.44-0.13,4.87-1.94,6.81c-0.79,0.54-1.53,1.15-2.47,1.46c-10.3,3.39-18.41,10.06-26.3,17.19
		c-9.23,8.35-17.78,17.51-28.64,23.98C255.87,389.17,252.08,390,247.83,389.3z"/>
	<path class="st1" d="M457.04,597.19c-1.23,0.88-0.55,1.84-0.13,2.81c4.6,10.66,7.21,21.84,8.92,33.28
		c0.31,2.09,0.08,3.13-2.29,3.87c-10.04,3.14-18.03,9.04-23.16,18.44c-0.66,1.17-1.76,1.81-2.87,2.45
		c-6.5,3.81-12.05,8.72-16.75,14.58c-1.46,1.81-3.11,2.76-5.48,2.54c-2.73-0.26-5.5,0.35-8.22-0.32
		c-12.58-11.8-23.84-24.8-34.72-38.14c-9.03-11.08-18.91-21.55-25.73-34.31c-2.12-3.96-4.16-7.94-5.81-12.13
		c-0.33-0.83-0.21-2.64-1.76-2.01c-1.18,0.48,0,1.67,0.11,2.53c0.08,0.62,0.29,1.23,0.44,1.84c-0.99,1.08-2.34,0.98-3.59,0.93
		c-12.45-0.49-24.33,2.59-36.2,5.75c-7.4,1.97-14.69,4.46-22.44,4.81c-9.37-1.54-16.06,2.62-22.77,8.91
		c-12.87,12.06-27.15,22.5-41.46,32.83c-1.9,1.37-2.73,1.83-4.46-0.59c-4.17-5.85-10.74-7.46-17.45-8.14
		c-7.59-0.77-14.14,1.86-19.4,7.31c-1.41,1.46-2.29,1.7-3.94,0.6c-3.49-2.32-6.65-5-9.62-7.95c-1.25-1.24-1.21-2.61-1.16-4.12
		c0.8-24.48,5.63-48.18,14.32-71.03c10.7-28.13,23.97-54.85,44.38-77.44c11.07-12.25,22.57-24.02,37.53-31.67
		c0.38-0.19,0.76-0.39,1.13-0.61c6.57-3.82,12.43-4.7,20.04-0.64c15.11,8.07,31.45,13.33,48.73,14.98
		c5.02,0.48,10.04,0.18,15.05,0.31c4.2,4.29,7.97,8.91,10.64,14.34c-1.83,3.97-5.1,6.85-7.95,9.95
		c-15.5,16.86-22.53,37.21-24.96,59.51c-0.69,6.34-1.8,12.68-0.63,19.09c0.08,0.42-0.01-0.11,0.03,0.32
		c1.08,10.93,8.17,15.29,18.46,11.26c5.02-1.97,9.41-4.99,13.59-8.36c8.03-6.48,14.31-14.63,21.21-22.19
		c7.06-7.73,13.85-15.68,20.16-24.04c0.32-0.43,0.75-0.76,1.24-0.99c1.57-0.26,2.59,0.78,3.64,1.63c5.45,4.44,11.31,8.25,17.59,11.4
		c1.24,0.62,2.45,1.29,3.17,2.56c1.98,7.3,3.69,14.68,6.67,21.68c4.18,9.84,8.52,19.57,15.78,27.66c1.81,2.02,3.82,3.73,6.04,5.18
		c3.53,2.31,7.16,2.57,10.71-0.08c0.6-0.45,1.23-0.86,2.02-0.88C456.9,595.24,457.43,595.95,457.04,597.19z"/>
	<path class="st2" d="M246.52,215.21c-9.78,3.35-20.04,3.97-30.19,5.21c-9.11,1.11-18.25,2.27-26.42,6.95
		c-8.35,4.79-13.87,12.23-18.49,20.39c-5.27,9.3-10.16,18.78-11.81,29.55c-0.42,2.77-0.47,5.53-0.39,8.3
		c0.11,3.44,1.25,4.53,4.76,4.58c8.14,0.13,16.18-0.76,24.13-2.51c1.97-0.35,1.53,0.82,1.07,1.82c-1.84,4.05-4.27,7.68-8.07,10.16
		c-6.65,4.35-13.77,7.82-21.17,10.63c-5.98,2.27-12.04,4.39-18.44,5.35c-1.21,0.18-2.25,0.39-3.26-0.39
		c-1.44-13.68,1.69-26.57,6.94-39.03c11.01-26.13,25.18-50.48,41.73-73.46c10-13.88,19.5-28.17,31.11-40.78
		c21.79-23.66,45.6-45.04,72.11-63.4c27.04-18.73,56.24-33.3,86.36-46.19c6.69-2.87,13.79-4.44,21.12-5.35
		c0.06,1.92-1.51,2.62-2.28,3.81c-16.15,15.91-28.41,34.1-33.61,56.55c-1.3,5.61-2.71,11.23-4.9,16.6c-1.24,3.04-2.92,5.73-5.57,7.7
		c-1.57,1.17-3.25,2.23-5.22,0.71c-4.17-8-11.61-9.41-19.43-8.78c-16.6,1.34-31.08,7.96-43.34,19.22c-3.37,3.09-5.62,7.02-5.9,11.75
		c-0.48,8.05,4.55,14.41,13.25,16.94c4.26,1.24,8.6,1.52,13,1.26c2.99-0.24,3.79,0.49,3.19,3.21c-0.59,2.66-2.11,4.83-3.94,6.87
		c-5.46,6.08-12.41,10.07-19.34,14.1c-8.32,4.84-17.19,8.62-25.53,13.43C254.39,212.51,250.39,213.7,246.52,215.21z"/>
	<path class="st3" d="M457.04,597.19c-0.45-0.68-0.5-1.61-1.32-2.04c-0.21-1.09,0.49-1.8,1.08-2.55
		c8.63-11.15,12.36-24.25,14.64-37.81c1.87-11.13,0.42-22.32-0.46-33.48c-0.83-10.4-3.14-20.42-7.07-30.08
		c-1.62-3.98-3.83-7.63-6.23-11.17c-0.71-1.06-1.67-1.99-1.4-3.43c3.39-0.22,6.74-0.62,9.84-2.14c6.33,7.21,12.5,14.57,19.29,21.38
		c19.38,19.44,42.24,31.96,69.67,35.59c1.4,0.18,2.6,0.31,3.39,1.85c7.1,13.86,14.44,27.6,20.52,41.96
		c-3.47,2.82-7.72,4.12-11.73,5.78c-17.47,7.25-35.56,12.16-54.46,13.93c-5.98,0.56-11.93,0.7-17.9,0.19
		c-3.81-2.91-7.5-6.02-11.72-8.3c-2.28-1.23-1.68-2.03-0.15-3.32c9.28-7.78,17.8-16.29,24.55-26.44c1.36-2.04,2.67-4.12,3.99-6.19
		c0.35-0.56,0.63-1.22-0.14-1.64c-0.61-0.32-0.97,0.21-1.27,0.65c-0.53,0.8-1.01,1.63-1.55,2.43
		c-12.37,18.52-27.65,33.84-47.95,43.64C459.52,596.57,458.38,597.21,457.04,597.19z"/>
	<path class="st1" d="M116.93,437.94c-4.41-8.67-7.79-17.58-6.55-27.59c0.08-0.63,0.18-1.27,0.34-1.89c1.71-6.6,3.95-7.47,9.62-3.75
		c5.81,3.82,11.33,8.03,16.72,12.41c24.18,19.61,52.27,29.78,82.68,34.36c8.92,1.34,17.89,2.35,27.59,2.4
		c-20.68,13.99-36.27,31.94-50.12,51.58c-1.58,0.94-2.88,0.02-4.18-0.69c-13.66-7.48-25.7-17.15-37.46-27.27
		c-9.08-7.81-17.59-16.19-25.89-24.79C125.15,448.03,120.62,443.33,116.93,437.94z"/>
	<path class="st1" d="M494.9,595.18c0.78-0.84,1.8-0.54,2.72-0.53c27.52,0.26,53.32-6.78,78.06-18.33c1.06-0.49,2.05-1.19,3.31-1.04
		c5.16,11.15,9.37,22.65,12.91,34.41c0.48,1.59,0.34,2.21-1.44,2.53c-5.99,1.1-11.86,2.64-17.33,5.47c-1.33,0.69-2.73,0.03-4.1,0.06
		c-0.72,0.02-1.69-0.23-1.69,0.86c0,0.74,0.83,0.83,1.48,0.92c2.75,0.35,5.53,0.56,8.24,1.1c6.39,1.27,7.27,3.6,3.52,8.98
		c-0.42,0.6-0.99,1.1-1.49,1.65c-1.08,0.91-2.36,1.4-3.67,1.88c-6.82,2.5-13.43,5.44-19.66,9.21c-1.17,0.71-2.48,1.2-3.78,1.64
		c-2.79,0.92-5.7,0.69-8.56,0.87c-1.71,0.11-2.43-1.08-3.34-2.09c-9.64-10.57-19.28-21.15-28.93-31.71
		C506.03,605.46,500.58,600.2,494.9,595.18z"/>
	<path class="st2" d="M509.07,488.02c1.75-10.4,2.17-20.8-0.03-31.19c-1.16-5.45-3.24-10.55-6.75-15.83
		c6.31,1.72,11.58,3.98,16.8,6.33c6.92,3.12,13.56,6.75,20.06,10.71c14.83,9.03,19.13,22.96,18.36,39.19
		c-0.28,5.86-1.18,11.69-3.55,17.16c-1.09,0.82-2.04,0.11-2.98-0.33c-14.18-6.6-27.26-15.06-40.14-23.85
		C510.02,489.66,509.33,489.02,509.07,488.02z"/>
	<path class="st2" d="M311.35,453.4c-1.8-3.85-2.81-8.03-4.98-11.75c-5.35-9.15-12.61-16.38-21.5-22.05
		c-0.89-0.57-1.79-1.14-2.91-1.87c2.14-1.67,4.58-1.9,6.84-2.54c10.12-2.85,20.51-4.03,30.96-4.75c2.45-0.17,4.58,0.41,6.69,1.63
		c12,6.92,22.04,15.79,28.46,28.3c1.27,2.48,2.21,5.09,2.72,7.85c0.58,1.72-0.75,2.25-1.85,2.82c-1.52,0.79-3.21,1.12-4.9,1.33
		c-6.11,0.77-12.24,1.51-18.41,1.33c-5.65-0.17-11.22,1.02-16.87,0.67C314.12,454.29,312.59,454.48,311.35,453.4z"/>
	<path class="st3" d="M320.28,342.36c0.23,1.37,1.17,1.19,2.18,1.1c13.24-1.19,25.62,1.61,36.86,8.68
		c8.84,5.56,8.79,13.69,0.23,19.73c-4.38,3.09-9.26,4.04-14.51,3.99c-2.05-0.02-4.25-0.7-6.2,0.61c-5.24-2.87-10.59-5.45-16.19-7.57
		c-2.02-0.76-3.45-0.58-5.19,0.8c-7.35,5.84-14.72,11.69-23.62,15.14c-7.23,2.8-14.68,4.21-22.92,3.7c1.07-1.48,2.39-1.92,3.51-2.56
		c5.87-3.41,11.17-7.52,15.41-12.84c4.63-5.8,10.01-10.76,15.76-15.41c3.48-2.81,6.66-5.99,9.99-8.99
		C317.6,346.92,319.15,344.8,320.28,342.36z"/>
	<path class="st3" d="M413.95,541.3c-2.4-2.01-5.39-2.98-8.06-4.52c-5.46-3.16-10.41-7.02-15.41-10.82
		c-0.73-1.53,0.6-2.34,1.24-3.31c5.89-8.97,11.16-18.2,13.45-28.86c2.14-9.96,1.16-19.35-4.94-27.78c-5.33-7.38-9.1-8.47-17.7-6.81
		c-8.36,1.62-15.11,6.74-21.77,11.8c-3.16,2.4-5.9,5.24-8.73,8c-0.95,0.93-1.73,2.27-3.41,2.01c-3.41-4.73-7.28-9.12-10.32-14.12
		c3.27-0.49,6.55-0.9,9.8-1.49c10.51-1.91,19.09-7.33,26.11-15.15c8.1-9.01,7.44-20.39-1.46-28.46c-1.34-1.22-1.84-2.37-1.8-4.1
		c0.04-2.01-0.25-4.03-0.4-6.05c2.89,1.76,3.91,4.93,5.5,7.6c6.32,10.64,11.93,21.7,18.89,31.98c7.27,10.74,16.45,19.01,28.81,23.42
		c0.7,1.45-0.33,2.46-0.97,3.49c-6.1,9.86-8.85,20.6-9.2,32.17c-0.21,7.02-0.23,14.02,0.09,21.03c0.12,2.56,0.76,5.05,0.83,7.62
		C414.52,539.82,414.71,540.65,413.95,541.3z"/>
	<path class="st2" d="M538.53,414.25c-8.93-12.62-20.36-22.02-35.57-27.34c6.75-2.93,13.3-4.71,20-5.94
		c8.74-1.6,17.56-2.29,26.46-2.02c1.66,0.05,3.18,0.28,4.51,1.32c11.01,8.64,20.85,18.33,27.68,30.73
		c-0.46,2.08-2.27,1.94-3.77,2.23c-4.2,0.8-8.48,0.99-12.71,1.12c-7.66,0.24-15.3,0.9-22.96,0.89
		C540.86,415.23,539.64,414.96,538.53,414.25z"/>
	<path class="st4" d="M498.77,328.85c6.39,0.52,11.01,4.16,15.25,8.54c1.02,1.06,0.38,2.01,0.05,2.94
		c-4.52,12.45-10.98,23.8-19.4,34.04c-4.68,5.69-9.92,10.85-15.24,15.93c-1.2,1.15-1.8,1.39-2.79-0.3
		c-5.83-9.94-11.78-19.8-17.68-29.69c0.54-5.47,5.21-9.94,10.86-10.42c3.13-0.26,6.16,0.32,9.22,0.89
		c5.72,1.08,7.65,0.07,10.34-5.05c2.28-4.35,4.75-8.6,6.62-13.16C496.58,331.16,497.04,329.49,498.77,328.85z"/>
	<path class="st2" d="M489.09,326.87c-11.71,2.06-21.88,7.64-31.77,13.86c-0.72,0.45-1.42,0.95-2.14,1.41
		c-0.08,0.05-0.21,0.01-0.36,0.01c-0.73-0.8-0.06-1.56,0.14-2.31c4.3-15.65,12.32-29.24,23-41.33c2.91-3.29,7.13-3.63,11.06-4.43
		c7.74-1.58,15.46-1.74,23.05,0.94c1.1,1.07,0.37,2.22,0.01,3.25c-2.93,8.55-6.33,16.92-9.96,25.2c-1.02,2.32-2.42,3.42-5.12,3.22
		C494.39,326.5,491.71,326.3,489.09,326.87z"/>
	<path class="st3" d="M301.93,605.68c3.84-0.56,7.83,0.45,11.88,1.6c11.82,3.36,23.74,6.35,36.04,7.32c2.55,0.2,3.68,1.84,5.01,3.49
		c4.42,5.49,4.45,5.51,0.91,11.69c-0.9,1.57-1.87,3.14-3.07,4.48c-2.57,2.87-4.66,2.99-8.12,1.31c-10.86-5.26-21.62-6.65-31.94,1.35
		c-0.8,0.62-1.42,0.71-2.31,0.3c-3.43-1.58-6.65-3.32-8.63-6.82c-3.99-7.05-6.35-14.68-8.18-22.51c-0.41-1.74,0.2-2.32,1.92-2.25
		C297.47,605.75,299.5,605.68,301.93,605.68z"/>
	<path class="st3" d="M116.93,437.94c3.71,2.78,6.31,6.63,9.41,9.99c17.13,18.59,35.66,35.57,56.59,49.82
		c4.46,3.04,8.92,6.24,14.27,7.7c-2.73,4.7-5.62,9.32-8.12,14.14c-1.28,2.47-2.37,1.5-3.93,0.6c-21.28-12.24-37.86-29.35-51.3-49.67
		C127.07,460.26,121.35,449.43,116.93,437.94z"/>
	<path class="st4" d="M138.26,315.26c3.29,0.37,6.27-1.01,9.32-1.81c11.19-2.95,21.71-7.53,31.65-13.45
		c4.39-2.61,7.23-6.5,9.44-10.99c0.41-0.83,0.26-1.13-0.54-1.31c2.88-0.67,5.75-1.35,8.63-2c8.3-1.87,15.53-5.72,21.89-11.36
		c5.19-4.6,5.68-4.41,7.76,2.03c2.12,6.56,2.06,13.21,0.73,19.89c-0.72,3.62-1.56,7.22-2.34,10.83c-3.27-1.48-6.79-1.84-10.25-1.6
		c-4.95,0.34-9.93,0.7-14.74,2.12c-7.94-2.48-15.82-0.86-23.69,0.38c-6.24,0.98-11.95,3.78-17.96,5.58
		c-5.75,1.72-11.75,1.76-17.57,2.96C139.64,316.71,138.67,316.35,138.26,315.26z"/>
	<path class="st2" d="M469.2,457.87c2.41-7.75,6.46-14.38,13.14-19.22c1.27-0.92,2.57-1.5,4.16-1.2c3.67,0.7,7.32,1.45,11,2.1
		c1.77,0.32,2.71,1.53,3.61,2.89c6.8,10.3,8.14,21.84,7.6,33.77c-0.14,3.08-0.69,6.15-1.05,9.22c-1.28,2.12-2.63,0.69-3.7-0.1
		c-3.95-2.9-7.95-5.74-11.87-8.69c-6.81-5.14-13.66-10.22-20.46-15.37C470.49,460.42,468.96,459.75,469.2,457.87z"/>
	<path class="st2" d="M268.34,446.37c-3.34-1.27-6.1-3.44-8.51-5.98c-2.33-2.45-2.61-5.52-0.69-8.2
		c4.78-6.67,11.71-10.4,19.07-13.45c0.86-0.36,1.67-0.01,2.43,0.42c13.1,7.51,23.15,17.68,28,32.34c0.13,0.4,0.15,0.84,0.22,1.26
		c-2.1,1.57-4.57,1.06-6.82,0.85C290.54,452.54,279.15,450.77,268.34,446.37z"/>
	<path class="st5" d="M555.8,514.99c3.79-11.39,4.69-22.94,2.02-34.7c-0.95-4.2-3.01-7.92-4.67-12.12c2.27,1.92,4.6,3.78,6.81,5.77
		c10.79,9.7,18.57,21.69,25.77,34.1c2.09,3.59,4.58,6.97,5.88,10.99c0.66,2.05,1.27,4.11,0.15,6.21c-1.09,0.87-2.34,0.93-3.65,0.77
		c-10.37-1.29-20.21-4.42-29.78-8.51C557.23,517.02,555.8,516.66,555.8,514.99z"/>
	<path class="st4" d="M509.07,488.02c13.36,9.22,26.92,18.1,41.63,25.07c1.05,0.5,2.16,0.86,3.25,1.29
		c-1.21,4.43-3.51,8.18-6.99,11.21c-1.66,1.45-3.44,1.98-5.6,1.41c-15.88-4.18-30.12-11.55-43.28-22.04
		C505.39,501.49,506.94,494.57,509.07,488.02z"/>
	<path class="st2" d="M490.36,411.73c-2.99-3.78-5.16-8.08-7.8-12.07c-0.77-1.16-0.52-1.9,0.6-2.62c5.02-3.26,10.32-6.01,15.73-8.54
		c1.24-0.58,2.31-0.04,3.39,0.29c14.16,4.29,24.83,13.31,33.65,24.84c-0.13,1.53-1.4,1.43-2.37,1.51
		c-13.33,1.07-26.57,0.23-39.75-1.83C492.51,413.09,491.37,412.55,490.36,411.73z"/>
	<path class="st3" d="M407.08,674.84c2.45-0.01,4.91-0.21,7.33,0.02c2.54,0.25,4.18-0.75,5.68-2.66
		c5.52-7.04,12.26-12.64,20.3-16.61c0.17,1.36,1.05,2.07,2.28,2.34c8.11,1.77,16.36,2.25,24.44,0.63c4.19-0.84,7.56-4.2,11.06-6.8
		c3.96,2.85,4.5,7.21,5.1,11.54c-9.11,5.16-19.19,7.55-29.16,10.29c-5.83,1.6-11.69,2.15-17.72,1.97
		c-8.75-0.25-17.51-0.13-26.27-0.22C409.11,675.33,407.97,675.72,407.08,674.84z"/>
	<path class="st4" d="M469.2,457.87c3.53,4.06,8.22,6.67,12.4,9.91c7.3,5.67,14.78,11.1,22.26,16.52c1.02,0.74,2.01,2.57,3.8,1.13
		c-1.02,4.58-2.09,9.16-4.81,13.1c-0.72,1.04-1.54,2.07-2.5,2.9c-2.9,2.5-3.86,2.35-6.73-0.22c-8.52-7.65-15.97-16.29-23.6-24.8
		c-3.98-4.44-2.42-9.21-1.88-13.95C468.31,460.97,468.17,459.24,469.2,457.87z"/>
	<path class="st4" d="M363.93,405.15c-6.79-0.92-13.28-2.91-19.52-5.69c-11.55-5.13-22.43-11.3-31.72-20.05
		c-1.81-1.7-1.46-2.26,0.24-4.01c5.07-5.26,9.85-5.15,16.25-1.96c13.7,6.86,25.2,16.18,34.93,27.85c0.47,0.57,0.77,1.27,1.15,1.92
		C366.14,404.76,365.64,405.38,363.93,405.15z"/>
	<path class="st5" d="M498.77,328.85c-2.96,5.92-5.89,11.85-8.89,17.75c-2.66,5.23-5.14,6.34-10.91,5.13
		c-2.08-0.44-4.18-0.92-6.29-1c-6.94-0.25-10.18,1.89-12.96,8.23c-0.21,0.47-0.5,0.91-0.75,1.36c-1.89-2.96-3.85-5.88-5.65-8.9
		c-1.48-2.47-0.95-4.91,1.27-6.51c10.72-7.75,22.16-14.04,35.38-16.37C492.86,328.03,495.87,327.71,498.77,328.85z"/>
	<path class="st3" d="M224.75,269.23c7.07-3.45,13.51-0.26,16.79,8.41c3.04,8.04,1.94,16.1,0,24.17c-2.8,11.64-9.03,20.78-19.36,27
		c3.49-12.36,4.93-25.12,7.5-37.67c1.31-6.4-0.5-12.74-2.74-18.83C226.49,271.08,225.74,270.08,224.75,269.23z"/>
	<path class="st5" d="M583.54,410.94c-4.55-9.53-11.88-16.86-19.21-24.17c-2.38-2.37-4.99-4.51-8.09-7.29
		c7.13,0.44,13.34,1.67,19.47,3.29c7.76,2.05,15.27,4.76,22.09,9.11c2.27,1.45,4.31,3.16,6.03,5.21c1.85,2.21,2.37,4.52,0.15,6.85
		c-5.1,4.77-11.65,6.15-18.12,7.71C585.03,411.87,584.19,411.6,583.54,410.94z"/>
	<path class="st3" d="M277.39,604.14c14.64-3.27,28.89-8.14,43.7-10.66c6.12-1.04,12.33-1.05,18.53-0.84
		c3.34,6.75,6.87,13.4,11.22,20.16c-6.31-0.22-11.93-1.38-17.54-2.52c-6.91-1.41-13.78-3.05-20.49-5.21
		c-3.75-1.2-7.5-1.34-11.38-1.23C293.42,604.06,285.4,604.05,277.39,604.14z"/>
	<path class="st4" d="M490.36,411.73c10.46,2.31,21.14,2.37,31.75,3.02c4.63,0.29,9.27-0.03,13.82-1.13
		c2.65,3.61,3.73,7.78,4.39,12.12c0.3,1.98-0.39,2.63-2.39,2.62c-12.35-0.05-24.65-0.67-36.87-2.53c-1.29-0.2-2.26-0.67-2.91-1.69
		C495.52,420.03,492.95,415.87,490.36,411.73z"/>
	<path class="st5" d="M359.5,447.61c-4.94-16.81-16.95-27.68-31.04-36.96c15.24,0.43,29.98,2.35,42.59,11.93
		c0.2,0.57,0.02,1.12-0.4,1.45c-4.51,3.52-5.48,8.72-6.6,13.85c-0.5,2.3-0.72,4.68-1.66,6.85
		C361.83,446.01,361.53,447.74,359.5,447.61z"/>
	<path class="st4" d="M538.53,414.25c13.21-0.2,26.41-0.68,39.57-1.99c1.25-0.12,2.55-0.26,3.51-1.26c0.17,0.26,0.41,0.5,0.51,0.79
		c2.71,7.77,2.08,9.08-5.7,11.73c-7.4,2.52-15.01,3.85-22.83,4.31c-3.19,0.19-6.37,0.46-9.57,0.53c-1.65,0.04-2.33-0.55-2.24-2.23
		C542.01,421.82,540.49,417.97,538.53,414.25z"/>
	<path class="st4" d="M311.35,453.4c8.61-0.23,17.24-0.27,25.84-0.76c5.6-0.32,11.26-0.44,16.73-1.88c1.46-0.39,3.25-0.54,3.7-2.52
		c1.18,3.93,0.6,7.75-0.59,11.57c-0.43,1.36-1.53,1.61-2.63,2.03c-5.03,1.94-10.34,2.7-15.63,3.01c-8.1,0.48-16.21,0.33-24.24-1.2
		c-1.72-0.33-2.59-1-2.59-2.93C311.93,458.28,311.56,455.84,311.35,453.4z"/>
	<path class="st4" d="M489.09,326.87c2.76-1.2,5.65-0.49,8.48-0.51c1.43-0.01,2.4-0.26,3.03-1.67c4.31-9.7,8.54-19.43,11.48-29.67
		c1.26,0.56,2.62,0.97,3.77,1.72c3.31,2.16,5.86,4.61,5.43,9.26c-0.88,9.46-2.44,18.77-5.09,27.89c-0.27,0.93-0.49,2.7-1.9,1.14
		C507.41,327.46,498.58,326.19,489.09,326.87z"/>
	<path class="st4" d="M346.05,132.43c4.53,0.45,6.84-2.58,8.65-5.91c3.55-6.53,4.86-13.85,6.67-20.95
		c5.31-20.87,16.19-38.35,31.64-53.15c0.69-0.66,1.3-1.44,2.35-1.57c-4.52,6.84-9.16,13.61-13.54,20.54
		c-9.01,14.25-15.85,29.32-18.6,46.2c-1.94,11.95-8.7,21.52-17.7,30.53C346.02,142.39,347.54,137.43,346.05,132.43z"/>
	<path class="st3" d="M247.83,389.3c8.8,0.78,14.6-5.03,20.78-9.72c8.99-6.84,16.49-15.39,25.2-22.56
		c6.96-5.73,14.35-10.65,23.29-12.75c-2.83,3.78-6.33,6.93-9.97,9.87c-7.42,5.98-14,12.74-20.46,19.75
		c-9.05,9.81-19.86,16.88-34.14,16.01C250.95,389.8,249.32,390.1,247.83,389.3z"/>
	<path class="st6" d="M174.08,649.13c-2.58-1.16-2.25-2.44-0.41-4.19c8.22-7.83,23.61-8.17,32-0.62c3.09,2.78,3.46,4.56,1.71,8.04
		c-1.53,1.22-3.25,1.99-5.23,2.12C192.33,655.14,182.85,654.02,174.08,649.13z"/>
	<path class="st4" d="M359.5,447.61c3.28-2.74,2.95-6.83,3.78-10.44c0.76-3.31,1.86-6.47,3.06-9.63c0.9-2.36,3.36-3.11,4.71-4.96
		c8.58,7.22,9.4,17.74,1.93,26.51c-3.2,3.76-7.18,6.65-11.33,9.29c-0.51,0.32-1.11,0.87-1.74,0.47c-0.62-0.39-0.51-1.2-0.32-1.75
		C360.68,453.91,359.75,450.77,359.5,447.61z"/>
	<path class="st4" d="M246.52,215.21c8.83-4.49,17.67-8.95,26.47-13.49c8.15-4.21,16.32-8.42,23.57-14.1
		c3.77-2.95,7.56-6.01,9.25-10.78c0.72-2.04,1.22-4.13-2.18-4.02c7.82-0.92,15.26-3.3,22.69-6.05c-2.5,4.23-6,7.47-9.64,10.46
		c-11.79,9.7-24.18,18.57-37.68,25.78C268.72,208.5,257.95,212.76,246.52,215.21z"/>
	<path class="st5" d="M199.8,307.6c1.69-2.28,4.41-1.96,6.67-2.29c5.45-0.79,10.97-1,16.49-0.24c1.42,0.2,1.8,0.81,1.83,2.01
		c-1.22,6.8-1.82,13.74-4.09,20.31c-1.39,4.04-3.63,4.36-6.3,1.02c-2.23-2.79-3.27-6.19-4.66-9.42
		C207.65,314.15,205.37,309.43,199.8,307.6z"/>
	<path class="st4" d="M555.8,514.99c6.96,4.24,14.76,6.27,22.52,8.28c4.38,1.14,8.84,2.16,13.44,1.97
		c-2.52,4.35-7.15,4.55-11.2,4.96c-11.11,1.13-22.21,0.51-33.78-1.98C551.36,524.54,554.05,520.06,555.8,514.99z"/>
	<path class="st5" d="M512.18,293.07c-9.69-2.92-19.35-2.14-29.1,0.25c7.22-7.34,14.73-14.22,24.47-17.95
		c2.87-1.1,6.11-1.45,8.39,1.67c0.75,0.63,0.79,1.48,0.71,2.35c-0.36,3.85-1.18,7.61-2.25,11.31
		C514.08,291.77,513.7,293.01,512.18,293.07z"/>
	<path class="st6" d="M447.94,656.95c-1.82,0.04-3.58-0.21-5.29-1.02c0.34-1.79,1.44-3.13,2.5-4.43
		c6.72-8.22,15.39-13.01,25.94-14.07c3.97-0.4,7.94,0.04,10.34,4.04c0.57,1.21,0.43,2.06-1.12,2.2c-6.72,0.59-12.25,4.08-17.85,7.38
		c-3.31,1.95-6.81,3.54-10.24,5.23C450.92,656.93,449.49,657.49,447.94,656.95z"/>
	<path class="st6" d="M333.78,645.21c-2.99-0.02-6.71-0.38-10.78-1.62c-1.07-0.33-4.76-1.46-7.03-2.89
		c-1.12-0.71-1.9-1.49-1.84-2.29c0.06-0.91,1.18-1.52,3.06-2.48c9.61-4.91,18.8-2.94,27.73,1.9c3.1,1.68,2.55,3.44,2.49,3.72
		c-0.33,1.51-2.94,2.13-5.66,2.78C339.82,644.78,337.12,645.23,333.78,645.21z"/>
	<path class="st7" d="M584.79,624.76c-0.49-4.9-4.63-5.15-8.65-6.4c1.1-0.53,1.75-0.93,2.46-1.17c8.11-2.67,16.3-4.87,24.97-4.05
		c2.19,0.21,4.45,0.42,6.24,1.97c0.59,1.48-0.3,2.52-1.26,3.32c-6.49,5.38-14.23,6.88-22.37,7.06
		C585.66,625.49,585.2,625.12,584.79,624.76z"/>
	<path class="st4" d="M268.34,446.37c3.35,0.08,6.4,1.47,9.6,2.23c10.18,2.42,20.39,4.49,30.93,4.16c0.78,2.32,1.13,4.7,1.23,7.14
		c0.1,2.29-0.68,2.66-2.86,2.12c-9.43-2.36-18.48-5.78-27.37-9.65C275.9,450.64,271.7,449.3,268.34,446.37z"/>
	<path class="st8" d="M447.94,656.95c6.7-1.99,12.48-5.84,18.51-9.16c4.38-2.41,8.8-4.78,13.96-4.83c1.4-0.02,0.73-0.98,1.03-1.49
		c1.39,1.9,0.35,3.64-0.8,4.91c-5.37,5.95-11.14,11.3-19.95,11.15C456.44,657.45,452.16,657.85,447.94,656.95z"/>
	<path class="st9" d="M551.99,643.99c8.32-5.77,17.38-9.98,27.11-12.73c-0.72,1.87-2.4,2.95-3.6,4.42c-0.36,0.43-0.62,0.91-0.2,1.42
		c0.49,0.58,1.07,0.21,1.35-0.17c1.34-1.84,3.29-1.61,5.2-1.74c6.86-0.46,12.94-3.36,18.97-6.35c1.58,1.06,1.34,2.93,1.96,4.42
		c-2.85,0.93-5.82,1.15-8.77,1.4c-11.57,0.99-22.4,5.11-33.57,7.78C557.66,643.1,554.9,644,551.99,643.99z"/>
	<path class="st10" d="M584.79,624.76c7.79-0.07,15.26-1.39,21.87-5.84c1.39-0.93,2.9-1.88,3.15-3.81c1.4,1.02,0.74,2.26,0.3,3.4
		c-0.54,1.41-1.47,2.61-2.63,3.57c-7.83,6.44-16.78,10.26-27.56,11.78C582.13,630.64,584.14,628.02,584.79,624.76z"/>
	<path class="st4" d="M583.54,410.94c6.69-0.42,12.69-2.91,18.47-6.09c0.64-0.35,1.16-0.94,1.98-0.9
		c-2.75,6.02-7.98,9.53-13.23,13.01c-0.53,0.35-1.15,0.58-1.69,0.93c-2.23,1.43-3.99,2.05-4.06-1.76
		C584.98,414.33,584.35,412.58,583.54,410.94z"/>
	<path class="st11" d="M512.18,293.07c2.4-3.18,2.25-7.12,3.19-10.74c0.44-1.7,0.4-3.53,0.57-5.3c3.29,2.48,3.56,6.39,4.33,9.9
		c0.8,3.6,1.34,7.32,0.76,11.67C518.39,295.89,515.39,294.29,512.18,293.07z"/>
	<path class="st12" d="M174.08,649.13c5.21,0.95,9.96,3.52,15.33,4.06c6.06,0.61,12.05,0.97,17.97-0.83
		c-2.53,4.44-7.1,4.79-11.33,5.06C187.59,657.96,180.36,654.67,174.08,649.13z"/>
	<path class="st13" d="M483.27,663.29c-0.29-0.11-0.84-0.22-0.84-0.35c-0.1-4.24-2.09-7.75-4.26-11.2c4.12-0.66,7.6,1.04,10.9,3.14
		c1.57,1,0.92,2.42,0.07,3.62C487.63,660.65,485.57,662.12,483.27,663.29z"/>
	<path class="st14" d="M602.78,633.25c-2.18-0.8-1.08-3.05-1.96-4.42c2.05-0.94,3.64-3,6.33-2.41c1.6,0.35,2.91,1.07,3.15,2.69
		c0.23,1.54-1.24,2.09-2.36,2.62C606.31,632.5,604.6,633.07,602.78,633.25z"/>
	<path class="st15" d="M304.92,296.87c3.25,5.28,6.84,10.37,8.63,16.41c3.04,5.37,2.9,6.56-0.74,11.15c-2.73,3.45-5.83,6.54-9,9.56
		c-0.79,0.75-1.73,1.41-2.88,0.95c-1.2-0.48-1.26-1.68-1.24-2.74c0.19-8.28-3.41-15.34-7.17-22.33
		c-6.8-12.67-16.95-20.08-19.26-21.38c-2.33-1.31-4.38-2.15-5.78-2.67c-0.07-0.77-0.08-1.94,0.3-3.25c1.16-4.02,4.92-5.83,5.76-6.2
		c3.89-1.73,8.77-0.76,12.55,2.36c2.29,1.34,4.88,3.07,7.54,5.31C299.14,288.68,302.66,293.2,304.92,296.87z"/>
	<path class="st16" d="M413.95,541.3c-2.06-15.39-2.46-30.75,0.65-46.06c1.53-7.53,5.41-14.05,9.17-20.61
		c8.27-9.63,22.05-9.69,30.6-0.15c0.64,0.71,1.28,1.43,1.92,2.14c9.71,12.61,13.83,27.26,15.47,42.78
		c0.86,8.07,1.34,16.18,1.35,24.3c0.02,15.96-4.47,30.73-12.17,44.6c-1.4,2.53-3.3,4.69-5.21,6.85c-5.66,4.52-9.78,4.54-15.41-0.13
		c-5.25-4.35-9.16-9.81-12.4-15.75C421.38,567.31,416.4,554.77,413.95,541.3z"/>
	<path class="st17" d="M304.92,296.87c-1.23,0.22-1.61-0.77-2.16-1.51c-0.84-1.14-1.8-2.2-2.59-3.37
		c-1.5-2.2-15.88-18.64-25.45-15.2c-3.66,1.31-6.16,5.37-6.63,6.85c-0.08,0.24-0.15,0.57-0.07,0.95c0.36,1.81,3.68,2.43,4.22,2.53
		c18.22,10.65,25.96,27.66,29.21,47.8c4.8-4.2,9.34-8.78,13.11-14.1c0.77-1.08,0.26-1.99,0.05-3.02c-0.3-1.52-1.64-2.79-1.05-4.52
		c2.35,0.99,4.12,6.08,2.65,8.16c-6.84,9.63-15.43,17.37-25.55,23.44c-0.96,0.58-1.68,0.6-2.51-0.27
		c-14.11-14.7-23.79-31.47-24.45-52.42c-0.15-4.71,1.27-9.08,3.92-12.99c3.33-4.93,7.79-6.44,13.36-4.39
		c10.5,3.88,17.6,11.79,23.94,20.54C305.24,295.84,305.18,296.36,304.92,296.87z"/>
	<path class="st18" d="M260.21,271.2c0.92,0.62,0.49,1.43,0.22,2.19c-3.01,8.68-2.61,17.41-0.35,26.14c0.67,2.57,1.72,5.03,2.6,7.54
		c0.23,0.66,0.96,1.42,0.04,1.96c-0.96,0.57-1.27-0.38-1.55-1.04c-4.83-11.35-6.31-22.95-2.51-34.92
		C258.91,272.32,259.02,271.37,260.21,271.2z"/>
	<path class="st19" d="M348.63,481.01c7.23-7.31,14.85-14.12,24.03-18.94c4.37-2.3,8.86-4.19,13.91-4.44
		c5.44-0.27,9.73,1.75,13.08,6.03c7.07,9.06,8.76,19.22,6.38,30.25c-2.06,9.54-6.48,18.03-11.69,26.17
		c-1.26,1.97-2.57,3.92-3.86,5.88c-9.51,12.95-20.49,24.66-31.17,36.61c-5.21,5.83-10.79,11.28-17.42,15.55
		c-3.71,2.39-7.63,4.3-11.99,5.18c-7.04,1.43-11.87-1.35-14.16-8.21c-2.15-6.47-1.68-13.1-1.08-19.71c0.73-7.99,2.03-15.9,3.95-23.7
		c3.4-13.82,9.37-26.34,18.65-37.21C341.08,490.01,344.84,485.5,348.63,481.01z"/>
	<path class="st2" d="M454.48,541.97c-8.21,4.92-15.53,10.91-21.85,18.12c-2.76,3.15-4.76,6.79-6.73,11.07
		c-2.69-4.96-4.47-9.81-6.19-14.67c-2.74-7.79-4.38-15.82-5.05-24.05c-0.1-1.27-0.3-2.58,0.25-3.8
		c7.01-15.44,17.11-27.97,33.1-34.89c2.03,0.5,1.93,2.37,2.23,3.8c1.8,8.54,2.9,17.19,3.87,25.86c0.52,4.65,1.16,9.28,1.3,13.96
		C455.47,538.97,455.45,540.57,454.48,541.97z"/>
	<path class="st2" d="M453.92,594.01c-3.41,3.39-6.96,3.66-11.14,0.66c-5.68-4.07-9.26-9.89-13.08-15.58
		c-2.67-3.98-2.58-7.39-0.18-11.39c6-9.99,14.74-17,24.3-23.2c2.11-0.63,2.05,1.1,2.16,2.22c1.11,10.75,1.08,21.52,0.45,32.29
		c-0.18,3.08-0.3,6.17-0.76,9.25C455.38,590.31,454.98,592.24,453.92,594.01z"/>
	<path class="st5" d="M447.93,491.77c-15.48,6.28-25.2,18.5-33.76,33.24c0-4.06-0.06-7.28,0.01-10.5
		c0.29-12.43,2.5-24.25,8.84-35.31c4.06-7.08,9.19-10.61,17.28-9.68c1.27,0.47,2.09,1.41,2.61,2.62c2.45,5.67,4.1,11.58,5.43,17.59
		C448.5,490.44,448.65,491.21,447.93,491.77z"/>
	<path class="st4" d="M454.48,541.97c0.11-10.38-1.57-20.59-2.91-30.82c-0.7-5.38-1.45-10.76-2.87-16.01
		c-0.13-0.49-0.44-0.93-0.67-1.39c3.34-1.48,6.93-1.9,10.48-2.38c2.88-0.39,4.89,0.47,6.04,3.7c2.79,7.86,4.55,15.91,5.32,24.18
		c0.51,5.49,0.83,11.01,1.29,16.51c0.15,1.8-0.54,2.46-2.36,2.41C463.66,538.01,458.95,539.57,454.48,541.97z"/>
	<path class="st4" d="M453.92,594.01c1.97-12.66,2.04-25.41,1.78-38.18c-0.07-3.29-0.41-6.57-0.58-9.86
		c-0.05-0.89-0.39-1.4-1.3-1.47c4.47-2.94,9.35-4.48,14.73-4.5c1.85-0.01,2.64,0.45,2.68,2.5c0.3,16.91-4.4,32.4-13.04,46.8
		C457.08,591.15,455.66,592.73,453.92,594.01z"/>
	<path class="st4" d="M447.93,491.77c-1.27-6.2-2.97-12.27-5.25-18.17c-0.57-1.47-1.23-2.92-2.37-4.08
		c7.16-0.57,11.23,4.02,15.1,8.99c2.23,2.86,3.99,6.02,5.85,9.12c1.12,1.86,0.54,2.44-1.45,2.29
		C455.71,489.61,451.77,490.42,447.93,491.77z"/>
	<path class="st20" d="M266.84,304.03c-1.22-4.69-1.34-9.45-1.18-14.26c0.08-2.3,0.93-2.62,2.97-1.96
		c5.56,1.78,10.11,5.02,13.97,9.3c3,3.34,5.73,6.88,7.63,10.99c1.74,6.13,1.14,12.26-0.07,18.38c-0.19,0.94-0.48,1.88-1.37,2.44
		c-2.88-5.58-6.11-10.9-11.31-14.7c2.29-4.61,1.8-8.72-2.15-12.23c-3.1-2.75-5.44-2.38-7.58,1.26
		C267.53,303.62,267.32,303.98,266.84,304.03z"/>
	<path class="st21" d="M288.78,328.93c1.69-6.86,1.43-13.85,1.45-20.83c4.97,7.86,8.64,16.15,8.84,25.68
		c0.05,2.28-0.6,3.87-2.57,5.04c-1.83,1.09-3.6,2.3-5.3,3.58c-1.38,1.03-2.21,0.43-3.27-0.56c-1.33-1.25-0.14-1.78,0.48-2.54
		C291.13,335.93,289.68,332.42,288.78,328.93z"/>
	<path class="st15" d="M266.84,304.03c0.89-4.65,4.76-6.21,8.46-3.38c4.47,3.41,6.25,10.59,2.17,13.58
		c-1.41-0.38-2.84-1.28-4.28-0.85c-3.09,0.92-4.03-0.79-4.64-3.27C268.05,308.07,267.42,306.06,266.84,304.03z"/>
	<path class="st2" d="M349.82,538.01c-11.51,1.19-22.45,4.11-32.57,10.89c1.26-10.56,3.65-20.43,7.3-30
		c3.16-8.28,7.85-15.65,13.42-22.49c0.68-0.83,1.33-1.66,2.48-1.91c15.29-3.36,30.62-4.47,46.02-0.71c0.82,1.2,0.11,2.29-0.35,3.32
		c-6.03,13.62-13.38,26.5-21.65,38.87c-0.94,1.41-2.17,1.81-3.81,1.83C357.06,537.85,353.43,537.5,349.82,538.01z"/>
	<path class="st2" d="M387.71,491.88c-9.79-2.03-19.69-2.41-29.63-1.85c-5.39,0.3-10.72,1.25-16.66,2.33
		c10.79-13.27,22.03-24.98,37.72-31.29c5.41-2.17,10.96-3.02,16.19,0.75c1.02,1.62,1.1,3.42,0.91,5.23
		c-0.82,8.07-3.54,15.58-6.9,22.89C388.98,490.74,388.48,491.43,387.71,491.88z"/>
	<path class="st2" d="M319.11,577.86c-3.73-5.86-2.83-12.41-3.12-18.89c-0.33-7.11,3.72-10.32,9.34-12.74
		c8.07-3.48,16.36-5.9,25.25-6.29c2.95-0.13,5.9-0.51,8.87-0.44c2.2,1.27,0.65,2.61-0.09,3.68c-2.78,4.04-5.7,8.04-9.04,11.61
		c-7.78,8.32-15.25,17.08-25.8,22.18C322.85,577.78,321.13,578.92,319.11,577.86z"/>
	<path class="st4" d="M349.82,538.01c3.32-1.14,6.74-0.38,10.11-0.5c1.42-0.05,2.59-0.05,3.55-1.49
		c8.8-13.23,16.67-26.96,22.9-41.59c0.08-0.19,0.07-0.42,0.1-0.63c4.71,0.81,8.88,2.85,12.75,5.57c1.98,1.39,2.51,2.91,1.43,5.38
		c-4.58,10.43-11.02,19.65-18.05,28.5c-2.18,2.75-4.03,6.22-6.9,7.83c-2.99,1.68-6.05-1.86-9.33-2.45
		C360.86,537.65,355.33,538.49,349.82,538.01z"/>
	<path class="st4" d="M319.11,577.86c7.2-1.19,12.45-5.79,17.61-10.35c8.23-7.28,15.45-15.51,21.8-24.49
		c0.67-0.95,2.39-1.9,0.93-3.53c4.25,0.31,8.38,1.17,12.31,2.87c1.62,0.7,2.2,1.42,0.7,2.99c-7.14,7.45-13.42,15.71-20.96,22.77
		c-6.22,5.83-12.74,11.38-21.43,13.27C325.79,582.33,321.76,582.13,319.11,577.86z"/>
	<path class="st4" d="M387.71,491.88c2.32-6.17,5.31-12.09,6.6-18.64c0.74-3.78,1.38-7.54,1.02-11.41
		c10.64,10.17,11.65,22.47,7.88,35.81c-0.27,0.96-0.4,2.49-1.96,1.09C397.35,495.22,392.48,493.65,387.71,491.88z"/>
	<path class="st12" d="M321.85,639.72c3.71-0.01,5.94-0.02,8.68,0.26c2.25,0.22,5.42,0.7,9.19,1.79c2.16,0.38,4.33,0.75,6.49,1.13
		c-0.83,0.35-1.67,0.69-2.5,1.04c-3.04,0.83-8,1.78-14.08,1.13c-5.44-0.59-9.69-2.24-12.4-3.54c-0.78-0.54-1.56-1.08-2.33-1.62
		C316.57,639.81,318.97,639.73,321.85,639.72z"/>
</g>
</svg>
