<?xml version="1.0" encoding="utf-8"?>
<!-- Generator: Adobe Illustrator 24.3.0, SVG Export Plug-In . SVG Version: 6.00 Build 0)  -->
<svg version="1.1" id="Layer_1" xmlns="http://www.w3.org/2000/svg" xmlns:xlink="http://www.w3.org/1999/xlink" x="0px" y="0px"
	 viewBox="0 0 720 720" style="enable-background:new 0 0 720 720;" xml:space="preserve">
<style type="text/css">
	.st0{fill-rule:evenodd;clip-rule:evenodd;fill:#211715;}
	.st1{fill-rule:evenodd;clip-rule:evenodd;fill:#884B8B;}
	.st2{fill-rule:evenodd;clip-rule:evenodd;fill:#B983B7;}
	.st3{fill-rule:evenodd;clip-rule:evenodd;fill:#221E1C;}
	.st4{fill-rule:evenodd;clip-rule:evenodd;fill:#EFD7E7;}
	.st5{fill-rule:evenodd;clip-rule:evenodd;fill:#894B8B;}
	.st6{fill-rule:evenodd;clip-rule:evenodd;fill:#AE233A;}
	.st7{fill-rule:evenodd;clip-rule:evenodd;fill:#D1A02A;}
	.st8{fill-rule:evenodd;clip-rule:evenodd;fill:#DD807D;}
	.st9{fill-rule:evenodd;clip-rule:evenodd;fill:#922933;}
	.st10{fill-rule:evenodd;clip-rule:evenodd;fill:#56262E;}
	.st11{fill-rule:evenodd;clip-rule:evenodd;fill:#B64C4F;}
	.st12{fill-rule:evenodd;clip-rule:evenodd;fill:#56252E;}
	.st13{fill-rule:evenodd;clip-rule:evenodd;fill:#FBFCFC;}
	.st14{fill-rule:evenodd;clip-rule:evenodd;fill:#FAFBFC;}
	.st15{fill-rule:evenodd;clip-rule:evenodd;fill:#F7F8F8;}
	.st16{fill-rule:evenodd;clip-rule:evenodd;fill:#F0EEEE;}
	.st17{fill-rule:evenodd;clip-rule:evenodd;fill:#EDECEC;}
	.st18{fill-rule:evenodd;clip-rule:evenodd;fill:#201614;}
	.st19{fill-rule:evenodd;clip-rule:evenodd;fill:#221715;}
	.st20{fill-rule:evenodd;clip-rule:evenodd;fill:#2C1E1E;}
	.st21{fill-rule:evenodd;clip-rule:evenodd;fill:#2D2022;}
	.st22{fill-rule:evenodd;clip-rule:evenodd;fill:#352428;}
	.st23{fill-rule:evenodd;clip-rule:evenodd;fill:#332327;}
	.st24{fill-rule:evenodd;clip-rule:evenodd;fill:#39282D;}
	.st25{fill-rule:evenodd;clip-rule:evenodd;fill:#AB2339;}
	.st26{fill-rule:evenodd;clip-rule:evenodd;fill:#AA2239;}
	.st27{fill-rule:evenodd;clip-rule:evenodd;fill:#46434E;}
	.st28{fill-rule:evenodd;clip-rule:evenodd;fill:#FFFFFF;}
	.st29{fill-rule:evenodd;clip-rule:evenodd;fill:#D3D4D3;}
	.st30{fill-rule:evenodd;clip-rule:evenodd;fill:#F9F9FA;}
	.st31{fill-rule:evenodd;clip-rule:evenodd;fill:#231713;}
</style>
<g>
	<path class="st0" d="M230.56,299.6c-0.4,2.16-0.67,3.58-0.93,5c-0.11,0.59-0.14,1.39-0.84,1.42c-0.8,0.03-1.11-0.7-1.23-1.44
		c-0.38-2.5-0.64-5.01-0.47-7.53c0.09-1.38-0.29-2.49-1.02-3.64c-7.77-12.33-15.95-24.42-22.29-37.6
		c-8.17-17-13.4-34.65-13.72-53.75c-0.57-33.68,14.93-59.17,39.77-80.05c8.74-7.35,18.42-13.32,28.71-18.28
		c0.73-0.35,1.34-0.76,1.87-1.35c18.72-20.95,41.83-35.06,68.07-44.66c15.09-5.52,30.49-8.65,46.48-9.36
		c11.03-0.49,22.04-0.89,33.05,0.44c14.26,1.72,27.71,6.21,40.87,11.72c16.62,6.95,31.05,17.28,44.34,29.26
		c5.62,5.06,12.07,8.74,18.66,12.26c13.39,7.15,27.24,13.51,39.86,22c21.19,14.25,41.1,30.04,57.38,49.95
		c18.65,22.82,30.02,48.91,35.11,77.88c2.67,15.19,3.99,30.4,3.71,45.86c-0.53,29.28-12.09,53.67-31.98,74.45
		c-14.15,14.79-30,27.49-47.19,38.78c-19.04,12.51-39.04,23.32-58.34,35.33c-14.05,8.74-27.5,18.25-38.88,30.41
		c-0.65,0.7-1.25,1.44-1.85,2.18c-0.09,0.11-0.07,0.33-0.12,0.62c10.09-1.52,20.23-1.92,30.36-2.27
		c37.24-1.27,70.96,8.52,99.84,32.59c12.06,10.05,21.47,22.59,26.6,37.39c7.68,22.18,6.03,43.85-8.1,63.43
		c-10.88,15.09-25,26.52-41.82,34.38c-22.19,10.36-45.35,17.83-69.57,21.63c-25.2,3.95-50.57,5.43-76.1,4.35
		c-22.77-0.96-45.4-2.67-67.58-8.33c-22.8-5.82-43.77-15.52-62.9-29.16c-7.96-5.68-14.97-12.46-20.72-20.39
		c-1.44-1.98-2.81-2.29-4.95-2.02c-10.09,1.25-20.23,1.9-30.37,2.48c-17.39,0.99-34.74,0.04-52.08-1.12
		c-18.52-1.24-36.69-4.56-54.32-10.38c-19.4-6.4-36.8-16.36-51.15-31.05c-10.27-10.51-15.88-23-14.55-38.14
		c0.81-9.2,4.63-17.19,9.18-24.92c7.09-12.03,16.2-22.55,25.33-33.03c7.27-8.35,13.66-17.24,18.83-27.08
		c4.91-9.33,3.91-24.97-6.73-32.99c-3.74-2.82-7.28-5.91-10.6-9.24c-3.94-3.95-3.4-7.23,1.6-9.78c12.33-6.27,29.67-3.85,40.16,5.82
		c6.67,6.15,12.37,13.05,13.73,22.43c1.07,7.39,0.18,14.7-1.57,21.94c-2.2,9.05-6.99,16.96-10.98,25.23
		c-3.95,8.2-8.4,16.18-11.37,24.82c-2.34,6.8-3.93,13.8-2.63,20.97c1.98,10.92,10.24,18.6,21.95,20.38
		c21.35,3.24,41.83,0.15,61.41-9c12.5-5.84,24.25-13.14,36.91-18.67c5.49-2.4,10.95-4.83,16.76-6.34c0.92-0.24,1.69-0.54,2.09-1.65
		c9.3-25.87,21.05-50.78,30.5-76.59c5.05-13.8,5.03-27.57-2.69-40.67c-4.33-7.35-9.2-14.34-15.06-20.56
		c-12.09-12.84-24.33-25.54-36.46-38.35C244.92,317.51,237.56,309.18,230.56,299.6z"/>
	<path class="st1" d="M462.21,112.41c8.24,0.51,16.35,1.82,24.35,3.87c-7.33-4.24-15.47-5-23.68-5.39
		c-4.07-0.36-8.13-0.38-12.19,0.01c-14.4,0.35-27.39,4.43-38.84,13.53c-8.54,6.79-13.14,15.56-15.31,25.96
		c-0.93,4.46-2.11,8.87-3.09,13.32c-0.76,3.46-2.78,5.86-6.13,6.74c-11.17,2.93-17.38,11.29-23.03,20.43
		c-6.77,10.95-10.04,23.27-14.11,35.28c-1.72,5.07-3.38,10.15-5.91,14.91c-4.17,7.83-10.25,12.8-19.37,13.81
		c-7.23,0.8-14.33,0.86-21.29-1.53c-4-1.37-7.22-3.76-9.41-7.41c-0.94-1.57-1.66-3.24-1.26-5.62c0.94,2.35,1.68,4.34,3.12,5.99
		c3.05,3.52,7.01,4.93,11.47,5.38c15,1.53,25.05-3.99,31.75-17.5c4.12-8.3,6.55-17.13,8.25-26.2c2.15-11.49,5.86-22.46,11.25-32.85
		c0.48-0.92,1.09-1.46,2.03-1.85c2.32-0.96,4.61-2.02,6.89-3.07c1.79-0.82,2.87-2.18,3.08-4.19c0.5-4.71,0.07-9.35-0.62-13.98
		c-0.22,0-0.44,0.01-0.67,0.01c-0.17,3.92-0.58,7.85-0.45,11.76c0.1,2.94-1.09,4.49-3.65,5.52c-9.74,3.91-19.47,7.83-29.16,11.87
		c-14.61,6.09-28.64,13.32-42.01,21.8c-4.02,2.55-8.25,2.31-12.54,1.39c-2.27-0.48-4.52-1.27-6.66-2.21
		c-9.03-3.95-18.56-4.82-28.26-4.79c-5.34,0.01-10.48-3.7-12.35-8.77c1.14-0.27,1.74,0.61,2.44,1.2c3.4,2.87,7.07,3.72,11.7,3.7
		c9.64-0.04,19.52-0.49,28.58,4.17c2.2,1.13,4.55,0.89,6.8-0.18c11.26-5.37,21.92-11.69,31.45-19.8c0.8-0.68,1.54-1.41,2.27-2.15
		c2.68-2.72,2.77-3.18,1.2-6.34c4.5-1.21,9.05-2.26,13.47-3.79c7.24-2.5,14.23-5.46,20.53-9.92c2.03-1.43,2.99-3.06,2.9-5.63
		c-0.23-6.25-1.09-12.43-1.94-18.6c-0.3-2.16-0.69-4.13,1.5-5.53c0.5-0.32,0.33-0.94,0.38-1.44c7.24-6.92,14.81-13.37,24.31-17.09
		c2.92-1.14,5.92-1.68,8.91-0.58c9.48,3.5,18.9,2.04,28.18-0.5c12.31-3.37,24.76-5.35,37.53-5.27c5.9,0.03,11.79-0.2,17.67,0.73
		c12.06,1.9,22.99,6.77,33.43,12.73c19.44,11.11,37.46,24.29,54.35,38.96c22.62,19.66,41.47,42.58,56.2,68.6
		c12.15,21.47,19.95,44.64,23.57,69.19c1.57,10.65,1.43,21.29,1.37,31.96c-0.01,2.31-0.25,4.68-1.15,6.89
		c-0.26,0.65-0.44,1.32-0.1,2.01c-5.56,13.51-13.1,25.8-23.03,36.55c-16.07,17.39-34.61,31.66-54.52,44.46
		c-15.57,10.01-31.77,18.89-47.56,28.49c-15.77,9.58-31.05,19.76-43.86,33.23c-0.1,0.1-0.31,0.09-0.48,0.12
		c-1.11-0.47-1.06-1.49-1.12-2.42c-1.18-18.17-6.41-35.29-14.02-51.66c-3.76-8.09-8.55-15.67-14.83-22.19
		c-1.43-1.49-3.1-2.07-4.85-2.74c-0.09-1.52,1.14-1.23,1.94-1.31c15.98-1.71,31.44-5.62,46.6-10.81
		c12.36-4.24,23.79-10.22,33.88-18.54c15.98-13.18,25.76-30.09,29.36-50.47c1.56-8.81,2.39-17.72,2.18-26.69
		c-0.03-1.18,0.34-2.89-0.85-3.31c-1.34-0.48-1.85,1.28-2.51,2.19c-7.19,10-16.59,17.69-26.17,25.22
		c-14.18,11.14-29.97,19.16-47.09,24.61c-7.63,2.43-15.47,3.84-23.49,4.48c-7.84,0.62-15.66,0.95-23.33-0.75
		c-14.29-3.17-27.44-8.89-38.09-19.27c-4.17-4.07-7.45-8.93-10.64-13.81c-1.72-2.63-1.92-2.58-4.41-0.81
		c-10.46,7.42-21.77,12.41-34.81,13.27c-11.42,0.75-22.74,0.81-33.89-2.03c-7.35-1.87-14.39-4.65-20.89-8.61
		c-4.33-2.64-7.88-6.24-11.53-9.71c-0.79-0.74-1.35-1.84-2.64-1.98c-0.62,1.07-0.1,2.07,0.13,3.04c2.96,12.55,9.67,23.1,17.36,33.22
		c12.24,16.11,27.48,28.6,45.03,38.47c3.63,2.04,7.18,4.23,10.74,6.41c0.95,0.58,2.02,1.04,2.55,2.14c0.13,1.73-1.33,2.06-2.42,2.63
		c-8.92,4.7-16.96,10.56-24,17.79c-1.73,1.67-3.1,3.64-4.58,5.52c-0.52,0.66-0.78,1.83-2.07,1.44c0.45-12.34-4.57-22.72-11.45-32.5
		c-5.01-7.13-10.76-13.59-16.76-19.89c-13.83-14.52-28.09-28.65-41.19-43.85c-3.68-4.27-7.06-8.8-10.59-13.2
		c-0.51-0.63-0.96-1.19-0.61-2.09c2-5.18,3.76-10.48,7.8-14.56c2.79-2.81,4.29-2.59,6.2,0.8c4.14,7.36,4.61,15.33,3.8,23.49
		c-0.08,0.86-0.26,1.71-0.37,2.57c-0.08,0.62-0.7,1.46,0.32,1.76c0.8,0.24,1.17-0.58,1.57-1.13c5.75-8.09,6.6-17,3.98-26.28
		c-1.57-5.57-2.65-11.12-2.17-16.92c0.14-1.73,0.45-3.38,1.4-5.33c2.48,5.12,5.72,9.34,9.02,13.55c7.74,9.89,17.32,17.6,27.97,24.09
		c6.85,4.17,14.18,7.12,22.05,8.68c1.72,0.34,3.45,0.29,5.18,0.26c2.51,0.36,5.02,0.36,7.52,0c16.23,0.32,30.52-12.24,32.29-28.19
		c1.54-13.87-1.49-26.53-9.58-37.91c-1.14-1.6-1.16-2.77-0.36-4.55c1.61-3.58,2.8-7.36,4.28-11.36c4.8,6.87,9.14,13.61,13.13,20.58
		c2.96,5.18,5.82,10.41,8.59,15.7c0.99,1.88,1.86,1.1,2.65,0.11c2.88-3.62,5.59-7.36,8.51-10.94c2.61-3.2,5.52-6.15,8.12-9.36
		c3.62-4.46,7.97-8.2,11.88-12.36c4.62-4.91,9.84-9.13,14.95-13.5c6.97-5.95,14.39-11.29,22.07-16.22
		c9.92-6.36,20.03-12.43,30.3-18.22c8.07-4.55,16.09-9.17,24.63-12.79c1.27-0.54,2.62-0.89,3.88-1.45c0.46-0.2,1.39-0.25,1.14-1.11
		c-0.17-0.6-0.77-0.84-1.43-0.93c-6.65-0.83-13.22-0.46-19.81,0.77c-16.18,3.03-31.39,8.82-46.07,16.08
		c-11.71,5.79-23.52,11.4-35.08,18.29c0.05-3.38,1.55-6.11,2.25-9.01c2.64-10.92,5.03-21.87,6.53-33.02
		c1.29-9.58,2.52-19.13,1.95-28.81c-0.1-1.73,1.03-2.6,2.04-3.37c7.99-6.14,16.68-10.86,26.83-12.25c4.11-0.56,8.25-0.88,12.38-1.31
		C455.29,112.15,458.75,112.13,462.21,112.41z"/>
	<path class="st2" d="M639.95,331.95c-1.11-1.87,0.06-3.73,0.2-5.54c0.65-8.75,0.63-17.47-0.05-26.22
		c-0.84-10.72-3.04-21.18-5.67-31.57c-2.78-10.95-7.05-21.36-11.45-31.73c-7.51-17.74-18.44-33.34-30.34-48.27
		c-7.89-9.9-16.18-19.5-25.46-28.14c-10.41-9.69-21.52-18.55-33.09-26.8c-12.21-8.71-24.53-17.26-38.18-23.66
		c-11.59-5.44-23.6-8.63-36.56-8.59c-15.08,0.05-29.78,1.94-44.33,5.91c-8.44,2.3-17.11,3.32-25.78,0.09
		c-6.06-2.25-11.2,1.02-16.1,3.89c-5.31,3.11-10.2,6.89-14.54,11.29c-0.82,0.83-1.91,1.12-2.73,1.86c-0.13,0.88-0.82,1.29-1.45,1.73
		c-5.66,4.02-10.93,8.52-15.74,13.53c-7.49,7.79-13.67,16.55-18.89,25.99c-0.65,1.16-1.06,2.37-0.96,3.71
		c2.63,1.03,2.82,2.99,0.46,5.49c-3.4,3.61-7.36,6.58-11.35,9.47c-7.6,5.52-15.83,9.96-24.28,14.01c-2.22,1.07-4.57,1.09-6.77-0.01
		c-5.78-2.88-11.96-4.01-18.33-3.99c-4.4,0.01-8.77-0.64-13.19-0.1c-3.69,0.45-6.32-1.96-9.01-4c-0.69-0.52-1.31-1.13-1.96-1.69
		c-1.62-2.42-1.61-5.26-1.99-7.98c-2.02-14.15,0.55-27.6,6.41-40.51c0.78-1.72,1.14-3.64,2.35-5.17c4.25-2.69,8.65-5.05,13.48-6.61
		c5.25-1.69,10.61-2.68,16.08-2.97c4.73-0.25,8.48-2.12,11.38-5.88c6.57-8.52,12.96-17.2,20.81-24.65
		c9.7-9.21,19.46-18.35,31.35-24.8c13.84-7.52,28.21-13.35,44.14-14.68c8.92-0.74,17.86-1.5,26.76-0.81
		c12.34,0.96,24.76,1.76,36.72,5.41c0.35,0.11,0.68,0.1,1.02-0.02c12.06,5.15,23.89,10.69,34.21,18.99
		c5.82,4.68,11.7,9.26,17.32,14.19c6.19,5.43,13.65,8.87,20.86,12.69c15.32,8.14,31,15.66,44.96,26.14
		c15.71,11.79,31.06,23.98,43.98,38.95c19.99,23.15,32.55,49.76,37.94,79.85c2.63,14.64,4.69,29.31,4.02,44.22
		c-0.46,10.32-1.3,20.61-4.07,30.63C641.52,327.77,640.68,329.84,639.95,331.95z"/>
	<path class="st2" d="M318.29,455.01c3.26-0.98,6.66-1.07,10.01-1.29c19.41-1.27,38.55-0.07,56.79,7.5
		c24.41,10.14,45.92,24.42,63.1,44.78c2.1,2.48,3.19,4.85,2.76,8.4c-0.87,7.3,0.41,14.53,2.58,21.56c0.36,1.15,0.31,2.13,0.06,3.27
		c-4.28,19.36-16.33,32.45-33.22,41.85c-15.53,8.65-32.13,13.28-49.81,14.32c-18.14,1.07-36.11,0.19-53.58-5.3
		c-11.2-3.52-22.05-7.88-31.49-15.12c-0.6-2.71,0.11-5.36,0.42-8.02c1.95-16.5,6.86-32.06,14.87-46.63
		c4.58-8.31,10.14-15.99,15.35-23.89c2.36-3.58,3.97-7.47,3.86-11.7c-0.09-3.46,0.01-6.96-0.4-10.39
		c-0.6-5.12-0.35-10.24-0.42-15.35C319.17,457.59,319.03,456.24,318.29,455.01z"/>
	<path class="st2" d="M435.58,395.53c2.07-0.07,3.64,0.51,5.19,2.18c8.81,9.5,14.92,20.58,19.5,32.57c4.14,10.84,7.21,22,9.07,33.47
		c0.59,3.65,0.79,7.37,1.17,11.05c-3.62,4.43-6.96,9.06-10.14,13.82c-3.84,5.75-6.7,11.9-8.58,18.94c-3.16-3.97-6.2-7.5-9.53-10.77
		c-21.35-21.03-46.12-36.1-75.5-42.95c-11.07-2.58-22.38-2.69-33.68-2.21c-4.59,0.19-9.16,0.55-13.71,1.23
		c-0.58-2.57-0.27-5.17-0.15-7.75c0.57-12.98,1.55-25.92,3.42-38.79c0.33-2.25-0.43-3.92-2.76-4.63c-0.58-0.18-1.16-0.36-1.56-0.87
		c5.48-6.25,12.22-10.9,19.15-15.35c2.45-1.57,5.4-2.32,7.45-4.53c0.74-0.27,1.38,0.06,1.95,0.44c9.96,6.66,19.15,14.12,25.64,24.42
		c1.88,2.99,2.75,6.36,3.76,9.68c0.59,1.95,1.07,2.1,2.29,0.52c8.98-11.62,21.81-15.79,35.45-18.36c6.23-1.17,12.54-1.85,18.83-2.6
		C433.79,394.95,434.76,394.82,435.58,395.53z"/>
	<path class="st2" d="M285.55,577.51c14.11,9.33,29.56,15.47,46.21,17.97c25.35,3.79,50.55,3.5,74.93-5.89
		c8.53-3.29,16.5-7.68,23.99-12.96c11.39-8.05,19.38-18.51,23.21-32.02c0.4-1.39,0.85-2.77,1.28-4.16c0.26,0.09,0.51,0.09,0.57,0.2
		c3.94,6.8,10.31,9.3,17.68,9.67c2.64,0.13,4.62,1.19,6.57,2.67c11.72,8.85,18.4,20.56,19.88,35.19
		c1.77,17.51-1.67,33.66-12.64,47.81c-3.33,1.49-6.86,0.88-10.25,0.64c-10.55-0.75-21.08-1.71-31.6-2.9
		c-19.25-2.17-38.34-5.2-57.25-9.42c-10.07-2.24-19.96-5.3-30.25-6.6c-11.69-1.48-23.3-1.84-34.94,0.53
		c-7.84,1.6-14.72,5.05-21.06,9.79c-1.13,0.84-2.2,2.15-3.92,1.23c-2.81-2.01-5.26-4.42-7.7-6.85c-4.35-9.47-4.98-19.66-5.54-29.83
		c-0.22-3.96-0.06-7.95-0.02-11.93C284.72,579.55,284.56,578.36,285.55,577.51z"/>
	<path class="st2" d="M490.34,634.91c8.3-11.47,11.76-24.48,11.86-38.42c0.13-17.92-5.8-33.17-20.37-44.41
		c-0.47-0.36-0.92-0.74-1.86-1.52c5.88,0.02,11.19-0.26,16.47-1.05c7.38-1.09,14.76-2.3,22.19-2.87
		c21.81-1.67,40.79,4.52,54.31,22.38c9.42,12.44,13.29,26.97,11.46,42.73c-0.09,0.78-0.14,1.56-0.21,2.34
		c-0.94,1.96-2.53,3.22-4.34,4.34c-13.08,8.15-27.64,12.02-42.6,14.59c-11.73,2.01-23.55,3.19-35.47,3.24
		c-3.11,0.01-6.21,0.76-9.35,0.42C491.4,636.57,489.88,636.82,490.34,634.91z"/>
	<path class="st1" d="M297.96,629.25c1.79,0.11,2.78-1.31,3.97-2.22c7.54-5.78,16.04-9.02,25.41-10.36
		c17.02-2.44,33.56,0.05,50.01,4.26c12.21,3.12,24.53,5.76,36.98,7.74c9.54,1.52,19.11,2.89,28.69,4.07
		c7.71,0.94,15.47,1.47,23.21,2.24c6.98,0.69,13.97,1.21,21,1.01c-10.74,15.73-24.8,26.99-43.44,31.94
		c-4.78,1.27-9.68,1.39-14.67,1.11c-7.44-0.43-14.89-0.67-22.33-1.23c-39.22-2.97-75.75-13.66-107.71-37.5
		C298.69,629.99,298.34,629.6,297.96,629.25z"/>
	<path class="st1" d="M608.53,521.55c-5.58-3.11-11.14-6.09-17.18-8.07c-11.67-3.83-23.68-3.98-35.78-3.29
		c-9.87,0.56-19.48,2.5-28.51,6.49c-13.45,5.94-23.52,15.49-29.44,29.14c-0.42,0.97-0.71,1.88-2.04,2.04
		c-8.82,1.09-17.63,1.51-26.44,0.02c-3.52-0.59-6.62-2.03-9.12-4.64c-3.03-3.16-4.42-6.47-3.37-11.21
		c4.11-18.57,14.45-32.24,31.1-41.19c7.64-4.11,15.33-8.1,23.84-10.26c7.58-1.92,15-0.77,22.41,0.64
		c21.08,4.04,40.56,11.89,58,24.56C598.22,510.29,603.7,515.55,608.53,521.55z"/>
	<path class="st1" d="M529.5,544.66c-9.67-0.44-19.2,0.88-28.71,2.31c-2.21,0.34-1.4-0.68-1.01-1.64c2.9-7.09,7.89-12.6,13.42-17.69
		c9.15-8.42,20.36-12.4,32.33-14.38c13.8-2.29,27.66-2.4,41.34,0.8c9.42,2.2,17.79,6.93,25.44,12.72c3.46,2.62,5.34,6.8,7.48,10.56
		c11.89,20.88,11.99,42.38,2.29,63.89c-4.17,9.24-11.34,16.54-18.79,23.42c-9.34,8.64-19.86,15.41-31.44,20.57
		c-0.58,0.26-1.17,0.81-2.28,0.38c9.2-9.69,15.34-20.79,16.8-34.14c1.62-3.04,4.41-5.1,6.51-7.75
		c11.54-14.54,14.09-30.93,8.56-48.16c-4.58-14.28-18.32-25.72-35.9-25.81c-12.57-0.06-24.05,2.98-34.18,10.57
		c-0.56,0.42-1.08,0.88-1.62,1.31C528.58,542.58,528.21,543.54,529.5,544.66z"/>
	<path class="st3" d="M494.83,167.2c-3.5,1.91-6.56,3.63-9.67,5.26c-17.17,9.05-33.91,18.84-49.97,29.74
		c-9.16,6.22-17.7,13.22-25.88,20.73c-11.52,10.58-21.85,22.17-31.35,34.53c-2,2.6-2.46,2.5-4.01-0.33
		c-5.81-10.64-11.78-21.18-18.87-31.04c-1.26-1.75-1.59-3.48-0.9-5.59c2.19-6.66,4.18-13.38,7.1-19.78c1.27-2.77,1.86-2.98,4.3-1.08
		c2.32,1.8,4.65,3.59,6.93,5.43c1.63,1.32,2.61,0.56,3.1-1.02c2.41-7.76,4.18-15.69,5.19-23.74c0.51-4.05,1.71-6.59,6.08-7.59
		c6.59-1.5,8.49-6.98,9.65-12.84c1.33-6.7,2.7-13.39,5.29-19.75c1.25-3.07,2.96-5.88,5.31-8.26c0.35-0.36,0.7-0.95,1.26-0.77
		c0.69,0.22,0.62,0.94,0.66,1.55c0.29,4.78-0.23,9.54-0.72,14.25c-0.88,8.56-2.19,17.08-3.9,25.53c-1.8,8.89-3.74,17.74-6.5,26.39
		c-0.21,0.66-0.48,1.3-0.67,1.97c-0.26,0.93-0.52,1.97,0.45,2.61c0.79,0.52,1.45-0.22,2.09-0.61c15.55-9.54,31.95-17.4,48.6-24.79
		c11.06-4.9,22.56-8.27,34.39-10.55c3.12-0.6,6.31-0.85,9.49-1.13C492.95,166.27,493.67,166.79,494.83,167.2z"/>
	<path class="st1" d="M274.83,505.32c-4.27,11.19-6.91,22.53-8.93,34.09c-2.42,13.86-1.96,27.56,0.47,41.34
		c1.68,9.5,4.64,18.47,9.51,26.79c0.73,1.25,0.37,1.7-0.94,1.81c-6.04,0.52-12.08,1.06-18.12,1.59c-1.64,0.14-3.29,0.2-4.92,0.43
		c-3.5,0.51-6.67-0.19-9.66-2.11c-10.65-6.83-19.8-15.03-24.24-27.3c-2.9-8.02-2.84-16.34-1.73-24.67
		c1.61-12.03,7.52-22,15.13-31.14c2.67-3.21,6.54-4.51,10.02-6.39c10.46-5.65,21.06-11.02,32.53-14.39
		C274.12,505.33,274.29,505.35,274.83,505.32z"/>
	<path class="st1" d="M178.52,540.5c3.03-0.96,6.18-0.43,9.28-0.79c12.73-1.46,24.7-5.27,36.13-10.94c1.22-0.61,2.46-1.18,3.82-1.62
		c-4.28,5.84-8.24,11.95-10.38,18.72c-7.51,23.73-3.99,43.19,15.7,59.18c2.93,2.38,5.94,4.63,9.21,6.64
		c-9.59,0.38-19.1,0.52-28.6,0.09c-5.11-0.23-10.22-0.49-15.32-0.82c-5.01-0.32-10.07-0.46-15.02-1.21
		c-3.88-0.59-7.3-2.62-10.35-5.18c-8.92-7.48-13.39-17.08-13.6-28.65c-0.06-3.44-0.6-6.94,0.48-10.34c0.86-0.77,1.93-0.69,2.96-0.69
		c1.82,0,3.63-0.1,5.43-0.37c3.77-0.56,3.78-0.51,4.32-4.33c0.49-3.43,0.85-6.89,2.03-10.17c1.28-3.56,3.1-6.76,6.18-9.02
		C180.45,541.03,179.02,540.72,178.52,540.5z"/>
	<path class="st4" d="M318.29,455.01c1.09,0.05,1.81,0.42,1.67,1.72c-0.09,0.77-0.01,1.56-0.02,2.34
		c-0.12,8.4,0.39,16.78,0.84,25.16c0.23,4.3-1.25,8.33-3.64,11.99c-5.21,7.98-10.89,15.66-15.48,24.03
		c-7.65,13.94-12.82,28.71-14.63,44.59c-0.39,3.4-1.02,6.78-1.53,10.16c-8.44-6.08-14.93-13.61-18.21-23.71
		c-1.1-3.38-0.15-6.52,0.23-9.75c2-16.78,7.6-32.52,13.9-48.07c3.93-9.72,7.7-19.51,11.47-29.3c0.61-1.58,1.53-2.5,3.13-3.13
		C303.22,458.2,310.62,456.12,318.29,455.01z"/>
	<path class="st1" d="M490.34,634.91c0.31,1.61,1.61,1.09,2.52,1.04c8.81-0.48,17.63-0.58,26.44-1.41
		c11.56-1.09,22.97-2.78,34.17-5.84c9.32-2.54,18.28-5.96,26.44-11.21c1.52-0.98,2.84-2.26,4.26-3.4
		c-1.87,11.23-7.11,20.77-14.82,28.98c-3.26,3.47-6.94,6.42-11.64,7.99c-14.88,4.97-29.7,10.14-45.23,12.78
		c-10.34,1.76-20.72,3.09-31.16,4.07c-11.32,1.06-22.66,1.58-34.09,1.33c4.74-1.9,9.49-3.75,13.92-6.32
		c11.79-6.83,21.34-15.99,28.67-27.47C489.95,635.24,490.16,635.09,490.34,634.91z"/>
	<path class="st4" d="M442.89,59.97c-1.58,0.92-3.03-0.13-4.47-0.41c-8.06-1.58-16.18-2.63-24.36-3.47
		c-7.18-0.73-14.34-0.93-21.54-0.95c-26.92-0.06-50.94,8.6-72.03,24.97c-13.1,10.17-25.04,21.78-34.41,35.59
		c-4.93,7.26-11.14,10.62-19.85,10.99c-8.39,0.36-16.26,3.19-23.25,8.1c-0.46,0.32-1.11,1.77-1.84,0.16
		c8.45-17.52,20.03-32.62,34.83-45.28c22.91-19.61,49.51-31.92,78.88-37.2c24-4.32,48.39-4.96,72.28,2.14
		C432.45,56.2,437.64,58.18,442.89,59.97z"/>
	<path class="st2" d="M529.5,544.66c-0.59-0.69-1.53-0.15-2.3-0.68c1.68-3.6,5.06-5.39,8.18-7.26c10.2-6.13,21.38-8.33,33.17-7.56
		c18.49,1.21,32.65,16.6,35.22,31.78c3.37,19.94-2,37-17.41,50.53c0.26-7.3,0.37-14.62-1.62-21.73
		c-6.91-24.78-23.56-40.3-49.82-44.54C533.14,544.91,531.31,544.83,529.5,544.66z"/>
	<path class="st1" d="M235.27,265.9c-5.91-7.45-9.99-15.37-13.03-23.81c-4.93-13.71-8.33-27.72-7.64-42.47
		c0.71-15.21,5.94-28.75,14.76-41.02c0.3-0.42,0.66-0.81,1.04-1.17c0.16-0.16,0.43-0.2,0.73-0.33c-1.59,9.42-1.41,18.74,0.12,28.03
		c0.94,5.7,4.22,9.78,9.18,12.58c1.01,0.57,1.95,0.93,1.68,2.48c-2.16,12.12-0.37,24.01,2.42,35.79c0.78,3.28,1.88,6.49,2.87,9.72
		c0.28,0.93,0.55,1.69-0.32,2.58C242.18,253.28,238.17,258.92,235.27,265.9z"/>
	<path class="st5" d="M157.71,565.6c-0.53,6.33-0.19,12.6,0.91,18.86c1.69,9.64,7.33,16.64,14.62,22.61
		c0.53,0.44,1.11,0.82,1.67,1.24c0.06,0.04,0.06,0.15,0.16,0.42c-7.85-0.98-15.45-2.75-23.03-4.56c-11.07-2.65-21.7-6.46-32-11.38
		c-7.28-3.48-11.08-9.01-12.48-16.7c-1.36-7.46-1.38-14.78,1.23-21.99c1.11-0.65,2.03,0.03,2.92,0.49c11,5.7,22.89,7.97,35.06,9.32
		c2.85,0.32,5.73,0.23,8.55,0.83C156.14,564.92,157.06,564.89,157.71,565.6z"/>
	<path class="st3" d="M323.06,306c-12.12,0.04-21.96-3.69-31.27-9.18c-7.57-4.46-14.52-9.78-20.64-16.02
		c-5.92-6.05-11.29-12.64-15.19-20.27c-0.83-1.63-0.87-2.95,0.21-4.57c1.84-2.76,3.84-5.33,6.29-7.57c1.17-1.07,1.97-1.19,2.71,0.51
		c5.15,11.84,12.15,22.52,22.09,30.76c10.56,8.76,22.42,15.41,36.74,14.7c10.78-0.53,17.24-6.14,18.87-16.52
		c1.26-8.05,0.34-15.69-3.65-22.86c-1.09-1.96-0.91-3.53,0.88-5.01c1.95-1.62,3.24-3.81,4.69-5.86c1.54-2.18,1.84-2.17,3.41,0.08
		c4,5.71,6.24,12.14,7.52,18.91c1.48,7.81,1.75,15.61-1.24,23.19c-3.92,9.93-11.27,16-21.5,18.55
		C329.41,305.72,325.69,306.25,323.06,306z"/>
	<path class="st2" d="M77.92,518.66c3.22-8.87,10.76-12.01,19.01-13.28c9.13-1.41,18.35-0.96,27.32,1.81
		c2.08,0.64,4.08,1.45,5.98,2.51c2.95,1.64,4.9,3.68,5.14,7.43c0.27,4.29,2.36,8.09,5.06,11.78c-15.35,2.16-26.67,9.67-33.32,23.66
		c-0.73,0.62-1.48,0.41-2.16-0.02C95.88,546.84,86.88,541,81.4,531.4C79.2,527.54,77.04,523.46,77.92,518.66z"/>
	<path class="st2" d="M237.49,118.5c5.74-4.29,11.84-7.99,18.82-11.63c-3.41,5.03-6.42,9.41-9.37,13.84
		c-6.18,9.31-10.59,19.46-14.04,30.04c-0.27,0.82-0.42,1.66-1.06,2.33c-8.98,9.52-14.22,20.99-17.45,33.51
		c-0.09,0.34-0.22,0.66-0.33,0.99c-2.15,9.21-3.58,18.54-3.4,28.01c0.29,15.25,2.4,30.26,6.83,44.91
		c2.72,8.99,5.76,17.85,9.95,26.28c0.39,0.78,0.69,1.59,0.69,2.49c-0.04,0.85,0.1,1.75-0.83,2.59c-1.32-2.06-2.59-4.08-3.9-6.08
		c-6.25-9.59-12.24-19.34-17.43-29.56c-0.31-0.6-0.51-1.26-0.77-1.89c-2.33-6.85-3.24-13.99-4.09-21.13
		c-0.84-7.07-1.06-14.14-0.48-21.29c0.54-6.67,1.1-13.32,2.45-19.87c3.66-17.79,11.06-33.94,21.67-48.64
		c5.05-7,9.59-14.28,11.76-22.77C236.72,119.86,237.1,119.18,237.49,118.5z"/>
	<path class="st2" d="M157.71,565.6c-16.57-1.19-33-3.03-47.95-11.16c-0.3-0.16-0.65-0.23-0.97-0.33c0.57-3.37,2.56-6.01,4.63-8.54
		c6.85-8.33,15.57-13.36,26.35-14.66c1.14-0.14,2.23-0.24,3.17,0.65c6.32,6.06,14.23,7.91,22.61,8.54c1.95,0.15,3.89,0.33,6.3,0.54
		c-6.99,5.92-10.78,13.29-13.22,21.47C158.27,563.26,158.01,564.43,157.71,565.6z"/>
	<path class="st6" d="M319.43,292.52c-10.71-1.22-19.98-5.9-28.44-12.24c-10.98-8.22-18.12-19.42-23.94-31.6
		c-1.16-2.44-1.11-4.19,1.61-5.44c1.41-0.64,2.72-1.55,3.96-2.49c1.68-1.27,2.04-0.47,2.44,1.14c2.24,9.12,5.85,17.63,11.86,24.93
		c4.06,4.93,8.67,9.23,15.1,11.02c2.42,0.67,4.84,0.72,7.19,0.22c5.11-1.08,6.9-3.99,5.73-9.11c-0.48-2.07-0.34-2.99,2.12-2.18
		c1.89,0.62,3.84,0.62,5.86,0.14c4.6-1.09,6.28-3.01,6.47-7.72c0.05-1.17-0.63-2.73,0.54-3.42c1.76-1.04,3.75-1.72,5.7-2.36
		c0.83-0.28,1.06,0.72,1.38,1.3c2.35,4.3,3.79,8.89,4.4,13.75c0.18,2.05,0.2,4.09-0.01,6.14c-0.23,2.77-0.73,5.49-1.82,8.05
		c-2.81,6.61-8.57,8.82-15.06,9.88C322.82,292.7,321.12,292.71,319.43,292.52z"/>
	<path class="st4" d="M237.49,118.5c-0.89,6.38-3.54,12.06-6.93,17.46c-6.13,9.74-13.34,18.82-17.99,29.49
		c-5.46,12.53-9.43,25.42-10.6,39.12c-0.52,6.05-1.15,12.08-0.93,18.15c0.37,10.22,1.86,20.29,4.26,30.22
		c0.12,0.49,0.49,0.96-0.1,1.38c-9.87-19.62-14.45-40.26-12.95-62.32c1.6-23.62,12.72-42.46,28.42-59.19
		C225.73,127.42,231.41,122.71,237.49,118.5z"/>
	<path class="st2" d="M134.86,509.92c-17.06-8.62-34-9.8-51.31-1.94c0.2-0.37,0.55-1.1,0.99-1.78c7.19-11.11,15.74-21.16,24.42-31.1
		c1.53-1.75,3.76-1.79,5.76-1.94c8.31-0.61,16.51-0.5,23.54,5.05c5.23,4.13,5.26,4.09,2.63,10.04c-2.85,6.45-5.13,13.07-5.69,20.17
		C135.14,509.03,134.93,509.61,134.86,509.92z"/>
	<path class="st2" d="M160.77,444.07c-9.38-8.33-16.39-9.57-30.47-5.58c-0.07-3.12-0.27-6.2-0.73-9.25
		c-0.64-4.24-1.94-8.28-5.12-11.14c-3.53-3.18-3.05-6.73-1.86-10.45c1.86-5.84,6.27-8.88,12.37-9.51
		c5.65-0.58,10.16,1.29,14.12,5.14c6.45,6.28,11.99,13.08,13.03,22.48C162.79,431.84,161.96,437.82,160.77,444.07z"/>
	<path class="st2" d="M112.06,471.6c5.62-7.2,10.84-14.22,14.64-22.17c0.86-1.79,1.93-3.59,2.29-5.5c0.48-2.54,2.06-3.59,4.17-4.42
		c8.41-3.3,19.52-1.05,25.4,5.11c1.14,1.2,1.44,2.27,0.93,3.94c-2.76,9.13-7.98,17.11-11.87,25.71c-0.86,1.89-1.9,3.71-2.77,5.59
		c-0.46,1-0.84,1.47-1.76,0.4C135.15,470.97,124.18,470.37,112.06,471.6z"/>
	<path class="st1" d="M77.92,518.66c1.05,9.65,5.96,17.12,13.21,23.24c4.42,3.73,9.1,7.1,14.06,10.09c0.62,0.37,1.19,0.67,1.92,0.57
		c-3.33,11.16-3.15,22.16,1.85,33.55c-4.23-2.29-7.62-4.72-10.91-7.29c-8.86-6.92-16.61-14.87-20.97-25.4
		C72.26,541.81,72.7,530.12,77.92,518.66z"/>
	<path class="st7" d="M291.69,231.17c-0.83,3.79-1.43,7.13-0.85,10.49c1.17,6.73,5.48,10.85,11.61,13.22
		c6.81,2.64,13.91,2.6,21.05,2.01c1.39-0.11,2.91-1.21,4.08,0.12c0.88,1-0.4,5.81-1.73,6.68c-2.16,1.41-4.47,2.44-7.19,1.6
		c-1.07-0.33-2.2-0.46-3.3-0.73c-2.86-0.71-3.44-0.17-2.59,2.75c2.04,6.97,0.08,9.29-7.39,9.27c-4.71-0.02-8.52-2.56-11.9-5.55
		c-9.34-8.27-14.19-19.07-17.02-30.96c-0.17-0.71-0.41-1.36,0.42-1.8C281.59,235.75,286.38,233.41,291.69,231.17z"/>
	<path class="st8" d="M297.48,226.72c-3.09,1.32-6.2,2.61-9.27,3.97c-9.23,4.07-18.26,8.58-26,15.13
		c-10.74,9.08-14.13,20.66-10.13,34.13c2.26,7.6,3.05,15.09,0.56,22.74c-0.24,0.74-0.52,1.47-0.81,2.19
		c-0.09,0.23-0.27,0.42-0.71,1.11c0-1.49-0.03-2.51,0.01-3.54c0.27-7.02-0.38-13.86-3.84-20.19c-2.69-4.92-5.63-5.43-9.54-1.35
		c-4.14,4.31-6.13,9.79-8.02,15.3c-0.22,0.65-0.21,1.37-0.9,1.91c0.02-2.22,0.33-4.34,0.86-6.4c2.31-9.06,4.2-18.29,8.09-26.84
		c6.08-13.37,16.8-22.27,29.2-29.45c6.77-3.92,14.23-6.41,21.03-10.26c2.64-1.49,5.26-3.05,7.33-5.33c3.18-0.66,4.44,0.71,3.79,4.08
		C298.9,225.06,298.26,225.92,297.48,226.72z"/>
	<path class="st4" d="M318.33,400.84c4.32,0.1,5.75,1.8,5.14,6.02c-1.68,11.61-2.87,23.26-3.23,35.01c-0.11,3.64,0.31,7.41-0.87,11
		c-8.2,1.34-16.25,3.28-24.41,6.63c2.8-6.67,5.49-12.83,7.97-19.06c3.3-8.28,6.95-16.46,8.29-25.39c0.35-2.31,0.56-4.65,0.83-6.97
		C314.3,405.8,315.75,402.83,318.33,400.84z"/>
	<path class="st9" d="M333.44,218.87c1.72,3.01,3.42,6.03,5.16,9.02c0.64,1.09,0.1,4.47-0.9,5.07c-0.78,0.47-1.3-0.18-1.84-0.51
		c-2.54-1.54-5.26-2.61-8.17-3.26c-2.15-0.48-2.71,0.03-2.12,2.16c0.97,3.52,2.15,6.96,4.07,10.09c0.83,1.36,0.8,2.39-0.59,3.28
		c-1.21,0.78-2.17,1.89-3.77,0.29c-2.32-2.32-4.96-4.32-7.42-6.51c-1.55-1.38-2.36-0.99-2.87,0.92c-0.52,1.97-0.3,3.97-0.36,5.95
		c-0.04,1.55-0.24,3.03-0.87,5.08c-1.53-2.68-2.76-4.9-4.06-7.09c-0.71-1.19-1.55-2.3-2.28-3.48c-0.49-0.8-1.05-1.4-2.08-1.16
		c-0.95,0.23-1.03,1.01-1.14,1.81c-0.31,2.22-0.75,4.43-1.01,6.65c-0.17,1.42-0.77,1.62-1.88,0.96c-1.56-0.92-3.09-1.88-4.12-3.56
		c0.67-0.35,1.3-0.63,1.89-0.99c2.75-1.64,3.44-5.4,1.43-7.89c-0.99-1.23-2.22-2.14-3.67-2.84c-1.03-0.5-2.88-0.32-2.91-1.73
		c-0.04-1.78,2-1.64,3.17-2.12c5.36-2.22,10.88-4.04,15.37-7.98c1.46-1.28,2.58-2.79,3.77-4.27c1.29-0.98,2.75-1.29,4.35-1.31
		c3.39-0.05,6.69,0.5,9.94,1.4C331.73,217.22,332.84,217.68,333.44,218.87z"/>
	<path class="st1" d="M454.78,532.28c-1.43-5.49-2.53-10.95-2.23-16.64c0.66-12.55,6.75-22.73,13.78-32.57
		c0.93-1.3,2.19-1.66,3.55-1.84c12.83-1.68,25.71-2.35,38.78-1.82c-0.72,0.24-1.45,0.44-2.15,0.72
		c-11.6,4.53-22.83,9.71-32.39,17.93c-9.69,8.33-15.49,18.97-18.63,31.2C455.23,530.26,455.01,531.28,454.78,532.28z"/>
	<path class="st10" d="M333.44,218.87c-5.5-2.56-11.23-3.25-17.18-2.07c5.71-8.05,10.65-16.6,15.78-25.01
		c3.63-5.95,7.31-11.35,14.83-12.88c3.29-0.67,6.35-2.49,10.08-4.02c-2.67,5.45-5.18,10.3-6.76,15.5
		c-1.55,5.12-2.86,10.32-4.11,15.52c-0.36,1.48-0.94,2.02-2.42,2.04c-1.28,0.02-2.57,0.27-3.83,0.56c-1.86,0.42-2.2,1.51-0.93,2.98
		c1.3,1.51,2.88,2.75,3.95,4.48c0.51,0.82,0.76,1.69,0.29,2.44c-0.51,0.83-1.38,0.29-2.13,0.11c-1.76-0.43-3.52-0.87-5.31-1.16
		C334.6,217.17,333.3,217.05,333.44,218.87z"/>
	<path class="st4" d="M285.55,577.51c-0.59,13,0.11,25.89,3,38.63c0.48,2.13,2.15,3.91,1.72,6.26c-13.04-12.05-20-27.14-22.52-44.53
		c-1.12-7.71-1.97-15.41-1.42-23.28C270.24,564.37,277.37,571.38,285.55,577.51z"/>
	<path class="st1" d="M228.13,289.26c-2.72-4.06-4.45-8.59-6.17-13.1c-4.83-12.69-8.62-25.7-10.39-39.2
		c-1.16-8.82-2.26-17.71-1.61-26.61c0.57-7.7,1.09-15.48,4.1-22.77c-1.12,7.22-1.47,14.49-1.09,21.78
		c0.73,13.58,4.57,26.41,9.78,38.85c2.75,6.57,6.14,12.83,10.73,18.36c0.5,0.6,1.04,1.15,0.76,2.07
		C232.19,275.52,230.16,282.39,228.13,289.26z"/>
	<path class="st6" d="M271.83,212.82c0.42,5.18,0.76,10.37,1.32,15.54c0.14,1.25,0.02,1.88-1.12,2.45c-2.64,1.31-5.25,2.7-7.82,4.15
		c-1.13,0.64-1.71,0.48-2.03-0.78c-1.98-7.63-3.74-15.3-4.32-23.19c-0.1-1.34-0.31-2.67,1.18-3.68c0.66-0.45,0.82-1.67,1.15-2.56
		c1.8-4.93,1.81-4.99,6.84-3.38c3.47,1.11,6.91,2.3,10.31,3.62c3.53,1.37,7.15,2,10.93,1.91c4.25-0.1,8,5.23,6.5,9.13
		c-0.25,0.65-0.49,1.3-0.78,1.93c-1.73,3.9-4.83,4.65-8.12,2.11c-3.94-3.05-7.18-6.8-10.71-10.27c-0.69-0.68-1.24-2.06-2.43-1.58
		c-1.31,0.53-0.7,1.97-0.8,3.04c-0.05,0.52-0.01,1.04-0.01,1.56C271.89,212.81,271.86,212.82,271.83,212.82z"/>
	<path class="st11" d="M297.48,226.72c0.31-0.88,0.69-1.74,0.92-2.64c0.79-3.07,0.04-4.08-3.07-4.24
		c6.52-5.05,10.39-11.73,11.98-19.74c0.46-2.33,1.48-3.77,3.67-4.81c5.72-2.7,11.3-5.69,16.97-8.5c2.09-1.04,4.26-1.9,6.81-2.52
		c-1.81,2.83-3.65,5.65-5.43,8.5c-4.19,6.68-8.48,13.31-12.5,20.09C312.38,220.37,305.53,224.33,297.48,226.72z"/>
	<path class="st2" d="M178.52,540.5c0.92,0.07,1.84,0.13,3.23,0.23c-4.12,3.77-6.64,8.06-7.42,13.28c-0.46,3.06-1.05,6.1-1.45,9.17
		c-0.16,1.26-0.63,1.84-1.92,1.92c-3.7,0.21-7.39,0.76-11.11,0.49c1.9-9.86,6.25-18.25,14.42-24.41
		C175.61,540.17,177.09,540.65,178.52,540.5z"/>
	<path class="st2" d="M135.52,395.98c-10.23,1.05-14.87,7.18-15.69,17.16c-4.25-3.1-8.11-6.37-11.48-10.16
		c-1.63-1.84-1.02-3.73,1.45-5.03C118.02,393.65,126.58,392.97,135.52,395.98z"/>
	<path class="st1" d="M379.35,177.44c-1.12,6.75-2.2,13.37-3.92,19.85c-0.52,1.96-0.42,4.83-1.99,5.56
		c-1.54,0.71-2.95-2.08-4.73-2.85c-0.08-0.03-0.15-0.08-0.22-0.13c-5.24-3.74-5.42-4.02-1.97-9.35c3.2-4.94,6.28-10.06,11.23-13.59
		c0.4-0.28,0.72-0.93,1.27-0.53C379.28,176.6,379.27,177.17,379.35,177.44z"/>
	<path class="st7" d="M275.19,229.16c-1.02-5.94-1.32-11.61-1.21-18.08c4.34,4.67,8.24,8.91,13.33,12.23
		C283.57,226.05,279.33,227.12,275.19,229.16z"/>
	<path class="st12" d="M305.66,198.57c-1.14,6.72-3.65,12.31-8.68,17.26c0.56-4.47,1.06-8.41,1.52-12.36
		c0.08-0.66,0.27-1.14,0.85-1.48C301.33,200.82,303.14,199.35,305.66,198.57z"/>
	<path class="st13" d="M332.14,241.98c-2.27-3.51-3.72-6.86-4.59-10.77c3.18,0.47,5.69,1.9,8.23,3.28c1.08,0.59,0.66,1.21,0.21,1.88
		C334.79,238.14,333.56,239.92,332.14,241.98z"/>
	<path class="st14" d="M325.05,247.23c-2.52,1.28-4.74,1.94-7.05,2.36c-1.23,0.22-1.94,0.07-1.81-1.5c0.2-2.55,0.11-5.12,0.75-7.95
		C319.71,242.56,322.29,244.81,325.05,247.23z"/>
	<path class="st13" d="M299.91,238.91c-0.17,1.67-0.77,3.16-2.57,3.44c-1.67,0.26-2.07-1.22-2.5-2.45c-0.17-0.49-0.41-1.01-0.37-1.5
		c0.11-1.43-1.14-3.35,0.34-4.17C296.26,233.42,299.86,236.96,299.91,238.91z"/>
	<path class="st15" d="M305.99,241.25c2.22,2.82,3.82,5.5,5.18,8.64c-1.98,0.38-3.7-0.26-5.43-0.34c-1.21-0.06-0.99-0.96-0.87-1.72
		C305.2,245.8,305.56,243.77,305.99,241.25z"/>
	<path class="st15" d="M340.28,227.03c-1.72-2.59-3.21-4.87-4.33-7.38c0.25-0.12,0.42-0.27,0.54-0.24
		C343.82,221.01,343.05,219.7,340.28,227.03z"/>
	<path class="st16" d="M255.33,199.71c5-0.26,5-0.26,2.79,5.25C256.51,203.52,255.9,201.65,255.33,199.71z"/>
	<path class="st16" d="M345.29,209.51c-0.35,1.76-0.64,3.23-1.01,5.08c-1.32-1.48-2.43-2.73-3.84-4.31
		C342.2,210,343.61,209.78,345.29,209.51z"/>
	<path class="st17" d="M292.24,206.2c1.46-0.84,2.7-1.56,4.08-2.36c0.31,1.95-0.14,3.65-0.55,5.5
		C294.16,208.8,293.5,207.34,292.24,206.2z"/>
	<path class="st3" d="M450.68,110.9c4.06-0.73,8.13-0.72,12.19-0.01C458.8,110.89,454.74,110.9,450.68,110.9z"/>
	<path class="st3" d="M462.21,112.41c-3.46,0-6.91-0.01-10.36-0.01C455.3,111.71,458.75,111.7,462.21,112.41z"/>
	<path class="st3" d="M325.74,307.55c-2.51,0.65-5.02,0.65-7.52,0C320.72,307.55,323.23,307.55,325.74,307.55z"/>
	<path class="st3" d="M341.39,274.6c0-2.05,0.01-4.09,0.01-6.14C342.02,270.51,342.04,272.56,341.39,274.6z"/>
	<path class="st3" d="M319.43,292.52c1.7,0,3.39,0.01,5.09,0.01C322.82,293.13,321.12,293.15,319.43,292.52z"/>
	<path class="st3" d="M435.58,395.53c-12.41,1.38-24.84,2.49-36.71,6.88c-8.03,2.98-14.77,7.6-20.02,14.37
		c-0.51,0.66-0.9,1.71-1.95,1.43c-0.95-0.25-1.05-1.29-1.23-2.13c-1.54-7.38-5.35-13.47-10.58-18.78
		c-6.12-6.2-12.67-11.86-20.17-16.34c-6.89-4.19-13.75-8.41-20.66-12.56c-20.8-12.51-36.74-29.75-48.86-50.6
		c-3.32-5.7-5.63-11.92-6.94-18.44c-0.21-1.05-0.88-2.44,0.3-3.09c1.14-0.64,1.82,0.74,2.46,1.45c9.62,10.81,21.9,16.86,35.78,19.93
		c10.16,2.25,20.45,2.07,30.81,1.47c12.29-0.72,23.04-5.27,33.12-11.89c0.29-0.19,0.57-0.4,0.85-0.6c4.16-2.93,4.27-3,7.04,1.51
		c11.6,18.91,29.31,28.67,50.44,31.97c17.97,2.81,35.54-0.67,52.52-7.17c20.95-8.03,38.86-20.62,54.95-36.01
		c3.78-3.61,7.01-7.7,10.04-11.95c0.58-0.81,1.03-2.14,2.25-1.87c1.44,0.31,1.1,1.88,1.18,2.86c0.48,5.82,0.07,11.64-0.5,17.42
		c-0.92,9.5-2.46,18.9-6.09,27.83c-6.25,15.32-15.8,27.99-29.3,37.74c-15.22,10.99-32.49,16.98-50.44,21.46
		c-8.91,2.23-17.9,4.08-27.09,4.71C436.38,395.16,435.98,395.39,435.58,395.53z"/>
	<path class="st3" d="M551.99,208.88c-0.16,15.39-1.21,30.67-6.24,45.39c-9.01,26.37-25.77,46.26-50.01,60
		c-10.78,6.11-22.13,10.43-34.45,11.81c-12.56,1.41-25.11,1.8-37.28-2.66c-11.24-4.11-19.04-12.14-24.16-22.55
		c-8.19-16.68-6.72-33.16,2.96-48.83c8.09-13.09,19.15-23.2,32.19-31.33c18.01-11.23,37.71-18.79,57.19-26.84
		c9.14-3.78,18.49-7.05,27.54-11.03c9.06-3.99,17.84-8.6,25.09-15.59c1.52-1.46,2.29-1.13,2.93,1.13
		c1.61,5.69,2.53,11.51,3.05,17.38C551.49,193.44,552.24,201.14,551.99,208.88z"/>
	<path class="st18" d="M318.82,169.43c-1.95-1.4-0.33-2.72,0.27-3.8c7.4-13.33,16.62-25.18,28.45-34.92
		c2.68-2.21,5.46-4.28,8.33-6.24c2.23,0.46,0.65,1.44,0.08,1.71c-2.16,1.04-1.85,2.69-1.56,4.55c1.07,6.84,1.99,13.69,2.09,20.63
		c0.03,1.67-0.6,2.72-1.87,3.71c-8.17,6.34-17.69,9.75-27.43,12.69C324.45,168.58,321.74,169.51,318.82,169.43z"/>
	<path class="st19" d="M584.19,368.42c1.52-1.69,3.02-3.41,4.57-5.07c6.3-6.75,11.86-14.07,16.65-21.97
		c5.48-9.04,7.99-19.14,10.45-29.27c2.97-12.22,2.71-24.55,1.92-36.97c-1.43-22.42-10.33-42.29-20.69-61.66
		c-8.09-15.13-18.28-28.7-31.13-40.16c-4.27-3.81-8.76-7.38-13.15-11.07c-0.37-0.31-0.96-0.44-0.99-1.37
		c3.42,1.18,6.07,3.35,8.73,5.47c17.09,13.57,30.06,30.44,40,49.77c7.04,13.69,13.58,27.59,16.71,42.77
		c5.43,26.33,3.98,52.17-7.02,76.93c-5.67,12.75-14.27,23.57-24.88,32.71c-0.18,0.16-0.45,0.21-0.68,0.3
		C584.52,368.7,584.35,368.56,584.19,368.42z"/>
	<path class="st20" d="M274.45,193.61c-0.61-0.15-0.66-0.69-0.21-1.08c1.91-1.62,3.87-3.17,5.83-4.71c0.35-0.28,0.86-0.32,1.14,0.11
		c0.15,0.24,0.16,0.65,0.09,0.95C281.16,189.42,275.1,193.64,274.45,193.61z"/>
	<path class="st21" d="M247.45,186.28c0.2,0.14,0.6,0.26,0.74,0.52c0.85,1.67,2.16,3.13,2.4,5.08c0.01,0.09-0.5,0.38-0.57,0.33
		c-1.57-1.16-2.33-2.94-3.31-4.54C246.31,187.02,246.53,186.5,247.45,186.28z"/>
	<path class="st20" d="M354.89,476.69c1.99-0.12,3.58,0.88,5.27,1.59c0.41,0.18,0.72,0.59,0.54,1.04c-0.19,0.45-0.7,0.5-1.11,0.3
		C357.93,478.81,356.17,478.19,354.89,476.69z"/>
	<path class="st22" d="M356.15,483.38c-0.05,0.45-0.17,0.75-0.58,0.83c-0.52,0.1-3.25-2.48-3.25-3.05c0-0.47,0.41-0.68,0.66-0.57
		C354.36,481.17,355.25,482.33,356.15,483.38z"/>
	<path class="st23" d="M368.32,437.81c1.72,0.77,3.44,1.52,5.15,2.32c0.26,0.12,0.57,0.43,0.37,0.84c-0.17,0.34-0.49,0.56-0.83,0.41
		c-1.71-0.77-3.41-1.58-5.1-2.4c-0.33-0.16-0.5-0.51-0.28-0.84C367.73,437.97,368.05,437.93,368.32,437.81z"/>
	<path class="st24" d="M372.09,443.75c-0.09,0.18-0.15,0.45-0.32,0.61c-0.46,0.45-4.94-0.76-5.23-1.38
		c-0.2-0.43,0.09-0.82,0.34-0.79c1.68,0.2,3.42,0.16,4.95,1.07C371.95,443.32,371.98,443.54,372.09,443.75z"/>
	<path class="st25" d="M391.77,224.84c-0.03-1.16,0.15-2.59,1.31-3.73c0.62-0.61,1.33-0.83,2.13-0.65c0.92,0.21,1.15,1,1.22,1.79
		c0.18,1.79-0.29,3.47-1.25,4.94c-0.48,0.74-1.09,1.8-2.23,1.42c-1.03-0.35-1.15-1.42-1.19-2.4
		C391.76,225.88,391.77,225.54,391.77,224.84z"/>
	<path class="st26" d="M373.83,223.97c-0.04,0.6-0.09,1.21-0.14,1.81c-0.08,0.92,0.17,2.11-1.08,2.35
		c-1.26,0.25-1.87-0.73-2.24-1.75c-0.53-1.47-0.86-3.01-0.83-4.57c0.02-0.97,0.34-2,1.39-2.29c1.15-0.32,1.69,0.67,2.17,1.48
		C373.63,221.9,373.89,222.91,373.83,223.97z"/>
	<path class="st27" d="M435.75,393.49c-4.54,0.58-8.61,1.08-12.68,1.61c-12.67,1.67-25.17,3.98-36.05,11.29
		c-3.52,2.37-6.65,5.25-9.44,9.02c-4.32-16.71-17.39-25.64-30.03-35.35c12.05-6.17,24.71-8.77,37.95-7.79
		C404.35,373.67,421.42,379.69,435.75,393.49z"/>
	<path class="st6" d="M533.46,192.74c1.76,20.61,1.43,40.5-7.15,59.37c-3.65,8.03-8.36,15.42-14.05,22.14
		c-8.18,9.67-17.43,18.19-28.54,24.43c-11.9,6.68-24.54,10.86-38.41,10.41c-11.69-0.38-27.78-10.03-30.37-25.26
		c-1.99-11.71,1.18-21.74,8.71-30.91c11.31-13.76,26.11-22.45,41.84-29.78c19.26-8.97,39.36-16.01,58.56-25.13
		C527.2,196.53,530.23,194.91,533.46,192.74z"/>
	<path class="st28" d="M353.71,139.62c0.33,3.71,0.63,7.42,1.01,11.12c0.14,1.36-0.35,2.25-1.45,3.04
		c-2.53,1.82-5.05,3.63-8.13,5.04c-0.94-4.08-1.99-8.04-3.36-11.89c-0.27-1.05,0.47-1.6,1.12-2.14c2.65-2.23,5.47-4.25,8.31-6.24
		C352.64,137.53,353.54,137.71,353.71,139.62z"/>
	<path class="st29" d="M353.71,139.62c-0.6-0.2-0.3-1.91-1.52-0.99c-3.55,2.67-7.46,4.89-10.41,8.3c-0.2-0.37-0.44-0.72-0.6-1.1
		c-2.08-4.94-2.11-4.99,1.79-8.58c2.9-2.68,5.93-5.23,9.19-8.1C353.11,132.85,353.47,136.22,353.71,139.62z"/>
	<path class="st30" d="M319.82,167.83c1.96-3.25,3.53-5.86,5.24-8.69c1.57,1.78,2.1,3.69,2.87,5.48c0.38,0.88-0.11,1.05-0.74,1.22
		C324.97,166.44,322.75,167.04,319.82,167.83z"/>
	<path class="st31" d="M457.05,281.41c-0.22-2.73,0.3-5.38,1.15-7.93c0.64-1.92,0.16-2.11-1.6-1.56c-3.41,1.05-6.84,0.86-10.25-0.18
		c-3.55-1.09-5.49-3.59-6-7.13c-0.76-5.3,0.79-9.93,4.39-13.92c4.54-5.02,10.15-8.28,16.49-10.54c17.67-6.3,35.08-13.22,51.45-22.51
		c1.73-0.98,3.34-2.18,5.02-3.25c0.56-0.35,1.14-0.95,1.86-0.34c0.53,0.45,0.41,1.06,0.31,1.69c-2.55,15.71-7.06,30.69-15.4,44.42
		c-6.6,10.86-14.94,19.98-25.44,27.15c-3.88,2.65-8.17,4.19-12.75,4.95c-4.77,0.79-8.76-2.7-9.21-7.98
		C456.98,283.33,457.05,282.37,457.05,281.41z"/>
	<path class="st7" d="M517.74,216.98c-1.63,9.34-3.59,18.13-7.03,26.5c-6.52,15.84-15.63,29.79-29.64,40.12
		c-4.02,2.97-8.23,5.45-13.2,6.48c-5.53,1.14-8.28-0.77-8.91-6.34c-0.46-4.06,0.35-7.93,1.61-11.76c0.28-0.85,1.13-1.82,0.38-2.68
		c-0.85-0.97-1.8,0.07-2.59,0.36c-3.29,1.22-6.67,1.23-10.03,0.71c-4.83-0.75-7.32-5.08-6.24-10.48c0.67-3.33,2.26-6.17,4.61-8.6
		c3.68-3.8,7.92-6.71,12.91-8.56c16.27-6.03,32.61-11.9,47.91-20.23C510.78,220.72,514.05,218.97,517.74,216.98z"/>
</g>
</svg>
