<svg id="Layer_1" data-name="Layer 1" xmlns="http://www.w3.org/2000/svg" viewBox="0 0 680.94 1111.851"><defs><style>.cls-1{fill:#11161c;}.cls-2{fill:#d3d9da;}.cls-3{fill:#d3d9db;}.cls-4{fill:#aeb3b5;}.cls-5{fill:#d4d9db;}.cls-6{fill:#ecde7a;}.cls-7{fill:#cbc06b;}.cls-8{fill:#e42026;}.cls-9{fill:#fff;}.cls-10{fill:#d2d8d9;}.cls-11{fill:#d0d5d7;}.cls-12{fill:#12171d;}.cls-13{fill:#12161c;}</style></defs><title>15</title><path class="cls-1" d="M2109.7,258.457c4.274.814,8.661.841,12.9,1.9,11.893,2.978,23.37,6.953,33.456,14.168,1.2.856,1.938.641,3.057,0a140.983,140.983,0,0,1,32.311-13.545c5.889-1.647,11.773-.479,17.307,1.456,20.374,7.125,35.007,20.283,41.846,41.215.623,1.907,1.449,2.34,3.3,1.874a110.975,110.975,0,0,1,18.985-3.067c6.561-.481,12.894,1.316,19.032,3.519,13.794,4.952,25.776,12.568,34.308,24.743a66.623,66.623,0,0,1,10.961,27.708c3.98,24.215.862,47.74-7.8,70.592a6.139,6.139,0,0,0,.24,5.244,262.388,262.388,0,0,1,19.9,65.284,213.855,213.855,0,0,1,2.649,48.056c-1.454,26.055-6.324,51.445-17.386,75.224-15.014,32.275-38.587,56.583-70.113,73.14-.621.326-1.239.661-1.843,1.016-.119.07-.171.253-.321.49,15.4,5.157,27.513,14.871,37.719,27.181,9.184,11.076,13.97,24.116,16.758,38.034,2.856,14.26,3.088,28.555,1.7,43.036-1.008,10.5-2.392,20.818-5.9,30.792a100.926,100.926,0,0,1-7.905,17.236,4.806,4.806,0,0,0-.787,3.292c2.389,17.319,2.6,34.755,1.866,52.159a490.986,490.986,0,0,1-11.433,85.591c-2.1,9.468-3.887,19-5.912,28.488-.248,1.158-.05,1.626.953,2.165,15.823,8.5,32.411,14.679,50.275,17.309a175.092,175.092,0,0,0,25.98,2.062,168.176,168.176,0,0,0,61.883-11.778,203.858,203.858,0,0,1,38.369-11.29,27.519,27.519,0,0,1,14.135.635,8.89,8.89,0,0,1,6.415,8.128c.569,5.724-1.064,11.01-3.172,16.185-5.026,12.335-12.23,23.43-19.857,34.247-13.32,18.893-30.34,33.986-49.2,47.089-22.856,15.884-47.984,26.672-74.97,33.39-8.314,2.07-16.35,5.22-24.723,7.2a236.309,236.309,0,0,1-47.66,6.186c-6.26.181-12.494-.436-18.926-.191,2.442,8.27,6.25,15.735,10.213,23.2,4.786,9.01,13.074,13.191,21.75,16.865,16.891,7.154,34.228,13.3,50.544,21.755,16.236,8.412,31.635,18.122,45.357,30.376,14.091,12.584,18.969,28.574,17.308,46.76a65,65,0,0,1-14.462,36.038,49.478,49.478,0,0,1-32.877,18.164,273.332,273.332,0,0,1-35.856,2.534,260.3,260.3,0,0,1-58.872-7.032c-9.049-2.109-18.364-3.011-27.5-4.834-23.256-4.642-46.148-10.717-68.123-19.585-14.231-5.742-21.817-17.361-23.217-32.695q-1.6-17.562-2.682-35.172c-.68-10.8-2.246-21.521-2.985-32.307-1.76-25.655-10.547-48.735-24.829-69.922a5.38,5.38,0,0,0-5.041-2.642c-4,.1-7.992.232-11.988.343a17.649,17.649,0,0,1-1.883-.011c-4.3-.331-4.316-.34-5.362,3.791-2.093,8.267-2.3,16.749-2.744,25.193a188.5,188.5,0,0,0,1.451,37.31c1.431,9.749,3.1,19.48,5.129,29.121,3.816,18.113,4.036,36.429,3.753,54.8a14.176,14.176,0,0,1-.239,2.333c-1.4,7.611-6.7,11.934-13.038,15.343a38.832,38.832,0,0,1-15.751,4.186c-7.89.6-15.789,1.114-23.661,1.893-5.1.5-9.647,3.011-14.436,4.629-15.452,5.216-30.557,11.465-46.438,15.4a246.246,246.246,0,0,1-51.8,6.993,215.945,215.945,0,0,1-31.408-1.448c-29.477-3.37-55.964-28.55-60.337-58.122a56.744,56.744,0,0,1,1.373-24,14.943,14.943,0,0,1,1.507-3.415c9.312-15.934,22.592-27.122,40.174-32.847,12.619-4.109,25.082-8.663,37.688-12.8,9.284-3.048,18.26-6.845,27.267-10.618,8.866-3.714,13.248-10.527,15.325-19.389,2.253-9.611,1.788-19.291.8-28.993-1.752-17.16-5.566-33.965-8.684-50.891a4.1,4.1,0,0,0-1.7-2.6,89.2,89.2,0,0,1-28.676-41.327c-1.871-5.647-2.094-11.692-3.179-17.536-.528-2.846-1.018-5.7-1.4-8.571-.139-1.06-.616-1.277-1.529-1.266-2.434.029-4.868.008-7.3.011-.457,0-.9-.06-1.2.47-2.922,5.06-8.041,6.767-13.133,8.325-17.5,5.358-33.063-.632-42.654-16.226-1.447-2.352-3.635-4.093-5.486-6.108a178.285,178.285,0,0,1-24.4-33.308,57.168,57.168,0,0,1-6.967-25.342c-.934-18.11,3.68-34.981,11.638-51.124,4.767-9.669,9.131-19.536,13.742-29.283,1.676-3.542,1.714-7.434,2.626-11.137a99.921,99.921,0,0,1,10.034-25.688,4.426,4.426,0,0,0,.633-3.268c-.992-5.254,1.427-9.274,5.1-12.695,1.158-1.078,1.493-1.91.664-3.541-5.338-10.507-1.276-20.933,9.786-25.161,1.577-.6,1.7-1.138,1.224-2.587a17.276,17.276,0,0,1,6.971-19.493A34.226,34.226,0,0,1,1890.5,792.1c1.1.1,1.627.253,1.718-1.2.7-11.194,10.519-13.088,17.527-11.982.46.072.912.2,1.368.3,1.739.376,2.44-.113,2.522-2.1.837-20.421,5.247-40.067,14.432-58.339,7.754-15.423,19.368-27.317,35.655-33.915,10.8-4.375,22.026-5.074,33.831-2.721-1.725-2.056-3.254-3.847-4.749-5.666a118.248,118.248,0,0,1-12.073-17.9,2.577,2.577,0,0,0-2.474-1.591c-21.363-1.139-38.5-10.216-51.643-27.176-4.757-6.14-9.746-12.065-13.315-19.02-6.483-12.633-10.064-26.021-9.374-40.236a53.024,53.024,0,0,1,13.362-32.633c8.194-9.5,16.508-18.9,24.7-28.406,5.045-5.848,7.418-12.881,8-20.425,2.914-37.99,14.7-72.829,36.9-103.911a161.135,161.135,0,0,1,39.516-38.649,6.1,6.1,0,0,0,2.412-3.271,154.59,154.59,0,0,1,29.53-51.092c6.869-7.989,13.7-15.952,22.23-22.246,6.929-5.112,14.363-9.132,22.939-10.767,1.432-.272,2.968.131,4.3-.689Z" transform="translate(-1805.789 -258.457)"/><path class="cls-2" d="M2213.81,694.325c-13.806.092-25.872,6.158-38.184,11.269-7.43,3.084-14.15,7.7-21.686,10.589a81.993,81.993,0,0,1-27.739,5.324,185.416,185.416,0,0,1-62.241-8.735c-17.737-5.778-34.557-13.436-49.194-25.263a114.352,114.352,0,0,1-27.214-31.527c-.345-.591-.862-1.115-.82-1.727,15.627-3.687,30.631-.986,45.411,4.093a132.925,132.925,0,0,1,24.322,11.527,126.278,126.278,0,0,0,52.678,17.055c12.158,1.175,23.856-1.39,35.526-4.107,14.631-3.4,28.2-9.555,41.538-16.333,10.2-5.188,20.308-10.5,29.148-17.892a43.844,43.844,0,0,0,6.976-7.3,14.7,14.7,0,0,0,2.758-10.415c-.1-1.327-.593-1.252-1.438-.654a3.7,3.7,0,0,0-1.407,1.84c-2.489,7.286-8.18,11.667-14.244,15.7-8.311,5.527-17.41,9.5-26.516,13.475-12.488,5.455-25.178,10.265-38.557,13.094-9.523,2.014-19.131,3.679-28.852,3.639-7.442-.03-14.7-2.078-21.872-4.078a139.681,139.681,0,0,1-28.991-11.858,140.428,140.428,0,0,0-52.776-16.3c-9.482-.989-18.972-.555-28.459-.605-19.631-.1-35.293-8.04-47.692-23.175-8.692-10.61-14.988-22.244-17.971-35.7-3.56-16.061-1.006-30.893,8.025-44.681,6.131-9.36,13.559-17.643,20.917-26a40.78,40.78,0,0,0,5.219-6.826,103.493,103.493,0,0,0,.914,15.848,8.8,8.8,0,0,0,2.461,5.362c7.474,7.677,15.983,13.777,26.164,17.295a42.8,42.8,0,0,0,11.991,1.965c.815.04,1.6-.011,1.84-1.024,1.456-6.208,4.7-11.7,7.06-17.544a186.75,186.75,0,0,0,13.522-77.38c-.323-9.172-1.493-18.275-5.427-26.759-2.256-4.866-5.374-8.975-10.124-11.718-4.608-2.662-9.085-2.423-13.525.323a86.765,86.765,0,0,0-7.6,5.829c11.074-23.747,26.516-43.985,47.952-59.814.352,3.125.54,6.107,1.042,9.036a139.4,139.4,0,0,0,15.643,43.473,2.6,2.6,0,0,0,1.794,1.4,12.248,12.248,0,0,0,1.835.33c7.781.4,7.761.386,12.135-6.017,1.856-2.718,3.791-5.383,5.735-8.04,1.434-1.961,2.94-3.871,4.626-6.081.556,3.594-.127,6.881-.213,10.161-.122,4.637.337,9.247.435,13.872a2.679,2.679,0,0,0,2.193,2.827c2.021.515,3.82,1.629,6,1.831a11.992,11.992,0,0,0,9.366-3.124c4.928-4.113,10.246-7.76,15.408-11.592.529-.392,1.113-.71,1.9-1.208-1.968,5.89-3.779,11.512-5.739,17.082-.874,2.484-.793,4.506,1.53,6.163,2.038,1.454,4.009,3.008,5.943,4.6,1.827,1.5,3.535,1.479,5.583.3a208.224,208.224,0,0,1,49.171-20.506c9.447-2.6,19.086-4.2,28.724-5.879,10.106-1.763,20.182-3.647,30.418-4.515a233.261,233.261,0,0,1,35.008-.435c7.736.508,15.514.833,23.054,2.86,18.433,4.955,32.293,15.7,42.089,32.208a155.808,155.808,0,0,1,17.165,42.6,200.4,200.4,0,0,1,5.508,45.413,211.1,211.1,0,0,1-15.675,82.932c-.146.362-.325.71-.489,1.064-1.614-.581-.6-1.673-.4-2.493.507-2.058,1.44-3.978,2.122-5.983.669-1.966,1.281-3.95,1.922-5.654a231.978,231.978,0,0,1-15.782,22.2,225.69,225.69,0,0,1-21.492,23.336c-14.813,13.839-30.461,26.61-48.126,36.73a237.755,237.755,0,0,1-27.395,13.523C2215.792,693.94,2214.734,693.867,2213.81,694.325Z" transform="translate(-1805.789 -258.457)"/><path class="cls-2" d="M1919.352,1355.515q-10.661-.783-21.321-1.57c-2.734-.2-5.468-.679-8.2-.639-7.052.1-13.3-2.3-19.341-5.621-19.431-10.694-28.338-27.566-28.822-49.287-.235-10.577,3.805-19,12.628-25.322,9.247-6.627,19.353-11.379,29.816-15.609,15.925-6.438,31.786-13.043,47-21.073a95.3,95.3,0,0,0,15.893-10.374c4.287-3.511,6.819-8.689,9.179-13.771,4.133-8.9,4.761-18.315,4.8-27.967a215.071,215.071,0,0,0-5.369-49.942c1.782,1.027,3.3,1.988,4.895,2.8a28.366,28.366,0,0,0,14.291,3.055c.937-.037,2.009.012,2.444-1.008s-.315-1.8-.924-2.5c-2.719-3.129-6.2-5.263-9.749-7.27-22.041-12.481-35.431-31.618-42.748-55.449a13.752,13.752,0,0,1-.72-4.855c-.658-1.873.719-2.5,1.968-3.187a78.723,78.723,0,0,1,16.421-6.386,84.738,84.738,0,0,1,25.312-3.45c3.843.084,7.69-.027,11.534.021a432.922,432.922,0,0,1,49.007,3.167,399.136,399.136,0,0,1,62.844,13c7.048,2.077,13.959,4.611,20.944,6.891a175.181,175.181,0,0,1,28.357,11.916,133.5,133.5,0,0,1,26.933,18.409c11.565,10.4,18.711,23.18,22.253,38.2,1.821,7.719,3.589,15.431,4.7,23.3.986,6.982,3.872,13.4,6.616,19.815a144.228,144.228,0,0,0,24.311,38.731,139.532,139.532,0,0,0,25.311,22.082,164.454,164.454,0,0,0,51.9,23.892c8.4,2.261,16.572,5.366,24.813,8.188,4.821,1.651,9.846,2.7,14.48,4.9a30.551,30.551,0,0,1,15.724,16.133c3.7,8.848,6.021,18.032,5.766,27.675a74.249,74.249,0,0,1-2.476,17.2c-.262.981-.474,2.059-1.855,2.052-6.2,3.588-12.961,5.308-20,6.221a241.38,241.38,0,0,1-31.874,2.143,235.474,235.474,0,0,1-52.342-6.41c-7.688-1.777-15.572-2.684-23.327-4.194a353.177,353.177,0,0,1-65.369-18.984c-9.019-3.655-14.924-11.192-19.036-19.995-2.929-6.269-3.563-13.091-4.744-19.772-3.735-21.131-4.345-42.536-5.7-63.887-.657-10.334-3.607-20.306-7.229-30a288.909,288.909,0,0,0-14.607-31.7c-.323-.623-.677-1.229-1.039-1.885,2.3-1.049,4.552-2.008,6.738-3.107a22.661,22.661,0,0,0,3.33-2.17c.535-.4,1.242-.936.94-1.728-.277-.729-1.113-.837-1.8-.868a85.379,85.379,0,0,0-8.925-.259c-9.423.569-18.8-.26-28.195-.626q-5.639-.221-11.277-.43c-.156-.006-.347-.1-.462-.041-5.069,2.665-9.862-.075-14.694-.891-6.7-1.133-13.114-3.482-19.579-5.559a17.125,17.125,0,0,0-5.289-.961c-.945,0-1.983.084-2.389,1.13a2.734,2.734,0,0,0,.5,2.661,13.163,13.163,0,0,0,4.416,3.434c1.285.733,2.629,1.363,3.946,2.039,1.443,2.6,1.643,5.553,2.273,8.367a261.961,261.961,0,0,1,5.062,34.212,237.947,237.947,0,0,1,.78,30.338c-.528,13.416-1.629,26.809-6.233,39.613-2.444,6.8-5.673,13.092-11.153,18.038a25.192,25.192,0,0,1-15.486,6.652,112.72,112.72,0,0,0-46.44,13.477c-9.171,4.988-17.288,11.336-25.09,18.217-4.887,4.309-9.949,8.409-14.434,13.156a81.778,81.778,0,0,0-6.856,8.072C1920.34,1348.78,1918.652,1351.791,1919.352,1355.515Z" transform="translate(-1805.789 -258.457)"/><path class="cls-2" d="M1963.488,787.322c-5.765-2.863-12.087-3.623-18.291-4.8-6.794-1.285-13.7-1.418-20.579-1.869-3.988-.262-4.058-.315-3.357-4.194,2.966-16.431,7.105-32.529,14.113-47.757,5.323-11.568,12.068-22.114,22.239-30.136,8.1-6.384,17.426-9.251,27.551-10.054,7.222-.572,14.184.8,21.09,2.637a5.2,5.2,0,0,1,2.015,1.145c14.171,12.592,31.165,19.812,48.871,25.624a203.024,203.024,0,0,0,59.292,9.884c4.466.1,8.928.4,13.393.561.533.019,1.389.509,1.6-.418.418-1.846,1.715-1.7,3.079-1.525,7.55.945,14.492-1.784,21.562-3.641,10.7-2.812,20.442-8.1,30.666-12.153a201.07,201.07,0,0,1,22.529-7.225c3.6-.955,7.177-.1,10.754-.022,5.948.126,11.89.55,17.834.848a37.841,37.841,0,0,1,8.185,7.712,107.546,107.546,0,0,1,25.712,57.617c.664,5.217,1.735,10.359,2.3,15.584a87.888,87.888,0,0,1-1.124,27.358,83.965,83.965,0,0,1-5.439,17.5c-.564,1.261-.824,2.73-2.089,3.593-2.21-.283-3.488-2.032-4.906-3.385-7.666-7.316-13.743-15.853-19.052-25-5.977-10.295-9.28-21.58-12.678-32.859-2.965-9.842-5.55-19.8-9.225-29.424a14.92,14.92,0,0,0-1.23-2.748,10.008,10.008,0,0,0-.582,3.775c-.117,8.627,1.43,17.044,3.512,25.347a194.632,194.632,0,0,0,13.938,37.438c4.569,9.436,11.418,17.225,19.563,23.839a27.932,27.932,0,0,0,6.868,4.058c.982.412,2.159.659,2.361,2.018-1.632,4.672-4.627,8.518-7.568,12.381-2.093,2.749-4.362,5.371-5.447,8.742a5.685,5.685,0,0,0-.53,2.752c.853,4.359-.411,8.6-.76,12.873a97.692,97.692,0,0,0,.348,17.378c.674,7.026,1.095,14.071,1.706,21.1.794,9.139,1.437,18.291,2.163,27.436.441,5.546,1.1,11.084,1.136,16.659.011,1.5.2,2.971.337,4.455.142,1.519.568,3.136-.619,4.493-1.447-.191-1.434-1.508-1.759-2.453-1.634-4.75-2.948-9.605-4.643-14.337a7.778,7.778,0,0,0-2.318-3.75,1.979,1.979,0,0,0-2.157-.54c-.859.419-.833,1.264-.756,2.058a20.655,20.655,0,0,0,.992,4.355c2.032,6.274,3.76,12.642,5.821,18.9,2.861,8.689,1.84,17.074-1.943,25.165a16.164,16.164,0,0,1-11.862,9.181,75.539,75.539,0,0,1-34.974-.668c-8.367-2.179-16.6-4.748-24.277-8.838-4.79-2.55-9.174-5.754-13.856-8.47-1.005-.582-2.338-2.052-3.243-.963-.975,1.173.55,2.36,1.418,3.333,1.054,1.182,2.139,2.257,3.938,2.239.863-.008,1.559.689,2.28,1.16a118.383,118.383,0,0,0,43.93,17.381,64.729,64.729,0,0,0,28-1.179c5.578-1.434,9.767-4.84,13.233-9.282.525-.674.886-1.5,1.737-1.869,1.544.425,1.116,1.751,1.1,2.727a130.32,130.32,0,0,1-2.3,20.8,52.637,52.637,0,0,1-5.512,16.684,19.368,19.368,0,0,1-9.478,8.469,59.787,59.787,0,0,1-19.76,4.922c-12.584.924-24.7-1.357-36.654-4.763-17.9-5.1-34.8-12.643-51.114-21.544-14.224-7.759-27.94-16.3-40.465-26.632a53.2,53.2,0,0,1-8.089-7.854,9.207,9.207,0,0,1-1.979-7.241c1.421-11.82,5.668-22.551,11.518-32.872,5.028-8.87,8.959-18.335,13.314-27.565,1.575-3.339,3.322-6.585,4.933-9.9.6-1.242,1.613-1.334,2.778-.916a144.681,144.681,0,0,1,35.052,6.177c13.6,4.111,27.322,7.9,40.2,14.081a65.112,65.112,0,0,1,11.475,6.81,27.75,27.75,0,0,1,8.206,9.539,49.2,49.2,0,0,0,5.785,9.367c.61.738,1.236,2.018,2.366,1.508,1.018-.46.792-1.739.583-2.73a40.509,40.509,0,0,0-10.11-20.039c-7.622-8.021-17.294-12.774-27.407-16.776a157.6,157.6,0,0,0-15.1-5.072c-1.049-.3-1.9-.517-1.537-1.993,3.69-15.045,5.845-30.42,9.768-45.42a157.878,157.878,0,0,1,11.166-29.771c2.642-5.377,5.009-10.976,5.595-17.077.623-6.484.229-12.847-2.606-18.856a23.035,23.035,0,0,0-1.418-2.425,5.837,5.837,0,0,0-.907-.819,132.015,132.015,0,0,0,.247,15.968c.137,1.821-.181,3.593-.1,5.394.072,1.641-.659,3.258.649,4.9.612.77-.325,2.223-.644,3.343-.363,1.276-.8,2.531-1.207,3.8-3.39,5.379-8.252,9.36-12.927,13.5a107.029,107.029,0,0,1-16.026,11.425c-.781.469-1.544,1.166-2.574.565a139.479,139.479,0,0,0-16.609-11.425c-7.21-4.222-15.059-5.9-23.171-7.016-10.632-1.463-21.309-.95-31.964-.837-7.18.077-14.214-.952-21.3-1.707a277.616,277.616,0,0,0-43.216-1.381c-4.774.237-9.557.383-14.3,1.034-.943.129-1.434-.4-1.973-1-3.212-3.543-6.38-7.129-9.688-10.582-1.229-1.283-.775-2.663-.627-3.969a74.42,74.42,0,0,1,8.406-27.161c4.97-9.236,9.947-18.467,16.086-27,.776-1.08,1.681-2.068,2.462-3.145a11.413,11.413,0,0,0,1.438-2.4c.468-1.18.767-2.626-.226-3.538-1.062-.974-2.156.092-3.179.622-4.123,2.135-7.231,5.4-10.064,8.975-9.763,7.458-19.381,15.138-30.973,19.733-1.969.78-3.984,1.409-5.974,2.12A3.881,3.881,0,0,1,1963.488,787.322Z" transform="translate(-1805.789 -258.457)"/><path class="cls-3" d="M1817.916,991.221a125.675,125.675,0,0,1-3.007-17.1c-.5-4.56.888-8.865,1.818-13.2A222.041,222.041,0,0,1,1830,919.486c.143-.33.327-.641.715-1.393a31.584,31.584,0,0,0,1.066,6.665,20.367,20.367,0,0,0,8.265,12.349c11.157,7.694,23.279,10.794,36.713,8.6,2.235-.365,4.534-.419,6.524-1.666.774-.486,1.782-.934,1.6-2.1-.2-1.237-1.352-1.159-2.229-1.308-3.587-.609-7.179.163-10.782-.007a53.528,53.528,0,0,1-29.211-10.321c-3.979-2.847-4.8-7.205-5.67-11.439-1.271-6.158-1.136-12.289,1.907-18.049,2.75-5.173,6.326-9.488,11.882-11.886a38.237,38.237,0,0,1,8.19-2.032q7.507-1.431,14.921-3.256c.895-.221,2.142-.945,2.642.7a50.383,50.383,0,0,0-8.88,14.971,103.054,103.054,0,0,0,14.943-10.592,194.967,194.967,0,0,1,80.929-40.293,275.194,275.194,0,0,1,69.631-7.675,324.315,324.315,0,0,1,34.165,2.915c8.41,1.067,16.93.362,25.4.336,13.175-.04,25.808,1.864,37.465,8.566,9.615,5.528,18.736,11.66,26.628,19.507a4.429,4.429,0,0,1,.571,3.4c-.86,6.845-3.825,12.446-10.043,15.846-5.65,3.09-11.437,2.909-17.15.062a51.911,51.911,0,0,0-15.636-4.974c-2.542-.377-4.907.994-7.446.558-.494-.085-.906.557-1.312.926-8.778,7.963-17.819,15.62-26.936,23.189q-21.028,17.455-42.986,33.725-24.809,18.36-50.645,35.243c-16.332,10.631-33.011,20.664-50.549,29.18-13.866,6.733-28.1,12.551-43.275,15.72a69.253,69.253,0,0,1-14.231,1.7,65.728,65.728,0,0,1-34.122-9.244,71.115,71.115,0,0,1-7.893-5.554,32.139,32.139,0,0,1-7.845-8.672A59.2,59.2,0,0,0,1817.916,991.221Z" transform="translate(-1805.789 -258.457)"/><path class="cls-4" d="M2254.391,964.876c.626-.565.454-1.327.391-1.994-.586-6.141-.613-12.316-1.26-18.461-.457-4.339-.722-8.714-1.048-13.074-.57-7.627-1.056-15.258-1.836-22.87-.494-4.815-.7-9.66-1.013-14.493-.281-4.363-1-8.688-.963-13.082a97.967,97.967,0,0,1,1.357-16.088,4.164,4.164,0,0,0,.021-1.87c-1.1-3.526.344-6.46,2.141-9.268,3.034-4.737,7.018-8.815,9.645-13.84.617-1.18,1.269-2.34,1.905-3.509,1.616-.581,2.667,1.023,4.183,1.025-.716-1.458-2.744-2-2.8-3.917,3.857-7.233,5.939-15.049,7.6-23.011a75.872,75.872,0,0,0,1.3-13.956,78.313,78.313,0,0,0-1.643-17.667c-1.258-6.018-1.464-12.2-2.782-18.233a107.526,107.526,0,0,0-16.568-38.51,90.185,90.185,0,0,0-11.144-13.568,26.263,26.263,0,0,1-4.022-4.26c5.874.192,11.784.05,17.612.677,5.179.557,9.771,3.213,14.223,5.823,15.035,8.816,25.12,21.619,30.686,38.128,3.082,9.142,5.756,18.367,6.974,27.954a125.1,125.1,0,0,1,.942,23.7c-.5,7.9-.722,15.818-2.12,23.636a121.074,121.074,0,0,1-9.154,30.221,40.824,40.824,0,0,0-3.213,9.535c-.115.6-.583,1.263.075,1.727.774.544,1.292-.22,1.828-.605.618-.444,1.175-.974,1.862-1.554a27.907,27.907,0,0,1,.592,5.922c.561,12.31.484,24.617-.164,36.92-1.074,20.376-4.194,40.463-8.013,60.493-2.445,12.824-4.125,25.8-6.369,38.671q-3.564,20.452-7.784,40.778a15.958,15.958,0,0,0-.3,3.263q-.01,11.779,0,23.559c0,7.2-4.065,12.975-10.625,16.03-5.588,2.6-11.178,5.082-17.22,6.418a32.279,32.279,0,0,1-7.893.91,10.682,10.682,0,0,1-7.767-3.845,11.027,11.027,0,0,0-8.314-3.753,355.51,355.51,0,0,1-135.154-28.313c-14.8-6.291-29.962-11.822-44.082-19.7a229.759,229.759,0,0,1-38-26.349c-.768-.659-1.495-1.367-2.339-2.142,9.659-7.077,18.895-14.444,27.86-22.153a708.714,708.714,0,0,0,59.35-58.062c5.52-6,10.925-12.114,16.366-18.191a6.976,6.976,0,0,0,1.339-1.9c.725-1.783,1.931-2.033,3.544-1.362-1.375-.01-2.088.532-2.74,1.923-5.615,11.979-11.225,23.965-17.172,35.779-2.778,5.519-5.973,10.806-8.037,16.683a83.676,83.676,0,0,0-4.129,18.214c-.272,2.365.861,4.2,2.34,5.915,4.677,5.436,10.36,9.713,16.092,13.908a289.079,289.079,0,0,0,47.7,28.062,217.737,217.737,0,0,0,39.086,14.553,125.062,125.062,0,0,0,22.819,3.669,64.2,64.2,0,0,0,27.958-4.285c6.363-2.482,10.354-7.028,12.707-13.264a87.658,87.658,0,0,0,4.691-21.907,96.288,96.288,0,0,0,.895-11.2c-.008-.753.274-1.585-.4-2.232-.489-.982.078-1.838.375-2.7a37.373,37.373,0,0,0-.014-25.359C2254.365,967.31,2253.54,966.156,2254.391,964.876Z" transform="translate(-1805.789 -258.457)"/><path class="cls-4" d="M2357.968,1351.658a3.123,3.123,0,0,0,1.152-1.671c.915-4.189,1.7-8.384,2.219-12.656a53.562,53.562,0,0,0-1.024-18.382c-2.147-9.551-4.828-18.859-12.83-25.49-3.939-3.262-8.513-5.171-13.324-6.716-10.355-3.327-20.626-6.924-31.021-10.118-7.549-2.32-15.185-4.369-22.492-7.394a162.722,162.722,0,0,1-39.714-23.363,128.062,128.062,0,0,1-33.844-39.5,151.885,151.885,0,0,1-13.339-30.513c-1.436-4.637-1.536-9.527-2.51-14.263-2.034-9.892-4.327-19.723-8.229-29.048a57.24,57.24,0,0,0-10.376-15.849c-12.622-14.147-28.545-23.4-45.7-30.877-5.092-2.22-10.349-4.014-15.4-6.316-.141-.113-.18-.214-.119-.3s.114-.125.169-.125a379.965,379.965,0,0,0,46.688,11.367q18.188,3.152,36.591,4.547c9.239.688,18.483.94,27.74,1a9.481,9.481,0,0,1,6.271,2.334,25,25,0,0,0,14.89,6.168,69.206,69.206,0,0,1-10.236,14.4,50.994,50.994,0,0,1-21.72,14.306,61.384,61.384,0,0,0-7.511,3.324c-.864.436-2.426.835-2.028,2.16s1.916,1.144,3.072,1.13a36.177,36.177,0,0,0,9.429-1.777,121.165,121.165,0,0,0,11.5-3.984,4.962,4.962,0,0,1,2.518-.68,141.069,141.069,0,0,0,3.8,22.88c-.318,1.552.452,2.911.913,4.269,3.777,11.124,7.163,22.406,12.663,32.864a98.817,98.817,0,0,0,10.576,16.637c2.991,3.668,7.136,6.114,11.235,8.435,6.772,3.834,14.036,6.629,21.133,9.774,15.563,6.9,31.371,13.311,45.761,22.567,12.41,7.983,24.731,16.1,35.176,26.693a41.066,41.066,0,0,1,10.376,17.1c.113.372.083.945.691,1.029,1.613,3.588,1.008,7.4.908,11.1-.346,12.8-3.173,24.92-10.8,35.5a36.292,36.292,0,0,1-11.211,9.878C2359.031,1352.691,2358.492,1352.554,2357.968,1351.658Z" transform="translate(-1805.789 -258.457)"/><path class="cls-5" d="M2283.605,1047.825q1.226-6.326,2.451-12.653c.3-1.57,1.192-.734,1.858-.409a156.06,156.06,0,0,0,27.319,10.416,179.165,179.165,0,0,0,43.576,6.21,186.392,186.392,0,0,0,72.72-13.184,143.339,143.339,0,0,1,29.681-8.515,31.955,31.955,0,0,1,10.284-.273c4.676.767,6.694,3.251,6.241,7.95-.506,5.255-2.712,9.931-5.129,14.5a214.342,214.342,0,0,1-25.073,36.549c-.5.6-.971,1.223-1.455,1.835-6.009,4.04-12.88,6.1-19.64,8.329a144.336,144.336,0,0,1-27.286,6.155,132.767,132.767,0,0,1-14.747,1.269c-4.7.061-9.355.842-14.059,1.076a128.667,128.667,0,0,1-13.607-.03,158.816,158.816,0,0,1-18.21-2.073c-7.29-1.261-14.544-2.656-20.354-7.841a84.862,84.862,0,0,1-9.675-10.263c-6.551-8.165-11.976-17.086-17.281-26.079-1.874-3.178-3.947-6.23-5.809-9.416A22.1,22.1,0,0,1,2283.605,1047.825Z" transform="translate(-1805.789 -258.457)"/><path class="cls-4" d="M1919.352,1355.515a3.7,3.7,0,0,1-.6-3.927c1.258-3.812,3.678-6.839,6.191-9.865,6.492-7.82,14.48-14.012,22.036-20.692a114.059,114.059,0,0,1,26.447-17.658,110.5,110.5,0,0,1,33.494-10.1c4.32-.562,8.725-.457,12.968-1.634,8.067-2.237,13.528-7.618,17.436-14.71,4.781-8.676,6.956-18.148,8.359-27.888a219.911,219.911,0,0,0,1.788-36.279c-.167-7.641-.9-15.253-1.7-22.867a254.779,254.779,0,0,0-5.685-32.2,10.858,10.858,0,0,1-.122-1.874c7.808,3.4,15.73,6.468,24.118,8.152.459.092.913.227,1.376.278,1.371.151,2.227.52,1.587,2.226a8.232,8.232,0,0,0-.2,2.791q-.054,21.064-.084,42.128c-.452,4.648.62,9.166,1.25,13.71,1.73,12.475,3.927,24.881,5.765,37.337a272.24,272.24,0,0,1,3.191,35.87,2.05,2.05,0,0,0,.161.679,43.258,43.258,0,0,1-4.018,16.727c-4,8.168-10.9,11.968-19.418,13.468a57.267,57.267,0,0,1-13.378.315c-8.432-.5-16.438,1.052-24.424,3.587-7,2.223-13.886,4.74-20.73,7.373-10.03,3.86-20.526,6.171-30.719,9.475-6.528,2.116-13.3,2.447-20.013,3.269-7.128.874-14.271,1.625-21.392,2.551A7.791,7.791,0,0,1,1919.352,1355.515Z" transform="translate(-1805.789 -258.457)"/><path class="cls-4" d="M2283.605,1047.825c3.633,4.719,6.5,9.93,9.543,15.019,4.987,8.33,10.109,16.577,16.225,24.128a66.965,66.965,0,0,0,11.27,11.279c5.147,3.931,11.3,4.915,17.328,6.009a130.626,130.626,0,0,0,28.665,2.419c7.948-.326,15.868-1.283,23.812-1.762a150.118,150.118,0,0,0,29.911-5.2,148.417,148.417,0,0,0,23.338-8.5c.777-.356,1.587-.642,2.381-.961-3.159,4.025-7.1,7.262-10.946,10.554a229.649,229.649,0,0,1-64.78,39.231,252.923,252.923,0,0,1-42.974,12.453c-6.8,1.393-13.351,3.875-20.155,5.374a229.37,229.37,0,0,1-40.713,5.2c-6.757.258-13.476-.221-20.212-.209a2.008,2.008,0,0,1-2.272-1.736,183.8,183.8,0,0,1-5.717-28.753,5.338,5.338,0,0,1,1.461-4.42,98.443,98.443,0,0,0,13.262-20.176,4.8,4.8,0,0,1,2.971-2.607c6.918-2.511,13.894-5.022,19.347-10.266a29.591,29.591,0,0,0,9.576-21.743,133.54,133.54,0,0,0-1.3-22.519A18.228,18.228,0,0,1,2283.605,1047.825Z" transform="translate(-1805.789 -258.457)"/><path class="cls-4" d="M1817.916,991.221c3.771,1.894,5.89,5.4,7.948,8.755,8.824,14.389,22.448,21.231,38.226,24.754,13.4,2.993,26.366.421,39.159-3.488,13.973-4.271,27.23-10.285,40.146-17.046,13.661-7.151,26.883-15.08,39.811-23.469q34.038-22.087,66.2-46.848c11.386-8.764,22.558-17.817,33.6-27.009,7.809-6.5,15.6-13.039,22.986-20.035.686-.65,1.277-1.477,2.334-.478a1.245,1.245,0,0,0,1.089.164c4.791-1.961,9.255-.006,13.687,1.3a56.907,56.907,0,0,1,8.192,3.441,17.356,17.356,0,0,0,22.338-6.681,20.9,20.9,0,0,0,3.164-12.513c1.525,1.456,3.029,2.936,4.585,4.358a1.968,1.968,0,0,1,.487,2.34,185.452,185.452,0,0,0-7.387,30.526c-.219,1.406-.907,1.167-1.781.91a153.1,153.1,0,0,0-22.928-4.9c-4.552-.61-9.118-1.067-14.278-1.294,2.29-1.533,4.286-2.587,5.844-4.2.851-.879,2.167-1.762,1.3-3.163a3.332,3.332,0,0,0-3.956-1.3,11.133,11.133,0,0,0-5.16,3.526c-10.288,11.1-20.069,22.663-30.563,33.58a764.54,764.54,0,0,1-56.412,52.621c-11.911,10.12-24.039,19.861-37.4,28.019a239.923,239.923,0,0,1-72.258,29.365c-6.542,1.49-13.247,2.074-19.889,2.983a4.178,4.178,0,0,0-2.5,1.064c-4.594,4.308-10.069,6.248-16.35,6.588-4.42.239-8.727,1.211-13.224.013-6.455-1.719-11.867-4.965-15.706-10.332a93.364,93.364,0,0,0-8.022-9.169c-11.032-11.834-18.255-25.861-23.742-40.9C1817.252,992.1,1816.512,991.334,1817.916,991.221Z" transform="translate(-1805.789 -258.457)"/><path class="cls-6" d="M2166.92,407.473a209.2,209.2,0,0,0-44.21,15.865c-3.2,1.593-6.351,3.263-9.579,4.925-.386-1.081.241-1.808.545-2.546a179.264,179.264,0,0,1,25.392-43.166c2.249-2.839,5.3-4.642,8.169-6.65a252.347,252.347,0,0,1,77.72-36.483c11.422-3.177,22.592-7.258,34.143-10.027,11.972-2.87,24.016-5.24,36.407-5.142a49.971,49.971,0,0,1,14.59,2.051,10.843,10.843,0,0,1,5.5,3.753,73.484,73.484,0,0,1,16.078,39.9,52.482,52.482,0,0,1,.288,8.682c-.443,2.513.188,5.076-.35,7.585l-.093,2.752a.713.713,0,0,1-.811-.668c-.262-2.825-2.35-4.315-4.286-5.9-7.274-5.939-15.791-8.8-24.945-10.185a102.55,102.55,0,0,0-30.443.241c-13.893,2.044-27.411,5.82-40.877,9.693a298.973,298.973,0,0,0-47.546,18.407c-4.094,1.981-8.087,4.168-12.2,6.1C2169.342,407.167,2168.3,408.139,2166.92,407.473Z" transform="translate(-1805.789 -258.457)"/><path class="cls-6" d="M2082.471,417.769c-.887-1.985-.313-3.779-.285-5.552a126.654,126.654,0,0,1,7.643-41.13c1.325-3.685,3.8-6.652,5.99-9.778,13.351-19.058,29.66-35.156,48.235-49.161,8.766-6.609,17.294-13.468,26.99-18.7a136.478,136.478,0,0,1,38.876-14.063,40.668,40.668,0,0,1,12.907-.046,15.194,15.194,0,0,1,9.139,5.222,59.413,59.413,0,0,1,12.023,21.588c.254.783.85,1.46-.65,1.862-14.09,3.771-27.3,9.72-40.622,15.6-8.621,3.805-17.348,7.409-25.75,11.68a300.924,300.924,0,0,0-47.884,30.052c-6.246,4.827-10.6,11.494-14.657,18.239a82.139,82.139,0,0,0-6.83,14.392,4.227,4.227,0,0,1-1.491,2.314C2098.049,405.725,2090.3,411.578,2082.471,417.769Z" transform="translate(-1805.789 -258.457)"/><path class="cls-5" d="M1993.094,834.858a195.851,195.851,0,0,0-27.716,3.9,184.667,184.667,0,0,0-34.9,11.434,3.127,3.127,0,0,1-3.562-.469,30.986,30.986,0,0,1-6.049-5.53,22.736,22.736,0,0,0-4.87-4.409,18.538,18.538,0,0,0-9.8-3.195c-15.044-.9-29.345,3.081-43.822,5.991-.614.123-1.23.235-1.84.374-3.717.85-4.061.656-5.3-3.02-2.133-6.336,1.937-14.586,8.32-16.263,1.379-.363,3.079.541,4.777.37,11.307-1.14,22.628-2.137,33.946-3.172,4.058-.372,8.114-.919,12.18-1.027,4.72-.125,8.605,2.064,11.879,5.324,3.113,3.1,6.193,6.239,9.186,9.455,2.616,2.812,5.918,4.6,9.161,6.486.565.328,1.306.922,1.878.284.492-.549.2-1.365-.2-1.973a14.438,14.438,0,0,0-1.916-2.654c-4.976-4.712-9.148-10.13-13.519-15.366-3.956-4.741-8.743-7.1-15.018-6.344-15.016,1.8-30.071,3.24-45.131,4.629-1.983.183-2.586-.511-2.776-2.277-1.054-9.787,5.608-16.666,15.162-17.945,3.65-.489,7.327-.764,10.987-1.178.9-.1,1.688-.393,1.693,1.054.006,1.488,1.278.842,1.969.845,9.893.045,19.789.177,29.678-.016,7.89-.153,13.68,3.353,18.027,9.568s8.589,12.543,12.737,18.91c1.044,1.6,2.362,2.41,3.819,1.462,1.412-.919,1.025-2.673.217-4.034-4.315-7.27-8.454-14.657-13.072-21.73-3.768-5.774-9.229-8.947-16.428-8.742-5.806.165-11.634-.217-17.426.111-4.771.27-9.532.326-14.3.418-1.4.027-2.06-.173-2.062-1.863-.009-5.891,3.77-9.5,9.718-8.99,4.842.419,9.669,1.139,14.517,1.31,3.646.129,7.3-.184,10.972.082a119.234,119.234,0,0,1,24.708,4.273c3.015.875,4.95,3.259,6.927,5.443a29.523,29.523,0,0,1,6.743,13,21.417,21.417,0,0,0,6.141,10.824C1983.563,824.775,1988.067,829.69,1993.094,834.858Z" transform="translate(-1805.789 -258.457)"/><path class="cls-6" d="M2054.791,408.945a205.28,205.28,0,0,1-9.812-48.591c-.552-6.536,1.95-11.869,4.845-17.006,12.868-22.838,28.252-43.608,49.609-59.452,6.958-5.162,14.075-9.585,22.725-11.077,10.492-1.809,20.3-.622,28.736,6.723-5.929,4-11.875,8.132-16.98,13.221-11.048,11.013-23.741,20.242-34.155,31.942a193.939,193.939,0,0,0-26.029,36.445c-2.109,3.892-2.312,8.412-3.067,12.712a62.522,62.522,0,0,0-1.09,10.042,9.176,9.176,0,0,1-2.237,5.737,139.133,139.133,0,0,0-11.221,17.061C2055.732,407.373,2055.33,408.033,2054.791,408.945Z" transform="translate(-1805.789 -258.457)"/><path class="cls-7" d="M2166.92,407.473c4.294-1.538,8.228-3.839,12.263-5.905a284.477,284.477,0,0,1,27.022-11.971,304.764,304.764,0,0,1,40.5-12.564c3.414-.8,6.971-1.156,10.25-2.317a45.317,45.317,0,0,1,9.194-2.29c3.471-.463,6.937-1,10.424-1.306a107.985,107.985,0,0,1,15.247-.48c10.855.6,21.442,2.31,30.867,8.263a46.965,46.965,0,0,1,7.657,6.168c1.226,1.195.234,2.787,1.184,3.9-.479,8.164-2.56,16.007-4.847,23.8a116.754,116.754,0,0,1-4.382,12.547c-.265.629-.462,1.617-.91,1.764-.788.257-.993-.8-1.4-1.319-11.573-14.789-26.589-24.09-45.064-27.207a200.664,200.664,0,0,0-42.862-2.092,241.68,241.68,0,0,0-63.523,11.62,4.952,4.952,0,0,1-2.57.587Z" transform="translate(-1805.789 -258.457)"/><path class="cls-4" d="M2111.587,1079.077a3.1,3.1,0,0,1-.05.428c-7.556-2.287-15.013-4.884-22.628-7q-20.758-5.754-41.944-9.6-14.727-2.654-29.611-4.132c-5.27-.532-10.591-.8-15.888-1.148-12.523-.83-25.048-.909-37.58-.825-10.423.07-20.419,2.409-30.164,6-3.1,1.141-6.049,2.571-9.012,4a2.356,2.356,0,0,0-1.609,2.31c-1.856-5.548-2.166-11.339-2.678-17.1-.083-.927.45-1.186,1.261-1.313,28.061-4.394,52.2-17.673,75.232-33.391,1.921-1.311,2.824-1.294,4.436.437a178.213,178.213,0,0,0,70.317,46.293c11.142,4.079,21.952,9.075,33.243,12.805C2107.139,1077.583,2109.362,1078.333,2111.587,1079.077Z" transform="translate(-1805.789 -258.457)"/><path class="cls-8" d="M1965.511,525.351a166.532,166.532,0,0,1,8.176-47.94c1.838-5.728,3.224-11.6,6.086-16.966a61.848,61.848,0,0,1,13.75-17.736,3.431,3.431,0,0,1,2.471-1.081c2.823.061,5.649.044,8.474.009.987-.012,1.553.131,1.647,1.357.387,5,1.339,9.994,1.239,14.975-.105,5.276-.558,10.574-.944,15.855a237.178,237.178,0,0,1-6.961,41.373,174.179,174.179,0,0,1-9.014,25.877,2.152,2.152,0,0,1-2.708,1.5,47.316,47.316,0,0,1-20.352-8.6,3.947,3.947,0,0,1-1.895-3.916C1965.628,528.5,1965.511,526.92,1965.511,525.351Z" transform="translate(-1805.789 -258.457)"/><path class="cls-4" d="M2213.81,694.325c4.257-1.948,8.482-3.969,12.777-5.828a189.011,189.011,0,0,0,22.293-12.024,212.9,212.9,0,0,0,29.142-21.216c8.357-7.209,16.659-14.517,24.118-22.676a230.356,230.356,0,0,0,27.757-36.512c.1-.159.348-.223,1.006-.62-1.312,3.806-2.558,7.148-3.6,10.552-.589,1.922-2.063,3.661-1.406,5.886a140.269,140.269,0,0,1-24.721,41.427,150.011,150.011,0,0,1-50.018,38.251c-.282.134-.565.267-.839.417a26.925,26.925,0,0,1-16.348,3.414C2227.287,694.65,2220.512,695.073,2213.81,694.325Z" transform="translate(-1805.789 -258.457)"/><path class="cls-6" d="M2298.8,318.648c-6.085.206-12.109.163-18.141.495a181.981,181.981,0,0,0-66.424,16.126c-10.581,4.849-21.66,8.446-32.135,13.544-15.05,7.326-29.412,15.77-42.482,26.217-7.621,6.092-13.07,14.13-17.545,22.762-5.114,9.863-9.109,20.228-13.38,30.468-1.084,2.6-1.012,2.419-3.441,1.1-2.331-1.263-2.757-2.517-1.861-5.159a142.541,142.541,0,0,1,31.029-52.312c4.113-4.4,9.549-7.341,14.544-10.719,17.421-11.781,35.987-21.393,55.263-29.781,11.031-4.8,21.909-9.889,33.494-13.267,11.905-3.471,23.985-6.137,36.366-6.863C2283.082,310.735,2291.157,314.137,2298.8,318.648Z" transform="translate(-1805.789 -258.457)"/><path class="cls-6" d="M2215.091,271.807c-13.982.867-26.223,5.535-38.231,10.865-13.187,5.853-24.991,13.894-36.039,23.16-7.746,6.5-15.833,12.577-23.114,19.63a208.344,208.344,0,0,0-30.952,37.458c-3.488,5.462-4.872,11.853-5.737,18.22-1.406,10.336-1.594,20.783-2.411,31.174-.14,1.786-.3,3.57-.453,5.373-5.667-1.211-5.605-1.211-5.682-6.8a158.671,158.671,0,0,1,5.14-42.326c.869-3.343,2.655-6.164,4.347-9.042a184.4,184.4,0,0,1,45.267-51.735c4.045-3.191,7.431-7.2,11.313-10.619a133.943,133.943,0,0,1,54.483-29.342c5.442-1.454,10.876.169,16.151,1.71C2211.017,270.073,2212.774,270.906,2215.091,271.807Z" transform="translate(-1805.789 -258.457)"/><path class="cls-5" d="M1923.94,852.782a273.03,273.03,0,0,0-29.106,14.473,4.443,4.443,0,0,1-2.492.482,133.414,133.414,0,0,0-24.382,1.5c-7.809,1.188-16.829-8.243-16.486-14.962.165-3.233,3.071-7.273,6.732-7.974,10.661-2.042,21.447-2.469,32.235-3,5.007-.247,10.02-.437,15.012-.868,2.5-.217,4.551.682,6.676,1.7C1916.5,846.216,1919.771,849.762,1923.94,852.782Z" transform="translate(-1805.789 -258.457)"/><path class="cls-6" d="M2120.022,267.836a91.344,91.344,0,0,0-14.43,5.366c-9.2,4.547-16.743,11.278-24.074,18.26a165.478,165.478,0,0,0-23.851,29.313c-4.387,6.669-9.286,12.986-12.7,20.268a91.161,91.161,0,0,0-5.139,13.064c-.979,3.347-.024,6.71.364,10.025a222.451,222.451,0,0,0,10.358,45.691,2.25,2.25,0,0,1,.066.453c-3.735.831-3.89.742-5.282-2.676a170.918,170.918,0,0,1-11.877-49.571,18.858,18.858,0,0,1,.908-8.105,162.07,162.07,0,0,1,28.215-49.808c6.666-8.047,13.357-16.036,21.588-22.562,6.7-5.311,13.9-9.585,22.557-10.886C2111.236,265.99,2115.57,267.17,2120.022,267.836Z" transform="translate(-1805.789 -258.457)"/><path class="cls-9" d="M2004.876,437.608c-8.359-2.405-14.086,1.451-19.087,7.027-7.036,7.844-11.07,17.329-14.6,27.08a167.827,167.827,0,0,0-9.888,55.911c0,.375,0,.75,0,1.524-2.982-2.714-5.562-4.8-5.3-9.351a250.519,250.519,0,0,1,7.262-46.081c2.247-9.023,4.167-18.1,7.91-26.68a112.939,112.939,0,0,1,13.427-23.056,8.1,8.1,0,0,1,11.073-2.161,15.7,15.7,0,0,1,6.562,7.167A45.39,45.39,0,0,1,2004.876,437.608Z" transform="translate(-1805.789 -258.457)"/><path class="cls-4" d="M1963.488,787.322c4.309-.638,8.189-2.508,12.132-4.2,7.469-3.21,13.8-8.2,20.368-12.848,2.337-1.655,4.526-3.577,7.195-4.745a144.289,144.289,0,0,0-16.477,29.647,57.851,57.851,0,0,0-4.343,21.489,7.966,7.966,0,0,1-3.449-3.891c-1.941-5.373-4.575-10.446-6.9-15.654C1970.18,793,1967.062,789.951,1963.488,787.322Z" transform="translate(-1805.789 -258.457)"/><path class="cls-4" d="M1876.524,884.336a1.156,1.156,0,0,0-1.46-.415c-6.682,1.909-13.533,3.036-20.326,4.439-6.366,1.316-10.94,5.145-14.112,10.74-.417.735-.661,1.647-1.737,1.715-.226-4.686,1.128-9.116,2.267-13.569a80.421,80.421,0,0,1,7.094-18.044c1.718,1.317,3.291,2.576,4.917,3.761,8.257,6.02,17.425,5.481,26.755,3.661,1.524-.3,3.023-.716,4.843-1.153Z" transform="translate(-1805.789 -258.457)"/><path class="cls-4" d="M2151.106,856.057c4.325-1.742,8.009-4.56,11.7-7.284a97.8,97.8,0,0,0,17.955-16.434,19.375,19.375,0,0,1,1.871-1.769,74.6,74.6,0,0,1-6.423,14.546,208.251,208.251,0,0,0-11.5,25.309A116.687,116.687,0,0,0,2151.106,856.057Z" transform="translate(-1805.789 -258.457)"/><path class="cls-10" d="M2381.119,1295.625c-.161.472-.283,1.081-.6.05a48.834,48.834,0,0,0-4.165-9.171c-2.613-4.752-6.385-8.521-10.322-12.094a176.707,176.707,0,0,0-18.968-14.885,242.716,242.716,0,0,0-36.285-21.065c-9.463-4.311-19.046-8.36-28.573-12.53-8.676-3.8-17.392-7.584-24.54-13.987-2.908-2.605-4.718-6.2-6.838-9.477-6.207-9.6-10.377-20.108-13.973-30.9-1.483-4.448-3.079-8.858-4.395-13.362-.2-.682-.52-1.339.133-1.949,3.8,11.9,7.51,23.832,13.131,35.049a94.868,94.868,0,0,0,10.494,16.939c3.884,4.852,9.193,8.081,14.734,10.645,12.612,5.836,25.442,11.2,38.059,17.023,22.1,10.2,42.557,22.97,60.3,39.8A40.857,40.857,0,0,1,2381.119,1295.625Z" transform="translate(-1805.789 -258.457)"/><path class="cls-11" d="M2077.119,1298.993c-.8-2.232-.636-4.615-.769-6.891a353.5,353.5,0,0,0-4.67-38.7c-1.485-8.74-2.612-17.542-3.926-26.312-.669-4.468-1.556-8.913-1.393-13.464.027-.754-.269-1.583.391-2.233,1.663,13.517,3.768,26.968,5.977,40.4a320.563,320.563,0,0,1,4.518,43.9C2077.275,1296.8,2077.165,1297.9,2077.119,1298.993Z" transform="translate(-1805.789 -258.457)"/><path class="cls-7" d="M2331.618,386.219c.072-2.53-.441-5.088.35-7.585C2332,381.169,2332.306,383.717,2331.618,386.219Z" transform="translate(-1805.789 -258.457)"/><path class="cls-1" d="M2177.818,596.629a99.732,99.732,0,0,1-47.018-10.551,65.99,65.99,0,0,1-6.284-4.087c-1.609-1.05-1.27-2.165-.129-2.932,1.658-1.113,1.467-2.534,1.261-4.083a130.282,130.282,0,0,1,.916-40.032,135.159,135.159,0,0,1,17.628-46.419c5.36-8.937,10.589-17.94,17.556-25.769,6.214-6.983,13.1-13.192,22.124-16.195,15.266-5.08,28.373-.454,39.736,9.987,8.27,7.6,12.611,17.577,15.587,28.187,2.636,9.4,4.416,19.1,3.944,28.751-.3,6.146-.414,12.364-.953,18.536a173.785,173.785,0,0,1-6.7,35.928c-2.344,7.655-6.576,14.321-11.357,20.654a6.1,6.1,0,0,1-3.265,2.146C2207.714,594.654,2194.292,596.639,2177.818,596.629Z" transform="translate(-1805.789 -258.457)"/><path class="cls-12" d="M2071.416,613.008c.142,1.828-.916,2.939-2.252,3.832-5.06,3.378-10.154,6.7-15.2,10.1-1.387.934-2.868.48-4.316.571-.643.04-.754-.438-.709-.942.087-.985-.282-2.222.587-2.87,4.844-3.61,9.74-7.128,15.3-9.641A11.781,11.781,0,0,1,2071.416,613.008Z" transform="translate(-1805.789 -258.457)"/><path class="cls-12" d="M1986.653,595.474c.38-1.144-.417-2.445.642-2.808,1.269-.435,2.329.627,2.821,1.657,2.315,4.858,4.6,9.738,6.619,14.724.386.952,1.156,2.961-.884,3.578-1.822.551-3.157.028-4.133-1.935A51.528,51.528,0,0,1,1986.653,595.474Z" transform="translate(-1805.789 -258.457)"/><path class="cls-1" d="M2254.391,964.876c1.384,4.854,3.1,9.621,3.213,14.771a39.181,39.181,0,0,1-3.207,16.837c-5.123,9.039-13.541,12.152-23.259,13.206-21.531,2.334-40.66-4.768-59.072-14.784-1.989-1.083-3.831-2.435-5.774-3.607-.64-.387-1.231-1.4-2.177-.406-.25.262-.565.154-.832-.066-1.881-1.551-3.782-3.1-4.543-5.545-.2-.632-.434-1.509.14-2.012.6-.529,1.337-.058,1.932.3,2.488,1.473,5.021,2.882,7.429,4.478a97.743,97.743,0,0,0,51.544,16.59,61.812,61.812,0,0,0,16.547-1.816,15.953,15.953,0,0,0,11.642-9.955c3.107-7.614,4.046-15.326,1.365-23.35-2.325-6.96-4.306-14.034-6.409-21.067a13.873,13.873,0,0,1-.586-2.985c-.156-2.264,1.219-3.158,3.284-2.2a5.7,5.7,0,0,1,2.846,3.594c1.865,5.466,3.6,10.976,5.386,16.468C2254.029,963.843,2254.214,964.359,2254.391,964.876Z" transform="translate(-1805.789 -258.457)"/><path class="cls-1" d="M2265.113,833.435l4.43,4.686c-2.266.106-3.893-1.264-5.812-1.794-17.83-8.436-27.619-23.539-34.307-41.263-2.729-7.231-5.889-14.3-7.806-21.824-2.6-10.186-4.94-20.409-4.277-31.041.074-1.186-.326-3.1.811-3.316,1.084-.209,1.133,1.755,1.524,2.783,5.341,14.039,8.772,28.681,13.46,42.925C2239.429,803.707,2249.632,820.313,2265.113,833.435Z" transform="translate(-1805.789 -258.457)"/><path class="cls-1" d="M1962.256,766.485c-1.71,0-3.045.021-4.379-.012-.416-.011-1,.255-1.2-.359-.174-.538.3-.868.625-1.167a9.962,9.962,0,0,1,4.637-2.14c10.545-2.542,19.5-7.984,27.41-15.2,6.652-6.07,13.7-11.76,19.157-19.049,2.771-3.7,5.538-7.369,7.386-11.663.553-1.285,1.237-3.347,2.865-2.909,1.554.418.376,2.342.455,3.583a13.287,13.287,0,0,1-1.821,7.158,68.74,68.74,0,0,1-14.87,18.938c-6.523,5.9-13,11.806-20.751,16.108a111.659,111.659,0,0,1-13.384,6.176C1966.246,766.791,1964.049,766.325,1962.256,766.485Z" transform="translate(-1805.789 -258.457)"/><path class="cls-1" d="M1926.8,947.232a81.762,81.762,0,0,0,44.942-14.41c13.271-8.987,25.944-18.732,36.977-30.425,5.605-5.941,11.685-11.379,17.469-17.126a17.1,17.1,0,0,1,7-4.151c.608-.193,1.458-.725,1.968-.025.546.752-.051,1.513-.532,2.122a38.825,38.825,0,0,1-3.026,3.6c-8.8,8.738-16.728,18.3-25.421,27.124-10.57,10.733-21.444,21.2-34.779,28.555a79.476,79.476,0,0,1-43.614,9.791c-3.563-.2-7.03-.518-10.222-2.211-.622-.33-1.708-.48-1.527-1.5.16-.9,1.1-.993,1.871-1.142A32.628,32.628,0,0,1,1926.8,947.232Z" transform="translate(-1805.789 -258.457)"/><path class="cls-13" d="M1996.032,494.563a69.441,69.441,0,0,1-4.089,26.958,13,13,0,0,1-2.111,4.166c-1.483,1.786-2.851,1.669-4.039-.365-1.386-2.376-1.6-5.082-1.77-7.712a90.116,90.116,0,0,1,3.2-31.823,21.294,21.294,0,0,1,2.664-5.972c.66-.97,1.381-2.051,2.775-1.8,1.238.221,1.654,1.34,2.03,2.379a28.871,28.871,0,0,1,1.346,10.879C1996,492.366,1996.032,493.465,1996.032,494.563Z" transform="translate(-1805.789 -258.457)"/><path class="cls-8" d="M2234.037,523.046c.221,12-2.018,27.226-5.576,42.293a56,56,0,0,1-7.813,17.737,5.016,5.016,0,0,1-3.522,2.355,201.1,201.1,0,0,1-28.165,3.545c-4.939.231-9.869.272-14.807.239-2.177-.015-3.385-.726-4.09-3.051-3-9.883-2.887-19.985-2.289-30.087.917-15.514,4.823-30.411,10.251-44.9a81.689,81.689,0,0,1,18.788-29.532c7.58-7.559,16.874-9.384,27.136-6.775a3.283,3.283,0,0,1,2.511,2.151C2231.74,490.7,2234.23,504.87,2234.037,523.046Z" transform="translate(-1805.789 -258.457)"/><path class="cls-9" d="M2166.991,589.986c-9.134-.653-18-1.145-26.542-3.6-10.546-3.035-10.653-4.312-10.844-13.848-.371-18.46,4.081-36.083,10.4-53.343,3.867-10.57,7.783-21.072,13.538-30.792,5.729-9.677,12.188-18.876,20.349-26.6,8-7.572,17.945-10.509,28.665-7.694,8.986,2.359,15.59,8.583,21.1,16.414a30.715,30.715,0,0,0-23.162,2.852c-6.118,3.267-10.236,8.359-14.265,13.535-9.064,11.645-14.324,25.209-18.491,39.187a131.936,131.936,0,0,0-5.462,35.161,77.077,77.077,0,0,0,4.291,26.982C2166.742,588.741,2166.822,589.278,2166.991,589.986Z" transform="translate(-1805.789 -258.457)"/><path class="cls-1" d="M2205.2,536.47c0,1.413.047,2.829-.007,4.24a94.009,94.009,0,0,1-6.466,31.139,9.835,9.835,0,0,1-2.555,3.9c-1.445,1.269-2.646,1.044-3.645-.628a10.024,10.024,0,0,1-1.234-4.014c-1.647-14.132-1.155-28.155,2.45-41.978a64.817,64.817,0,0,1,2.377-7.111,14.666,14.666,0,0,1,2.057-3.671c2.01-2.573,4.026-2.285,5.256.713a23,23,0,0,1,1.758,8.457C2205.236,530.5,2205.2,533.486,2205.2,536.47Z" transform="translate(-1805.789 -258.457)"/></svg>