<?xml version="1.0" encoding="utf-8"?>
<!-- Generator: Adobe Illustrator 24.3.0, SVG Export Plug-In . SVG Version: 6.00 Build 0)  -->
<svg version="1.1" id="Layer_1" xmlns="http://www.w3.org/2000/svg" xmlns:xlink="http://www.w3.org/1999/xlink" x="0px" y="0px"
	 viewBox="0 0 720 720" style="enable-background:new 0 0 720 720;" xml:space="preserve">
<style type="text/css">
	.st0{fill-rule:evenodd;clip-rule:evenodd;fill:#211915;}
	.st1{fill-rule:evenodd;clip-rule:evenodd;fill:#A1D5D3;}
	.st2{fill-rule:evenodd;clip-rule:evenodd;fill:#F3E87D;}
	.st3{fill-rule:evenodd;clip-rule:evenodd;fill:#DDECE9;}
	.st4{fill-rule:evenodd;clip-rule:evenodd;fill:#C46928;}
	.st5{fill-rule:evenodd;clip-rule:evenodd;fill:#52A4AE;}
	.st6{fill-rule:evenodd;clip-rule:evenodd;fill:#F3E87F;}
	.st7{fill-rule:evenodd;clip-rule:evenodd;fill:#D0C45E;}
	.st8{fill-rule:evenodd;clip-rule:evenodd;fill:#AA4324;}
	.st9{fill-rule:evenodd;clip-rule:evenodd;fill:#B1CCC7;}
	.st10{fill-rule:evenodd;clip-rule:evenodd;fill:#241816;}
	.st11{fill-rule:evenodd;clip-rule:evenodd;fill:#261E1C;}
	.st12{fill-rule:evenodd;clip-rule:evenodd;fill:#27201E;}
	.st13{fill-rule:evenodd;clip-rule:evenodd;fill:#2C2724;}
	.st14{fill-rule:evenodd;clip-rule:evenodd;fill:#333330;}
	.st15{fill-rule:evenodd;clip-rule:evenodd;fill:#231A17;}
	.st16{fill-rule:evenodd;clip-rule:evenodd;fill:#B02326;}
	.st17{fill-rule:evenodd;clip-rule:evenodd;fill:#FFFFFF;}
	.st18{fill-rule:evenodd;clip-rule:evenodd;fill:#A8A5A3;}
	.st19{fill-rule:evenodd;clip-rule:evenodd;fill:#FCFCFB;}
</style>
<g>
	<path class="st0" d="M117.3,277.37c-2.42-2.24-4.35-4.05-6.29-5.84c-3.84-3.54-7.39-7.33-9.93-11.93
		c-0.71-1.29-1.72-1.86-3.07-2.28c-9.32-2.87-14.65-11.09-12.88-19.96c0.62-3.09,2-5.96,3.37-8.79c0.61-1.25,0.81-2.47,0.82-3.84
		c0.03-9.45-0.78-18.9,0.1-28.34c1.31-14.09,2.08-28.3,7.28-41.7c5.56-14.33,14.19-26.75,24.18-38.34
		c21.2-24.6,48.13-39.25,79.77-45.08c29.08-5.35,58.09-4.09,86.42,4.62c25.77,7.92,47.73,22.1,65.26,42.77
		c12.94,15.25,20.66,32.9,24.01,52.58c1.29,7.55,2.1,15.12,2.32,22.76c0.03,1.21,0.27,2.02,1.46,2.61
		c6.06,3.04,10.27,7.95,13.64,13.69c0.62,1.05,1.31,1.82,2.51,2.31c28.82,11.65,51.74,30.77,70.26,55.49
		c5.3,7.07,9.72,14.65,14.24,22.23c3.33,5.59,7.05,10.95,9.7,16.91c9.63,21.69,16.72,44.07,18.77,67.87
		c1.13,13.11,2.05,26.22,1.3,39.39c-0.72,12.72-0.56,25.49-2.71,38.12c-2.26,13.24-6.31,25.93-11.34,38.76
		c1.59-0.68,2.68-1.58,3.71-2.57c4.05-3.92,7.38-8.35,9.92-13.41c3.28-6.53,6.48-13.13,10.14-19.45
		c13.86-23.94,33.41-41.37,59.62-50.78c10.21-3.66,20.98-2.89,31.59-2.68c5.77,0.11,11.44,1.15,16.88,3.11
		c18.59,6.71,32.81,18.5,42.3,36c13.35,24.61,17.09,50.68,9.37,77.4c-6.74,23.34-22.44,39.76-45.82,47.48
		c-10.54,3.48-21.72,3.38-32.68,0.86c-0.88-0.2-1.62-0.25-2.48,0.1c-11.14,4.48-22.91,6.11-34.71,7.53
		c-15.06,1.83-30.18,1.82-45.3,0.92c-13.05-0.78-26.01-2.45-38.94-4.38c-3.58-0.54-7.2-0.78-10.79-1.26
		c-1.39-0.19-1.96,0.22-2.15,1.62c-1.38,10.14-3.64,20.12-5.77,30.12c-0.91,4.29-0.15,8.48,0.2,12.69
		c0.61,7.45,1.42,14.89,2.06,22.34c0.34,3.93,0.09,4.04-3.76,3.47c-6.77-0.99-13.53-2.03-20.23-3.47
		c-6.29-1.36-12.18-0.2-17.67,3.15c-5.04,3.08-10.16,6.02-15.12,9.21c-2.16,1.39-3.8,1.07-5.78-0.28c-5.43-3.71-10.07-8.33-15-12.6
		c-1.08-0.94-2.13-1.4-3.57-1.42c-6.93-0.06-13.86-0.24-20.79-0.37c-2.69-0.06-2.95-0.44-2.29-3.1c1.12-4.51,3.57-8.38,6-12.23
		c1.38-2.18,1.63-4.07,0.81-6.56c-4.76-14.57-7.91-29.47-8.48-44.83c-0.05-1.19-0.21-1.82-1.65-1.87
		c-18.59-0.6-36.62-4.79-54.67-8.76c-1.66-0.37-2.32-0.06-3.06,1.38c-3.25,6.3-6.05,12.79-8.41,19.47c-0.67,1.92-0.83,3.82-0.45,5.8
		c1.07,5.64,2.08,11.29,3.19,16.92c1.33,6.7,0.9,10.27-8.33,12.75c-8.73,2.35-17.74,3.53-26.71,4.7
		c-22.51,2.93-45.09,4.89-67.82,4.44c-3.05-0.06-3.5-0.75-2.1-3.46c1.12-2.18,2.96-3.82,4.59-5.85c-5.1-1.02-10.11-1.48-14.89-2.97
		c-2.58-0.8-2.77-1.26-1.42-3.62c3.27-5.69,7.19-10.91,11.7-15.66c0.99-1.04,1-1.51,0.09-2.61c-6.58-7.91-12.52-16.25-15.17-26.38
		c-3.2-12.26-2.98-24.47,1.3-36.48c5.01-14.03,11.29-27.48,18.96-40.26c0.82-1.37,0.61-2.08-0.3-3.2
		c-10.1-12.42-19.72-25.18-26.11-40.01c-5.61-13.02-9.7-26.56-13.31-40.26c-0.82-3.12-0.81-6.9-2.67-9.17
		c-1.8-2.19-5.81-1.47-8.81-2.27c-17.22-4.63-32.83-12.41-47.28-22.9c-15.83-11.49-30.42-24.22-42.66-39.53
		c-0.53-0.66-1.23-1.21-1.93-1.7c-3.67-2.59-7.19-5.38-10.62-8.26c-4.14-3.48-4.18-3.97-0.87-8.15c3.91-4.94,7.88-9.83,12.19-14.43
		c1.02-1.09,1.31-1.8,0.22-3.09c-3.91-4.62-6.46-10.03-8.71-15.59c-1.43-3.53-0.84-4.63,2.96-4.82c8.42-0.41,16.86-0.45,25.28,0
		c11.71,0.63,23.43,1.32,35.03,3.2C109.11,275.95,112.87,276.62,117.3,277.37z"/>
	<path class="st1" d="M138.47,290.98c-9.77-6.13-18.71-13.32-27.01-21.31c-3.3-3.18-6.48-6.44-8.74-10.66
		c0.94-0.28,1.67,0.22,2.4,0.48c17.81,6.35,35.33,13.42,51.33,23.63c5.36,3.42,10.45,3.43,16.13,1.46
		c9.38-3.24,18.96-5.83,28.79-7.22c11.23-1.58,22.55-2.3,33.86-3.02c12.65-0.8,25.33-1.11,37.95-2.34c2.76-0.27,5.44-0.89,7.91-2.2
		c1.95-1.03,3.11-2.63,3.63-5.04c-0.58,0.18-0.91,0.18-1,0.33c-2.93,4.43-7.62,5.05-12.26,5.41c-8.56,0.65-17.14,1.01-25.7,1.56
		c-16.88,1.08-33.82,1.61-50.52,4.68c-7.51,1.38-14.84,3.52-22.11,5.83c-1.27,0.41-2.55,0.79-3.82,1.2
		c-3.83,1.23-7.28,0.71-10.78-1.46c-17.75-11.01-36.87-19.03-56.62-25.64c-1.86-0.62-3.8-1.03-5.62-1.73
		c-7.77-2.98-12.12-11.97-8.72-19.52c2.85-6.34,3.54-12.69,3.27-19.46c-0.66-16.51,0.82-32.89,3.99-49.09
		c2.68-13.72,9.41-25.64,17.34-36.9c12.28-17.45,27.44-31.89,46.24-42.1c17.26-9.37,35.76-15.04,55.38-16.85
		c23.33-2.16,46.47-1.16,69.06,5.32c27.72,7.95,51.24,22.7,69.64,45.15c12.17,14.85,19.19,31.98,22.35,50.83
		c3.69,22.03,3.06,43.89-2.25,65.61c-0.17,0.69-0.39,1.36-0.55,2.05c-1.37,5.73-3.73,10.27-10.33,11.76
		c-3.82,0.87-7.33,3.19-10.9,5.01c-1.44,0.73-2.26,0.69-3.33-0.66c-4.32-5.44-9.14-10.41-14.24-15.13
		c-1.86-1.72-3.94-3.13-5.99-4.61c-1.42-1.03-2.29-0.71-3.31,0.61c-4,5.18-6.9,11.03-8.84,17.13c-2.2,6.87-6.06,11.63-12.37,14.99
		c-4.44,2.36-8.25,5.78-11.82,9.36c-2.16,2.16-2.24,3.11-0.46,5.5c1.64,2.21,3.37,4.35,5.07,6.52c-0.03,1.53-1.32,1.86-2.33,2.34
		c-11.28,5.42-22.99,9.43-35.46,11.09c-9.28,1.24-18.59,2.04-27.95,2.46c-27.5,1.25-54.31-2.38-80.55-10.59
		C145.44,294.6,141.92,292.88,138.47,290.98z"/>
	<path class="st1" d="M639.69,493.66c-4.6-7.63-11.16-12.82-19.83-14.86c-6.56-1.54-13.27-1.4-19.93-0.14
		c-6.29,0.89-12.69,0.5-18.97,1.8c-14.1,2.92-26.56,9.02-37.56,18.3c-6.04,5.08-11.31,10.9-16.86,16.46
		c-12.05,12.08-26.2,20.78-42.39,26.13c-4.18,1.38-8.44,2.54-12.82,3.16c-1.11,0.16-1.97,0.05-2.49-1.04
		c-0.76-2.66-0.04-5.46-0.74-8.13c-0.23-0.86,0.54-1.01,1.06-1.29c9.46-5.04,15-12.71,15.85-23.53c0.06-0.75,0.37-1.3,0.8-1.89
		c3.1-4.26,6.15-8.57,8.64-13.23c0.38-0.72,0.85-1.29,1.58-1.68c6.57-3.53,11.04-9.12,14.43-15.51c4.49-8.47,8.38-17.31,13.53-25.4
		c13.16-20.69,30.89-36.13,53.85-45.23c6.45-2.56,13.25-3.17,20.13-3.48c12.8-0.59,25.3,0.24,37.09,5.99
		c14.8,7.23,26.3,17.77,34.19,32.37c12.93,23.94,15.9,49.09,9.62,75.42c-1.32,5.52-3.75,10.65-6.71,15.5
		c-1.35-0.16-1.37-1.36-1.66-2.25c-2.36-7.23-5.59-14.02-10.32-20.01c-4.51-5.72-9.89-10.51-16.13-14.31
		C642.5,495.88,640.86,495.09,639.69,493.66z"/>
	<path class="st1" d="M323.79,348.16c-4.4-6.74-8.04-13.87-10.79-21.42c-3.44-9.45-6.9-18.9-9.52-28.63
		c-0.34-1.24-1.23-1.94-1.95-2.84c-3.25-4.05-6.42-8.17-9.7-12.2c-1.16-1.42-0.9-2.38,0.34-3.58c5.36-5.17,11.47-9.35,17.8-13.18
		c2.02-1.22,3.16-2.78,3.98-4.96c2.85-7.58,5.79-15.13,10.28-21.95c1.11-1.68,1.91-1.95,3.6-0.66c7.09,5.37,12.99,11.91,18.61,18.71
		c1.48,1.79,2.6,2.15,4.72,1c4.97-2.7,10.13-5.05,15.44-7.03c1.58-0.59,2.39-0.48,3.16,1.28c3.05,6.96,5.2,14.16,6.54,21.62
		c0.06,0.31,0.03,0.66,0.17,0.92c0.32,0.62-0.01,1.94,1.1,1.71c1.01-0.21,0.5-1.3,0.44-2.04c-0.04-0.46-0.1-0.92-0.16-1.4
		c0.97,0,1.5,0.66,2.12,1.09c14.01,9.66,24.37,22.34,31.58,37.75c4.88,10.43,7.95,21.18,7.31,32.8c-0.12,2.12-0.38,4.23-0.57,6.34
		c-0.4,0.84-1.17,0.99-1.98,1.03c-3.63,0.17-6.16,2.14-8.14,4.98c-5.53,7.97-13.19,12.69-22.71,13.75
		c-7.84,0.87-15.74,0.32-23.44-1.71c-12.42-3.28-23.66-8.96-33.86-16.76C326.44,351.46,325.21,349.73,323.79,348.16z"/>
	<path class="st2" d="M295.08,449.28c-11.97,0.17-23.94-0.29-35.9-0.56c-1.54-0.03-2.35-0.44-2.95-1.97
		c-9.77-25.18-16.2-51.23-20.19-77.91c-0.37-2.49-0.38-5.03-0.81-7.5c-0.29-1.67,0.19-1.99,1.76-1.94
		c8.82,0.32,17.64,0.19,26.46,0.03c17.17-0.31,34.29-1.26,51.09-5.19c2.45-0.57,4.91-1.13,7.29-1.94c1.63-0.56,2.47-0.21,3.46,1.19
		c7.31,10.28,16.34,18.68,27.33,24.95c4.62,2.63,9.52,4.51,14.71,5.57c1.58,0.33,1.79,0.63,0.93,2.02
		c-5.28,8.48-10.67,16.89-15.68,25.54c-6.55,11.3-12.5,22.92-18.2,34.67c-0.71,1.46-1.5,2.05-3.17,2.09
		C319.16,448.58,307.12,448.95,295.08,449.28z"/>
	<path class="st1" d="M86.01,359.03c-6.08-4.12-11.51-9.02-16.76-14.12c-4.92-4.77-9.65-9.76-13.86-15.15
		c-3.04-3.89-7.2-6.28-10.85-9.37c-1.8-1.53-3.6-3.06-5.47-4.5c-1.44-1.11-1.49-2.11-0.37-3.54c4.33-5.51,8.71-10.99,13.55-16.06
		c1.53-1.6,1.54-2.76,0.13-4.4c-3.94-4.6-6.47-10.02-8.8-15.54c-0.73-1.73-0.62-2.41,1.57-2.54c12.93-0.77,25.8-0.02,38.69,0.86
		c11.32,0.77,22.52,2.35,33.66,4.46c1.66,0.31,3.05,0.9,4.4,1.98c16.54,13.28,34.42,24.04,55.27,29.16
		c1.12,0.28,1.53,0.72,1.53,1.89c0,18.56-3.06,36.47-10.96,53.4c-0.83,0.8-1.86,1.11-2.96,1.35c-5.94,1.29-11.98,1.91-18.01,2.17
		c-10.54,0.47-21.05-0.15-31.51-1.62c-7.11-1-14.09-2.46-20.95-4.57C91.36,361.98,88.58,360.74,86.01,359.03z"/>
	<path class="st3" d="M412.28,413.83c-0.21-7.3,1.3-14.4,2.52-21.52c1.87-11.02,3.64-22.03,3.7-33.27
		c0.02-3.97,1.65-7.79,1.96-11.82c0.86-11.1-1.34-21.59-5.66-31.73c-7.69-18.08-19.39-32.85-35.91-43.64
		c-1.15-0.76-1.72-1.73-2.03-3.01c-1.41-5.98-3.25-11.82-5.91-17.38c-0.59-1.23-0.66-2.31-0.1-3.59c4.63-10.6,6.1-21.91,7.34-33.26
		c0.59-5.46,0.6-10.95,0.6-16.73c3.95,2.01,7.07,4.49,9.71,7.7c7,8.54,9.99,18.42,10.05,29.31c0.03,6.85-0.36,13.7,0.43,20.53
		c0.88,7.6,3.58,14.22,9.69,19.26c8.88,7.33,17.22,15.23,24.09,24.56c8.88,12.07,15.6,25.14,17.97,40.08
		c1.35,8.5,1.4,17.09,0.73,25.68c-0.79,9.96-1.13,19.97-2.84,29.84c-1.38,7.97-3.66,15.77-4.9,23.79
		c-1.32,8.58,0.44,16.39,5.11,23.64c3.69,5.73,8.66,10.39,12.98,15.6c7.42,8.98,13.51,18.77,18.23,29.39
		c4.21,9.48,4.73,19.35,2.13,29.32c-2,7.68-7.38,12.56-14.39,16.33c-0.42-2.18-0.8-4.14-1.18-6.1c4.96-10.65,3.43-21.18-0.89-31.52
		c-3.53-8.45-8.9-15.67-15.47-22.09c-5.58-5.44-11.33-10.69-16.88-16.15c-4.23-4.16-7.51-9.08-10.64-14.1
		c-4.19-6.71-7.91-13.6-9.58-21.44C412.6,418.96,412.68,416.37,412.28,413.83z"/>
	<path class="st1" d="M360.62,537.66c2.17-15.55,7.33-29.81,18.65-41.14c7.82-7.82,17.64-11.75,28.59-12.42
		c14.44-0.88,27.97,1.86,39.08,11.9c6.91,6.24,11.2,14.32,14.9,22.71c5.18,11.77,5.75,24.23,5.41,36.8
		c-0.07,2.57,0.13,5.19-0.6,7.71c-1.76,2.66-4.49,4.13-7.15,5.61c-10.26,5.7-21.35,8.71-32.95,10.09
		c-6.33,0.76-12.68,1.13-19.06,0.98c-9.32-0.22-18.18-1.88-25.48-8.24c-8.96-7.81-16.09-16.99-20.71-28.01
		C360.49,541.74,360.28,539.73,360.62,537.66z"/>
	<path class="st4" d="M459.1,452.07c-2.37-2.52-4.67-5.09-6.81-7.82c-6.76-8.63-8.63-18.15-6.4-28.87
		c1.87-8.99,4.55-17.83,5.33-27.03c0.51-6.11,1.16-12.21,1.59-18.32c0.58-8.32,0.84-16.64,0.23-25c-0.68-9.4-3.22-18.23-7.04-26.76
		c-4.91-10.95-11.74-20.63-19.71-29.54c-0.36-0.4-0.71-0.81-1.28-1.47c4.64,0,9.01-0.3,13.33,0.06c10.1,0.85,20.19,1.84,30.18,3.63
		c3.17,0.57,6.28,1.42,9.45,1.96c2.77,0.47,4.35,2.21,5.64,4.49c6.17,10.86,10.54,22.48,14.61,34.24
		c5.18,14.94,8.29,30.28,9.59,46.03c0.2,2.43,0.46,4.85,0.4,7.3c0.07,4.75-1.7,9.04-3.49,13.29c-5.38,12.78-12.71,24.32-22,34.65
		c-6.13,6.81-12.63,13.14-20.41,18.04C461.34,451.56,460.43,452.46,459.1,452.07z"/>
	<path class="st5" d="M468.84,543.48c1.17,1.13,2.58,0.48,3.75,0.24c16.76-3.48,31.89-10.45,45.1-21.41
		c5.33-4.42,10.17-9.35,14.97-14.35c11.12-11.6,23.73-21.07,39.39-25.86c9.1-2.79,18.38-4.03,27.89-3.43
		c-22.15,6.55-31.98,27.41-30.01,48.16c0.45,4.72,0.99,9.39,2.67,13.84c4.34,11.51,11.85,20.09,23.36,24.89
		c0.42,0.18,0.82,0.41,1.37,0.7c-7.05,2.93-14.31,4.22-21.58,5.48c-12.44,2.15-24.98,3.06-37.58,3.09
		c-11.88,0.03-23.73-0.76-35.56-1.98c-10.79-1.11-21.45-3.31-32.28-4.03c-2.06-0.13-2.63-0.94-2.3-2.95
		C469.27,558.44,469.07,550.95,468.84,543.48z"/>
	<path class="st2" d="M414.19,385.08c-1.04,6.75-2.29,13.47-3.09,20.25c-1.34,11.32-1.03,22.58,2.22,33.62
		c1.13,3.86,2.71,7.53,4.83,10.95c4.32,6.95,8.98,13.64,14.39,19.8c1.07,2.24-0.29,4.04-1.35,5.65c-1.91,2.9-4.48,5.25-7.32,7.25
		c-0.36,0.25-0.8,0.52-1.31,0.3c-6.04-0.47-12.08-1.04-18.14-0.16c-7.84,1.13-15.01,3.97-21.53,8.43c-0.82,0.56-1.2,0.34-1.77-0.18
		c-15-13.58-30.88-26.17-44.99-40.73c-0.78-0.81-1.19-1.43-0.61-2.64c9.81-20.46,20.85-40.22,33.3-59.2
		c0.08-0.12,0.24-0.2,0.36-0.29c0.81-0.17,1.57,0.03,2.28,0.37c5.57,2.68,11.57,3.63,17.61,3.65c7.9,0.03,15.37-2.02,22.06-6.43
		c0.72-0.47,1.35-1.1,2.23-1.26C413.78,384.39,414.34,384.28,414.19,385.08z"/>
	<path class="st2" d="M167.32,370.71c3.36-7.28,6.46-14.67,8.51-22.44c0.31-1.17,0.76-1.07,1.65-0.71
		c17.33,6.99,35.6,9.57,54.01,11.44c1.24,0.13,1.93,0.26,2.09,1.79c3.06,29.25,10.19,57.51,20.54,85c0.25,0.66,0.49,1.32,0.7,2
		c0.04,0.13-0.05,0.3-0.13,0.69c-5.69-0.27-11.42-0.52-17.15-0.82c-12.11-0.63-24.13-2.06-36.15-3.59c-0.8-0.1-1.46-0.19-2.01-0.94
		c-11.97-16.19-24.21-32.19-34.37-49.63c-0.51-0.98-0.39-2.01-0.1-2.98c1.44-4.88,1.18-9.95,1.69-14.93
		C166.78,373.94,166.86,372.3,167.32,370.71z"/>
	<path class="st5" d="M248.71,530.69c12.14,8.63,24.71,16.54,38.53,22.24c2.83,1.16,5.77,2.06,8.71,2.93
		c1.45,0.43,1.69,0.92,0.96,2.27c-3.22,5.96-5.71,12.24-8.18,18.55c-1.59,4.05-0.82,7.88-0.12,11.81
		c0.89,5.02,1.88,10.04,2.89,15.04c0.61,3.01-0.42,5.17-3.02,6.77c-3.68,2.25-7.88,2.63-11.95,3.38
		c-14.78,2.72-29.66,4.63-44.64,5.81c-1.16,0.1-2.28,0.69-3.49,0.35c0.01-0.7,0.74-1.26-0.01-2.12c-7.62-8.8-16.42-16.01-27.42-20.2
		c-3.69-1.41-7.52-2.25-11.53-2.06c-0.91,0.04-1.91,0.2-2.67-0.59c0.79-1.29,1.81-2.46,3.03-3.25c1.48-0.96,2.17,1.51,4.04,1.22
		c-1.64-1.8-3.18-3.37-4.58-5.06c-5.78-6.99-11.11-14.27-14.05-23c-0.12-0.36-0.17-0.76-0.25-1.13c0.98-0.22,1.62,0.45,2.32,0.93
		c8.72,6.05,18.36,8.7,28.83,6.9c7.55-1.3,14.27-4.85,20.19-9.78c9.81-8.16,17.3-18,21.75-30.04
		C248.2,531.28,248.39,530.94,248.71,530.69z"/>
	<path class="st2" d="M291.76,512.59c-10.6-14.62-19.88-30.03-27.4-46.47c-2.35-5.13-4.46-10.36-6.63-15.44
		c4.77,0,9.31-0.06,13.85,0.01c19.69,0.3,39.38,0.08,59.05-0.82c1.88-0.09,3.22,0.34,4.55,1.73c13.61,14.17,28.97,26.4,43.59,39.47
		c1.63,1.46,1.67,2.14,0.02,3.59c-3.27,2.85-5.68,6.49-8.27,9.94c-5.14,3.48-11.11,4.69-16.97,6.14c-9.2,2.27-18.58,3.08-28.04,3.08
		c-6.52,0-13.05-0.08-19.57,0.03c-4.02,0.06-7.98-0.72-12-0.54C293.16,513.34,292.41,513.08,291.76,512.59z"/>
	<path class="st5" d="M639.69,493.66c15.56,8.09,26.06,20.44,31.32,37.2c0.28,0.88,0.35,1.87,1.14,2.52
		c-8.41,13.73-19.61,24.27-34.67,30.43c-4.49,1.84-9.21,2.61-13.99,3.01c-6.67,0.56-13.29,0.63-19.94-0.7
		c-15.36-3.08-28.52-16.52-31.06-32.12c-0.87-5.36-1.51-10.74-0.91-16.18c4.13-5.87,9.51-10.22,16.04-13.13
		c7.34-3.28,15.11-3.45,22.94-2.89c2.42,0.17,4.85,0.43,7.21,1.14c7.87,2.38,13.38,7.35,16.61,14.89c-0.12,0.6-1.07,0.75-0.79,1.85
		c3.03-1.5,5.17-3.7,6.52-6.68c2.49-5.48,2.49-11.06,0.54-16.69C640.32,495.42,640,494.54,639.69,493.66z"/>
	<path class="st5" d="M360.62,537.66c-0.09,2.25,0.57,4.32,1.49,6.35c5.48,12.03,13.15,22.31,24.14,29.86
		c4.77,3.28,10.19,4.63,15.97,5.01c4.16,0.27,8.32,0.53,12.48,0.35c15.18-0.63,29.93-3.13,43.55-10.37c3-1.6,5.63-3.71,8.4-5.62
		c-0.87,9.25-2.76,18.33-4.56,27.43c-1.36,6.92-3.43,13.74-2.54,20.97c0.88,7.18,1.5,14.39,2.2,21.59c0.11,1.09,0.03,2.2,0.04,3.3
		c-1.35,0.14-2.17-0.8-3.06-1.54c-7.01-5.73-14.87-9.98-23.16-13.54c-6.24-2.68-12.83-3.87-19.53-4.09
		c-13.23-0.42-26.43-0.19-39.46,2.65c-2.95,0.64-5.75,1.61-8.48,2.86c-0.88,0.4-1.78,1.15-2.81,0.27c0.19-0.43,0.3-0.93,0.6-1.27
		c3.21-3.64,2.71-7.45,1.3-11.79c-5.69-17.48-8.59-35.43-7.76-53.86C359.71,550.03,359.7,543.81,360.62,537.66z"/>
	<path class="st1" d="M248.71,530.69c-0.27,3.23-1.81,6-3.32,8.74c-5.57,10.12-12.73,18.93-22.34,25.47
		c-7.62,5.19-16,8.66-25.43,7.67c-8.29-0.87-16.14-3.31-22.64-8.91c-2.56-7.16-3.06-14.56-2.62-22.08
		c0.48-8.3,3.22-15.98,6.34-23.57c4.47-10.86,9.6-21.38,15.49-31.54c1.18-2.03,2.27-2.32,4.26-1.3c3.18,1.63,6.12,3.57,8.61,6.14
		c4.93,5.1,9.81,10.24,14.74,15.33C230.18,515.28,239.08,523.39,248.71,530.69z"/>
	<path class="st6" d="M206.17,488.03c-3.41-2.4-6.83-4.72-11-5.72c-1.91-0.46-3.56-3.96-3.25-6.05c1.5-10.08,4.69-19.69,7.85-29.33
		c0.37-1.12,0.86-1.38,2.05-1.2c17.3,2.53,34.71,3.69,52.16,4.41c1.2,0.05,1.97,0.2,2.48,1.54c8.14,21.44,19.37,41.21,32.43,59.98
		c-0.2,1.3-1.2,0.96-1.97,0.89c-10.44-1.02-20.75-2.82-30.98-5.1c-15.01-3.34-29.27-8.7-42.94-15.7
		C210.69,490.56,208.25,489.62,206.17,488.03z"/>
	<path class="st6" d="M305.84,311.73c1.47,4.15,2.98,8.28,4.41,12.44c3.12,9.12,7.53,17.62,12.69,26.06
		c-5.65,1.78-11.25,3.09-16.94,4.04c-24.21,4.03-48.62,4.51-73.02,3.1c-17.77-1.02-35.32-4.1-52.17-10.23
		c-4.27-1.55-4.22-1.66-3.28-6.08c1.32-6.25,1.98-12.59,2.65-18.93c0.98-1.53,2.11-0.54,3.08-0.08c7.43,3.47,15.13,6.17,23.08,8.2
		c12.2,3.13,24.58,4.39,37.15,3.98c19.35-0.63,37.09-6.2,53.08-17.23c2.41-1.66,4.56-3.6,6.67-5.61
		C304.13,310.55,305.22,309.78,305.84,311.73z"/>
	<path class="st4" d="M478.89,291.02c-6.57-1.08-12.87-2.27-19.26-3.07c-11.47-1.44-22.94-2.75-34.53-2.63
		c-1.52,0.02-2.65-0.39-3.75-1.49c-3.61-3.63-7.43-7.04-11.43-10.23c-6.29-5.03-8.84-11.87-9.43-19.58
		c-0.41-5.4-0.43-10.82-0.3-16.26c0.19-7.84-0.61-15.67-4.22-23.5C433.42,229.9,459.75,256.58,478.89,291.02z"/>
	<path class="st7" d="M305.84,311.73c-0.64-0.92-1.18-0.89-2.02-0.09c-12.67,12.02-28.12,18.44-44.95,21.69
		c-9.25,1.79-18.75,2.12-28.15,1.47c-15.49-1.07-30.48-4.44-44.75-10.82c-1.8-0.8-3.45-2.6-5.8-1.85c0.03-3.15,0.1-6.29,0.06-9.44
		c-0.02-1.37,0.53-1.59,1.71-1.32c12.64,2.92,25.51,3.86,38.42,3.89c24.95,0.05,49.37-3.36,72.89-12.07
		c2.57-0.95,5.03-2.24,7.53-3.37c0.55-0.25,1.12-0.78,1.44,0.27C303.42,303.98,304.64,307.85,305.84,311.73z"/>
	<path class="st7" d="M206.17,488.03c5.31,1.95,10.3,4.63,15.38,7.08c12.59,6.05,25.89,9.84,39.48,12.77
		c7.41,1.61,14.9,2.72,22.41,3.65c1.74,0.22,3.62,1.08,5.44,0.12c3.66,5.22,7.29,10.45,11.02,15.62c0.72,1,0.65,1.76,0.19,2.79
		c-3.03,6.91-6.24,13.76-8.59,20.94c-0.61,1.88-1.61,1.22-2.68,0.81c-9.15-3.53-17.53-8.51-25.89-13.57
		c-17.41-10.54-32.14-24.23-45.92-39.03C213.48,495.4,209.79,491.75,206.17,488.03z"/>
	<path class="st1" d="M365.29,623.13c0.31-0.02,0.66,0.06,0.91-0.07c8.49-4.47,17.84-5.04,27.12-6.02
		c7.78-0.82,15.57-0.55,23.34-0.31c14.52,0.45,26.94,6.7,38.58,14.79c2.25,1.57,4.37,3.33,6.55,5.01c0.81,2.15-0.07,2.6-2.1,2.3
		c-6.61-0.97-13.21-2.04-19.76-3.39c-6.79-1.4-13.1-0.19-18.99,3.43c-5.03,3.09-10.11,6.09-15.12,9.21
		c-1.26,0.78-2.2,0.69-3.42-0.12c-5.48-3.62-10.12-8.25-15.02-12.57c-1.44-1.27-2.86-1.93-4.83-1.9
		c-7.15,0.11-14.31,0.04-21.69,0.04C361.59,629.29,363.21,626.12,365.29,623.13z"/>
	<path class="st8" d="M459.1,452.07c5.38-2.71,10.07-6.42,14.42-10.49c11.81-11.05,21.4-23.79,28.43-38.4
		c2.8-5.83,4.91-11.88,6.26-18.21c0.82,3.46,0.5,7,0.85,10.5c1.73,17.18-3.15,33.11-9.25,48.83c-4.47,11.53-9.26,22.89-16.13,33.24
		c-0.83,1.25-1.75,2.43-2.58,3.67c-0.92,1.39-1.49,1.2-2.2-0.24c-2.65-5.37-5.85-10.42-9.14-15.41
		C466.6,460.75,462.73,456.51,459.1,452.07z"/>
	<path class="st7" d="M358.31,544.89c-0.56,5.8-0.54,11.63-0.5,17.45c0.01,1.97-0.65,2.3-2.43,2.23c-11.9-0.5-23.58-2.65-35.23-4.89
		c-8.56-1.65-17.12-3.32-25.48-5.88c-1.73-0.53-2.14-1.1-1.48-2.9c2.5-6.71,5.42-13.23,8.22-19.82c0.46-1.08,0.92-1.42,2.1-0.99
		c13.82,4.99,28.16,7.71,42.67,9.68c3.19,0.44,6.39,1.02,9.6,1.09c2.41,0.06,3.03,0.94,2.59,3.08
		C358.3,544.25,358.32,544.58,358.31,544.89z"/>
	<path class="st7" d="M291.76,512.59c12.08,0.67,24.18,0.66,36.27,0.46c14.18-0.24,28.04-2.34,41.13-8.18
		c0.41-0.19,0.91-0.19,1.36-0.27c-6.74,10.12-9.89,21.49-11.67,33.34c-0.17,1.16-0.38,1.67-1.68,1.52
		c-18-2.05-35.86-4.76-53.03-10.86c-1.05-0.37-1.95-0.82-2.63-1.83C298.31,522.02,295.02,517.32,291.76,512.59z"/>
	<path class="st1" d="M634.36,517.83c-0.53-0.05-0.8-0.35-1.03-0.82c-4.45-8.85-11.55-13.58-21.5-14.42
		c-8.06-0.68-15.96-0.61-23.56,2.5c-4.17,1.71-7.91,4.14-11.13,7.32c-1.84,1.82-3.71,3.6-5.57,5.41
		c1.28-22.03,16.32-35.67,31.48-37.93c11.92-1.77,23.04,0.21,31.75,9.73C641.69,497.16,642.78,510.76,634.36,517.83z"/>
	<path class="st2" d="M164.46,395.89c9.85,16.44,21.33,31.73,32.79,47.04c1.12,1.5,1.26,2.7,0.67,4.46
		c-3.08,9.17-6.06,18.37-7.54,27.96c-0.03,0.22-0.19,0.42-0.29,0.65c-0.77-0.07-0.94-0.77-1.31-1.21
		c-16.45-19.5-25.79-42.44-32.21-66.79c-0.36-1.36-0.66-2.73-0.98-4.1c0.83-1.13,2.35-1.17,3.34-2.09c1.44-1.34,2.74-2.75,3.63-4.55
		C162.89,396.55,163.1,395.32,164.46,395.89z"/>
	<path class="st5" d="M138.47,290.98c5.51,2.03,10.93,4.29,16.59,5.9c10.86,3.09,21.88,5.34,33.07,6.86
		c7.77,1.06,15.58,1.54,23.41,2c7.56,0.45,15.08,0.2,22.59-0.23c14.63-0.84,29.22-2.15,43.22-6.95c5.5-1.88,10.9-4.02,16.1-6.64
		c0.76-0.38,1.64-0.6,2.07-1.46c1.52,1.9,2.97,3.85,4.59,5.67c1.09,1.23,0.91,1.72-0.55,2.46c-9.36,4.67-19.3,7.56-29.46,9.73
		c-18.36,3.93-36.91,5.9-55.72,5.22c-20.69-0.75-40.79-4.08-59.63-13.13C149.09,297.7,143.52,294.78,138.47,290.98z"/>
	<path class="st5" d="M323.79,348.16c6.77,6.35,14.57,11.14,22.9,15.15c12.08,5.82,24.79,8.51,38.16,7.43
		c6.29-0.51,11.99-2.98,16.89-7.12c2.48-2.1,4.56-4.48,6.41-7.16c1.95-2.82,4.71-4.61,8.33-4.57c0.64,0.01,1.26-0.04,1.81-0.41
		c-1.19,5.45-2.56,10.83-5.35,15.75c-3.36,5.92-8.7,9.43-14.68,12.07c-14.97,6.6-29.77,5.52-44.04-1.94
		c-12.68-6.63-22.39-16.64-30.18-28.56C323.92,348.61,323.87,348.37,323.79,348.16z"/>
	<path class="st5" d="M86.01,359.03c5.96,2.4,12.02,4.46,18.32,5.82c7.66,1.65,15.43,2.46,23.22,3.18
		c3.84,0.35,7.68,0.38,11.52,0.43c9.67,0.14,19.23-0.81,28.68-2.9c-3.74,9.26-9.91,16.88-16.44,24.25c-0.71,0.81-1.44,0.66-2.33,0.5
		c-12.95-2.3-25.13-6.82-36.63-13.11C102.94,372.07,94.28,365.81,86.01,359.03z"/>
	<path class="st9" d="M412.28,413.83c0.5,2.59,0.95,5.19,1.5,7.76c1.63,7.65,5.32,14.37,9.38,20.95c3.06,4.96,6.22,9.9,10.4,13.91
		c6.52,6.26,13.22,12.33,19.52,18.81c2.9,2.99,5.62,6.14,7.83,9.69c4.25,6.85,7.68,14.05,8.92,22.11
		c0.88,5.73,0.45,11.38-1.28,16.92c-0.36,1.15-0.79,2.22-1.94,2.82c-2.42-6.89-4.88-13.77-8.99-19.88c-2.5-3.72-4.7-7.48-5.71-11.95
		c-0.71-3.14-2.66-5.84-4.39-8.56c-3.51-5.51-7.41-10.74-11.79-15.6c-5.08-5.61-9.46-11.74-13.77-17.95
		c-6.63-9.58-9.4-20.28-9.74-31.74C412.14,418.7,412.25,416.26,412.28,413.83z"/>
	<path class="st1" d="M186.79,594.86c12.99-0.83,23.18,5.32,32.69,13.13c3.46,2.84,6.5,6.1,9.51,9.41c1.28,1.42,1.26,2.01-0.58,2.44
		c-12.4,1.1-24.83,1.47-37.28,1.37c-0.65,0-1.56,0.41-1.92-0.37c-0.33-0.69,0.36-1.32,0.76-1.87c1.67-2.3,3.72-4.27,5.69-6.3
		c0.57-0.59,1.47-0.98,1.48-2.01c-0.15-0.08-0.37-0.25-0.41-0.21c-2.58,2.2-5.44,1.14-8.22,0.67c-3.33-0.56-6.67-1.09-9.95-1.95
		c-1.33-0.35-1.44-0.83-0.78-1.94C180.39,602.83,183.39,598.7,186.79,594.86z"/>
	<path class="st8" d="M485.57,505.68c-0.54-5.05-0.28-10.27-2.47-14.78c-2.26-4.66-1.46-7.91,1.56-12.09
		c7.65-10.58,12.5-22.69,17.05-34.88c2.42-6.46,4.67-12.98,6.64-20.1C510.84,446.67,497.87,493.02,485.57,505.68z"/>
	<path class="st7" d="M414.19,385.08c-0.82-0.66-1.28,0.13-1.8,0.5c-6.04,4.29-12.78,6.52-20.16,7.02
		c-8.11,0.56-15.81-0.75-23.07-4.46c0.81-2.5,2.15-3.5,5.12-3.27c8.88,0.68,17.51-0.32,25.7-4.46c7.11-3.6,12.98-8.22,16.38-16.36
		c0.39,4.09-0.1,7.46-0.51,10.82C415.44,378.29,414.75,381.67,414.19,385.08z"/>
	<path class="st7" d="M422.55,482.91c3.48-2.68,7-5.32,9-9.39c0.59-1.19,1.12-2.42,0.99-3.81c7.14,8.12,13.96,16.46,18.26,26.63
		c-0.95,0.26-1.2-0.23-1.51-0.52c-7.33-6.85-15.95-11.06-25.87-12.58C423.12,483.18,422.84,483.02,422.55,482.91z"/>
	<path class="st7" d="M164.46,395.89c-1.18,0.17-1.23,1.29-1.64,2.06c-1.62,2.97-3.74,5.29-7.24,5.96c-1.06-3.85-2.1-7.7-3.19-11.55
		c-0.25-0.89,0.12-1.49,0.67-2.11c1.31-1.46,2.65-2.9,3.86-4.45c0.94-1.2,1.37-0.73,1.95,0.3
		C160.69,389.39,162.59,392.63,164.46,395.89z"/>
	<path class="st7" d="M167.32,370.71c0.12,7.68-0.37,15.3-2.29,22.78c-1.75-3.04-3.47-6.09-5.26-9.1c-0.52-0.88-0.46-1.53,0.16-2.32
		C162.74,378.51,165.08,374.64,167.32,370.71z"/>
	<path class="st10" d="M274.81,235.07c-7.25,0.14-14.48-0.33-21.71-0.88c-2.44-0.19-3.53-1.1-3.94-3.57
		c-2.61-15.68-3.64-31.42-2.35-47.28c0.6-7.25,2.04-14.38,5.22-20.95c6.19-12.78,16.13-17.93,29.33-15.6
		c2.52,0.44,4.74,1.61,6.81,3.11c9.4,6.79,14.49,16.27,16.6,27.38c3.42,17.97,3.13,35.84-2.28,53.48c-0.59,1.93-1.38,2.94-3.65,3.18
		C290.86,234.76,282.84,234.96,274.81,235.07z"/>
	<path class="st10" d="M93.76,209.06c0.12-12.44,0.48-24.87,3.22-37.07c1.5-6.66,3.87-12.91,9.05-17.79
		c6.31-5.96,14.98-4.55,18.8,3.28c2.8,5.76,3.61,12.02,4.17,18.29c1.01,11.37,1.66,22.76,1.01,34.18
		c-0.31,5.5-1.03,10.96-1.95,16.39c-0.22,1.31-0.65,2.3-2.35,2.37c-9.68,0.39-19.34,0.44-29-0.58c-2.15-0.23-3.02-1.05-2.98-3.26
		C93.83,219.61,93.76,214.33,93.76,209.06z"/>
	<path class="st11" d="M240.57,154.58c1.55-6.82,5.58-11.97,11.27-15.95C248.06,143.91,243.44,148.61,240.57,154.58z"/>
	<path class="st12" d="M141.08,159.25c-0.74-1.33-1.52-2.65-2.23-4c-1.67-3.21-3.48-6.32-5.79-9.13c-0.28-0.34-0.74-0.72-0.41-1.22
		c0.29-0.44,0.73-0.21,1,0.08c3.72,4.07,6.85,8.47,8.13,13.92C141.55,159.02,141.31,159.13,141.08,159.25z"/>
	<path class="st13" d="M176.94,258.16c1.62-1.81,3.54-3.31,5.5-4.77c0.34-0.25,0.76-0.25,1.03,0.15c0.41,0.61,0.03,1.07-0.42,1.4
		c-1.83,1.31-3.69,2.59-5.53,3.88C177.32,258.6,177.13,258.38,176.94,258.16z"/>
	<path class="st14" d="M152.84,256.81c-1.85-0.57-3.07-1.98-4.42-3.19c-0.31-0.28-0.32-0.7,0.04-1.03c0.47-0.43,0.92-0.19,1.23,0.16
		C150.81,254.02,152.23,255.05,152.84,256.81z"/>
	<path class="st5" d="M340.75,299.9c-7.8,0.08-14.52-3.02-20.83-7.21c-1.15-0.76-1.53-1.96-0.98-3.33
		c2.49-6.18,5.47-12.03,10.78-16.37c2.79-2.28,5.84-1.37,8.8-0.82c4.95,0.91,9.25,3.46,13.61,5.81c2.11,1.14,2.2,3.11,1.88,5.14
		c-1,6.26-5.06,10.88-8.64,15.72C344.25,300.39,342.37,299.85,340.75,299.9z"/>
	<path class="st15" d="M86.42,286.15c0.59-0.01,1.15-0.12,1.3,0.49c0.17,0.72-0.42,0.92-0.95,1.09c-1.79,0.58-3.6,1.14-5.38,1.75
		c-3.83,1.31-7.26,3.39-10.71,5.44c-1.36,0.81-1.6,1.67-0.71,3.06c2.82,4.37,5.65,8.72,8.93,12.77c0.44,0.54,1.48,1.22,0.64,1.96
		c-1.02,0.9-1.47-0.41-1.94-0.97c-3.47-4.19-6.46-8.73-9.32-13.35c-0.84-1.36-1.14-2.78,0.23-3.82
		C73.9,290.47,79.98,287.79,86.42,286.15z"/>
	<path class="st16" d="M253.64,198.86c1.55,4.56,3.07,8.76,6.09,12.35c8.06,9.57,16.73,6.68,22.93-1.12
		c3.47-4.37,4.77-9.66,4.76-15.55c3.68,2.56,5.99,5.91,7.37,9.74c3.13,8.66,4.25,17.48,1.05,26.46c-0.53,1.49-1.24,1.98-2.84,2.1
		c-9.27,0.68-18.55,0.37-27.82,0.43c-4.25,0.03-8.46-0.5-12.67-0.93c-0.76-0.08-1.26-0.19-1.48-1.12
		c-2.39-10.4-2.64-20.67,1.77-30.67C253.02,200.05,253.28,199.58,253.64,198.86z"/>
	<path class="st17" d="M276.9,161.48c0.04,10.31-3.83,17.74-11.71,22.97c-6.06,4.02-10.79,2.35-12.69-4.73
		c-2.11-7.86-0.93-15.31,4.11-21.88c2.91-3.8,6.33-6.93,11.29-8c2.67-0.58,4.57,0.2,6.21,2.24
		C276.54,155.11,276.82,158.69,276.9,161.48z"/>
	<path class="st17" d="M292.7,156.16c6.68,6.92,9.59,15.56,11.07,24.78c2.65,16.45,2.16,32.75-2.71,48.8
		c-0.76,2.51-0.75,2.52-3.84,2.46c1.12-4.18,2.13-8.33,2.77-12.56c2.66-17.29,2.84-34.47-2.61-51.34
		c-1.31-4.05-3.06-7.91-5.28-11.54C292.01,156.26,292.21,156.06,292.7,156.16z"/>
	<path class="st18" d="M292.7,156.16c-0.2,0.2-0.4,0.39-0.6,0.59c-1.13-1.33-2.25-2.67-3.37-4
		C290.34,153.6,291.71,154.67,292.7,156.16z"/>
	<path class="st16" d="M124.19,199.13c3.07,2.41,3.65,5.61,3.91,8.79c0.48,5.91-0.78,11.72-1.55,17.54
		c-0.15,1.16-0.73,1.7-2.04,1.68c-7.24-0.08-14.47-0.08-21.71-0.07c-1.62,0-2.58-0.39-2.7-2.33c-0.34-5.55-1.05-11.1,0.23-16.61
		c0.79-3.42,2.31-6.43,5.48-8.69c0.29,3.65,0.65,7.04,2.46,10.11c3.35,5.69,8.97,5.78,12.45,0.13
		C122.64,206.54,123.1,202.91,124.19,199.13z"/>
	<path class="st17" d="M116.81,169.57c-0.25,4.95-0.38,10.87-4.27,15.85c-1.4,1.8-3.01,2.95-5.42,2.52c-1.75-0.31-3-1.31-3.95-2.73
		c-2.24-3.31-3.26-6.94-2.62-10.94c0.88-5.47,1.06-11.14,4.21-15.99c0.63-0.98,1.41-1.91,2.29-2.67c2.7-2.33,6.02-1.61,7.61,1.58
		C116.31,160.5,116.87,163.5,116.81,169.57z"/>
	<path class="st19" d="M98.43,178.02c-0.65,12.83-0.79,25.66-0.5,38.5c0.07,2.91,0.33,5.82,0.46,8.73c0.02,0.53,0.37,1.46-0.73,1.31
		c-0.77-0.11-1.81,0.14-2.15-0.97c-0.07-0.22-0.02-0.47-0.02-0.71c-0.01-16.61-0.57-33.25,2.48-49.7
		C99.23,175.95,98.42,177.05,98.43,178.02z"/>
	<path class="st18" d="M98.43,178.02c-0.48-0.89,0.45-2.02-0.46-2.84c-0.02-1.65,0.62-3.16,1.17-4.71
		C99.1,173.01,99.03,175.53,98.43,178.02z"/>
</g>
</svg>
