<svg xmlns="http://www.w3.org/2000/svg" viewBox="0 0 61.66 56.87"><defs><style>.cls-1{fill:#e7d35a;}.cls-1,.cls-10,.cls-11,.cls-2,.cls-3,.cls-4,.cls-5,.cls-6,.cls-7,.cls-8,.cls-9{fill-rule:evenodd;}.cls-2{fill:#c2b14b;}.cls-3{fill:#0d131a;}.cls-4{fill:#796bae;}.cls-5{fill:#695c97;}.cls-6{fill:#f0e78e;}.cls-7{fill:#fff;}.cls-8{fill:#ed8599;}.cls-9{fill:#ce7486;}.cls-10{fill:#dbdcdc;}.cls-11{fill:#c9c279;}</style></defs><title>Asset 38@</title><g id="Layer_2" data-name="Layer 2"><g id="Layer_1-2" data-name="Layer 1"><path class="cls-1" d="M49.6,8.92a3.79,3.79,0,0,1,2.69-.25,4.58,4.58,0,0,1,1.24.48l.63-.52a3.13,3.13,0,0,1,1.76-.51,2.37,2.37,0,0,1,1.77,1,4.9,4.9,0,0,1,.63,1l.41.06a3.82,3.82,0,0,1,1,.33,2.88,2.88,0,0,1,1.67,2.23,3.53,3.53,0,0,1-.56,2.71l-.59.64-.28.21a3.52,3.52,0,0,1,.36,1.92,2.81,2.81,0,0,1-.71,1.94,3.52,3.52,0,0,1-2.65,1l-1-.13-.42-.11a2.24,2.24,0,0,1-.62.78,3.37,3.37,0,0,1-2.25.79,3.58,3.58,0,0,1-2.47-.86A3.42,3.42,0,0,1,49,19.78c-1.2.54-1.84.78-1.91.7s0-.22.15-.53l.23-.45-1.14.63c-.77.4-1.16.57-1.19.52a6.53,6.53,0,0,1,1.14-1.42l1.19-1.31a4.13,4.13,0,0,1-1.06-.82,2.66,2.66,0,0,1-.5-1.93,3.24,3.24,0,0,1,1-2,4.68,4.68,0,0,1,.87-.7A4.71,4.71,0,0,1,48,11.07,3.18,3.18,0,0,1,49.6,8.92Z"/><path class="cls-2" d="M57.22,16.35c1-.12,1.49-.61,1.54-1.47a2.4,2.4,0,0,0,1.83-.42A2.14,2.14,0,0,0,61.28,13l0,1.26a3,3,0,0,1-1.33,2.08l.34,1.27A2.88,2.88,0,0,1,59.67,20a3.43,3.43,0,0,1-2.22,1.18,4,4,0,0,1-2-.22,2.93,2.93,0,0,1-.83.92,3.41,3.41,0,0,1-2.68.61A3.45,3.45,0,0,1,49.55,21a4.27,4.27,0,0,1-.43-.82L49,19.78l-1.91.7.38-1L45,20.72,47.56,18a2.44,2.44,0,0,1-1.09-.81A3.17,3.17,0,0,1,46.22,14l.12.4a2.28,2.28,0,0,0,.5.77c.67.69,1.64.79,2.92.3a1.87,1.87,0,0,0,.74,1.15,3,3,0,0,0,1.45.64,2.77,2.77,0,0,0,3.1-1.65,2.3,2.3,0,0,0,2.17.74Z"/><path class="cls-3" d="M45.44,20l1.94-2.19.37.23-2,2c-.16.17-.22.26-.2.27l.36-.16,1.13-.56c.4-.21.61-.3.65-.27a1.8,1.8,0,0,1-.26.57,1.22,1.22,0,0,0-.17.37s.16,0,.43-.13l1-.45c.17-.08.27-.11.3-.08s.08.11.14.3a3.29,3.29,0,0,0,1.33,1.76,3.85,3.85,0,0,0,1.92.64A3.5,3.5,0,0,0,54,22a3.08,3.08,0,0,0,1.39-1.26c.28-.47.45-.68.51-.62s0,.31-.27.8a3,3,0,0,1-1.26,1.36,3.47,3.47,0,0,1-2,.45A3.92,3.92,0,0,1,50.3,22,3.71,3.71,0,0,1,48.91,20l-1.57.59c-.31.1-.49.13-.52.09s0-.16.13-.37l.23-.43-1.28.61c-.68.34-1.06.48-1.12.43s.16-.36.66-.91Z"/><path class="cls-3" d="M60.55,11a2.94,2.94,0,0,1,1.07,1.9,3.62,3.62,0,0,1-.28,2,3.42,3.42,0,0,1-1.25,1.55,4.78,4.78,0,0,1,.3,2.31,3.15,3.15,0,0,1-.7,1.72,2.93,2.93,0,0,1-1.83.87,6.65,6.65,0,0,1-2.48-.21l.09-.26a5,5,0,0,0,2.26.11A2.86,2.86,0,0,0,59.36,20,2.71,2.71,0,0,0,60,18.61a4.46,4.46,0,0,0-.15-2,.92.92,0,0,1-.07-.36.82.82,0,0,1,.25-.22,2.5,2.5,0,0,0,.93-1.3,3.89,3.89,0,0,0,.19-1.84,3,3,0,0,0-.66-1.5,3.47,3.47,0,0,0-2.25-1.12l0-.25a4.41,4.41,0,0,1,2.25.92Z"/><path class="cls-3" d="M53.12,9.49a3.09,3.09,0,0,1,1.35-1.35,2.51,2.51,0,0,1,1.8-.24,2.77,2.77,0,0,1,1.39.88,3.06,3.06,0,0,1,.76,1.44c.08.37.09.58,0,.62s-.15-.15-.29-.55a2.86,2.86,0,0,0-.74-1.2,2.64,2.64,0,0,0-1.23-.71,2.24,2.24,0,0,0-1.53.12,3,3,0,0,0-1.3,1.09c-.2.29-.34.43-.4.41s0-.19.15-.51Z"/><path class="cls-3" d="M51.45,8.31a6.15,6.15,0,0,1,2.17.74l-.12.23a4.65,4.65,0,0,0-2-.6,3.15,3.15,0,0,0-3,1.61,4.88,4.88,0,0,0-.57,1.9l-.08.4-.21.18a3,3,0,0,0-1.27,1.38,3.1,3.1,0,0,0-.27,1.63,2.53,2.53,0,0,0,1.47,2c.28.15.41.26.39.32s-.18,0-.48-.08a3.06,3.06,0,0,1-1.25-.85,2.37,2.37,0,0,1-.63-1.37A3.08,3.08,0,0,1,46,14a3.82,3.82,0,0,1,1.61-1.6,6.38,6.38,0,0,1,.53-2.29,3,3,0,0,1,3.29-1.83Z"/><path class="cls-1" d="M41.05,12.22a1.1,1.1,0,0,1,.12.63l.35.34a1,1,0,0,1-.07,1,.93.93,0,0,1-1,.54,2.06,2.06,0,0,1-1.05-.66,1.69,1.69,0,0,1-.55,0,.92.92,0,0,1-.79-.49,1,1,0,0,1,.13-1.1.82.82,0,0,1,1.12-.26l.35-.33a1.07,1.07,0,0,1,.9-.19.75.75,0,0,1,.49.48Z"/><path class="cls-2" d="M38.24,12.42a.59.59,0,0,0,.42.66,1.39,1.39,0,0,0,1,.09,1.25,1.25,0,0,0,.88.59.93.93,0,0,0,1.06-.37l0,.65a.74.74,0,0,1-.83.65,1.56,1.56,0,0,1-1.1-.31L39.42,14a2.27,2.27,0,0,1-1-.15q-.87-.37-.18-1.47Z"/><path class="cls-2" d="M40.87,11.92a.69.69,0,0,1,.31.52l.07.42-.67-.16q.18,0,.27-.33a.64.64,0,0,0,0-.45Z"/><path class="cls-3" d="M39.27,12.2a1.06,1.06,0,0,1,1.22-.63c.57.1.84.53.84,1.3l-.19-.07c-.07-.61-.34-.93-.8-1a.85.85,0,0,0-.91.45l-.16-.07Z"/><path class="cls-3" d="M39.59,12.24c.19.16.27.27.23.32s-.17,0-.39-.15a.74.74,0,0,0-.84,0,.79.79,0,0,0-.45.73.72.72,0,0,0,.33.61,1.3,1.3,0,0,0,.75.21l.25,0,.23.17a1.44,1.44,0,0,0,.74.42.91.91,0,0,0,.78-.23.86.86,0,0,0,.26-.85c0-.37-.23-.57-.52-.6s-.46-.09-.45-.16.16-.09.47,0a.88.88,0,0,1,.81.84,1.21,1.21,0,0,1-.37,1.07,1.08,1.08,0,0,1-1,.27,1.85,1.85,0,0,1-1-.67A1.77,1.77,0,0,1,38.3,14a1,1,0,0,1-.47-.89,1,1,0,0,1,.61-1,1,1,0,0,1,1.15.12Z"/><path class="cls-1" d="M16.05,9.16a3.19,3.19,0,0,1-1.25,2.41,3.66,3.66,0,0,1-1.17.66l.15.77a1.61,1.61,0,0,1-.3,1.27,1.83,1.83,0,0,1-1.08.51l-.64,0a8.2,8.2,0,0,1,.58,2.25,7.07,7.07,0,0,1-1.43-1.3c.09.62.09.94,0,1s-.46-.33-1.14-1.09a3.86,3.86,0,0,1-1.25.52,3,3,0,0,1-2.5-.3,1.92,1.92,0,0,1-.81-1.55,1.88,1.88,0,0,1,.15-1.12,5.3,5.3,0,0,1-2.15-.28,4,4,0,0,1-2-6.38A4.56,4.56,0,0,1,3.11,4.82a4.91,4.91,0,0,1,.08-1.55A3.66,3.66,0,0,1,4.78.74a3.28,3.28,0,0,1,3-.16,5.82,5.82,0,0,1,1.51.8l1.41-.16a2.65,2.65,0,0,1,2.22.9,3.51,3.51,0,0,1,.56,2.45A5.5,5.5,0,0,1,13.27,6l.45.17a5.78,5.78,0,0,1,1,.55,2.84,2.84,0,0,1,1.35,2.48Z"/><path class="cls-2" d="M16,9.83a3.93,3.93,0,0,1-1.44,1.85,3.7,3.7,0,0,1-1,.55l.09.9c0,.64-.1,1-.32,1.23a2.46,2.46,0,0,1-1,.39l-.62.07c.5,1.44.69,2.19.58,2.25s-.58-.37-1.43-1.3c.09.62.09.95,0,1s-.46-.33-1.14-1.09a4.19,4.19,0,0,1-1.18.58,2.55,2.55,0,0,1-2.3-.17,2.29,2.29,0,0,1-1-1.81l.09-1a7.76,7.76,0,0,1-2.11-.35A3.51,3.51,0,0,1,.6,10.59a4.78,4.78,0,0,1,0-2.95A3.23,3.23,0,0,1,1,6.87l.19-.27A2.35,2.35,0,0,0,2,8.93a3.89,3.89,0,0,0,3,.44,3.52,3.52,0,0,0,3.16,2,4.29,4.29,0,0,0,3.75-1.59,3,3,0,0,0,2.85-.58,1.75,1.75,0,0,0,.59-1.92l.59.66A2.16,2.16,0,0,1,16,9.83Z"/><path class="cls-3" d="M13.36,3.59a2.68,2.68,0,0,0-.68-1.48,3,3,0,0,0-3-.6l-.32,0L9,1.39A4.3,4.3,0,0,0,7,.53a3.26,3.26,0,0,0-2,.27A3,3,0,0,0,3.69,2.2a4.92,4.92,0,0,0-.44,2.27l0,.43L3,5.11A4.82,4.82,0,0,0,1,7.26,4.16,4.16,0,0,0,.65,10a3.46,3.46,0,0,0,1.49,2.16,6.07,6.07,0,0,0,3,.92c.2,0,.31,0,.33.09s0,.15-.06.36a2.45,2.45,0,0,0,0,1.32,1.91,1.91,0,0,0,.7.93,2.42,2.42,0,0,0,1.54.41,4.07,4.07,0,0,0,2.08-.72c.24-.15.38-.2.43-.14s0,.16-.26.31l.31.37.37.41.22.17v-.2l-.08-.49c0-.23,0-.36,0-.37s.13.06.31.23l.69.72.33.27s0-.13,0-.36L11.62,15c-.06-.18-.08-.28,0-.33s.12,0,.29,0a1.7,1.7,0,0,0,1.37-.51,2,2,0,0,0,.27-1.62,1.13,1.13,0,0,1,0-.38.65.65,0,0,1,.28-.18,3.67,3.67,0,0,0,1.55-1.26,2.9,2.9,0,0,0,.5-1.77,2.62,2.62,0,0,0-.68-1.63,3.56,3.56,0,0,0-1.66-1c-.21-.07-.32-.14-.34-.21a1,1,0,0,1,.07-.5,4.84,4.84,0,0,0,.14-2Zm-.28-1.78a2.8,2.8,0,0,1,.77,2,6.91,6.91,0,0,1-.37,2.14,4.25,4.25,0,0,1,2,1.13,2.84,2.84,0,0,1,.81,1.84,3.06,3.06,0,0,1-.48,1.83,3.9,3.9,0,0,1-2,1.55,2.24,2.24,0,0,1-.24,2.08,2,2,0,0,1-1.63.54l.39,1.31c.2.74.24,1.12.13,1.14s-.39-.25-.91-.79L11,16l.07.64q0,.38-.09.36l-.39-.29-1-.86a4.39,4.39,0,0,1-2.14.75,2.44,2.44,0,0,1-1.67-.48,2,2,0,0,1-.75-1.3,2.94,2.94,0,0,1,.11-1.44,7.08,7.08,0,0,1-3.42-1A3.67,3.67,0,0,1,.09,10.07,4.23,4.23,0,0,1,.52,7.22,5.6,5.6,0,0,1,2.89,4.77V4.38a5.26,5.26,0,0,1,.47-2.46A3.28,3.28,0,0,1,4.82.31,3.45,3.45,0,0,1,7.09.1,5.09,5.09,0,0,1,9.34,1.22a4.65,4.65,0,0,1,2.09-.17,2.77,2.77,0,0,1,1.65.76Z"/><path class="cls-1" d="M5.86,21.12a1.76,1.76,0,0,1,1.09,1A3.06,3.06,0,0,1,7,23.4l.68,1a1.93,1.93,0,0,1,0,2,1.79,1.79,0,0,1-1.14.76,2.12,2.12,0,0,1-1.48-.07,2,2,0,0,1-.63.48,1.41,1.41,0,0,1-2.06-.85,1.71,1.71,0,0,1,0-.78,2.24,2.24,0,0,1-.87-.44A1.74,1.74,0,0,1,1,23.62a1.81,1.81,0,0,1,1.37-1.47l1.07-.07a3.63,3.63,0,0,1,.76-.68,1.75,1.75,0,0,1,1.71-.28Z"/><path class="cls-2" d="M1.23,22.85a1.35,1.35,0,0,0,.22,1,1.57,1.57,0,0,0,1.48.54,1.45,1.45,0,0,0,1.25,1.05A1.68,1.68,0,0,0,5.87,25,1.15,1.15,0,0,0,7,25.49c.54,0,.83-.32.86-.94l.12.75a1.82,1.82,0,0,1-.49,1.35,2,2,0,0,1-1.48.5l-.87-.09a2.23,2.23,0,0,1-.67.44,1.71,1.71,0,0,1-1.56,0,1,1,0,0,1-.52-.93l.06-.63a1.7,1.7,0,0,1-.67-.22,1.53,1.53,0,0,1-.8-1.27A2.69,2.69,0,0,1,1,23.17l.2-.32Z"/><path class="cls-3" d="M5.69,21.31a2,2,0,0,0-1.21.11,2,2,0,0,0-1,.94c-.18.34-.31.49-.38.45s0-.26.18-.6a1.65,1.65,0,0,0-1.57.42,1.78,1.78,0,0,0-.58,1.28,1.89,1.89,0,0,0,.33,1.22,1.42,1.42,0,0,0,.88.61c.15,0,.24.08.26.13a.62.62,0,0,1,0,.29,1,1,0,0,0,.58,1.21,1.7,1.7,0,0,0,1.68-.28A.48.48,0,0,1,5.07,27l.3,0,1.22-.07a1.66,1.66,0,0,0,1.17-1.83,2.13,2.13,0,0,0-.66-1.28.71.71,0,0,1-.21-.28v-.43A1.72,1.72,0,0,0,6.66,22a1.42,1.42,0,0,0-1-.66ZM4.51,21a2.12,2.12,0,0,1,1.28-.18A1.66,1.66,0,0,1,7,21.9a2.65,2.65,0,0,1,.11,1.57,2.67,2.67,0,0,1,1,1.63,1.93,1.93,0,0,1-.24,1.48,1.81,1.81,0,0,1-1.29.75,3.88,3.88,0,0,1-1.52-.13,1.77,1.77,0,0,1-2.15.47A1.32,1.32,0,0,1,2.32,27a1.46,1.46,0,0,1,0-1,2.14,2.14,0,0,1-1.25-.75A1.9,1.9,0,0,1,.63,24a1.94,1.94,0,0,1,1-1.73A2.18,2.18,0,0,1,3.41,22,2.56,2.56,0,0,1,4.51,21Z"/><path class="cls-1" d="M54.41,34a1.29,1.29,0,0,1-.5,1.21l-.63.38a2.08,2.08,0,0,1-.24.62,1.15,1.15,0,0,1-1,.65A1.45,1.45,0,0,1,51,36.47L50.61,36a2.78,2.78,0,0,1-.78-.27c-.52-.26-.74-.6-.68-1a1.26,1.26,0,0,1,.75-.93,2.18,2.18,0,0,1,.61-.2,5,5,0,0,1,.21-.66,1.29,1.29,0,0,1,.74-.79l.78,0a2,2,0,0,1,.84.67l.61.16a1.24,1.24,0,0,1,.72,1Z"/><path class="cls-2" d="M54.26,33.52a1.28,1.28,0,0,1,.16.56c0,.6-.34,1.12-1.14,1.54a1.43,1.43,0,0,1-.15.58,1.13,1.13,0,0,1-.94.67A1.42,1.42,0,0,1,51,36.5l-.4-.47a1.34,1.34,0,0,1-1-.43,1.12,1.12,0,0,1-.38-1.07.79.79,0,0,0,.42.51,2.27,2.27,0,0,0,.92.3,1.73,1.73,0,0,0,1.91-1l1,0a.94.94,0,0,0,.6-1l.13.22Z"/><path class="cls-3" d="M54.22,33.93a.91.91,0,0,0-.3-.58,1.27,1.27,0,0,0-.66-.31L53,33l-.18-.16a1.39,1.39,0,0,0-.6-.46l-.67,0a1.08,1.08,0,0,0-.59.41,2,2,0,0,0-.32.82c.23,0,.36,0,.41.1s-.07.11-.37.1a1.3,1.3,0,0,0-.91.32,1,1,0,0,0-.38.76.91.91,0,0,0,.25.67,1.48,1.48,0,0,0,.88.4l.19.06.15.19a1,1,0,0,0,.52.42,1.56,1.56,0,0,0,.79.1,1.06,1.06,0,0,0,.62-.32,1,1,0,0,0,.29-.62q0-.18.06-.21a.5.5,0,0,1,.19-.12,1.49,1.49,0,0,0,.72-.66,1.25,1.25,0,0,0,.16-.81Zm-4.83,1.71A1.07,1.07,0,0,1,49,34.9,1.2,1.2,0,0,1,49.4,34a1.53,1.53,0,0,1,1-.47,2.16,2.16,0,0,1,.32-1,1.24,1.24,0,0,1,.75-.55,1.22,1.22,0,0,1,.79.09,2.12,2.12,0,0,1,.83.69,2,2,0,0,1,1,.36,1.2,1.2,0,0,1,.49.81,1.41,1.41,0,0,1-.23,1,2,2,0,0,1-1,.8,1.54,1.54,0,0,1-.39.94,1.24,1.24,0,0,1-.74.4,1.44,1.44,0,0,1-.94-.15,1.6,1.6,0,0,1-.72-.71,1.93,1.93,0,0,1-1.18-.52Z"/><path class="cls-1" d="M17.69,52.53a2.45,2.45,0,0,1-1.26,1.82,3.84,3.84,0,0,1-2,.5l-.41.8a2.33,2.33,0,0,1-1.68,1,2.86,2.86,0,0,1-1.8-.25,2.71,2.71,0,0,1-.8-.79,4.25,4.25,0,0,1-.93-.24c-.63-.23-1-.54-1.06-.92a1.87,1.87,0,0,1,.8-1.8,3.72,3.72,0,0,1-.87-1.06,2.58,2.58,0,0,1-.06-2.6,2.66,2.66,0,0,1,1.62-1.33l1.46,0a3.23,3.23,0,0,1,.93-.74A2.58,2.58,0,0,1,14,46.64a2.64,2.64,0,0,1,1.61,1.71,3.08,3.08,0,0,1,.19,1.15l1.06.87a2.59,2.59,0,0,1,.85,2.16Z"/><path class="cls-2" d="M17.51,52.86c-.33,1.17-1.36,1.83-3.08,2l0,.26a2,2,0,0,1-.31.57,3,3,0,0,1-2.16,1,2.23,2.23,0,0,1-1.6-.45c-.4-.3-.59-.53-.57-.68a2.16,2.16,0,0,1-.86-.12,1.52,1.52,0,0,1-1.1-1.18A1.6,1.6,0,0,1,8,53.16c.19-.33.37-.52.54-.56a3.06,3.06,0,0,1-.77-.79,2.21,2.21,0,0,1-.33-2.08V50a1.27,1.27,0,0,0,.21.54,2.65,2.65,0,0,0,2.25.78,2.38,2.38,0,0,0,2,1.72,2.21,2.21,0,0,0,2.43-.8,3,3,0,0,0,2.13.35,1.4,1.4,0,0,0,1-1.39l.1.52a3,3,0,0,1-.08,1.16Z"/><path class="cls-3" d="M17.57,50.94a2.38,2.38,0,0,1,.23,1.93,2.66,2.66,0,0,1-1.21,1.57,3.59,3.59,0,0,1-2.17.53v-.25a3,3,0,0,0,1.84-.51,2.58,2.58,0,0,0,1.11-1.45,2.2,2.2,0,0,0-.16-1.61,3.39,3.39,0,0,0-1.31-1.36.59.59,0,0,1-.23-.19.62.62,0,0,1,0-.3,2.48,2.48,0,0,0-1.46-2.41,2.94,2.94,0,0,0-3.36.73l-.23-.13a3.48,3.48,0,0,1,1.83-1.18,2.8,2.8,0,0,1,1.89.17,2.67,2.67,0,0,1,1.36,1.33,3,3,0,0,1,.27,1.64,3.87,3.87,0,0,1,1.64,1.49Z"/><path class="cls-3" d="M7.63,54.49a1.48,1.48,0,0,1,0-1,1.8,1.8,0,0,1,.76-.9l.16.18a1.64,1.64,0,0,0-.64.88,1.19,1.19,0,0,0,0,.77,1.23,1.23,0,0,0,.57.67,2.29,2.29,0,0,0,1,.35l.22.05.15.18a1.88,1.88,0,0,0,1.22.82l1.48-.07a2.56,2.56,0,0,0,1.21-.75,2.09,2.09,0,0,0,.44-1.06c0-.36.1-.53.17-.51s.1.19.08.53a2.36,2.36,0,0,1-.44,1.3,2.46,2.46,0,0,1-1.37,1l-1.68,0A2.48,2.48,0,0,1,9.68,55.7a3.31,3.31,0,0,1-1.3-.38,1.57,1.57,0,0,1-.75-.83Z"/><path class="cls-3" d="M10.56,47.42c.45.08.67.15.66.22l-.7,0A3.13,3.13,0,0,0,8.93,48a2.42,2.42,0,0,0-1.21,1.27A2.51,2.51,0,0,0,7.63,51,3.64,3.64,0,0,0,9,52.81c.29.23.41.37.35.43s-.23,0-.53-.21a4.09,4.09,0,0,1-1.6-2,2.72,2.72,0,0,1,0-1.93,2.65,2.65,0,0,1,1.35-1.37,3.32,3.32,0,0,1,2-.29Z"/><path class="cls-1" d="M7.22,42.26c.13.34.11.59,0,.74a.82.82,0,0,1-.63.23,1.81,1.81,0,0,1-.82-.36L5.17,43a.62.62,0,0,1-.66-.52.87.87,0,0,1,.34-.83l.43-.23a2,2,0,0,1,.31-.57c.28-.37.58-.5.9-.4a.81.81,0,0,1,.54.79,1.75,1.75,0,0,1,0,.61l.23.46Z"/><path class="cls-2" d="M7.28,42.35a.87.87,0,0,1-.16.56.64.64,0,0,1-.45.3l-.58-.07c-.21-.07-.35-.14-.39-.22H5.19c-.36,0-.56-.14-.63-.31a1,1,0,0,1,0-.6l.15-.3a.44.44,0,0,0,.32.48A.52.52,0,0,0,5.64,42a.37.37,0,0,0,.49.16.42.42,0,0,0,.31-.46.38.38,0,0,0,.4-.09A.52.52,0,0,0,7,41.33a1.68,1.68,0,0,0,0,.51l.14.27.11.24Z"/><path class="cls-3" d="M7.13,42.49A.66.66,0,0,0,7,42.05a.42.42,0,0,1-.11-.21l0-.27A1.06,1.06,0,0,0,6.85,41a.69.69,0,0,0-.46-.39.63.63,0,0,0-.57.14,1.32,1.32,0,0,0-.36.55l-.09.22-.21.12a.71.71,0,0,0-.37.29.53.53,0,0,0-.11.41.58.58,0,0,0,.25.41.74.74,0,0,0,.55.12l.22,0,.23.07a1,1,0,0,0,.53.18.69.69,0,0,0,.5-.13.55.55,0,0,0,.17-.43Zm0-1.73a1.65,1.65,0,0,1,0,1,1.09,1.09,0,0,1,.3.7.73.73,0,0,1-.86.86A1.68,1.68,0,0,1,5.69,43l-.88,0a.74.74,0,0,1-.45-.73.79.79,0,0,1,.26-.57,1.29,1.29,0,0,1,.59-.36,1.67,1.67,0,0,1,.5-.92.8.8,0,0,1,.78-.22.86.86,0,0,1,.6.6Z"/><path class="cls-1" d="M49.94,51.91a2.37,2.37,0,0,1-.69.58l-.64,1.21A2.49,2.49,0,0,1,46.76,55a3,3,0,0,1-2.1-.62,2.5,2.5,0,0,1-1-1.36,4.49,4.49,0,0,1-1.32-.24,2,2,0,0,1-1.53-1.52,2,2,0,0,1,.7-1.89l.91-.61a2.32,2.32,0,0,1-.08-.67,1.43,1.43,0,0,1,.4-1.13,1.47,1.47,0,0,1,1.23-.29,3.13,3.13,0,0,1,.73.17,1.71,1.71,0,0,1,1.9-.72A1.69,1.69,0,0,1,48,47.45l1.28.56a2.35,2.35,0,0,1,1.31,1.93,2.88,2.88,0,0,1-.65,2Z"/><path class="cls-2" d="M50.52,49.81a2.73,2.73,0,0,1-1.27,2.68l-.12.37a3.28,3.28,0,0,1-.41.84,2.64,2.64,0,0,1-2.27,1.23,2.77,2.77,0,0,1-2.27-1,2.48,2.48,0,0,1-.43-.67l-.12-.3A4.22,4.22,0,0,1,42,52.69a1.85,1.85,0,0,1-1.31-2.16c.14.43.54.7,1.21.8A3.21,3.21,0,0,0,44,51a1.9,1.9,0,0,0,.93.77,2.77,2.77,0,0,0,1.3.22A1.68,1.68,0,0,0,48,50.4a2.78,2.78,0,0,0,1.68-.34c.48-.33.59-.85.33-1.58l.22.38a3.14,3.14,0,0,1,.32,1Z"/><path class="cls-3" d="M50,48.39a2.26,2.26,0,0,1,.82,1.45,2.9,2.9,0,0,1-1.52,2.73,3.86,3.86,0,0,1-1.15,2,2.66,2.66,0,0,1-1.61.73,2.71,2.71,0,0,1-1.85-.54A3.8,3.8,0,0,1,43.47,53l.28,0a2.83,2.83,0,0,0,1.11,1.33,2.73,2.73,0,0,0,1.69.43,2.55,2.55,0,0,0,1.52-.62,3.14,3.14,0,0,0,.94-1.5l.1-.26.2-.16a2.76,2.76,0,0,0,.86-1.13,2.28,2.28,0,0,0,.19-1.26,2.25,2.25,0,0,0-.71-1.3,3.52,3.52,0,0,0-1.52-.82.5.5,0,0,1-.32-.3,1.8,1.8,0,0,0-.51-.77,1.5,1.5,0,0,0-.82-.36,2,2,0,0,0-1.22.17,2.62,2.62,0,0,0-.89.94c-.12.2-.2.3-.25.3s0-.15.07-.39a2.29,2.29,0,0,1,.82-1,2.05,2.05,0,0,1,1.49-.35,1.82,1.82,0,0,1,1,.51,2.29,2.29,0,0,1,.6,1,4.13,4.13,0,0,1,1.93,1Z"/><path class="cls-3" d="M43.42,46.46a2.83,2.83,0,0,1,1.27.27l-.08.23a1.61,1.61,0,0,0-1.72.06,1.32,1.32,0,0,0-.4.69,2.08,2.08,0,0,0,0,.79v.3s-.08.08-.19.14a2.61,2.61,0,0,0-1.14,1,1.64,1.64,0,0,0-.21,1.29,1.91,1.91,0,0,0,.8,1.13,3.52,3.52,0,0,0,2,.54c.31,0,.47,0,.48.13s-.14.12-.45.13a4.27,4.27,0,0,1-2.32-.58,2.12,2.12,0,0,1-1-1.28,1.81,1.81,0,0,1,.3-1.43,3.18,3.18,0,0,1,1.41-1.17,1.94,1.94,0,0,1,.42-1.93,1.24,1.24,0,0,1,.8-.28Z"/><path class="cls-4" d="M34.29,14.91a17.59,17.59,0,0,1,5.43,4.28,19.38,19.38,0,0,1,3.4,5.55,14.94,14.94,0,0,1,1.18,5.59l-.06,1.53c1.1.74,1.69,1.25,1.75,1.53a5,5,0,0,1-.17,1.73,3.82,3.82,0,0,1-.45,1.48,12.31,12.31,0,0,1-2.5.59,17.3,17.3,0,0,1-13,10.05c-.73,1-1.17,1.63-1.3,1.77s-.83.26-1.87.17a3.76,3.76,0,0,1-2.09-.57A5.18,5.18,0,0,1,24,47.19a16.69,16.69,0,0,1-6-2.33L15.81,45A3.76,3.76,0,0,1,14.5,44a8,8,0,0,1-1-1.21A5.46,5.46,0,0,1,13.55,41a16.73,16.73,0,0,1-3.09-6,5,5,0,0,1-1.17-.63c-.23-.18-.4-.84-.53-2a9.17,9.17,0,0,1-.07-1.92,4.7,4.7,0,0,1,1.15-1.21,16.9,16.9,0,0,1,2.56-8,7.41,7.41,0,0,1-.76-2.22A6.15,6.15,0,0,1,13,17.64c.84-.79,1.37-1.18,1.58-1.18A6.57,6.57,0,0,1,16.2,17a17.32,17.32,0,0,1,10.86-3.81,15.82,15.82,0,0,1,7.23,1.7Z"/><path class="cls-5" d="M44.33,30.61a16.68,16.68,0,0,1-.51,4,15.62,15.62,0,0,1-5.26,8.61,17.47,17.47,0,0,1-12.68,4.16,18.52,18.52,0,0,1-5.16-1.12,13.17,13.17,0,0,1-3.46-1.84,29.5,29.5,0,0,0,10.9.15,20.69,20.69,0,0,0,8.18-3.39A18.21,18.21,0,0,0,44,28a6.71,6.71,0,0,1,.38,2.57Z"/><path class="cls-5" d="M29.62,47.31l-.28.68a2.45,2.45,0,0,1-.82,1,3.35,3.35,0,0,1-2,.21,3.49,3.49,0,0,1-1.85-.52c-.17-.07-.35-.35-.52-.82l-.2-.69,5.63.12Z"/><path class="cls-5" d="M16,45.09a2.51,2.51,0,0,1-1.09-.69l-.7-.66a3.23,3.23,0,0,0,1.59.16,1.14,1.14,0,0,0,.5-.18l1.62,1.15a5.39,5.39,0,0,1-1.92.22Z"/><path class="cls-5" d="M43.53,34.73l1,.53c.7.29,1.15.26,1.35-.07-.18.9-.38,1.4-.59,1.5l-1.36.39-1.13.27.74-2.62Z"/><path class="cls-5" d="M10.12,32.85l.31,2.2a7.4,7.4,0,0,1-1.22-.81,2,2,0,0,1-.34-1.08l-.08-.83a.64.64,0,0,0,.71.6l.62-.08Z"/><path class="cls-5" d="M11.93,18.7l.57.53a2.78,2.78,0,0,0,1.16.64l-1.19,1.6-.42-1.11a5.22,5.22,0,0,1-.4-1.28.62.62,0,0,1,.16-.28l.12-.1Z"/><path class="cls-5" d="M35.47,36a2.66,2.66,0,0,1,.39-1.08,1.11,1.11,0,0,1,.82-.46l1.09-.11a.9.9,0,0,0,.67-.66c-.28,1.37-.52,2.11-.7,2.19L35.47,36Z"/><path class="cls-5" d="M13.81,33.78a4.83,4.83,0,0,1-1.69-.31c-.13-.08-.25-.45-.35-1.1l-.09-.9a.72.72,0,0,0,.41.51,6.29,6.29,0,0,0,1.21.46,1,1,0,0,1,.75.79c.1.4,0,.58-.24.55Z"/><path class="cls-6" d="M18.9,35.85A1.18,1.18,0,0,0,19.49,37a3.86,3.86,0,0,0,1.5.57l1.75-.06c.62-.17,1-.45,1-.82s-.16-.87-.72-1.24a3.76,3.76,0,0,0-1.63-.63,3.38,3.38,0,0,0-1.46.11c-.65.18-1,.49-1.07.92Zm1.57,3.46c-.24-.31-.4-.46-.46-.46s-.17,0-.31.14-.25.16-.34.14-.28-.21-.57-.6l-.52-.69a3.52,3.52,0,0,1-.8-.76A2,2,0,0,1,17,35.54a2.5,2.5,0,0,1,1.78-1.9,6.38,6.38,0,0,1,3-.39,5.25,5.25,0,0,1,3.08,1.31,2.69,2.69,0,0,1,1,2.38,1.79,1.79,0,0,1-.72,1.2,7.07,7.07,0,0,1-1.54.75,1.62,1.62,0,0,0-.54.45l-.38.33c-.09,0-.25-.09-.48-.29l-.41-.31-.34.36c-.19.22-.34.34-.45.34s-.26-.16-.52-.46Z"/><path class="cls-6" d="M16,36.58a3.42,3.42,0,0,1,.61,1.15A27.83,27.83,0,0,0,21,41a10.09,10.09,0,0,0,2.81-1,13.17,13.17,0,0,0,2.53-1.22q1.18-1.57,1.83-1.17a1,1,0,0,1,.45.93,1.79,1.79,0,0,1-.2.94,2,2,0,0,1-.54.69,1.35,1.35,0,0,1-.6.24c-.13,0-.84.31-2.15.88l-2.15.88a21.79,21.79,0,0,0,2.22,1.36l.72.09c.4.07.63.18.68.33a1.06,1.06,0,0,1-.3,1.13,1.55,1.55,0,0,1-1.1.5c-.56,0-.89-.16-1-.54l-3.36-2.18-2.58.7a2,2,0,0,1-.6.19,2,2,0,0,1-.61-.28,1.09,1.09,0,0,1-.58-.75,1,1,0,0,1,.06-.61.41.41,0,0,1,.36-.15L18,41.91a5.64,5.64,0,0,0,1.06-.35l-3.44-2.71a2.54,2.54,0,0,1-.49-.34,1.47,1.47,0,0,1-.49-.94,1.65,1.65,0,0,1,.25-1c.17-.28.34-.42.51-.41s.35.17.59.47Z"/><path class="cls-7" d="M15.7,21.87A2.54,2.54,0,0,1,17.94,21c1.27.23,1.85,1.32,1.73,3.26L17.81,24a6.74,6.74,0,0,1-3-1,5.47,5.47,0,0,1,.88-1.16Z"/><path class="cls-7" d="M30.43,24.43a25.25,25.25,0,0,1-5.79.06A4.34,4.34,0,0,1,25.2,23a3.08,3.08,0,0,1,2.53-1.6,4.92,4.92,0,0,1,3.19.83A3.76,3.76,0,0,1,32.46,24a11.5,11.5,0,0,1-2,.42Z"/><path class="cls-7" d="M16.07,27.36q-.35.5-.54.45c-.23,0-.41-.42-.53-1.12l-.11-1,1.66.79a3.26,3.26,0,0,1-.48.92Z"/><path class="cls-7" d="M28.94,27.66l2.41-.52-.53,1.16c-.39.77-.68,1.15-.87,1.13s-.41-.31-.67-.9l-.34-.87Z"/><path class="cls-8" d="M15.84,27.69a3.13,3.13,0,0,0,.45-.81l.19-.51q1.56.94,5.7,1.3a28.53,28.53,0,0,0,6.75-.09l.64,1.48a7.67,7.67,0,0,1-2.42,1.57,10.43,10.43,0,0,1-5.13.72,8.36,8.36,0,0,1-4.73-2,8.56,8.56,0,0,1-1.1-1.16l-.35-.51Z"/><path class="cls-9" d="M16.12,28.23l-.3-.45.63-1.31a28,28,0,0,0,8.61,1.35L29,27.6l.6,1.55-.42.35c-.93-.47-3.11-.87-6.56-1.18s-5.53-.34-6.47-.09Z"/><path class="cls-10" d="M14.87,26.09l0-.46,1.65.83-.27.53a2.89,2.89,0,0,1-1.11-.55l-.31-.35Z"/><path class="cls-10" d="M29.1,28.11,29,27.53l2.34-.41-.21.51a3.41,3.41,0,0,1-1.36.44l-.71,0Z"/><path class="cls-11" d="M26.47,44.82a1.53,1.53,0,0,1-.56.54,1.67,1.67,0,0,1-.75.23c-.56,0-.89-.16-1-.54L24.09,45l2.38-.16Z"/><path class="cls-3" d="M34.69,14.89a18,18,0,0,1,5.73,4.82,18.82,18.82,0,0,1,3.38,6.56,15.17,15.17,0,0,1,.39,7.11c-.09.46-.18.69-.28.68s-.12-.24-.06-.7a16.28,16.28,0,0,0-.56-7.28,18.3,18.3,0,0,0-3.43-6.4,17.53,17.53,0,0,0-5.59-4.55,15.06,15.06,0,0,0-7-1.73,16.91,16.91,0,0,0-6,1.1A17.21,17.21,0,0,0,16,17.66c-.53.46-.83.65-.9.55s.16-.38.69-.85A17,17,0,0,1,27.28,13a15.57,15.57,0,0,1,7.41,1.88Z"/><path class="cls-3" d="M13.37,20.48A16.53,16.53,0,0,0,11,24.86a16.12,16.12,0,0,0-.95,4.82c0,.8-.11,1.21-.22,1.22s-.16-.39-.15-1.2a14.8,14.8,0,0,1,.91-5,15.29,15.29,0,0,1,2.49-4.43c.37-.47.6-.67.68-.6s-.07.33-.42.82Z"/><path class="cls-3" d="M10,33.45c-.11-.65-.11-1,0-1s.23.31.34,1a16.27,16.27,0,0,0,4.59,8.76,17.08,17.08,0,0,0,9.85,4.91c.61.1.92.2.92.31l-.94,0A17.28,17.28,0,0,1,15.07,43,16.33,16.33,0,0,1,10,33.45Z"/><path class="cls-3" d="M43,36.42c.22-.53.37-.78.47-.74s0,.33-.16.88a16.16,16.16,0,0,1-5.76,7.75,17.56,17.56,0,0,1-8.78,3.22c-.76.08-1.13,0-1.12-.07s.4-.22,1.17-.29a16.57,16.57,0,0,0,8.59-3.38A17.23,17.23,0,0,0,43,36.42Z"/><path class="cls-3" d="M16.58,17s0,.07-.06.18l-.19.14a5.69,5.69,0,0,0-1.8-.51c-.26,0-.77.35-1.55,1s-1.15,1.13-1.14,1.34a7.59,7.59,0,0,0,.85,2.22s0,.1-.14.2-.17.14-.19.1a8.84,8.84,0,0,1-.91-2.5c0-.27.38-.79,1.18-1.56s1.47-1.22,1.92-1.22a6.41,6.41,0,0,1,2,.58Z"/><path class="cls-3" d="M46.13,33.21a4.07,4.07,0,0,1-.09,2c-.22,1-.46,1.54-.74,1.71a4.68,4.68,0,0,1-1.38.41l-1.18.19s0-.06,0-.21.1-.23.15-.24a8.48,8.48,0,0,0,2.26-.57c.2-.12.39-.6.57-1.42a3.44,3.44,0,0,0,.13-1.56A9.32,9.32,0,0,0,44.09,32s0-.11,0-.23.11-.2.14-.18a8.53,8.53,0,0,1,1.86,1.65Z"/><path class="cls-3" d="M37.22,31.57a7.59,7.59,0,0,1,1.07.47c.35.19.55.32.58.4a3.88,3.88,0,0,1-.29,1.82A3.88,3.88,0,0,1,37.75,36l-.92.09L35.75,36l-.11.31c-.11.28-.2.43-.28.44s-.07-.11,0-.36l.15-.53q.11-.16.45-.15l1.69-.09a3.77,3.77,0,0,0,.52-1.45,4.77,4.77,0,0,0,.25-1.5,3.21,3.21,0,0,0-1.34-.85q-.72-.32-.66-.42t.81.15Z"/><path class="cls-3" d="M26.63,49.05a3.7,3.7,0,0,0,1.73-.11,6.84,6.84,0,0,0,1.21-1.76l.27,0c.16,0,.23,0,.21.08l-.62,1a4.69,4.69,0,0,1-.81,1.07l-2,.09a3.67,3.67,0,0,1-2.17-.67,3.47,3.47,0,0,1-.54-1,5,5,0,0,1-.26-.69l.26,0c.18,0,.27,0,.28.08l.16.58a2.55,2.55,0,0,0,.42.85,3.09,3.09,0,0,0,1.87.5Z"/><path class="cls-3" d="M17.85,44.7l.2.17c.09.13.11.2.07.21a7.79,7.79,0,0,1-2.32.2,3.46,3.46,0,0,1-1.43-1A4.69,4.69,0,0,1,13.29,43a3.09,3.09,0,0,1,0-1.23c0-.36.09-.67.14-.93,0,0,.08,0,.21.07l.2.19a4,4,0,0,0-.13,1.69,4.32,4.32,0,0,0,1,1.2,3.21,3.21,0,0,0,1.22.9,6.19,6.19,0,0,0,2-.17Z"/><path class="cls-3" d="M9.88,28.82s.08,0,.13.16.06.23,0,.26a4.28,4.28,0,0,0-1.13,1.29,5.76,5.76,0,0,0,0,1.88,5.17,5.17,0,0,0,.35,1.74,4.63,4.63,0,0,0,1.31.76s.06.11.07.27,0,.23,0,.21a4.66,4.66,0,0,1-1.67-1,4.58,4.58,0,0,1-.49-1.87,5.71,5.71,0,0,1,0-2.12,3.19,3.19,0,0,1,.78-1l.65-.59Z"/><path class="cls-3" d="M12.7,29.7l.53,0q0,.12-.42.3a2.2,2.2,0,0,0-.94.52,4.72,4.72,0,0,0,0,1.44c.08.87.17,1.32.26,1.36a4.16,4.16,0,0,0,1.17.25c.42.05.62.12.61.19s-.23.11-.67.08l-1.22-.15c-.21-.08-.38-.58-.51-1.51a4.33,4.33,0,0,1,0-1.91c0-.08.12-.16.29-.24a8.33,8.33,0,0,1,.9-.31Z"/><path class="cls-3" d="M12.92,28.58c0-.25.05-.38.11-.4s.11.09.13.33v.54c0,.28,0,.41-.11.4s-.1-.15-.14-.43v-.44Z"/><path class="cls-3" d="M32.22,23.92a4.19,4.19,0,0,0-1.52-1.66,4.72,4.72,0,0,0-2.81-.66,3.22,3.22,0,0,0-2,.83,3.59,3.59,0,0,0-1.09,1.95,18.36,18.36,0,0,0,3.64,0,24.51,24.51,0,0,0,3.79-.5Zm-1.57-2.09a4.6,4.6,0,0,1,1.74,1.79c.13.24.18.39.16.45s-.14.12-.36.17a20.62,20.62,0,0,1-3.74.51,19.67,19.67,0,0,1-3.5-.06,1.1,1.1,0,0,1-.44-.1c0-.05,0-.22,0-.51A4,4,0,0,1,25.85,22a3.32,3.32,0,0,1,2-.79,4.8,4.8,0,0,1,2.78.66Z"/><path class="cls-3" d="M16.43,21.48A4,4,0,0,0,15,23a5.56,5.56,0,0,0,1.95.76,10,10,0,0,0,2.53.34,3.32,3.32,0,0,0-.29-1.87,1.76,1.76,0,0,0-1.18-1.05,2.09,2.09,0,0,0-1.62.34Zm-1.5,1.08a4.61,4.61,0,0,1,1.49-1.49,2.31,2.31,0,0,1,1.7-.34,1.87,1.87,0,0,1,1.29,1,4.12,4.12,0,0,1,.41,2.13c0,.23,0,.36-.08.4l-.51.06A10.63,10.63,0,0,1,16.75,24,7.45,7.45,0,0,1,15,23.32c-.21-.13-.32-.22-.32-.3a1.13,1.13,0,0,1,.21-.46Z"/><path class="cls-3" d="M24.69,20.66a2.25,2.25,0,0,0-.63.64c-.12.18-.2.25-.24.2s0-.18.09-.4a1.43,1.43,0,0,1,.63-.61q.33-.16.39-.09c0,.05-.05.13-.24.26Z"/><path class="cls-3" d="M23.44,22.51c-.07,0-.07-.16,0-.37s.14-.3.2-.27.07.16,0,.38-.13.3-.21.26Z"/><path class="cls-3" d="M19.92,21.21c-.06-.15-.08-.25,0-.29s.13,0,.26.16a1.19,1.19,0,0,1,.24.69c0,.18,0,.28-.06.28s-.11-.07-.16-.24a3.4,3.4,0,0,0-.24-.6Z"/><path class="cls-3" d="M33.28,25.83c.09-.08.15-.12.19-.11s0,.13-.06.32a1.85,1.85,0,0,1-.51.54,10.44,10.44,0,0,1-4.45,1.27,29.81,29.81,0,0,1-6.34,0,21.81,21.81,0,0,1-5.52-1.19,5.43,5.43,0,0,1-2.69-1.76.64.64,0,0,1-.12-.34c0-.11,0-.17.05-.17s.1,0,.15.12l.33.4a8.29,8.29,0,0,0,2.86,1.54,23.1,23.1,0,0,0,5,1,28,28,0,0,0,6.48-.08,9.58,9.58,0,0,0,4.3-1.28l.35-.3Z"/><path class="cls-3" d="M14.71,25.56h.16c.11,0,.16.07.17.11a6.52,6.52,0,0,0,.2,1.34c.1.38.2.61.3.67s.23-.07.41-.4a5.89,5.89,0,0,0,.4-1s.07,0,.18.05.15.13.13.17a4.32,4.32,0,0,1-.59,1c-.24.3-.44.42-.6.35s-.35-.34-.49-.77a8.84,8.84,0,0,1-.27-1.58Z"/><path class="cls-3" d="M28.73,27.64s.05-.08.16-.12h.2l.43,1.16c.17.39.31.59.4.6s.58-.74,1.28-2.24l.19,0c.12,0,.17.06.15.1a8.16,8.16,0,0,1-.94,1.83c-.29.43-.52.63-.68.61s-.39-.22-.63-.62a5.36,5.36,0,0,1-.56-1.29Z"/><path class="cls-3" d="M15.59,27.79s0-.08.13-.15.18-.09.2-.05a6,6,0,0,0,2,2.05A9.11,9.11,0,0,0,21.52,31a10.33,10.33,0,0,0,4.35-.18A8.36,8.36,0,0,0,29.48,29s.1,0,.19.11.11.15.08.18a9.23,9.23,0,0,1-3.77,2,10.36,10.36,0,0,1-4.51.26A9.22,9.22,0,0,1,17.73,30a6.74,6.74,0,0,1-2.14-2.21Z"/><path class="cls-3" d="M27.8,22.13l0-.25c0-.08.06-.11.09-.11s.15.12.15.36l0,.26-.11.1-.09-.1,0-.26Z"/><path class="cls-3" d="M17.77,21.54c0-.2.06-.3.14-.28s.1.1.09.29-.06.29-.14.29-.1-.11-.09-.3Z"/><path class="cls-3" d="M19.3,37.06a1.34,1.34,0,0,1-.6-1.27,1.31,1.31,0,0,1,.88-.91,3.77,3.77,0,0,1,2.1-.15,3.46,3.46,0,0,1,1.83.81A1.3,1.3,0,0,1,24,36.68a1.2,1.2,0,0,1-.9.93,4.36,4.36,0,0,1-2,.13,3.58,3.58,0,0,1-1.75-.68ZM19,35.84a1,1,0,0,0,.53,1,3.13,3.13,0,0,0,1.56.59l1.73-.09a1,1,0,0,0,.77-.73,1,1,0,0,0-.49-1,3,3,0,0,0-1.48-.61,3.77,3.77,0,0,0-1.91.13c-.43.16-.67.38-.71.65Z"/><path class="cls-3" d="M17,36.77a1.92,1.92,0,0,1-.31-1.4,2.58,2.58,0,0,1,1.67-1.78,6.44,6.44,0,0,1,3.42-.53,5.32,5.32,0,0,1,3.29,1.49,2.76,2.76,0,0,1,1,2.43,2,2,0,0,1-.89,1.35,5.25,5.25,0,0,1-1.16.52,1.92,1.92,0,0,0-.62.34l-.29.3c-.18.23-.35.33-.51.32a1.3,1.3,0,0,1-.61-.39l-.2-.16c-.05,0-.11,0-.18.16l-.23.32a.51.51,0,0,1-.31.18.49.49,0,0,1-.36-.16l-.35-.39L20.08,39c-.09-.07-.18-.05-.27,0l-.15.14-.26.06c-.16,0-.36-.2-.61-.54a4.3,4.3,0,0,0-.61-.77A5.11,5.11,0,0,1,17,36.77Zm.13-1.37a1.83,1.83,0,0,0,.2,1.17,3.69,3.69,0,0,0,1,1.14l.7.86c.28.38.48.49.61.34s.26-.22.4-.18.31.18.53.45.34.35.45.36.23-.06.34-.23.29-.35.42-.35.26.1.46.29a.69.69,0,0,0,.38.23.44.44,0,0,0,.32-.18l.31-.36a1.82,1.82,0,0,1,.56-.34l.14-.05a3.7,3.7,0,0,0,1-.44,1.79,1.79,0,0,0,.77-1.18,2.48,2.48,0,0,0-.86-2.14,4.81,4.81,0,0,0-3.07-1.4,5.74,5.74,0,0,0-3.16.49,2.25,2.25,0,0,0-1.46,1.52Z"/><path class="cls-3" d="M16.45,37.61c-.38-.9-.75-1.33-1.11-1.28-.13,0-.24.15-.36.38a1.59,1.59,0,0,0-.16.83,1.14,1.14,0,0,0,.2.62,1.9,1.9,0,0,0,.5.46l.26.21c.17.17,1.27,1,3.32,2.54.14.11.21.19.2.26s-.09.12-.25.16l-.69.19-.52.1H17a.4.4,0,0,0-.38.2.83.83,0,0,0,.3,1,.89.89,0,0,0,1,.29,18.93,18.93,0,0,1,2.53-.79l.35-.07a1.06,1.06,0,0,1,.35.17c1,.73,1.76,1.22,2.23,1.49l.78.51a1,1,0,0,1,.24.34c.06.15.22.24.48.26a1.53,1.53,0,0,0,.87-.22,1.37,1.37,0,0,0,.58-.56.73.73,0,0,0,.1-.61c-.05-.16-.27-.27-.67-.34l-.58-.06A17,17,0,0,1,23,42.48c-.22-.13-.32-.23-.32-.31s.1-.11.28-.18a29,29,0,0,0,3.47-1.45,2.18,2.18,0,0,1,.72-.24,1.74,1.74,0,0,0,.61-.25,1.41,1.41,0,0,0,.61-.94,1.83,1.83,0,0,0,0-1,.53.53,0,0,0-.66-.39,2.13,2.13,0,0,0-1.16,1,2,2,0,0,1-.77.59A38.34,38.34,0,0,1,21.46,41l-.44.11a.87.87,0,0,1-.45-.19l-2-1.47a9.7,9.7,0,0,1-2.11-1.85Zm-1.92-.12a1.93,1.93,0,0,1,.19-1A.8.8,0,0,1,15.3,36c.51-.09,1,.42,1.44,1.51a10.09,10.09,0,0,0,1.84,1.58l2,1.49a1.2,1.2,0,0,0,.43.22l.49-.11A39.25,39.25,0,0,0,25.64,39a2.07,2.07,0,0,0,.76-.54,2,2,0,0,1,1.48-1.11q.8,0,.87,1a2.57,2.57,0,0,1-.22,1.24,1.56,1.56,0,0,1-.62.77,2.19,2.19,0,0,1-.71.25,2.56,2.56,0,0,0-.66.21,33.36,33.36,0,0,1-3.34,1.35l1.33.84a4.1,4.1,0,0,0,.66.38l.77.09a1.28,1.28,0,0,1,.72.29.71.71,0,0,1,.08.73,1.61,1.61,0,0,1-.59.77,1.8,1.8,0,0,1-1.36.41.87.87,0,0,1-.74-.46,2.42,2.42,0,0,0-.91-.78l-1.94-1.25a1,1,0,0,0-.41-.19l-.37.05a23.42,23.42,0,0,0-2.37.71,1.21,1.21,0,0,1-1.3-.36,1.07,1.07,0,0,1-.41-1.31.57.57,0,0,1,.56-.34l.86,0,.54-.11.56-.16-3.24-2.41a3.1,3.1,0,0,1-.82-.78,1.87,1.87,0,0,1-.29-.88Z"/><path class="cls-4" d="M24.75,13.14a13.92,13.92,0,0,1,.88-2,3.63,3.63,0,0,1,2.75-.37c1.19.19,1.88.53,2.08,1a23.17,23.17,0,0,1,.87,4L24,15.08l.73-1.94Z"/><path class="cls-4" d="M42.15,19.2c.75.12,1.34.75,1.77,1.88s.47,1.76.23,2.16a9.7,9.7,0,0,1-1.82,2.09l-1.11.91-3.56-6.61,4.49-.43Z"/><path class="cls-4" d="M37.65,39.78,38.8,38.5a46.68,46.68,0,0,1,1.27,5.13,2.07,2.07,0,0,1-.92,1.48,3,3,0,0,1-1.83.74,5.29,5.29,0,0,1-1.62-1l-1.28-1.05a1.82,1.82,0,0,1,.09-.69,2.51,2.51,0,0,1,1-1.36,15,15,0,0,0,2.11-1.93Z"/><path class="cls-5" d="M39.27,44.87l-.58.56a1.71,1.71,0,0,1-1.27.46,5.15,5.15,0,0,1-1.89-1.15L34.3,43.68a.67.67,0,0,1-.2-.63,1.76,1.76,0,0,1,.31-.8c.44-.66.89-.75,1.35-.29l1.64,1.73a3.82,3.82,0,0,0,1.87,1.18Z"/><path class="cls-5" d="M31.5,41.79a.67.67,0,0,1-.1-.84c.17-.38.47-.45.91-.19l1.31.86c.52.33.86.46,1,.38q-1,.84-1.41.81a2.68,2.68,0,0,1-1-.51l-.74-.51Z"/><path class="cls-3" d="M39.54,40.7c.18.49.36,1,.53,1.65a4.78,4.78,0,0,1,.28,1.37,2.89,2.89,0,0,1-1.29,1.71,2.49,2.49,0,0,1-1.78.69,3.92,3.92,0,0,1-1.3-.79,15,15,0,0,1-1.2-1c-.3-.31-.43-.5-.38-.56s.23,0,.57.29l1.16.88a4.1,4.1,0,0,0,1.21.71,2,2,0,0,0,1.47-.51,2.39,2.39,0,0,0,1-1.49,12.87,12.87,0,0,0-.62-2.77c-.15-.5-.18-.77-.09-.82s.22.19.39.68Z"/><path class="cls-3" d="M34.57,39.93q-.37-.63-.27-.69t.54.57a3.41,3.41,0,0,1,.76,1.4c0,.27-.38.65-1.05,1.16a3.09,3.09,0,0,1-1.34.72,1.33,1.33,0,0,1-.63-.31l-.71-.55c-.38-.3-.54-.49-.49-.56s.26,0,.63.3a4.41,4.41,0,0,0,.77.47,1.45,1.45,0,0,0,.52.15,2.65,2.65,0,0,0,1-.58c.53-.4.81-.66.84-.79a3.46,3.46,0,0,0-.58-1.29Z"/><path class="cls-5" d="M30.34,11.82l.55,1.91a18.43,18.43,0,0,1,.43,1.88,4.72,4.72,0,0,1-1.32.24,1.7,1.7,0,0,1-1-.23,1.54,1.54,0,0,1-.78-1,5.25,5.25,0,0,1-.24-2c0-.2.07-.33.15-.38l.42-.05,1-.07a1.42,1.42,0,0,0,.77-.37Z"/><path class="cls-3" d="M24.37,14.63c-.15.35-.27.51-.37.49s-.09-.21,0-.57l.78-2a13.58,13.58,0,0,1,.6-1.43c.33-.58,1.22-.79,2.68-.64s2.31.56,2.57,1.2L31,13l.36,1.85c.08.51.08.78,0,.8s-.19-.19-.31-.67c-.43-1.86-.7-2.89-.79-3.12-.23-.56-1-.9-2.21-1s-2,.06-2.26.53l-1.41,3.25Z"/><path class="cls-5" d="M42.7,22.32a2.86,2.86,0,0,0,.68.67.78.78,0,0,0,.71.14,14.28,14.28,0,0,1-1.23,1.6,11.11,11.11,0,0,1-1.56,1.48,2.93,2.93,0,0,1-.9-.69,2.77,2.77,0,0,1-.54-.82.84.84,0,0,1-.09-.55,1,1,0,0,1,.54-.55A7.73,7.73,0,0,0,42,22.29c.17-.17.31-.25.41-.23s.18.09.29.26Z"/><path class="cls-3" d="M40.61,19.44l-2.09.18-.91,0c0-.1.28-.2.87-.3A13.36,13.36,0,0,1,42.26,19c.69.14,1.29.75,1.8,1.84a2.71,2.71,0,0,1,.32,2.4,4.84,4.84,0,0,1-.92,1.24A15.13,15.13,0,0,1,42,25.83c-.43.36-.68.49-.75.41s.09-.29.52-.64a10.16,10.16,0,0,0,1.28-1.27,5.73,5.73,0,0,0,.88-1.25A2.45,2.45,0,0,0,43.71,21c-.41-.93-.91-1.46-1.51-1.58a10.1,10.1,0,0,0-1.59,0Z"/></g></g></svg>