<?xml version="1.0" encoding="utf-8"?>
<!-- Generator: Adobe Illustrator 24.3.0, SVG Export Plug-In . SVG Version: 6.00 Build 0)  -->
<svg version="1.1" id="Layer_1" xmlns="http://www.w3.org/2000/svg" xmlns:xlink="http://www.w3.org/1999/xlink" x="0px" y="0px"
	 viewBox="0 0 720 720" style="enable-background:new 0 0 720 720;" xml:space="preserve">
<style type="text/css">
	.st0{fill-rule:evenodd;clip-rule:evenodd;fill:#221714;}
	.st1{fill-rule:evenodd;clip-rule:evenodd;fill:#DF5626;}
	.st2{fill-rule:evenodd;clip-rule:evenodd;fill:#FCD13D;}
	.st3{fill-rule:evenodd;clip-rule:evenodd;fill:#F3E07C;}
	.st4{fill-rule:evenodd;clip-rule:evenodd;fill:#EC7823;}
	.st5{fill-rule:evenodd;clip-rule:evenodd;fill:#EC7923;}
	.st6{fill-rule:evenodd;clip-rule:evenodd;fill:#B96728;}
	.st7{fill-rule:evenodd;clip-rule:evenodd;fill:#DAC743;}
	.st8{fill-rule:evenodd;clip-rule:evenodd;fill:#DD7F7D;}
	.st9{fill-rule:evenodd;clip-rule:evenodd;fill:#B24952;}
	.st10{fill-rule:evenodd;clip-rule:evenodd;fill:#F6B657;}
	.st11{fill-rule:evenodd;clip-rule:evenodd;fill:#DFEEEA;}
	.st12{fill-rule:evenodd;clip-rule:evenodd;fill:#FFFFFF;}
	.st13{fill-rule:evenodd;clip-rule:evenodd;fill:#DFEDE9;}
	.st14{fill-rule:evenodd;clip-rule:evenodd;fill:#B1CAC1;}
	.st15{fill-rule:evenodd;clip-rule:evenodd;fill:#1D7373;}
	.st16{fill-rule:evenodd;clip-rule:evenodd;fill:#533638;}
	.st17{fill-rule:evenodd;clip-rule:evenodd;fill:#B96628;}
	.st18{fill-rule:evenodd;clip-rule:evenodd;fill:#FBFCFC;}
	.st19{fill-rule:evenodd;clip-rule:evenodd;fill:#F9F9FA;}
	.st20{fill-rule:evenodd;clip-rule:evenodd;fill:#F7F8F8;}
	.st21{fill-rule:evenodd;clip-rule:evenodd;fill:#F6F5F6;}
	.st22{fill-rule:evenodd;clip-rule:evenodd;fill:#AC9B58;}
	.st23{fill-rule:evenodd;clip-rule:evenodd;fill:#261912;}
	.st24{fill-rule:evenodd;clip-rule:evenodd;fill:#231815;}
	.st25{fill-rule:evenodd;clip-rule:evenodd;fill:#F6B656;}
	.st26{fill-rule:evenodd;clip-rule:evenodd;fill:#2E1E16;}
	.st27{fill-rule:evenodd;clip-rule:evenodd;fill:#2A1D15;}
	.st28{fill-rule:evenodd;clip-rule:evenodd;fill:#2E1D16;}
	.st29{fill-rule:evenodd;clip-rule:evenodd;fill:#2E1E15;}
	.st30{fill-rule:evenodd;clip-rule:evenodd;fill:#291A14;}
	.st31{fill-rule:evenodd;clip-rule:evenodd;fill:#251913;}
	.st32{fill-rule:evenodd;clip-rule:evenodd;fill:#1B7575;}
	.st33{fill-rule:evenodd;clip-rule:evenodd;fill:#FDFEFF;}
	.st34{fill-rule:evenodd;clip-rule:evenodd;fill:#C5C2C1;}
</style>
<g id="cdpnGB_1_">
	<g>
		<path class="st0" d="M613.11,399.65c0.96,18.21,0.75,36.39-1.59,54.5c-4.24,32.84-13.58,64.02-32.24,91.64
			c-21.58,31.94-51.58,51.25-90.11,56.24c-17.99,2.33-35.98,1.08-53.82-1.99c-1.82-0.31-2.67,0.04-3.5,1.71
			c-3.96,7.95-9.4,14.82-15.79,20.93c-1.59,1.52-1.53,2.42-0.37,4.13c3.91,5.78,7.81,11.6,9.32,18.61
			c2.07,9.57-2.39,18.35-11.4,22.1c-1.26,0.52-1.95,1.31-2.72,2.34c-4.6,6.13-10.87,10.01-17.81,12.94c-1.63,0.69-2.1-0.4-2.16-1.74
			c-0.08-1.97-0.12-3.95-0.08-5.92c0.03-1.26-0.08-1.8-1.7-1.74c-2.43,0.09-3.91,0.83-4.77,3.22c-1.03,2.87-2.65,5.46-4.58,7.86
			c-1.07,1.34-1.99,1.49-3.34,0.39c-2.86-2.33-5.56-4.81-7.98-7.59c-1.08-1.25-5.09-2.19-6.56-1.59c-0.67,0.27-0.59,0.8-0.66,1.31
			c-0.14,0.98-0.38,1.95-0.37,2.93c0.03,3.5-0.31,4.12-4.44,3.23c-5.09-1.1-10.06-2.55-14.68-5.03c-2.47-1.33-4.7-2.95-6.25-5.37
			c-0.23-0.37-0.52-0.76-0.88-0.97c-7.3-4.2-8.97-11.28-9.32-18.81c-0.4-8.63,2.18-16.82,4.41-25.03c0.96-3.54,2.84-7.11,2.69-10.59
			c-0.15-3.4-3.19-6.26-4.85-9.43c-2.74-5.24-5.42-10.5-7.56-16.02c-0.47-1.22-1.01-1.86-2.42-1.98
			c-13.24-1.06-26.29-3.28-39.11-6.81c-1.07-0.29-1.63,0.05-2.25,0.85c-8.44,10.97-15.64,22.72-21.84,35.09
			c-0.89,1.78-0.39,3.53-0.07,5.26c1.41,7.67,2.72,15.34,3.51,23.11c0.48,4.66-0.12,5.79-4.57,7.47
			c-8.61,3.25-17.61,4.74-26.71,5.72c-20.34,2.19-40.74,3.16-61.2,3.54c-7.45,0.14-14.94,1.33-22.47,1.35
			c-4.59,0.02-9.11-0.68-13.66-1.15c-1.05-0.11-2.35,0.04-2.88-1.06c-0.61-1.26,0.49-2.14,1.18-3.05c0.21-0.28,0.45-0.53,0.94-1.09
			c-3.15-0.19-6.04-0.35-8.92-0.53c-3.67-0.22-7.34-0.44-11.01-0.69c-2.93-0.2-3.49-1.25-2.02-3.77c0.57-0.97,1.22-1.91,2.02-3.16
			c-4.41,0.01-8.5,0.14-12.56-0.46c-2.49-0.37-2.91-0.99-1.56-3.04c4.67-7.09,10.78-12.46,18.94-15.14
			c2.08-0.68,3.87-1.62,5.62-2.89c12.49-9.03,26.58-14.69,41.11-19.41c0.68-0.22,1.38-0.39,2.04-0.66c2.43-0.98,2.85-3.44,0.94-5.25
			c-6.39-6.08-12.49-12.31-15.7-20.84c-4.95-13.14-3.58-25.86,2.17-38.32c7.14-15.47,18.37-27.68,31.14-38.64
			c2.1-1.8,5.27-3.33,5.92-5.57c0.6-2.07-1.54-4.92-2.43-7.44c-9.98-28.14-15.37-57.03-14.17-86.99c0.26-6.54,0.52-13.08,0.84-19.62
			c0.06-1.17-0.01-1.94-1.32-2.49c-20.6-8.65-37.14-22.7-52.17-38.9c-9.92-10.69-18.38-22.46-26.76-34.32
			c-3.07-4.35-6.39-8.32-11.48-10.52c-2.29-0.99-4.26-2.66-5.88-4.62c-1.81-2.2-1.63-3.99,0.62-5.7c3.42-2.6,6.85-5.21,10.35-7.7
			c1.77-1.25,2.11-2.66,1.85-4.79c-0.81-6.67-1.43-13.38-0.24-20.09c0.78-4.43,1.92-5.01,5.61-2.44
			c12.46,8.71,25.75,15.85,39.84,21.55c13.83,5.59,28.13,8.94,43.01,9.8c0.98,0.06,1.97,0.09,2.96,0.11c0.15,0,0.31-0.09,0.84-0.27
			c-6.14-3.46-11.45-7.62-16.3-12.36c-16.64-16.27-28.81-35.16-33.69-58.19c-1-4.69-2.48-8.95-4.78-13.19
			c-5.47-10.1-7.19-20.61-1.06-31.22c3.8-6.57,9.29-11.33,16.16-14.45c1.41-0.64,2.03-1.38,2.21-2.92
			c2.96-25.37,11.03-48.98,24.69-70.62c0.47-0.75,0.86-1.57,1.17-2.4c2.18-5.73,6.04-9.89,11.61-12.43c1.52-0.69,2.62-1.67,3.6-3.04
			c12.85-17.82,30.47-27.27,52.17-29.15c15.47-1.34,30.78-0.55,45.67,4.58c38.15,13.14,61.15,39.98,71.52,78.45
			c6.22,23.06,5.14,46.03,0.4,69.2c-3.24,15.81-5.13,31.87-4.69,48.08c0.45,16.31,4.09,31.91,11.02,46.74
			c0.68,1.45,1.49,1.7,2.89,1.61c11.97-0.75,23.51-3.66,35-6.81c20.16-5.52,39.66-12.84,58.59-21.68c1.37-0.64,2.8-1.21,4.26-1.63
			c3.59-1.03,4.61-0.25,4.64,3.43c0.05,5.98-1.17,11.76-3.19,17.35c-0.9,2.49-0.36,4.96-0.4,7.44c-0.01,0.95,0.94,1.24,1.58,1.69
			c3.08,2.16,6.22,4.24,9.28,6.44c2.61,1.88,3,3.38,1.57,6.23c-2.64,5.27-6.7,9.29-11.61,12.43c-1.82,1.16-3,2.66-4,4.52
			c-7.48,13.89-16.9,26.19-29.85,35.49c-8.68,6.24-18.34,10.44-28.59,13.29c-2.05,0.57-2.44,1.14-1.84,3.23
			c4.56,16.03,10.77,31.49,15.99,47.29c7.05,21.34,14.08,42.67,18.33,64.79c1.05,5.46,1.9,10.95,2.41,16.48
			c0.16,1.72,0.76,2.98,2.01,4.19c10.19,9.83,22.48,15.11,36.38,16.92c14.8,1.93,29.51,1.97,43.88-2.8
			c29.6-9.82,51.61-28.8,67.12-55.64c8.17-14.15,12.12-29.56,13.72-45.68c0.44-4.46,1.06-8.9,1.05-13.4
			c-0.28-1.13-0.45-2.21,1.06-2.61c1.85,0.11,1.82,1.52,1.73,2.75c-1.27,18.03-3.44,35.88-11.25,52.5
			c-4.52,9.62-10.3,18.44-17.04,26.66c-10.85,13.23-23.98,23.61-39.23,31.28c-11.05,5.56-22.69,9.69-35.09,10.42
			c-16.01,0.95-31.94,0.16-46.9-6.67c-4.98-2.28-9.66-5.12-13.78-8.79c-0.58-0.51-1.06-1.17-2.06-1.39
			c0.66,10.27,0.16,20.34-1.73,30.32c-0.3,1.6,0.29,3,0.86,4.42c2.57,6.43,4.46,13.05,5.44,19.92c0.9,5.94,1.51,11.9,0.85,17.9
			c-0.22,2.03,0.74,2.74,2.42,3.13c3.93,0.93,7.94,1.4,11.95,1.69c17.98,1.31,35.71-0.41,53.28-4.33c8.32-1.86,16.51-4.05,24.3-7.58
			c3.75-1.7,7.35-3.68,10.85-5.85c8.98-5.96,17.3-12.68,24.86-20.41c8.84-9.05,16.05-19.23,22.34-30.13
			c4.49-7.78,7.96-16.04,11.52-24.25c3.82-8.82,5.03-18.27,6.68-27.61c3.39-19.17,2.75-38.53,2.73-57.87c0-0.99-0.23-1.96-0.33-2.94
			c-0.1-1.08-0.2-2.21,1.21-2.61C613.84,396.78,613.53,398.19,613.11,399.65z"/>
		<path class="st1" d="M613.11,399.65c-0.87-0.74,0.48-2.31-1.04-2.81c-0.16-0.3-0.1-0.55,0.18-0.75
			c7.1-2.44,10.63-7.72,12.03-14.84c1.67-8.52,1.71-17.11,1.46-25.72c-0.07-2.57-0.95-4.82-2.84-6.76
			c-5.99-6.16-8.94-13.52-8.41-22.2c0.08-1.31,0.27-2.68-0.24-3.97c-0.97-0.16-1.27,0.62-1.65,1.15c-2.66,3.66-4.82,7.51-5.37,12.15
			c-0.32,2.77-1.1,5.46-3.3,7.47c-1.04,0.95-2.17,1.56-3.62,1.48c-1.51-0.08-2.39-0.8-2.22-2.38c0.55-4.97-0.79-9.5-2.66-14.07
			c-2.26-5.54-2.53-11.44-2.19-17.44c0.42-7.61,2.7-14.96,2.56-22.68c-0.1-5.56-1.54-10.59-3.65-15.56
			c-0.35-0.82-0.86-1.57-1.04-2.47c0.2,2.14,0.34,4.27-0.86,6.23c-0.43,0.7-0.55,1.51-0.6,2.32c-0.22,4.23-1.33,8.31-2.06,12.46
			c-0.39,2.21-1.61,3.59-3.78,4c-1.96,0.37-2.94,1.55-3.3,3.41c-0.22,1.15-0.58,2.27-1.25,3.24c-0.72,1.06-1.57,2.17-3.04,1.54
			c-1.27-0.54-1.36-1.78-1.19-3c0.14-1.07,0.52-2.09,0.59-3.17c0.12-1.91-0.5-3.42-2.52-3.87c-4.51-1-6.55-4.41-8.13-8.24
			c-1.1-2.66-1.58-5.51-2.14-8.76c-2.3,3.7-3.11,7.44-3.09,11.39c0.01,1.05,0.48,2.15-0.51,3.02c-0.16-0.08-0.41-0.14-0.45-0.26
			c-1.59-5.02-5.16-8.65-8.45-12.55c-3.14-3.72-1.88-8.37-1.57-12.69c0.21-2.88,1.37-5.54,2.61-8.14c1.34-2.83,2.65-5.68,3.92-8.54
			c0.55-1.24,1.2-2.4,2.1-3.41c5.12-5.7,5.14-5.75,5.35-13.51c2.78,2.91,4.03,5.9,4.36,9.66c1.69-1.77,1.3-3.72,1.52-5.88
			c2.41,2.1,3.26,4.47,3.08,7.52c5.7-1.58,9.88-4.6,12.12-9.91c1.19-2.81,2.15-5.81,2.21-8.82c0.11-4.83,1.75-9.1,3.76-13.33
			c2.04-4.29,4.07-8.56,4.81-13.33c0.23-1.45,0.73-2.93,1.82-4.24c0.94,0.85,0.53,1.87,0.47,2.73c-0.73,9.56,1.1,18.5,6.04,26.82
			c2.18,3.68,1.65,8.03,1.96,12.09c0.34,4.54-0.02,9.13,2.54,13.28c0.78,1.26,0.85,2.9,0.45,4.45c-0.15,0.6-0.11,1.25-0.12,1.87
			c-0.02,1.79,1.15,2.8,2.54,3.48c1.52,0.74,2.2-0.66,3.08-1.5c1.85-1.78,1.85-4.34,2.71-6.77c1.54,1.33,1.63,3.1,2.37,5.02
			c5.28-4.92,8.75-10.79,11.61-17.62c1.34,2.82,1.52,5.42,1.8,7.91c0.66,5.88,1.18,11.8,0.61,17.71c-0.47,4.86,0.72,9.45,1.93,14.03
			c2.56,9.72,3.48,19.56,2.61,29.57c-0.1,1.15-0.01,2.32-0.01,3.48c3.98-0.83,4.74-1.67,8.37-9.29c0.92,1.19,0.62,2.62,1.11,3.79
			c3.27,7.82,0.25,15.71,0.24,23.56c-0.01,3.85,0.6,7.98-2.09,11.41c-0.1,0.12-0.14,0.37-0.08,0.51c1.72,4.07-1.12,6.28-3.46,8.77
			c-4.36,4.64-6.13,10.44-6.95,16.57c-0.7,5.23-0.82,10.57-1.87,15.73c-2.02,9.91-7.59,16.65-18.14,18.26
			C613.78,399.33,613.45,399.52,613.11,399.65z"/>
		<path class="st2" d="M559.24,290.86c-0.05-9.31,0.48-11.5,4.04-16.34c0.49,2.52,0.92,4.9,1.41,7.26c0.59,2.84,1.79,5.41,3.52,7.75
			c1.18,1.59,2.6,2.74,4.57,3.01c3.55,0.49,3.79,2.43,3.59,5.4c-0.05,0.79-0.26,1.6-0.54,2.35c-0.44,1.14-0.44,2.31,0.68,2.8
			c1.13,0.5,1.67-0.72,2.22-1.49c0.31-0.43,0.62-0.94,0.68-1.45c0.36-3.24,1.56-5.57,5.27-5.9c1.19-0.1,1.9-1.15,2.1-2.48
			c0.72-4.67,1.6-9.31,2.33-13.98c0.46-2.93,1.93-5.75,1.59-8.97c2.97,4.83,5.19,9.9,5.72,15.57c0.65,7.02-0.65,13.88-1.72,20.78
			c-1.38,8.94-1.42,17.75,2.74,26.21c1.65,3.36,2.1,7.19,1.3,10.99c-0.32,1.53,0.33,1.89,1.69,1.9c2.35,0.01,3.53-1.59,4.53-3.3
			c1.04-1.79,1.43-3.84,1.7-5.89c0.76-5.65,3.57-10.21,7.57-14.12c0.16-0.16,0.47-0.16,1-0.33c0,2.08,0.09,4.01-0.01,5.92
			c-0.49,8.66,2.47,16,8.62,22.01c1.82,1.79,2.57,3.91,2.63,6.25c0.26,9.75,0.47,19.52-2.02,29.08c-1.38,5.27-4.42,9.32-9.25,11.92
			c-0.94,0.5-2.01,0.77-3.12,0.6c-1.35-0.88-2.24-2.25-3.44-3.29c-3.63-3.13-7.35-2.53-9.7,1.6c-0.35,0.62-0.58,1.31-1.35,1.55
			c-0.71,0.66,0.26,1.72-0.57,2.35c-3.89,1.11-7.77,1.94-11.89,1.11c-4.89-0.99-8.65-3.29-10.52-8.12c-0.62-1.6-1.83-2.62-3.19-3.51
			c-2.32-1.52-3.85-3.44-3.5-6.44c0.19-1.67-0.63-2.94-1.94-3.9c-1.16-0.84-2.41-1.56-3.53-2.45c-3.84-3.05-6.36-6.82-5.95-11.97
			c0.23-2.94,0.25-5.97,1.01-8.78c2.24-8.29,1.46-16.56,0.01-24.76c-0.63-3.52,0.26-6.11,2.9-8.01c6.65-4.77,6.58-9.9,4.77-18.28
			c-0.11-0.5-0.38-1.07-0.76-1.39C560.97,299.13,560.23,294.94,559.24,290.86z"/>
		<path class="st3" d="M207.21,531.02c-10.14-13.78-18.3-28.56-23.6-44.93c-9.07-27.99-13.21-56.61-11.63-86.01
			c0.61-11.35,0.47-22.86,3.18-33.92c6.09-24.85,18.24-46.31,37.54-63.43c1.05-0.65,2.07-0.28,3.09,0.09
			c10.17,3.63,20.72,4.86,31.45,5.05c12.57,0.22,25.1-0.15,37.46-2.73c0.99-0.21,1.96-0.23,2.89,0.25
			c13.8,10.82,23.63,24.87,32.21,39.88c16.26,28.45,27.76,58.7,33.66,90.97c3.96,21.68,5.3,43.53,3.64,65.57
			c-1,13.26-2.91,26.34-6.64,39.11c-2.04,6.99-4.98,13.59-9.05,19.66c-1.1,0.46-1.89-0.26-2.71-0.75
			c-19.91-11.75-40.91-21.12-62.69-28.76c-10.33-3.62-20.84-6.72-31.79-7.81c-9.29-0.92-18.59-1.33-27.51,2.45
			c-2.34,0.99-4.49,2.19-6.31,3.99C209.55,530.53,208.75,531.74,207.21,531.02z"/>
		<path class="st4" d="M396.68,374.94c8.48,25.2,17.77,50.12,25.06,75.72c5.41,19,9.46,38.23,10.34,58.03
			c0.34,7.7-0.39,15.36-1.89,23.26c-2.14-2.59-3.99-4.95-5.97-7.19c-3.61-4.08-7.87-7.31-12.94-9.39c-0.61-0.25-1.42-0.91-1.82,0.11
			c-0.3,0.78,0.63,0.97,1.12,1.23c15.67,8.15,22.6,22.04,25.42,38.63c1.35,7.99,1.91,16,0.59,24.06c-1.99,3.5-5.34,5.6-8.58,7.54
			c-16.43,9.85-34.28,15.81-53.15,18.78c-2.7,0.42-5.12-0.66-7.33-2.13c-8.99-5.96-15.93-13.83-21.26-23.14
			c-2.09-3.65-4.27-7.27-5.73-11.24c-0.33-0.89-0.99-1.77-0.3-2.79c11.41-16.49,15.72-35.28,17.87-54.79
			c1.15-10.43,1.73-20.88,1.55-31.37c-0.62-37.09-8.55-72.57-23.5-106.49c-7.97-18.07-17.01-35.53-29.16-51.24
			c-4.84-6.26-10.22-11.96-16.26-17.05c0.18-1.53,1.54-1.25,2.44-1.46c11.2-2.62,21.98-6.39,32.26-11.55
			c8.2-4.12,15.53-9.54,22.58-15.35c1.2-0.99,2.19-2.42,4.04-2.31c1.26,2.97,2.46,5.96,3.79,8.89c0.6,1.32,0.32,1.78-1.1,1.74
			c-1.16-0.03-2.33,0.04-3.5,0.09c-0.43,0.02-1,0-1.05,0.58c-0.07,0.7,0.52,0.85,1.07,0.89c0.71,0.05,1.43,0.03,2.15,0.03
			c12.73,0.06,25.1-2.23,37.35-5.46c22.13-5.85,43.56-13.6,64.3-23.28c1.83-0.86,4.13-2.61,5.68-1.44c1.51,1.14,0.43,3.83,0.26,5.85
			c-0.33,3.77-1.19,7.42-2.4,10.99c-0.95,0.61-1.33-0.09-1.5-0.78c-0.43-1.72-1.27-1.27-2.31-0.59c-2.67,1.75-5.06,3.91-7.79,5.59
			c-1.11,0.21-2.14-0.16-3.18-0.41c-4.29-1.01-8.6-1.81-13.17-1.36c4.35-0.11,8.46,0.79,12.57,1.65c4.2,0.88,4.69,1.78,3.18,5.68
			c-1.46,3.76-3.18,7.41-4.93,11.04c-2.94,6.55-5.99,13.01-10.33,18.81c-9.53,12.73-21.06,23.11-34.96,30.92
			c-10.96,6.15-22.5,10.65-34.83,13.1c-2.35,0.47-2.71,1.14-1.78,3.4c3.72,9.02,10.47,15.03,19.59,17.87
			c5.14,1.6,10.5,0.6,15.16-2.63C395.04,375.48,395.62,374.65,396.68,374.94z"/>
		<path class="st5" d="M124.04,199.96c-9.22-18.66-0.02-33.01,13.37-40.53c2.26-1.27,4.32-1.87,6.59,0.13
			c1.11,0.98,2.62,1.54,3.99,2.17c3.96,1.84,3.94,1.8,5.98-2.13c9.98-19.27,16.41-39.63,18.78-61.22c0.41-3.72,0.8-7.46,0.35-11.26
			c-0.25-2.16-0.9-3.97-2.38-5.52c0.75-3.11,4.49-6.3,7.82-6.62c3.19-0.3,6.22,0.27,9.05,1.8c1.78,1.55,1.74,3.8,2.16,5.85
			c0.2,0.95,0.39,1.9,0.54,3c0.66-2.57-1.04-4.9-0.32-7.34c0.81-0.73,1.83-0.63,2.81-0.67c4.23-0.15,7.7-1.78,10.75-4.77
			c4.3-4.21,7.95-8.98,12.09-13.33c6.19-6.5,13.48-11.09,21.83-14.28c10.32-3.95,21.01-4.92,31.92-4.6
			c1.61,0.05,3.08,0.95,4.72,0.68c22.69,7.23,42.65,18.46,56.5,38.62c-0.12,1.27-1.13,0.97-1.81,0.89
			c-2.41-0.28-3.47,1.01-3.89,3.12c-0.84,4.23-1.03,8.54-1.6,12.8c-1.3,9.68-1.67,19.48-3.84,29.04c-0.24,1.04-0.35,2.15-1.12,2.98
			c-0.36,0.39-0.82,0.21-1.22-0.02c-1.66-1.87-1.98-4.37-2.99-6.55c-1.56-3.37-3.59-6.38-5.81-9.32c-4.52-5.98-14.8-6.3-20.35-0.99
			c-6.84,6.52-10.94,14.52-14.16,23.14c-4.26,11.41-6.16,23.34-7.61,35.36c-0.49,4.09-0.72,8.19-1.1,12.29
			c-0.25,2.72,0.95,4.37,3.29,5.53c4.64,2.3,9.57,3.37,14.67,4.07c4.89,0.67,9.84,0.03,14.7,0.89c4.04,3.89,4.7,8.54,1.49,13.03
			c-4.58,6.41-11.18,10.31-18.27,13.23c-13.32,5.5-27.28,8.77-41.51,10.79c-17.64,2.51-35.22,5.39-52.92,7.49
			c-4.84,0.57-9.48-0.19-13.85-2.35c-15.5-7.65-29.74-17.23-42.96-28.33C127.38,205.06,125.83,202.41,124.04,199.96z"/>
		<path class="st6" d="M317.18,128.39c0.58,0.27,0.88,0.28,1.06-0.53c1.21-5.37,2.07-10.8,2.66-16.27
			c0.63-5.82,1.33-11.63,1.99-17.45c0.37-3.26,0.54-6.56,1.17-9.77c0.91-4.63,1.05-4.6,5.88-4.03c0.2,0.02,0.43-0.25,0.65-0.39
			c6.34,8.23,10.8,17.49,14.47,27.12c6.38,16.76,9.32,34.14,8.5,52.05c-0.47,10.27-2.2,20.41-4.31,30.48
			c-1.91,9.1-2.8,18.37-3.61,27.62c-0.61,6.94-1.14,13.86-0.76,20.88c0.69,12.59,2.96,24.81,7.17,36.68
			c-9.1,7.38-18.23,14.69-28.99,19.62c-10.1,4.63-20.5,8.38-31.42,10.55c-0.32,0.06-0.61,0.33-0.91,0.5
			c-11.11-9.23-24.03-14.16-38.81-16.02c17.52-6.33,33.43-14.44,47.07-27.53c-1.9-0.45-2.47,0.48-3.16,1.03
			c-16.81,13.5-35.4,23.36-56.69,27.62c-10.81,2.16-21.72,3.93-32.79,2.97c-14.18-1.23-26.82-6.71-37.56-15.83
			c-17.49-14.85-30.54-32.9-37.12-55.2c-0.98-3.33-1.9-6.68-2.42-10.55c2.7,2.39,4.68,4.53,4.97,8.1c0.34,4.28,1.88,8.37,3.37,12.4
			c0.38,1.04,0.69,2.4,2.42,1.26c1.36-0.9,1.14,0.68,1.35,1.18c5.05,12.14,11.72,23.24,21.43,32.2
			c8.85,8.16,18.78,14.64,30.71,17.53c6.36,1.54,12.68,0.68,18.93-0.32c14.26-2.29,28.33-5.52,41.44-11.76
			c16.41-7.79,31.3-17.55,40.55-33.96c0.53-0.94,1.11-1.86,1.5-2.85c1.65-4.15,3.01-8.49,7.68-10.4c0.15-0.06,0.27-0.24,0.37-0.38
			c0.94-1.35,3.21-3.36,2.38-4.01c-1.33-1.03-2.17,1.55-3.31,2.47c-4.73,3.81-10.22,5.83-16.02,7.22
			c-12.8,3.07-25.83,4.81-38.87,6.5c-13.92,1.8-27.82,3.78-41.73,5.67c-7,0.95-14,1.9-21,2.83c-3.71,0.49-7.1-0.51-10.3-2.33
			c-14.99-8.54-29.43-17.88-41.78-30.06c-3.89-3.83-7.19-8.19-9.32-13.31c8.96,10.45,20.39,17.83,31.81,25.13
			c7.28,4.65,14.58,9.45,23.15,11.62c4.38,1.11,8.72,0.14,13.03-0.39c8.21-1.01,16.36-2.39,24.56-3.51
			c19.41-2.66,38.86-5.14,57.54-11.42c7.77-2.61,15.14-6.07,21.17-11.75c6.33-5.97,6.6-8.57,2.45-16.1
			c1.03-1.27,2.51-1.25,3.93-1.32c5-0.24,9.7-1.6,14.25-3.6c1.87-0.83,3.01-2.1,3.34-4.18c1.56-9.93,2.23-19.88,1.58-29.95
			c-0.52-8.09-1.76-16.01-3.85-23.82C316.79,129.91,316.52,129.1,317.18,128.39z"/>
		<path class="st5" d="M597.56,396.28c1.1-2.9,2.35-5.82,6.07-5.76c4.02,0.06,6.7,2.39,8.42,5.9c0,0.14,0.01,0.28,0.02,0.42
			c-1.38,0.4-0.98,1.47-0.93,2.43c1.48,26.52,0.87,53.01-5.94,78.76c-5.05,19.09-14.61,36.35-26.55,52.16
			c-9.83,13.02-21.64,23.89-35.5,32.5c-9.6,4.77-19.93,6.9-30.45,8.3c-4.8,0.64-9.67,1.07-14.45,0.97
			c-13.54-0.26-27.01-1.34-40.1-5.27c-5.86-1.76-11.54-3.88-16.94-6.76c-1.21-0.64-2.38-1.26-2.92-2.63
			c-1.23-7.35-3.01-14.55-6.2-21.33c-0.36-0.76-0.51-1.5-0.33-2.33c2.3-10.68,2.68-21.47,1.76-32.33c0.82-0.47,1.16,0.29,1.54,0.64
			c10.66,9.72,23.38,14.59,37.56,16.25c14.84,1.73,29.51,1.53,43.82-3.29c23.71-7.99,42.93-22.16,58.1-42.04
			c13.35-17.49,20.95-37.14,23.09-58.97c0.48-4.9,1.01-9.79,1.37-14.7C599.07,398.13,599.98,396.29,597.56,396.28z"/>
		<path class="st6" d="M165.27,609.46c0.4-1.42,0.81-2.84,1.21-4.25c1.35-0.72,2.22,0.32,3.09,0.97c6.71,5.05,14.58,7.11,22.55,8.96
			c0.7,0.16,1.43,0.15,2.14,0.11c2.84-0.13,3.7-1.28,2.41-3.77c-3.53-6.84-5.03-14.23-5.47-21.75c-0.54-9.21,2.44-17.5,8.58-24.47
			c3.7-4.2,7.86-7.85,13.28-9.77c1.01-0.36,1.85-1.09,2.8-1.59c1.61-0.84,2.05-2.05,1.59-3.8c-0.35-1.33-1.05-2.75,0.1-4.08
			c7.52,7.34,15.69,13.88,24.43,19.69c9.66,6.42,19.93,11.71,30.87,15.6c2.25,0.8,2,1.42,0.8,2.98
			c-7.69,9.96-14.09,20.73-19.99,31.84c-1.7,3.2-1.76,6.23-1.1,9.56c1.47,7.46,2.64,14.96,3.41,22.54c0.29,2.8-0.78,4.01-3.04,4.82
			c-6.25,2.23-12.65,3.98-19.23,4.8c-21.7,2.71-43.48,4.2-65.36,4.37c-2.29,0.02-3.31-0.3-2.52-2.85c0.56-1.81-0.56-3.47-1-5.18
			c0.69-0.74,1.64-0.54,2.5-0.72c8.43-1.72,16.06-4.84,21.32-12.13c0.74-1.02,1.36-2.09,1.65-3.34c0.73-3.18,0.17-4.58-2.61-6.27
			c-2.67-1.62-5.42-3.12-7.85-5.11c-0.96-0.79-2.05-1.48-2.28-2.84c0.36-0.75,0.59-1.44-0.28-2.07c-3.63-2.65-6.29-6.26-9.26-9.55
			c-0.5-0.55-0.96-1.05-1.79-0.85C165.33,611,165.33,610.21,165.27,609.46z"/>
		<path class="st5" d="M95.35,314.1c-1.04-1.35-2.14-2.65-3.1-4.04c-3.28-4.74-6.93-9.03-12.45-11.35c-1.81-0.76-3.28-2.15-4.7-3.55
			c-1.49-1.48-1.52-2.57,0.32-3.85c3.76-2.6,7.54-5.17,10.98-8.21c1.37-1.21,1.95-2.36,1.67-4.4c-0.94-6.75-1.41-13.56-0.39-20.35
			c0.46-3.04,0.65-3.12,3.22-1.3c12.57,8.91,26.11,15.98,40.4,21.69c13.93,5.57,28.31,8.86,43.31,9.68
			c3.67,0.2,7.46-0.25,11.01,1.67c3.29,1.78,7.01,2.65,10.81,3.74c-10.73,23.3-19.21,47.2-23.61,72.42
			c-1.37,1.04-2.58,0.09-3.76-0.39c-8.76-3.53-16.73-8.55-24.79-13.39c-13.62-8.2-26.19-17.84-38.18-28.24
			C102.37,321,98.72,317.7,95.35,314.1z"/>
		<path class="st7" d="M207.21,531.02c0.77-0.04,1.33-0.45,1.85-0.98c5.3-5.51,12.1-7.13,19.4-7.74
			c14.04-1.18,27.44,1.68,40.72,5.83c16.6,5.19,32.51,11.96,48.16,19.49c8.24,3.96,16.22,8.32,24.07,12.96
			c-5.8,9.98-12.72,19.03-21.67,26.44c-0.88,0.73-1.75,1.07-2.91,0.99c-44.03-2.93-80.33-21.05-108.45-55.21
			C207.93,532.26,207.6,531.62,207.21,531.02z"/>
		<path class="st6" d="M340.23,566.42c5.22,13.71,13.24,25.39,24.7,34.7c4.83,3.92,9.9,4.3,15.75,3.01
			c14.02-3.08,27.51-7.51,40.34-13.97c5.71-2.87,10.81-6.56,15.57-10.78c-1.05,11.25-5.32,21.24-11.83,30.37
			c-5.19,7.29-11.4,13.55-18.62,18.83c-0.56,0.41-1.25,0.74-1.55,1.87c2.66-0.8,4.64-2.38,6.74-3.7c0.73-0.46,1.34-1.23,2.15,0.03
			c4.11,6.39,8.61,12.6,9.91,20.35c0.34,2.02,0.68,4.06-0.19,6.05c-1.84-3.63-5.24-5.12-8.73-6.68
			c-18.58-8.28-37.78-8.68-57.12-3.89c-10.58,2.62-19.97,7.94-27.29,16.35c-0.47,0.54-0.92,1.12-1.7,1.22
			c-2.03-6.81-1.09-13.58,0.27-20.36c1.38-6.84,3.64-13.44,5.39-20.18c0.54-2.07,0.35-3.75-0.75-5.59
			c-4.41-7.38-8.38-14.98-11.63-22.96c-0.71-1.76-0.51-2.78,0.97-4.07c6.69-5.86,12.48-12.52,16.93-20.27
			C339.64,566.57,339.99,566.53,340.23,566.42z"/>
		<path class="st6" d="M396.68,374.94c-5.71,5.62-16.3,6.52-23.36,2.02c-6.41-4.09-11.77-8.96-14.56-16.23
			c-1.1-2.87-0.84-3.52,2.07-4.05c18.3-3.34,34.69-11.09,49.19-22.48c12.75-10.01,23.36-22.02,29.58-37.36
			c0.33-0.8,0.56-1.73,1.46-2.17c2.19-3.53,4.42-7.01,5.87-10.97c0.75-2.05,1.39-3.95,0.42-6.05c2.19-3.12,5.64-4.65,8.6-6.8
			c1.02-0.74,1.62-0.13,1.65,1.06c0.02,0.77-0.15,1.68,1.02,1.8c0.07,1.3-0.94,2.24-1.08,3.54c-0.52,4.88,0.16,8.94,5.34,11.2
			c2.25,0.98,4.12,2.84,6.23,4.19c1.79,1.14,2.05,2.49,1.08,4.3c-2.69,5.04-6.7,8.81-11.44,11.85c-1.48,0.95-2.58,2.08-3.41,3.66
			c-5.2,9.88-11.53,18.94-19.38,26.94c-13.31,13.54-29.7,20.85-48.11,24.22c-5.37,0.98-10.81,1.42-16.27,1.65
			c-0.77,0.03-2-0.17-2.01,0.8c-0.01,1.1,1.24,0.7,1.97,0.73c6.65,0.29,13.22-0.53,19.71-1.89c1.84-0.38,2.55-0.01,2.98,1.83
			C394.89,369.5,395.85,372.2,396.68,374.94z"/>
		<path class="st5" d="M217.56,546.03c-0.22,1.56,0.24,3.06,0.73,4.45c0.63,1.82,0.15,2.88-1.47,3.72c-1.9,0.99-3.82,1.93-5.69,2.94
			c-10.52,5.7-17.27,14.3-18.82,26.35c-1.25,9.7,0.85,18.92,5.09,27.68c1.64,3.38,0.7,5.12-3.09,4.74
			c-8.9-0.9-17.22-3.68-24.65-8.81c-1.02-0.7-1.89-1.64-3.17-1.89c-2.49-3.31-5.94-5.69-8.55-8.88c-0.51-0.62-1.03-1.22-1.55-1.83
			c0.49-0.64,1.22-0.73,1.94-0.75c7.31-0.2,11.67-4.53,14.5-10.69c3.1-6.76,4.42-13.92,4.76-21.38c0.4-8.78-1.57-17.28-2.39-25.92
			c-0.91-9.56,0.02-18.8,5.77-26.97c1.38-1.8,3.43-2.85,4.98-4.45c1.43-1.48,2.14-1.41,3.13,0.62
			c5.25,10.72,11.57,20.79,18.81,30.27C210.82,539.09,214.24,542.52,217.56,546.03z"/>
		<path class="st7" d="M573.35,550.87c-8.24,11.37-18.44,20.68-29.94,28.64c-22.18,15.35-46.84,22.17-73.71,21.61
			c-11.3-0.24-22.54-0.82-33.69-2.77c-2.17-0.38-2.12-1.06-1.42-2.73c1.82-4.31,2.96-8.82,3.62-13.44c0.18-1.23,0.31-2.02,1.94-1.59
			c11.77,3.12,23.81,2.92,35.78,2.39c15.52-0.69,30.74-3.6,45.64-8c10.5-3.11,19.97-8.31,28.79-14.75c0.42-0.31,0.9-0.54,1.36-0.81
			c6.46-1.9,12.48-4.83,18.46-7.86C571.17,551.07,572.06,550.04,573.35,550.87z"/>
		<path class="st8" d="M246.58,273.6c-13.12,4.98-26.72,7.96-40.61,9.68c-8.47,1.05-16.38-0.88-23.83-4.83
			c-8.2-4.35-15.65-9.72-21.99-16.57c-1.3-1.41-2.07-2.77-1.75-4.75c0.42-2.55,0.65-5.13,0.96-7.7c1.94-1.89,4.49-1.49,6.82-1.73
			c5.61-0.57,11.23,0.12,16.81,0.19c7.49,0.09,14.86,0.7,22.13,2.07c15.22,2.87,28.62,9.61,39.9,20.33
			C245.91,271.13,247.36,271.9,246.58,273.6z"/>
		<path class="st9" d="M246.58,273.6c-1.83-3.39-4.76-5.77-7.8-7.9c-11.08-7.79-23.01-13.69-36.6-15.59
			c-9.45-1.32-18.95-2.31-28.5-2.12c-4.77,0.09-9.62,0.24-14.32,1.44c0.14-3.33-0.23-3.61-3.16-2.29c-0.81,0.36-1.76,0.68-2.32,1.31
			c-1.87,2.09-2.69,1.19-4.08-0.72c-2.04-2.79-1.97-5.09,0.22-7.59c0.59-0.67,0.96-1.52,1.5-2.23c3-4,4.25-4.17,8.4-1.55
			c4.47,2.81,9.07,5.44,13.54,8.25c4.57,2.88,9.48,3.38,14.7,2.66c20.54-2.86,41.08-5.65,61.63-8.47c3.81-0.52,7.62-1,11.42-1.57
			c1.22-0.18,2.04,0.05,2.64,1.2c1.25,2.38,2.6,4.7,3.9,7.05c1.41,2.54,2.4,2.58,3.92,0.18c1.78-2.81,3.24-5.79,4.44-8.88
			c0.57-1.46,1.35-2.18,3.03-2.5c5.6-1.03,11.17-2.27,16.96-4.43c-1.2,4.45-3.28,7.93-5.47,11.35
			c-5.93,9.26-14.17,16.07-23.36,21.85c-1.82,1.14-3.7,2.2-5.49,3.38c-1.18,0.78-1.87,0.53-2.53-0.67c-1.13-2.07-2.71-3.8-4.53-5.28
			c-1.87-1.52-2.8-1.19-3.3,1.15c-0.56,2.62-1.3,5.25-1.43,7.9C249.9,272.04,248.69,273.06,246.58,273.6z"/>
		<path class="st5" d="M177.74,623.51c2.52,3.43,6.29,5.21,9.79,7.31c4.02,2.42,5.02,6.01,2.3,9.99
			c-5.98,8.77-14.67,12.63-24.99,13.38c-2.35-4.94-9.87-6.74-16.48-5.16c-1.98,0.47-3.93,1.06-5.91,1.59
			c-1.08-7.45-5.9-11.63-13.41-11.54c-1.62,0.02-2.3-0.23-2.5-2.06c-0.33-2.9-2.32-4.55-6.15-5.77c0.38-1.13,1.44-1.51,2.27-2.05
			c11.48-7.68,24.14-12.8,37.2-17.07c1.91-0.62,4.08-0.84,5.41-2.67c0.36,0.57,0.73,1.14,1.09,1.71c1.04,0.1,1.47,0.95,1.96,1.67
			c2.46,3.66,5.3,6.97,8.91,9.56C177.59,622.66,177.92,622.98,177.74,623.51z"/>
		<path class="st10" d="M180.96,508.79c0.54,0.61-0.1,0.95-0.33,1.37c-4.47,8.11-5.73,16.76-4.6,25.88
			c1.14,9.19,2.96,18.32,2.26,27.67c-0.64,8.47-2.38,16.65-7.13,23.82c-3.42,5.17-8.55,7.4-14.77,6.96
			c-10.29-12.28-12.54-26.16-7.94-41.25c3.67-12.04,10.72-22.16,18.95-31.48C171.55,517.07,176.15,512.81,180.96,508.79z"/>
		<path class="st5" d="M328.36,660.2c3.71-5.9,9.41-9.45,15.27-12.77c10.35-5.86,21.57-8.25,33.4-8.34
			c10.78-0.09,21.44,0.32,31.65,4.29c3.67,1.43,7.36,2.82,10.81,4.72c1.97,1.08,3.84,2.4,3.71,5.09c-1.02,6.22-4.7,10.2-10.59,12.66
			c0.51-3.72,0-7.02-1.98-9.97c-4.04-6.02-12.94-5.7-16.59,0.58c-2.26,3.9-3.16,8.14-3.18,12.61c-0.01,1.87-2.46,3.42-4.19,2.71
			c-0.97-0.4-0.54-1.22-0.56-1.85c-0.16-3.93-1.05-7.62-3.4-10.84c-3.43-4.7-10.48-6.03-15.7-2.98c-4.42,2.58-5.84,8.3-3.37,13.77
			c0.54,1.2,1.22,2.34,1.85,3.56c-3.94,0.6-3.99,0.61-4.73-2.97c-1.15-5.58-3.55-10.39-8.68-13.27c-8.58-4.82-16.92-0.22-17.68,9.63
			c-0.05,0.7-0.07,1.41-0.12,2.58C330.78,667,329.46,663.67,328.36,660.2z"/>
		<path class="st10" d="M187.53,77.29c-1.97-0.47-3.8-1.35-5.84-1.66c-5.23-0.79-8.23,2.31-10.97,5.98
			c-1.78-0.31-2.33-0.89-1.24-2.76c2.22-3.77,5.21-6.64,9.13-8.43c2.04-0.93,3.49-2.26,4.8-4.06c11.95-16.44,28.22-25.64,48.3-27.81
			c13.41-1.45,26.85-1.31,40.05,2.11c0.78,0.2,1.55,0.44,2.32,0.67c-1.14,0.93-2.22-0.07-3.33-0.1
			c-16.54-0.39-32.42,1.86-46.41,11.62c-6,4.19-10.57,9.82-15.41,15.21c-3.78,4.22-7.18,9.02-13.44,10.04
			c-1.79,0.29-3.57,0.08-5.35,0.25c-1.31-0.37-1.55-1.74-2.51-2.65C187.68,76.29,187.95,76.85,187.53,77.29z"/>
		<path class="st6" d="M438.27,557.32c7.39,4.73,15.54,7.57,23.98,9.67c9.98,2.48,20.11,3.48,30.4,3.92
			c14.98,0.65,29.45-1.42,43.63-6.02c2.28-0.74,4.4-1.98,6.86-2.19c-4.67,3.54-9.95,5.95-15.36,8.04
			c-12.74,4.95-26.08,7.36-39.56,9.21c-11.03,1.52-22.1,1.69-33.19,0.99c-4.81-0.3-9.62-0.73-14.29-2.09
			c-1.04-0.31-2.15-0.56-1.91-2.07C439.87,570.27,439.06,563.79,438.27,557.32z"/>
		<path class="st6" d="M95.35,314.1c1.05-0.08,1.57,0.73,2.21,1.34c11.84,11.25,24.39,21.61,38.03,30.64
			c9.68,6.41,19.55,12.47,29.98,17.58c2.3,1.13,4.61,2.35,7.25,2.6c-0.56,5.42-1.13,10.84-1.71,16.5c-3.34-1.06-6.38-2.53-9.36-4.11
			c-17.08-9.09-31.31-21.68-44.23-35.92c-7.97-8.78-15.23-18.09-21.93-27.85C95.45,314.65,95.43,314.35,95.35,314.1z"/>
		<path class="st7" d="M287.6,305.39c-14.81,3.47-29.87,3.76-44.93,3.19c-9.68-0.37-19.32-1.72-28.4-5.55
			c-0.48-0.2-1.04-0.21-1.56-0.3c5.09-4.56,10.74-7.96,17.71-8.67c6.64-0.68,13-3.21,19.85-2.69
			C264.11,292.41,276.53,297.05,287.6,305.39z"/>
		<path class="st11" d="M336.34,667.05c-0.02-2,0.74-4.33,2.26-6.42c2.22-3.06,5.24-4.16,8.93-3.24c4.79,1.19,8.01,4.28,9.91,8.68
			c1.95,4.52,2.51,9.26,1.59,14.16c-0.22,1.18-0.6,1.42-1.77,1.18c-5.45-1.14-10.75-2.67-15.59-5.5
			C337.64,673.56,336.26,671.35,336.34,667.05z"/>
		<path class="st11" d="M373.92,656.45c3.15-0.04,6.02,1.48,8.02,4.82c3.81,6.39,2.24,16.9-3.27,21.6
			c-0.81,0.69-1.24,0.33-1.82-0.13c-4.68-3.73-8.76-8.01-11.37-13.44C362.19,662.46,365.95,656.38,373.92,656.45z"/>
		<path class="st11" d="M107.4,655.95c5.63-7.28,10.98-13.81,20.34-15.01c4.9-0.63,9.19,1.39,11.62,5.57
			c1.66,2.86,1.11,4.83-1.77,6.3c-0.08,0.04-0.17,0.07-0.23,0.13c-5.24,4.7-11.55,4.4-17.93,3.88
			C115.62,656.5,111.8,656.27,107.4,655.95z"/>
		<path class="st11" d="M392.71,671.96c0.11-4.76,0.2-9.49,2.56-13.86c1.72-3.19,4.2-4.76,7.83-4.51c3.67,0.25,5.98,2.29,7.09,5.63
			c1.48,4.44,0.73,8.59-2.65,11.91c-3.72,3.66-8.04,6.55-12.7,8.94c-1.78,0.91-2.17,0.29-2.14-1.38
			C392.74,676.45,392.71,674.2,392.71,671.96z"/>
		<path class="st4" d="M210.06,302.27c-12.46,11.34-21.55,25.08-28.67,40.22c-0.33,0.71-0.77,1.38-1.2,2.15
			c-0.54-0.73-0.23-1.29-0.07-1.85c4.46-15.89,10.28-31.28,17.14-46.28c0.83-1.82,1.77-2.48,3.61-1.68
			c2.87,1.75,5.35,4.07,8.28,5.74C209.73,300.9,210.36,301.38,210.06,302.27z"/>
		<path class="st3" d="M573.35,550.87c-4.84,2.27-9.55,4.8-14.55,6.73c-1.58,0.61-3.12,1.34-4.67,2.03
			c-0.84,0.37-1.68,0.74-2.41-0.2c11.3-8.65,21.46-18.41,29.89-29.94c6.22-8.5,11.36-17.59,15.93-27.04
			c0.54-0.12,0.79,0.05,0.64,0.63c-5.88,16.48-13.42,32.13-23.51,46.48C574.32,550.05,573.79,550.43,573.35,550.87z"/>
		<path class="st11" d="M95.86,648.64c5.58-7.92,12.22-13.57,21.52-15.37c3.88-0.75,6.91,1.19,7.45,4.35c0.17,1,0.26,1.89-1.14,2.24
			c-4.79,1.19-8.35,4.32-11.71,7.7c-0.86,0.86-1.74,1.31-3,1.45C104.77,649.46,100.6,649.12,95.86,648.64z"/>
		<path class="st12" d="M168.69,90.08c-0.4,7.34-1.95,14.27-5.47,20.68c-1.24,2.26-2.95,4.04-5.13,5.38
			c-2.12,1.31-2.84,0.99-3.62-1.46c-0.87-2.72-0.4-5.34,0.65-7.85c2.63-6.28,5.66-12.37,9.13-18.22c0.82-1.37,1.8-3.46,3.35-2.98
			C169.51,86.22,168.29,88.61,168.69,90.08z"/>
		<path class="st13" d="M133.07,662.76c-1.44,0.11-2.84-0.11-4.38-0.59c0.89-1.89,2.6-2.88,4.09-4.01
			c6.25-4.75,13.26-7.66,21.2-7.71c3.02-0.02,6.05,0.6,8.13,3.25c0.1,1.42-1,1.53-1.94,1.71c-8.17,1.62-16,4.46-23.98,6.75
			C135.15,662.47,134.05,662.29,133.07,662.76z"/>
		<path class="st14" d="M133.07,662.76c8.68-3.48,17.69-5.86,26.77-8c0.86-0.2,1.82-0.03,2.27-1.05c1.29,1.26,1.72,2.88,1.83,4.59
			c0.16,2.75-0.9,4.35-3.68,4.57C151.19,663.59,142.12,664.31,133.07,662.76z"/>
		<path class="st15" d="M154.93,143.3c-0.28,5.65-1.46,11.09-3.32,16.39c-0.34,0.96-0.97,1.09-1.92,0.75
			c-2.47-0.9-4.6-2.39-6.79-3.77c-0.84-0.53-0.7-1.4-0.59-2.19c0.55-3.87,1.12-7.74,1.74-11.98c1.61,1.84,2.07,4.76,4.93,4.51
			C151.46,146.8,153.05,144.93,154.93,143.3z"/>
		<path class="st16" d="M146.57,241.95c-1.81-3.55-3.35-6.85-4.24-10.37c-0.53-2.09,1-3.69,2-5.33c0.35-0.57,0.92-0.22,1.39,0.12
			c2.5,1.84,5.01,3.68,7.52,5.51c0.9,0.65,0.87,1.3-0.05,1.87C150.18,235.6,148.78,238.77,146.57,241.95z"/>
		<path class="st17" d="M210.06,302.27c-1.74-2.08-4.44-2.84-6.4-4.61c-0.98-0.89-1.87-1.88-2.8-2.83
			c5.72,0.79,11.47,1.14,17.38,1.04C215.42,297.92,212.74,300.09,210.06,302.27z"/>
		<path class="st18" d="M274.73,235.27c-1.56,3.58-2.78,6.7-4.99,9.69c-1.41-2.49-2.7-4.77-4.01-7.05
			c-0.51-0.88-0.29-1.22,0.72-1.35C269.08,236.2,271.69,235.75,274.73,235.27z"/>
		<path class="st19" d="M139.26,231.26c-1.69-4.29-2.79-8.3-3.42-12.82c2.27,1.91,4.28,3.64,6.34,5.3c0.71,0.58,0.71,1.07,0.26,1.81
			C141.41,227.32,140.45,229.13,139.26,231.26z"/>
		<path class="st20" d="M251.51,271.68c0.62-3.55,1.14-6.51,1.7-9.69c2.46,1.25,3.59,3.47,4.94,5.51c0.58,0.88-0.16,1.08-0.68,1.34
			C255.64,269.73,253.8,270.59,251.51,271.68z"/>
		<path class="st21" d="M156.54,257.16c-4.61-5.38-5.02-5.47,0.78-8.25C157.06,251.66,156.82,254.26,156.54,257.16z"/>
		<path class="st22" d="M598.18,503.08c-0.21-0.21-0.42-0.42-0.64-0.63c0.73-1.76,1.46-3.53,2.19-5.29
			C599.82,499.35,599.22,501.28,598.18,503.08z"/>
		<path class="st23" d="M447.35,277.62c1.48,1.12,1.81,2.43,1.05,4.2c-1.62,3.78-3,7.66-5.48,11.01c-0.52,0.7-0.83,1.62-1.85,1.82
			c-0.12-1.92,1.27-3.26,1.88-4.9c1.04-2.75,2.2-5.47,3.45-8.14c0.74-1.59,0.29-2.25-1.32-2.63c-4-0.94-8.01-1.76-12.13-2.06
			c-1.56-0.11-3.16-0.05-4.56-1.04C434.88,274.52,441.12,275.98,447.35,277.62z"/>
		<path class="st24" d="M317.18,128.39c3.5,11.85,5.09,23.97,4.67,36.31c-0.23,6.88-0.43,13.77-1.92,20.56
			c-0.42,1.94-1.34,2.99-2.97,3.77c-4.82,2.3-9.88,3.66-15.22,4c-1.34,0.09-2.66,0.33-3.99,0.51c-7.08,0.04-14.16,0.04-21.11-1.59
			c-1.39-0.33-2.78-0.7-4.13-1.15c-8.14-2.73-8.6-3.75-7.82-12.32c1.19-13.03,2.75-26,6.7-38.53c3.19-10.13,7.16-19.9,14.97-27.57
			c7.89-7.75,17.35-7.03,23.94,1.81C313.51,118.49,315.61,123.31,317.18,128.39z"/>
		<path class="st10" d="M163.16,212.34c-1.49-2.75-3.09-5.42-4.18-8.38c-0.94-2.53-0.67-4.63,1.01-6.74
			c3.31-4.15,7.81-6.15,12.78-7.28c1.44-0.33,2.3,0.49,2.35,2.13c0.09,3.28-0.34,6.45-1.89,9.35c-2.12,3.96-3.62,8.17-5.14,12.37
			c-0.66,1.81-1.12,3.27-2.67,0.58c-0.14-0.24-0.63-0.27-0.95-0.39C163.61,213.75,163.31,213.1,163.16,212.34z"/>
		<path class="st25" d="M285.29,94.56c0.66-0.03,1.17-0.37,1.63-0.8c1.6-1.49,3.06-1.14,4.32,0.45c1.31,1.65,0.66,3.12-0.84,4.07
			c-4.14,2.6-7.8,5.82-11.67,8.95c-0.7-1.02,0.59-2.21-0.45-3.01c-0.59-0.98,0.12-1.69,0.54-2.41
			C280.48,98.95,282.49,96.4,285.29,94.56z"/>
		<path class="st26" d="M187.53,77.29c0.08-1.09-1.74-2.39-0.61-2.91c1.12-0.51,1.57,1.49,2.3,2.39c0.38,0.47,0.63,1.05,0.94,1.58
			c0.35,2.46,1.25,4.85,1.02,7.39c-0.06,0.65-0.1,1.44-0.83,1.47c-0.81,0.04-0.76-0.8-0.87-1.41
			C188.99,82.93,188.89,79.97,187.53,77.29z"/>
		<path class="st27" d="M285.29,94.56c-0.11,1.56-1.65,1.94-2.46,2.91c-1.76,2.09-3.5,4.18-4.54,6.74
			c-0.66,0.33-0.62,1.84-1.67,1.29c-0.76-0.4-0.18-1.33,0.08-1.93C278.44,99.51,280.44,95.66,285.29,94.56z"/>
		<path class="st28" d="M163.16,212.34c0.66,0.37,1.01,0.98,1.29,1.64c0.65,1.64,1.33,3.27,1.94,4.92c0.17,0.46,0.32,1.16-0.26,1.42
			c-0.65,0.29-0.9-0.38-1.12-0.84c-0.86-1.75-1.67-3.52-2.55-5.26C161.97,213.27,162.26,212.71,163.16,212.34z"/>
		<path class="st29" d="M197.23,225.63c-0.67-0.08-0.89-0.59-0.45-1.07c1.63-1.76,3.52-3.23,5.76-4.12c0.7-0.28,1.15,0.29,0.92,1.1
			C203.35,221.93,197.73,225.63,197.23,225.63z"/>
		<path class="st30" d="M177.74,623.51c-4.85-3.14-8.19-7.67-11.38-12.34c0.11-0.63,0.3-1.57,1.06-0.7
			c3.59,4.12,7.16,8.24,11.35,11.81C180.17,623.46,178.54,623.44,177.74,623.51z"/>
		<path class="st31" d="M102.99,299.55c-3.94-0.86-7.55-2.42-10.89-4.56c-1.49-0.96-1.48-2.37-0.55-3.75
			c2.45-3.65,5.12-7.13,8.18-10.3c0.42-0.43,0.93-1.15,1.56-0.65c0.83,0.67,0,1.26-0.41,1.78c-2.34,3.06-4.66,6.13-7.07,9.14
			c-1.13,1.4-0.99,2.2,0.67,3.02c2.81,1.4,5.61,2.79,8.64,3.65c0.6,0.17,1.38,0.3,1.31,1.08
			C104.35,299.91,103.51,299.5,102.99,299.55z"/>
		<path class="st32" d="M309.11,158.82c4.34,7.41,4.98,14.57,2.95,22.04c-0.73,2.67-1.62,5.29-3.06,7.71
			c-0.72,1.21-1.63,1.86-2.92,2.03c-10.79,1.42-21.55,1.82-32.12-1.37c-7.39-2.23-7.5-2.58-4.61-9.55c1.26-3.03,2.6-6.03,4.04-9.34
			c5.6,7.83,12.64,10.34,21.5,7.57C303.91,175.09,307.09,167.81,309.11,158.82z"/>
		<path class="st12" d="M297.9,121.16c0.05,7.9-2.6,14.92-6.9,21.39c-1.93,2.89-4.51,5.09-7.76,6.39c-3.86,1.55-6.35,0.23-7.62-3.65
			c-1.41-4.33-0.81-8.66,0.53-12.67c2.35-6.99,5.94-13.41,11.29-18.67c0.32-0.31,0.62-0.65,0.96-0.94c1.72-1.5,3.63-3.02,6-2.18
			c2.39,0.85,2.9,3.26,3.2,5.51C297.81,117.93,297.8,119.55,297.9,121.16z"/>
		<path class="st33" d="M314.39,126.27c2.82,8.24,4.71,16.71,5.2,25.4c0.62,11,0.64,22-1.46,32.9c-0.28,1.43-0.83,2.44-2.31,2.92
			c-1.27,0.41-2.47,1.02-3.72,1.53c-0.23,0.09-0.5,0.09-1.13,0.2c2.31-4.86,3.64-9.79,4.52-14.83c2.02-11.48,1.49-22.99,0.34-34.51
			c-0.42-4.19-1.18-8.31-2.04-12.42C313.69,126.9,313.35,126.25,314.39,126.27z"/>
		<path class="st34" d="M314.39,126.27c-0.53,0.23-0.39,0.78-0.59,1.18c-0.73-2.24-1.47-4.49-2.2-6.73
			C313.14,122.33,313.99,124.2,314.39,126.27z"/>
	</g>
</g>
</svg>
