<?xml version="1.0" encoding="utf-8"?>
<!-- Generator: Adobe Illustrator 24.3.0, SVG Export Plug-In . SVG Version: 6.00 Build 0)  -->
<svg version="1.1" id="Layer_1" xmlns="http://www.w3.org/2000/svg" xmlns:xlink="http://www.w3.org/1999/xlink" x="0px" y="0px"
	 viewBox="0 0 720 720" style="enable-background:new 0 0 720 720;" xml:space="preserve">
<style type="text/css">
	.st0{fill-rule:evenodd;clip-rule:evenodd;fill:#211714;}
	.st1{fill-rule:evenodd;clip-rule:evenodd;fill:#211E1E;}
	.st2{fill-rule:evenodd;clip-rule:evenodd;fill:#211A19;}
	.st3{fill-rule:evenodd;clip-rule:evenodd;fill:#F1DDA5;}
	.st4{fill-rule:evenodd;clip-rule:evenodd;fill:#C16628;}
	.st5{fill-rule:evenodd;clip-rule:evenodd;fill:#D9B06F;}
	.st6{fill-rule:evenodd;clip-rule:evenodd;fill:#363939;}
	.st7{fill-rule:evenodd;clip-rule:evenodd;fill:#A14A25;}
	.st8{fill-rule:evenodd;clip-rule:evenodd;fill:#FFFFFF;}
	.st9{fill-rule:evenodd;clip-rule:evenodd;fill:#4E2931;}
	.st10{fill-rule:evenodd;clip-rule:evenodd;fill:#D9B06E;}
	.st11{fill-rule:evenodd;clip-rule:evenodd;fill:#AE4F57;}
	.st12{fill-rule:evenodd;clip-rule:evenodd;fill:#CACBCC;}
	.st13{fill-rule:evenodd;clip-rule:evenodd;fill:#DC7F81;}
	.st14{fill-rule:evenodd;clip-rule:evenodd;fill:#9F4924;}
	.st15{fill-rule:evenodd;clip-rule:evenodd;fill:#FAFBFC;}
	.st16{fill-rule:evenodd;clip-rule:evenodd;fill:#F7F8F8;}
	.st17{fill-rule:evenodd;clip-rule:evenodd;fill:#9C4723;}
	.st18{fill-rule:evenodd;clip-rule:evenodd;fill:#C7C8C9;}
	.st19{fill-rule:evenodd;clip-rule:evenodd;fill:#EBD7A1;}
	.st20{fill-rule:evenodd;clip-rule:evenodd;fill:#F4F4F4;}
	.st21{fill-rule:evenodd;clip-rule:evenodd;fill:#E8E7E6;}
	.st22{fill-rule:evenodd;clip-rule:evenodd;fill:#221714;}
</style>
<g>
	<path class="st0" d="M105.5,357.17c-0.94-0.01-2.31,0.64-2.64-0.52c-0.36-1.28,1.21-1.42,2.03-1.78
		c9.78-4.18,19.17-9.09,28.16-14.78c0.66-0.42,1.27-0.91,1.8-1.66c-2.01,0.33-4.02,0.66-6.03,1c-0.56,0.09-1.23,0.67-1.61-0.05
		c-0.41-0.78,0.37-1.21,0.87-1.61c5.79-4.54,11.58-9.09,18-12.7c4.49-2.52,5.97-6.56,6.59-11.17c0.54-4.01,0.41-3.89-3.44-4.65
		c-11.44-2.23-22.73-5.08-33.12-10.54c-8.05-4.23-14.88-10.04-20.33-17.36c-1.72-2.31-1.48-4.95,0.78-6.98
		c3.27-2.94,7.29-4.65,11.25-6.42c0.83-0.37,1.63-0.87,2.63-0.88c0.91-0.01,1.01-0.52,0.32-1.12c-5.77-5.02-12.29-8.91-18.93-12.62
		c-0.86,1.86,0.2,3.41,0.19,5.05c-0.01,2.02-1.14,1.74-2.14,1.41c-1.63-0.54-3.29-1.18-4.72-2.11c-2.06-1.35-3.98-2.9-5.55-4.9
		c-1.53-1.95-4.16-2.8-5.43-5.11c-0.7-1.28-1.72-2.39-1.77-3.95c-0.26-1.68-0.28-3.35,0.01-5.02c0.01-3.08,1.45-5.62,3.1-8.06
		c0.72-1.06,1.53-2.06,2.39-3c1.26-1.38,2.27-2.61,1.11-4.71c-0.73-1.33,0.3-2.73,1.14-3.89c3.6-4.97,8.38-8.31,14.4-9.38
		c6.5-1.15,12.93-2.73,19.5-3.54c3.17-0.39,3.21-0.5,2.19-3.52c-3.12-9.3-3.96-18.99-4.87-28.66c-0.29-3.16-0.39-6.33-0.53-9.51
		c-0.03-0.69-0.43-1.67,0.43-2c0.94-0.36,1.37,0.64,1.86,1.24c2.96,3.6,5.83,7.27,8.47,11.11c0.38,0.55,0.78,1.08,1.4,1.93
		c0.13-2.42,0.22-4.52,0.37-6.62c0.11-1.41,0.32-2.82,0.48-4.22c0.07-0.59-0.01-1.35,0.72-1.51c0.82-0.18,1.13,0.57,1.47,1.15
		c0.72,1.22,1.39,2.47,2.14,3.67c1,1.59,2.06,3.16,3.65,4.39c6.21-7.37,12.19-14.86,18.04-22.45c7.42-9.63,14.62-19.41,20.62-30.02
		c0.35-0.62,0.63-1.57,1.52-1.41c1.02,0.18,0.86,1.22,0.94,2c0.53,5.37,0.89,10.76,0.81,16.8c1.69-2.11,3.03-3.81,4.4-5.49
		c0.4-0.49,0.7-1.32,1.54-1.02c0.68,0.25,0.55,1.01,0.62,1.6c0.54,4.7,1.12,9.38,3.86,13.61c4.42-3.69,8.84-7.34,13.21-11.04
		c6.05-5.12,12.63-9.47,19.33-13.66c0.52-0.33,1.09-1.06,1.77-0.42c0.68,0.64,0,1.26-0.3,1.8c-1.17,2.12-2.38,4.21-3.38,6.55
		c0.56-0.37,1.15-0.7,1.68-1.11c8.08-6.18,16.9-11.11,26.13-15.32c0.64-0.29,1.34-0.96,2.05-0.37c0.83,0.69,0.18,1.53-0.08,2.23
		c-3.64,9.79-6.98,19.69-10.21,29.62c-0.16,0.5-0.32,1-0.63,1.99c2.05-1.21,3.74-2.21,5.43-3.21c0.46-0.27,0.93-0.7,1.47-0.31
		c0.66,0.47,0.31,1.08,0.1,1.64c-0.97,2.5-1.95,5-3.02,7.77c4.76-0.92,9.31-1.83,13.86-2.67c3.64-0.68,7.24-1.62,10.95-1.91
		c0.7-0.05,1.63-0.26,1.91,0.67c0.24,0.78-0.52,1.18-1.04,1.57c-2.26,1.7-4.53,3.36-7.27,5.39c6.87-1.16,13.11-2.28,19.37-3.27
		c3.6-0.57,7.22-0.97,10.84-1.38c0.68-0.08,1.62-0.53,2.04,0.29c0.5,0.99-0.52,1.39-1.12,1.86c-5.23,4.07-10.78,7.66-16.45,11.08
		c-0.74,0.45-1.46,0.92-2.67,1.68c4.6,0.49,8.09,3.54,12.43,2.87c3.59-0.56,7.12-1.47,10.67-2.26c2.5-0.55,4.99-1.16,7.49-1.74
		c0.46-0.11,0.99-0.25,1.33,0.17c0.42,0.52,0.09,1.01-0.24,1.46c-0.12,0.16-0.24,0.32-0.36,0.49c-2.3,3.21-2.3,3.18,1.7,3.83
		c2.2,0.36,4.38,0.79,6.55,1.27c2.05,0.45,2.27,1,1.2,2.76c-0.6,0.98-1.25,1.92-1.88,2.88c-0.59,0.89-1.18,1.77-1.97,2.97
		c3.13-0.66,5.89-1.24,8.64-1.83c0.64-0.14,1.41-0.61,1.78,0.24c0.34,0.78-0.43,1.2-0.93,1.61c-2.25,1.9-4.53,3.78-7.21,6
		c4.43-0.38,8.35-0.77,12.27-1.03c1.33-0.09,3.21-1.09,3.88,0.35c0.58,1.24-1.25,2.21-2.16,3.11c-2.15,2.13-4.46,4.1-6.7,6.13
		c0.17,0.25,0.33,0.51,0.5,0.76c3.57-0.35,7.13-0.71,10.7-1.04c4.04-0.37,8.07-0.71,12.11-1.02c0.62-0.05,1.48-0.43,1.8,0.42
		c0.29,0.77-0.52,1.16-0.97,1.62c-2.11,2.16-4.25,4.3-6.54,6.62c5.58,0.91,10.94,1.76,16.28,2.66c3.59,0.6,7.17,1.29,10.76,1.91
		c1.04,0.18,2.05,0.49,3.06-0.35c7.75-6.51,17.07-9.91,26.4-13.33c9.68-3.56,19.4-7.02,28.41-12.16
		c8.87-5.06,16.51-11.46,22.04-20.17c0.37-0.58,0.62-1.59,1.56-1.28c0.94,0.3,0.53,1.28,0.52,1.96c-0.08,4.8-0.49,9.57-1.45,14.28
		c-0.13,0.64-0.17,1.29-0.3,2.35c2.75-2.34,5.03-4.59,7.12-7.05c0.7-0.82,1.38-1.66,2.11-2.46c0.43-0.48,0.72-1.34,1.52-1.11
		c0.91,0.27,0.67,1.2,0.74,1.91c0.33,3.14,0.32,6.29-0.04,9.81c1.27-0.76,2.24-1.33,3.21-1.9c15.19-8.98,28.85-19.95,41.77-31.9
		c0.2-0.18,0.38-0.39,0.59-0.56c0.4-0.33,0.75-0.9,1.37-0.58c0.58,0.31,0.46,0.89,0.36,1.44c-0.91,4.84-1.86,9.67-3.73,14.26
		c-1.91,4.69-4.11,9.24-6.58,13.66c-0.31,0.56-0.87,1.05-0.77,1.87c5.79,0.08,11.38-1.1,16.97-2.29c0.82-0.18,1.82-0.86,2.43,0.01
		c0.59,0.85-0.4,1.6-0.79,2.33c-2.1,3.85-4.59,7.45-7.64,11.27c2.17-0.35,3.91-0.64,5.64-0.91c9.57-1.51,19.13-0.54,28.69,0.2
		c2.22,0.17,4.42,0.54,6.62,0.88c0.66,0.1,1.7-0.17,1.76,0.89c0.04,0.82-0.89,0.93-1.47,1.17c-5.42,2.24-10.85,4.45-16.28,6.67
		c-0.61,0.25-1.21,0.54-2.08,0.92c4.99,1,9.72,1.87,14.4,2.91c7.59,1.68,14.82,4.5,22.08,7.21c0.59,0.22,1.45,0.32,1.31,1.26
		c-0.14,0.98-0.95,0.95-1.72,0.98c-7.56,0.26-15.12,0.53-22.68,0.79c-0.66,0.02-1.33,0-2.51,0c0.86,0.67,1.34,1.06,1.84,1.42
		c19.09,13.52,29.96,32.18,33.99,54.96c2.04,11.52,0.69,23-1.41,34.42c-1.09,5.9-2.07,11.83-2.88,17.78
		c-0.59,4.33-0.02,8.62,1.37,12.78c1.36,4.08,3.98,7.1,7.6,9.39c6.65,4.2,13.95,6.34,21.71,7.11c1.54,0.15,3.09,0.33,4.62,0.58
		c0.55,0.09,1.39-0.07,1.49,0.74c0.11,0.87-0.7,1.02-1.33,1.25c-5.46,2.03-11.12,3.27-17.27,4.03c1.77,0.81,3.35,0.83,4.87,1.05
		c1.53,0.23,3.09,0.39,4.64,0.4c6.9,0.05,13.75-0.58,20.55-1.75c0.26-0.05,0.53-0.16,0.79-0.16c0.63,0,1.42-0.51,1.81,0.31
		c0.31,0.66-0.33,1.11-0.72,1.54c-4.45,4.85-9.36,9.15-15.04,12.54c-4.11,2.46-8.51,4.27-12.96,6.23c3.39,0,6.77-0.02,10.16,0.02
		c0.67,0.01,1.7-0.38,1.86,0.64c0.14,0.95-0.92,1.03-1.56,1.28c-7.14,2.82-14.24,5.76-21.93,7.99c2.84,0.79,5.37,1.48,7.89,2.19
		c0.62,0.17,1.54,0.2,1.43,1.08c-0.09,0.69-0.85,0.98-1.56,1.08c-2.81,0.39-5.6,0.87-8.42,1.16c-1.4,0.14-2.16,0.54-2.38,2.06
		c-0.38,2.65-0.97,5.28-1.46,7.86c0.53,0.26,0.79,0.02,1.07-0.14c12.7-7.05,26.08-12.64,39.39-18.38c0.65-0.28,1.36-0.94,2.03-0.27
		c0.65,0.64,0.1,1.4-0.16,2.06c-5.03,12.58-10.08,25.15-15.11,37.73c-0.24,0.6-0.69,1.15-0.55,2.08c4.98-4.01,9.85-7.93,14.73-11.86
		c1.26-1.02,2.51-2.05,3.79-3.04c0.51-0.4,1.05-1.16,1.74-0.68c0.73,0.51,0.13,1.22-0.15,1.8c-5.4,11.4-10.94,22.73-17.55,33.49
		c-3.36,5.46-6.78,10.88-10.17,16.32c-0.27,0.44-0.75,0.8-0.65,1.66c4.53-0.54,9.05-1.07,13.57-1.61c2.08-0.25,4.16-0.49,6.23-0.72
		c0.59-0.07,1.37-0.33,1.6,0.4c0.26,0.83-0.55,1.12-1.14,1.43c-2.08,1.08-4.17,2.15-6.53,3.36c1.48,0.34,2.6-0.07,3.74-0.14
		c4.92-0.3,9.84-0.58,14.76-0.84c0.63-0.03,1.54-0.34,1.77,0.51c0.27,1-0.75,1.15-1.39,1.41c-7.03,2.78-13.98,5.7-20.73,9.11
		c-0.52,0.26-1.16,0.37-1.6,1.17c6.22-1.16,12.34-1.05,18.46-1.04c0.34,0,0.69-0.05,1.01,0.02c0.79,0.15,2-0.47,2.22,0.73
		c0.2,1.06-1.04,1.07-1.7,1.38c-2.49,1.16-5.01,2.25-7.49,3.53c6.39-0.52,12.74-0.09,19.1,0.17c5.55,0.22,11.01,1.06,16.44,2.15
		c0.6,0.12,1.53,0.06,1.61,0.94c0.09,1.04-0.94,1.02-1.58,1.24c-4.83,1.69-9.68,3.33-14.53,5c-5.89,2.02-11.43,4.79-16.76,8
		c-0.38,0.23-0.89,0.32-1.12,1.07c4.4-0.75,8.7-1.36,13.04-1.58c1.16-0.06,2.89-0.81,3.33,0.41c0.47,1.3-1.41,1.7-2.33,2.35
		c-8.21,5.81-16.58,11.4-23.33,19.02c-2.55,2.87-5.92,4.69-9.63,5.73c-1.4,0.39-1.73,0.79-1.19,2.28c1.77,4.89,3.75,9.68,6.05,14.34
		c1.44,2.91,2.51,5.96,3.61,9c0.96,2.63,0.87,5.15-0.43,7.63c-2.46,4.7-5.31,9.11-9.67,12.31c-2.42,1.77-5.01,3.18-8.07,3.52
		c-1.01,0.11-1.93,0.52-2.84,1c-8.3,4.33-16.59,4.83-24.86-0.09c-1.27-0.76-2.72-0.75-4.09-1.02c-4.66-0.91-8.84-2.82-12.54-5.81
		c-2.47-1.99-3.74-4.45-3.74-7.69c0-4.19,0.66-8.35,0.45-12.55c-0.12-2.29-0.64-4.38-1.99-6.25c-2.36-3.29-4.67-6.62-7.04-9.91
		c-1.52-2.11-1.55-2.09-3.85-0.22c1.78,1.24,3.53,2.46,5.27,3.69c0.48,0.34,1.2,0.67,1.03,1.36c-0.2,0.84-1.06,0.68-1.7,0.7
		c-1.39,0.05-2.79,0.02-4.18,0.02c-0.04,0.17-0.07,0.33-0.1,0.49c2.29,1.04,4.59,2.07,6.88,3.12c0.63,0.29,1.65,0.45,1.33,1.43
		c-0.27,0.82-1.17,0.42-1.8,0.4c-5.6-0.22-11.2-0.44-16.8-0.71c-1.4-0.07-2.09,0.43-2.64,1.8c-5.11,12.7-10.92,25.09-16.32,37.66
		c-3.51,8.15-8.99,12.05-17.6,12.2c-3.17,0.05-6.46,0.9-9.49,0.31c-5.82-1.14-11.3,0.86-16.94,0.99c-3.17,0.07-6.35,0.06-9.52,0.05
		c-1.72-0.01-3.38-0.39-4.74-1.48c-0.63-0.5-1.17-0.4-1.86-0.33c-3.29,0.36-6.58,0.64-9.87,0.94c-3.5,0.32-5.99-1.2-7.62-4.23
		c-2.18-4.05-3.29-8.42-3.45-12.99c-0.13-3.54,1.53-6.4,4.16-8.65c2.92-2.5,5.96-4.87,8.94-7.3c0.46-0.37,0.91-0.77,1.59-1.34
		c-1.2-0.29-2.15-0.52-3.1-0.75c-17.92-4.44-31-14.74-38.24-31.9c-2.43-5.75-3.38-11.92-3.95-18.13c-0.22-2.38-1.15-4.13-3.52-5.06
		c-10.76-4.2-21.44-8.63-32.65-11.54c-4.36-1.13-8.84-1.38-13.29-1.93c-5.67-0.27-11.34-0.27-17.01,0
		c-9.2,0.48-18.35,1.4-27.45,2.85c-1.49,0.24-2.54,0.66-3.37,2.01c-0.84,1.37-2.05,2.5-3.24,3.9c1.42,0.39,2.74,0.17,4.03,0.17
		c2.97,0.01,5.94-0.07,8.92-0.05c0.67,0,1.69-0.42,1.87,0.62c0.16,0.87-0.78,1.15-1.42,1.5c-2.19,1.2-4.38,2.39-6.57,3.59
		c-0.33,0.18-0.66,0.39-0.88,0.88c1.97-0.28,3.93-0.6,5.9-0.82c0.74-0.08,1.79-0.74,2.2,0.24c0.41,0.99-0.78,1.27-1.39,1.69
		c-8.48,5.82-17.4,10.84-26.96,14.68c-1.47,0.59-2.91,1.24-4.91,2.1c2.65,0.57,4.72,1.02,6.78,1.47c0.63,0.14,1.52-0.01,1.64,0.85
		c0.13,0.94-0.84,0.95-1.42,1.13c-9.82,3.15-19.68,6.18-29.89,7.88c-1.67,0.28-2.53,0.81-2.75,2.65
		c-1.44,12.13-5.98,23.13-12.26,33.54c-4.95,8.2-9.31,16.76-15.18,24.38c-1.27,1.66-2.62,3.27-4.03,4.81
		c-2.17,2.38-4.92,3.78-8.1,4.2c-8.65,1.14-17.37,2.21-26.05,1.31c-8.55-0.88-17.12,0.22-25.62-0.84c-1.87-0.23-3.74-0.49-5.6-0.81
		c-1.02-0.17-2.1-0.62-2.54-1.51c-0.93-1.87-2.46-1.69-4.09-1.66c-5.8,0.11-7.9-1.29-9.67-6.78c-1.31-4.04-2.38-8.16-2.17-12.49
		c0.18-3.72,1.85-6.52,5.03-8.49c3.78-2.35,7.94-3.64,12.2-4.74c2.93-0.76,5.89-1.44,8.57-2.96c7.06-4,10.45-10.73,13.08-17.9
		c1.81-4.92,1.87-10.2,2.35-15.37c0.43-4.64,0.6-9.3,1.02-13.94c0.14-1.54-0.43-2.06-1.83-2.43c-9.16-2.45-18.21-5.27-26.61-9.79
		c-8.85-4.76-16.98-10.48-23.47-18.3c-2.6-3.13-3.84-6.8-4.49-10.72c-1.03-6.24-1.22-12.57-1.57-18.86
		c-0.16-2.81,0.25-5.65,0.39-8.47c0.45-1.8-0.11-3.67,0.33-5.47c-0.01-0.74-0.01-1.48-0.03-2.21c-0.02-0.86,0.41-1.81-0.84-2.34
		c-0.6-0.25-0.33-1.1-0.33-1.69c-0.02-4.08-0.01-8.15-0.01-12.63c-2.13,2.35-2.6,5.15-4.31,7.23c-0.42,0.51-0.74,1.37-1.35,1.24
		c-0.84-0.18-0.45-1.14-0.44-1.74c0.31-9.75,2.35-19.17,5.55-28.35c0.08-0.24,0.12-0.5,0.23-1c-1.42,0.37-2.42,1.1-3.4,1.88
		c-3.32,2.63-6.57,5.34-9.56,8.35c-0.31,0.31-0.57,1.06-1.28,0.5c-0.44-0.35-0.31-0.73-0.22-1.24c2.26-13.13,8.47-24.32,16.8-34.49
		c0.81-0.99,1.66-1.93,2.49-2.9c0.76-0.9,1.52-1.8,2.68-3.17c-3.84,1.41-6.84,3.16-9.9,4.77c-1.08,0.57-2.48,2.09-3.25,1.32
		c-0.99-0.99,0.6-2.27,1.21-3.34c3.16-5.58,6.91-10.71,11.73-15.01c0.84-0.74,1.97-1.19,2.51-2.36c-1.09,0.06-2.1,0.52-3.16,0.29
		C110.89,357.42,108.2,357.42,105.5,357.17z"/>
	<path class="st1" d="M317.69,490.03c0.36-0.4,0.85-0.36,1.32-0.36c4.79,0,9.59,0,14.38,0c0.47,0,0.95-0.05,1.31,0.36
		C329.03,490.04,323.36,490.03,317.69,490.03z"/>
	<path class="st2" d="M105.5,357.17c2.7,0,5.39,0,8.09,0C110.89,357.69,108.2,357.55,105.5,357.17z"/>
	<path class="st2" d="M108.48,444.07c-0.11,1.82,0.42,3.69-0.33,5.47C108.16,447.71,107.95,445.86,108.48,444.07z"/>
	<path class="st2" d="M72.42,238.7c0,1.67-0.01,3.35-0.01,5.02C71.82,242.04,71.9,240.37,72.42,238.7z"/>
	<path class="st3" d="M527.98,335.98c1.39-21.91-2.88-42.81-11.64-62.8c-6.64-15.13-17.16-27.32-29.87-37.7
		c-0.47-0.38-1.05-1.21-1.67-0.36c-0.49,0.67,0.34,1.03,0.76,1.41c1.44,1.31,3.11,2.37,4.38,3.88c1.48,1.86,2.05,4.11,2.52,6.34
		c1.34,6.42,2.23,12.95,2.01,19.47c-0.41,11.99-1.42,23.96-5,35.54c-4.03,13.03-11.45,23.7-22.11,32.19
		c-5.57,4.44-11.49,8.27-18.18,10.82c-1.02,0.39-2.01,0.82-3.11,0.29c-8.73-6.07-18.19-10.52-28.62-12.8
		c-6.96-1.52-13.96-1.2-20.97-0.52c-0.94,0.09-1.93,0.03-2.81,0.3c-3.44,1.04-6-0.44-8.65-2.45c-13.65-10.39-23.39-23.6-28.98-39.83
		c-0.46-1.33-0.58-2.79-1.11-4.09c-0.85-2.11-0.06-3.2,1.87-4.01c1.42-0.59,2.75-1.44,4.09-2.22c0.6-0.35,1.61-0.46,1.4-1.45
		c-0.18-0.82-1.06-0.67-1.7-0.77c-1.8-0.25-3.6-0.59-5.42-0.7c-1.13-0.07-1.55-0.53-1.58-1.57c-0.03-0.94-0.06-1.89-0.13-2.82
		c-0.09-1.17,0.4-1.76,1.53-2.23c6.97-2.92,13.9-5.92,20.83-8.93c0.65-0.28,1.62-0.36,1.75-1.2c0.15-0.99-0.88-1.25-1.51-1.69
		c-5.72-3.94-11.58-7.69-16.88-12.17c0.18-0.69,0.73-0.57,1.15-0.68c6.8-1.71,13.61-3.41,20.41-5.13c0.67-0.17,1.71-0.02,1.79-0.97
		c0.09-1.02-1.02-0.94-1.64-1.14c-7.92-2.52-15.55-5.77-23.15-9.1c-0.36-0.16-0.7-0.36-1.24-0.64c1.43-1.02,3.03-1.27,4.42-1.95
		c0.63-0.31,1.65-0.3,1.57-1.27c-0.08-0.93-1.08-0.9-1.75-1.11c-1.99-0.63-4-1.19-6.24-1.85c3.44-3.53,6.74-6.88,10.22-10.05
		c0.67-0.61,1.84-1.08,1.62-2.15c-0.25-1.23-1.6-0.98-2.55-1.27c0.07-0.91,0.91-1.1,1.45-1.52c6.92-5.41,15.08-8.3,23.18-11.31
		c10.49-3.9,21.09-7.55,30.77-13.33c7.79-4.66,14.75-10.24,19.82-17.91c0.13-0.2,0.31-0.36,0.7-0.83
		c0.18,5.53-0.84,10.53-1.74,15.55c-0.14,0.75-0.78,1.67,0.13,2.21c0.87,0.51,1.48-0.38,2.06-0.89c3.28-2.91,6.41-5.97,9.5-9.85
		c0.29,3.25,0.23,5.97,0.05,8.69c-0.05,0.83-0.64,1.82,0.36,2.41c0.86,0.51,1.53-0.28,2.19-0.66c15.5-8.97,29.58-19.85,42.77-31.92
		c0.39-0.35,0.78-0.7,1.51-1.35c-0.62,4.08-1.46,7.65-2.75,11.1c-2.18,5.83-4.96,11.37-8.08,16.75c-1.1,1.89-0.84,2.29,1.39,2.27
		c5.56-0.06,11.01-0.98,16.42-2.19c0.32-0.07,0.63-0.26,1.02,0.02c-2.11,4.08-4.83,7.76-7.68,11.36c-0.43,0.54-1.35,1.04-0.86,1.86
		c0.52,0.87,1.48,0.44,2.23,0.28c12.81-2.83,25.66-1.7,38.5-0.31c0.09,0.01,0.17,0.14,0.46,0.39c-1.93,0.81-3.75,1.6-5.59,2.34
		c-4.12,1.68-8.26,3.32-12.37,5.03c-0.67,0.28-1.9,0.25-1.7,1.35c0.18,0.97,1.32,0.76,2.06,0.86c11.68,1.6,23.02,4.47,34,8.79
		c0.42,0.17,0.84,0.36,1.23,0.83c-3.72,0.15-7.43,0.3-11.15,0.44c-4.32,0.16-8.64,0.29-12.96,0.45c-0.58,0.02-1.35-0.21-1.61,0.52
		c-0.31,0.87,0.55,1.12,1.08,1.47c20.27,13.15,31.78,32.05,36.16,55.51c1.75,9.39,1.13,18.84-0.36,28.23
		c-1.18,7.46-2.57,14.89-3.72,22.36c-0.71,4.58-0.46,9.17,0.8,13.65c1.37,4.87,4.18,8.64,8.51,11.4c7.49,4.77,15.74,6.95,24.56,7.94
		c-1,0.33-2,0.68-3.01,0.97c-1.1,0.32-2.21,0.6-3.33,0.86c-1.12,0.25-2.24,0.48-3.37,0.66c-2.26,0.38-4.53,0.72-6.79,1.09
		c-0.65,0.11-1.43,0.11-1.4,1.08c0.02,0.9,0.72,0.98,1.4,1.17c6.61,1.83,13.34,1.92,20.1,1.41c3.9-0.29,7.8-0.65,12.11-1.48
		c-2.13,2.41-4.16,4.31-6.28,6.12c-6.81,5.78-14.7,9.48-23.14,12.16c-0.88,0.28-1.88,0.36-2.52,1.18c-0.21,1.11-1.01,1.38-1.95,1.29
		c-1.61-0.16-3.22-0.36-4.83-0.4c-0.53-0.01-1.14-0.1-1.35-0.71c-0.24-0.71,0.27-1.15,0.75-1.52c1.34-1.03,2.77-1.92,4.19-2.85
		c2.15-1.4,4.16-2.97,6.24-4.84c-0.93-0.26-1.71-0.15-2.46-0.15c-6.95,0.02-13.91,0.31-20.71-1.63c-2.66-0.76-5.38-1.32-7.97-2.29
		c-0.67-0.25-1.55-0.49-1.43-1.44c0.1-0.79,0.91-0.89,1.56-1.07c2.01-0.57,4.04-1.08,6.15-1.66c-3.4-0.17-6.71,0.11-10.03-0.28
		c-3.38-0.4-6.39-1.65-9.28-3.28c-1.86-1.05-3.27-2.6-4.39-4.4c-2.1-3.39-4.03-6.87-5.73-10.48
		C528.05,338.78,527.68,337.43,527.98,335.98z"/>
	<path class="st4" d="M474.17,445.53c-5.56,5.86-11.85,10.82-18.6,15.22c-13.85,9.01-28.32,16.78-44.15,21.78
		c-2.5,0.79-5.07,1.35-7.6,2.07c-0.54,0.15-1.36,0.17-1.32,0.99c0.04,0.77,0.78,0.76,1.38,0.88c3.27,0.68,6.55,1.27,9.95,1.42
		c-6.19,3.69-13.07,5.88-19.32,9.53c8.4,2.02,16.61,0.37,25.06-1.16c-2.02,1.77-3.89,3.41-6.17,5.41c3.27-0.07,5.8-1.36,8.59-1.64
		c-0.84,1.05-2.11,1.57-2.95,3.21c13.59-2.23,25.53-7.75,37.66-13.47c-0.93,1.92-2.37,3.27-3.64,4.73
		c-5.99,6.88-12.2,13.56-19.22,19.4c-5.57,4.63-11.91,7.98-19.07,9.36c-7.81,1.51-14.76-0.79-20.56-6.06
		c-4.99-4.53-8.97-9.9-11.61-16.16c-0.91-2.15-1.2-4.5-1.56-6.8c-0.91-5.82-0.6-11.71-0.42-17.54c0.21-6.73,1.19-13.43,2.47-20.06
		c1.66-8.58,3.26-17.18,5.26-25.68c1.76-7.48,3.26-15.03,5.66-22.35c0.16-0.48,0.66-1.06,0.1-1.47c-0.71-0.52-1.02,0.29-1.45,0.65
		c-5.44,3.23-11,6.26-16.26,9.8c-6.16,4.14-11.17,9.51-16.19,14.87c-8.05,8.6-15.41,17.9-25.52,24.32
		c-1.02,0.65-2.05,1.29-3.22,1.64c-6.08,1.6-12.16,3.2-18.27,4.81c-0.04-0.21-0.1-0.32-0.07-0.42c0.25-0.86,1.62-1.54,0.88-2.46
		c-0.68-0.84-1.92-0.3-2.88-0.14c-6.42,1.06-12.89,1.88-19.56,4.05c3.05-4.8,5.84-9.17,8.61-13.55c1.08-1.71,2.29-3.37,3.15-5.19
		c3.46-7.34,9.53-12.31,15.59-17.27c11.13-9.11,22.18-18.32,34.29-26.13c3.75-2.41,7.49-4.82,11.06-7.5
		c0.45-0.33,1.26-0.64,0.96-1.34c-0.34-0.81-1.07-0.21-1.6-0.09c-1.03,0.23-2.05,0.54-3.19,0.53c2.46-1.51,4.93-3.02,7.38-4.55
		c0.67-0.42,1.63-0.75,1.53-1.69c-0.09-0.84-1.05-0.93-1.71-1.22c-10.61-4.68-20.15-10.93-28.27-19.27
		c-3.62-3.72-7.23-7.46-11.91-10.85c1.26,3.54,2.97,6.34,4.12,9.52c-2.71-1.7-5.38-3.46-8.13-5.11
		c-19.99-12.02-41.13-21.45-63.46-28.17c-10.52-3.16-21.12-6.02-31.9-8.18c-1.09-0.22-1.99-0.69-2.68-1.63
		c-1.51-2.04-3.1-4.03-4.92-6.37c4.75,0.62,8.85,1.87,12.95,3.11c7.52,2.26,14.6,5.61,21.75,8.78c0.56,0.25,1.1,0.51,1.65,0.76
		c0.44,0.21,0.88,0.4,1.29-0.04c0.43-0.47,0.1-0.88-0.14-1.28c-1.84-3.14-3.69-6.29-5.54-9.43c-1.19-2.03-2.39-4.05-3.8-6.44
		c3.77,1.28,6.86,2.98,9.9,4.8c0.65,0.39,1.35,1.23,2.15,0.5c0.76-0.71,0.05-1.51-0.25-2.22c-1.4-3.36-3.36-6.43-5.48-10
		c4.43,1.36,8.35,2.75,12.37,3.76c6.3,1.59,11.17,4.81,15.6,9.8c13.96,15.71,31.35,26.72,50.68,34.74
		c12.27,5.09,24.71,9.75,37.58,13.15c3.18,0.84,6.43,1.37,9.87,1.31c-3.47-3.75-7.79-6.46-12.05-10.1
		c4.72,1.29,8.92,2.43,13.13,3.58c-9.43-11.07-22.28-16.47-35.07-22.36c2.18-0.85,4.35-0.63,6.41-0.86
		c13.19-1.48,26.41-2.76,39.6-4.24c5.58-0.63,11.16-0.93,16.77-0.77c7.48,0.22,14.43,2.55,21.21,5.47c2.53,1.09,4.92,2.53,7.43,3.68
		c1.51,0.69,1.7,1.48,1,2.97c-3.61,7.54-8.47,14.26-13.48,20.89c-6.5,8.6-14.13,16.16-21.79,23.68c-0.39,0.38-0.81,0.73-1.13,1.15
		c-0.32,0.43-1.23,0.69-0.7,1.42c0.41,0.57,1.02,0.07,1.49-0.09c5.3-1.78,10.56-3.66,16.01-5.72c-2.09,3.43-4.17,6.86-6.26,10.28
		c0.15,0.15,0.29,0.29,0.43,0.44c6.77-2.44,12.17-7.05,17.8-11.74c0.02,1.47-0.67,2.53-1.12,3.63c-0.77,1.87-1.61,3.71-2.41,5.57
		c-0.18,0.42-0.61,0.89-0.24,1.31c0.51,0.56,0.99-0.07,1.41-0.29c4.67-2.37,8.72-5.63,12.68-9.01c7.38-6.29,13.91-13.38,19.92-20.97
		c1.79-2.27,1.81-2.27,3.82-0.23c2.03,2.07,4,4.22,6.08,6.24c0.97,0.94,1.04,1.65,0.2,2.72c-9.87,12.67-20.75,24.35-33.3,34.43
		c-1.71,1.38-3.28,2.93-4.76,4.71c5.21-0.6,10.11-2.14,15.38-4.48c-5.52,6.37-10.94,11.98-16.75,17.21
		c-9.79,8.81-19.72,17.45-28.65,27.16c-0.23,0.25-0.47,0.49-0.68,0.75c-0.24,0.3-0.73,0.58-0.5,1.01c0.28,0.53,0.85,0.34,1.26,0.17
		c1.79-0.79,3.55-1.64,5.34-2.44c0.78-0.34,1.47-0.92,2.6-0.95c-4.44,4.9-9.45,9.02-13.26,14.34c6.2-2.13,12-5.01,17.79-8.14
		c-0.49,0.57-0.99,1.13-1.46,1.71c-0.4,0.5-1.2,0.96-0.74,1.69c0.48,0.77,1.21,0.2,1.82-0.01c6.32-2.24,12.3-5.15,18.04-8.63
		c17.88-10.85,33.4-24.46,47.31-40c0.31-0.35,0.67-0.65,1.01-0.97c0.74,0.78,0.38,1.65,0.19,2.48c-2.15,9.46-4.62,18.84-7.27,28.18
		C475.26,443.53,474.83,444.58,474.17,445.53z"/>
	<path class="st3" d="M167.29,265.05c6.82,0.57,13.63,1.13,20.45,1.72c2.12,0.19,4.16,0.47,6.03,1.83c2.51,1.82,5.21,2.23,8.09,0.37
		c2.1-1.36,4.46-2.31,6.67-3.52c2.31-1.26,4.47-1.36,6.67,0.3c1.48,1.12,3.08,2.06,4.63,3.08c0.36,0,0.65,0.23,1,0.26
		c-0.22-0.17-0.3-0.44-0.42-0.67c-1.56-1.31-2.97-2.76-4.7-3.93c-2.74-1.87-5.34-1.72-7.96-0.16c-2.13,1.27-4.45,2.18-6.54,3.51
		c-2.47,1.57-4.77,0.95-6.9-0.42c-9.47-6.08-19.77-10.52-29.79-15.53c-6.77-3.38-13.63-6.53-20.56-9.54
		c-4.51-1.96-9.05-3.92-13.82-5.25c-1.4-0.24-2.81-0.32-4.21,0.03c-3.17,0.53-5.67,2.62-8.62,3.68c-6.03,2.17-12.11,3.97-18.55,4.45
		c-4.64,0.35-9.22,0.42-13.84-0.41c-2.99-0.53-4.89,0.83-6.11,3.67c-0.2,0.47-0.23,1.08-0.96,1.47c-1.51-2.18-3.93-3.79-4.26-6.79
		c-0.16-1.34-0.18-2.68,0.02-4.02c0.32-5.25,3.92-8.69,6.9-12.48c0.6-0.77,1.05-0.13,1.53,0.14c2.11,1.2,4.21,2.42,6.33,3.59
		c1.75,0.96,3.4,0.67,4.43-1c3.78-6.13,9.41-9.63,16.09-11.76c1.21-0.39,2.35-1.02,3.51-1.56c0.93-0.43,1.87-0.87,1.89-2.12
		c0.01-1.36-0.68-2.31-1.82-2.94c-1.9-1.05-4.03-1.48-6.1-2.17c12.92-2.06,25.84-4.42,38.39,1.82c5.51,2.74,10.53,6.31,15.93,9.22
		c3.32,1.79,6.59,3.69,9.89,5.53c4.49,2.5,9.34,2.89,14.33,2.43c2.22-0.21,4.08-1.3,5.95-2.4c5.53-3.24,11.05-6.49,16.61-9.68
		c3.24-1.86,6.73-3.07,10.38-3.88c3.06-0.68,6.04-0.48,8.95,0.62c5.07,1.91,9.83,4.28,14.15,7.69
		c10.38,8.19,22.13,13.04,35.47,13.68c0.47,0.02,0.94,0.07,1.41,0.14c0.47,0.07,0.93,0.17,1.66,0.31c-1.83,1.34-3.73,2-5.66,2.58
		c-1.87,0.56-3.78,0.98-5.67,1.5c-0.68,0.19-1.58,0.2-1.61,1.23c-0.03,1.06,0.87,1.06,1.56,1.21c7.9,1.72,14.52,6.02,21.07,10.46
		c0.15,0.1,0.26,0.28,0.62,0.67c-3.56,0.2-6.88,0.37-10.21,0.57c-0.77,0.05-1.82-0.28-2.12,0.71c-0.29,0.97,0.72,1.33,1.37,1.76
		c2.85,1.92,5.74,3.8,8.58,5.74c0.52,0.36,1.25,0.53,1.51,1.34c-1.23,0.16-2.41,0.29-3.59,0.48c-0.62,0.1-1.48-0.19-1.67,0.74
		c-0.15,0.74,0.55,1.03,1,1.39c3.26,2.62,6.49,5.29,9.54,8.16c4.15,3.89,7.47,8.46,11.04,13.38c-2.99-0.23-5.58-0.35-8.16-0.65
		c-4.8-0.54-9.58-0.04-14.36,0.19c-0.55,0.03-1.17,0.05-1.42,0.59c-0.31,0.66,0.24,1.13,0.63,1.59c1.52,1.76,3.05,3.52,4.34,5.64
		c-2.08-0.71-4.15-1.47-6.25-2.12c-0.78-0.24-1.68-1.05-2.42-0.24c-0.61,0.67-0.01,1.54,0.24,2.28c1.95,5.89,3.91,11.76,5.87,17.65
		c0.12,0.37,0.24,0.74,0.36,1.14c-0.8,0.38-1.39-0.13-1.97-0.33c-9.25-3.17-18.52-6.23-27.9-9.01c-0.64-0.19-1.4-0.66-1.88-0.04
		c-0.61,0.78,0.43,1.11,0.76,1.61c2.12,3.21,4.17,6.45,5.95,10.45c-3.29-1.94-6.32-3.42-9.46-4.66c-0.87-0.34-1.9-1.44-2.71-0.51
		c-0.73,0.84,0.17,1.88,0.68,2.75c2.71,4.58,5.42,9.15,8.41,14.2c-3.64-1.59-6.8-2.98-9.98-4.35c-8.07-3.5-16.41-6.13-25.06-7.76
		c-0.33-0.06-0.67-0.14-1-0.14c-0.57,0.01-1.29-0.36-1.61,0.39c-0.25,0.58,0.24,1,0.56,1.42c3.33,4.33,6.52,8.78,10.43,12.64
		c0.33,0.33,0.64,0.69,0.98,1.06c-4.13-0.38-16.52-5.43-20.87-8.48c-1.8-1.48-3.06-3.38-4.16-5.39c-0.99-1.81-0.75-2.6,0.99-3.67
		c1.04-0.63,2.1-1.22,3.14-1.84c0.94-0.56,0.8-1.13-0.03-1.67c-0.51-0.33-1.07-0.58-1.64-0.79c-9.64-3.5-19.37-6.7-29.28-9.33
		c-2.84-0.75-5.73-0.55-8.6,0.22c-8.04,2.17-16.19,3.54-24.55,3.44c-4.18-0.05-8.36-0.04-12.54,0c-2.18,0.02-4.27-0.4-6.34-0.99
		c-4.16-1.08-7.99-2.99-11.66-5.1c-4.84-2.78-9.23-6.28-13.15-10.28c-1.72-1.75-3.36-3.6-4.66-5.69c-1.34-2.15-0.82-4.54,1.28-5.95
		c6.69-4.52,14.04-7.25,22.07-8.22c4.19-0.5,8.38-1.02,12.6-1.3c2.75-0.43,5.53,0.16,8.28-0.31c7.05,0,14.1,0,21.15,0
		C163.93,265.19,165.63,264.66,167.29,265.05z"/>
	<path class="st3" d="M436.04,558.55c-8.59-0.38-16.61-2.82-24.05-7.01c-14.87-8.4-23.39-21.18-25.81-38.07
		c-0.13-0.93-0.26-1.87-0.37-2.81c-0.02-0.13,0.02-0.27,0.05-0.74c1.13,1.39,2.11,2.6,3.09,3.81c4.59,5.71,10.19,9.75,17.59,11.02
		c5.7,0.98,10.99-0.32,16.17-2.5c4.83-2.03,9.3-4.69,13.18-8.21c10.43-9.46,20.33-19.45,27.81-31.48c4.88-7.86,9.27-16.02,13-24.52
		c0.24-0.55-0.03-1.42,0.86-1.72c0.49,0.9,0.5,1.88,0.53,2.85c0.17,4.25-0.49,8.45-0.74,12.68c-0.03,0.55-0.39,1.41,0.41,1.53
		c0.8,0.11,0.82-0.76,1.02-1.39c3.17-9.76,6.27-19.54,9.62-29.24c3.58-10.39,8.62-20.14,13.7-29.86c0.15-0.28,0.35-0.53,0.69-1.04
		c-0.37,6.23-0.74,12.13-1.05,18.03c-0.03,0.64-0.51,1.67,0.59,1.84c0.99,0.16,1.09-0.9,1.32-1.53c4.17-11.41,9.92-22,16.72-32.04
		c2.23-3.29,4.68-6.41,7.56-9.62c0.69,3.64,0.62,7.05,0.81,10.42c0.23,4.04,0.19,8.1,0.3,12.16c0.02,0.62-0.21,1.51,0.73,1.64
		c0.75,0.1,0.9-0.69,1.15-1.22c1.26-2.59,2.5-5.19,4.13-7.69c-0.49,3.63-0.97,7.25-1.46,10.88c-0.1,0.73-0.25,1.46-0.33,2.2
		c-0.08,0.63-0.56,1.42,0.29,1.8c0.75,0.33,1.22-0.36,1.68-0.85c5.92-6.39,11.85-12.77,17.74-19.19c4.1-4.47,8.12-9.01,12.42-13.38
		c-1,2.47-2.07,4.91-2.99,7.4c-0.47,1.27-1.66,2.95-0.34,3.91c1.37,0.99,2.78-0.55,3.86-1.46c1.27-1.07,2.28-2.44,3.4-3.69
		c0.19,0.12,0.38,0.23,0.57,0.35c-0.48,2.52-0.95,5.04-1.43,7.57c-0.1,0.53-0.22,1.06-0.31,1.59c-0.11,0.64-0.48,1.35,0.27,1.84
		c0.7,0.46,1.3-0.02,1.88-0.33c7-3.8,14.05-7.48,21.36-10.66c5.88-2.55,11.74-5.13,17.62-7.69c0.29-0.13,0.6-0.2,0.95-0.31
		c0.21,0.84-0.26,1.4-0.49,1.99c-5.11,12.77-10.24,25.53-15.36,38.3c-0.18,0.44-0.37,0.87-0.54,1.31c-0.18,0.46-0.26,0.96,0.21,1.28
		c0.38,0.26,0.79,0.08,1.13-0.16c0.49-0.36,0.98-0.72,1.45-1.11c5.71-4.59,11.42-9.18,17.36-13.61c-0.56,1.2-1.13,2.4-1.69,3.59
		c-7.22,15.44-15.9,30.05-25.18,44.32c-0.6,0.92-1.82,1.95-1.09,3.01c0.62,0.9,2.04,0.22,3.07,0.12c3.56-0.34,7.11-0.79,10.66-1.2
		c0.58-0.14,1.16-0.32,1.71,0.15c-0.17,0.93-1,1.01-1.64,1.31c-9.19,4.35-18.94,7.15-28.56,10.33c-0.61,0.2-1.37,0.61-1.87-0.07
		c-0.54-0.73,0.06-1.41,0.44-2.03c2.83-4.52,5.62-9.07,8.56-13.53c2.78-4.23,5.11-8.74,7.52-13.59c-2.19,1.06-3.89,2.29-5.64,3.43
		c-0.62,0.41-1.2,0.89-1.91,1.14c-1.05,0.37-1.62,0.02-1.41-1.13c0.21-1.13,0.59-2.22,0.89-3.33c2.34-8.74,4.45-17.54,6.25-26.42
		c0.06-0.3,0.25-0.62-0.12-1.06c-1.62,1.82-3.26,3.59-4.87,5.37c-6.99,7.78-14.09,15.46-21.16,23.17
		c-5.11,5.58-10.43,10.95-16.06,16c-0.96,0.86-1.94,1.68-3.07,2.31c-0.42,0.23-0.91,0.4-1.34,0.06c-0.45-0.36-0.3-0.86-0.15-1.31
		c0.36-1.09,0.87-2.13,1.22-3.22c1.1-3.47,1.54-7.07,2.09-10.67c-3.51,4.24-6.85,8.57-10.29,12.81c-6.11,7.52-13,14.25-20.27,20.63
		c-3.41,2.99-6.84,5.93-10.77,8.22c-0.72,0.42-1.48,1.29-2.37,0.68c-0.8-0.56-0.59-1.56-0.49-2.31
		c-8.05,13.82-16.67,27.33-30.45,37.07c3.56,0,6.79,0,10.01,0c0.67,0,1.35-0.03,2.02,0.07c1.19,0.17,1.45,0.84,0.97,1.88
		c-0.28,0.62-0.7,1.15-1.08,1.71c-7.27,10.66-16.92,18.66-28.07,24.94C445.56,556.64,440.95,558.09,436.04,558.55z"/>
	<path class="st3" d="M120.69,412.27c-2.7,5.95-6.25,11.46-9.11,17.33c-0.92,1.89-1.59,3.91-2.99,5.98
		c-0.06-4.7-0.12-9.03,0.27-13.34c0.04-0.48-0.1-0.78-0.49-0.99c-0.61-0.33-0.85,0.12-1.08,0.54c-0.97,1.83-1.93,3.67-2.91,5.49
		c-0.44,0.81-0.94,1.59-1.62,2.35c-0.37-1.58,0.02-3.21,0.2-4.69c0.52-4.24,1.22-8.49,2.42-12.61c1-3.42,2.16-6.79,3.25-10.18
		c0.2-0.62,0.84-1.33,0.21-1.84c-0.79-0.64-1.66-0.09-2.36,0.43c-3.9,2.86-7.82,5.68-11.23,9.15c-0.18,0.18-0.4,0.32-1.06,0.86
		c1.17-5.62,2.73-10.53,5.06-15.24c2.35-4.75,5.16-9.2,8.21-13.5c3.12-4.38,6.9-8.23,10.58-12.36c-0.91-0.52-1.67-0.42-2.51-0.08
		c-3.78,1.53-7.5,3.15-11,5.27c-0.15,0.09-0.38,0.06-0.81,0.12c2.1-3.88,4.49-7.37,7.21-10.6c2.78-3.3,6.41-5.74,9.68-8.9
		c-2.6-1.07-4.64,0.65-6.83,0.53c-2.23,0.31-4.47,0.08-6.71,0.12c-0.3,0.01-0.73-0.04-0.35-0.53c11.5-5.15,22.6-10.98,32.69-18.69
		c-2.89-0.84-5.5,0.57-8.65,0.71c5.34-4.62,10.88-8.3,16.87-11.9c-0.25,1.79-1.61,2.7-1.85,4.33c1.65-0.4,1.91-1.98,2.87-2.8
		c1.03,0.03,1.7,0.76,2.45,1.31c4.15,3.04,8.85,4.46,13.91,5c8,0.84,15.3-1.68,22.6-4.38c3.05-1.13,5.85-2.76,8.69-4.33
		c0.67-0.37,1.32-1.05,2.22-0.51c0.65,0.59,1.31,1.16,1.93,1.76c11.42,10.99,24.81,16.58,40.63,16.96c0.08,0.73-0.61,0.79-0.98,1.05
		c-3.35,2.31-7.06,3.92-10.77,5.55c-1.72,0.76-2.97-0.47-4.44-0.69c-0.83-0.12-2.02-1.21-2.4,0.05c-0.32,1.05,1.2,1,1.94,1.25
		c10.08,3.36,22.16,13.6,27.54,23.56c-2.89-0.77-5.57-1.46-8.25-2.19c-3.38-0.92-6.76-1.87-10.13-2.82
		c-0.59-0.17-1.21-0.47-1.62,0.23c-0.42,0.71,0.21,1.11,0.6,1.54c2.55,2.79,5.28,5.42,7.46,8.53c0.37,0.53,0.7,1.1,1.24,1.94
		c-3.73-0.21-7.13-0.44-10.53-0.58c-3.17-0.12-6.34-0.13-9.52-0.21c-1.47-0.04-1.83,0.55-1.16,1.85c1.31,2.51,2.6,5.03,4.18,8.08
		c-2.48-1.27-4.49-2.35-6.54-3.33c-0.67-0.32-1.37-1.13-2.19-0.4c-0.81,0.73-0.13,1.54,0.12,2.24c2.08,5.71,3.96,11.47,4.99,17.48
		c0.08,0.46,0.13,0.92,0.2,1.44c-0.91,0.04-1.39-0.59-1.95-0.97c-6.89-4.63-13.95-8.99-21.18-13.08c-1.71-0.97-3.49-1.77-5.31-2.47
		c-0.67-0.26-1.38-0.78-2.09-0.23c-0.8,0.64-0.35,1.52-0.2,2.27c0.95,4.9,2.03,9.77,2.92,14.68c1.26,6.91,2.03,13.88,2.27,20.91
		c0.02,0.64,0,1.29-0.41,2.05c-0.97-1.8-1.94-3.6-2.92-5.4c-2.28-5.18-4.1-10.59-7.19-15.39c-1.53-2.39-3-4.82-4.71-7.17
		c0.13,1.66,0.31,3.32,0.54,4.98c0.08,0.6,0.21,1.2,0.11,1.81c-0.21,1.31-0.85,1.59-1.96,0.82c-1.18-0.81-1.93-2.06-2.96-3.15
		c-0.46,0.56-0.26,1.18-0.25,1.73c0.08,5.61-0.02,11.21-0.82,16.77c-0.03,0.2-0.01,0.41-0.06,0.6c-0.18,0.83-0.12,1.98-1.18,2.08
		c-0.9,0.09-1.23-0.95-1.53-1.68c-2.65-6.51-5.33-13-7.57-19.67c-1.11-3.32-2.21-6.65-3.4-10.19c-3.48,6.84-6.35,13.66-7.77,21.01
		c-0.67,3.45-1.37,6.89-2,10.34c-0.16,0.85-0.28,1.91-1.37,2c-1.03,0.08-1.42-0.87-1.81-1.67c-2.26-4.67-4.36-9.41-5.4-14.82
		c-1.58,1.9-2.62,3.78-3.75,5.58c-0.32,0.51-0.65,1.03-1.03,1.51c-0.45,0.57-0.86,1.33-1.74,1.14c-0.75-0.16-0.95-0.91-1.16-1.55
		c-1.21-3.59-2.15-7.26-2.63-11.02c-0.59-4.55-0.74-9.14-0.92-13.98c-3.24,3.39-5.92,6.92-7.83,11.03
		C122.67,408.43,121.72,410.37,120.69,412.27z"/>
	<path class="st5" d="M436.04,558.55c4.3-1.27,8.74-2.13,12.73-4.32c11.81-6.48,21.9-14.9,29.4-26.22c0.32-0.49,0.93-0.98,0.57-1.6
		c-0.3-0.51-0.99-0.27-1.51-0.28c-4.02-0.02-8.04-0.01-12.19-0.22c14.24-9.93,23.13-24.14,31.63-38.83c0.41,3.99,0.37,3.92,3.8,1.8
		c3.92-2.42,7.26-5.57,10.72-8.55c3.93-3.39,7.65-7.03,11.24-10.79c6.38-6.68,11.94-14.04,17.6-21.31c0.3-0.39,0.44-1.22,1.11-0.88
		c0.56,0.29,0.16,0.94,0.07,1.46c-0.85,4.95-1.51,9.95-3.93,14.72c1.68,0.02,2.56-1.07,3.41-1.82c5.64-5.02,11.09-10.25,16.1-15.92
		c3.03-3.43,6.19-6.75,9.28-10.14c5.54-6.07,11.06-12.15,16.61-18.21c0.57-0.62,1.05-1.4,2.28-1.79c-2,11.21-4.82,22-7.86,33.33
		c3.39-2.14,6.38-4.03,9.37-5.91c-4.23,10.91-11.35,20.02-17.33,30.46c11.13-3.56,21.81-6.79,32.25-11.67
		c-0.77-0.11-1.21-0.18-1.66-0.24c1.54-0.61,3.21-0.27,4.91-0.42c-1.94,1.02-3.92,1.98-5.81,3.08c-0.71,0.42-2.21,0.51-1.74,1.77
		c0.37,0.99,1.55,0.41,2.37,0.3c5.74-0.76,11.5-1.23,17.35-1.17c-3.98,1.75-7.97,3.46-11.93,5.24
		c-16.01,7.19-30.18,17.03-42.56,29.46c-2,2-1.93,2.26,0.79,3.25c2,0.73,4.05,1.37,6.36,2.7c-1.52,0-2.55-0.04-3.58,0.01
		c-0.69,0.04-1.7-0.43-1.94,0.53c-0.23,0.9,0.78,1.14,1.42,1.44c2.82,1.29,5.66,2.54,8.49,3.81c3.01,1.36,6.05,2.68,8.82,4.51
		c0.37,0.25,0.9,0.37,0.96,0.84c-18.31-1.22-35.8,2.38-52.76,9.04c-2.66,1.04-4.99,2.68-7.42,4.12c-1.07,0.63-0.9,1.2-0.02,1.81
		c1.49,1.04,2.99,2.06,4.98,3.44c-1.64,0.16-2.78,0.27-3.92,0.38c-0.75,0.07-1.56,0.1-1.7,1.07c-0.14,0.93,0.57,1.29,1.25,1.61
		c1.37,0.65,2.75,1.29,4.03,2.32c-2.46-0.14-4.91-0.28-7.36-0.41c-11.57-0.59-22.87,1.29-34.1,3.79c-2.63,0.59-5.27,1.14-7.9,1.72
		c-0.57,0.12-1.34,0.08-1.32,0.93c0.02,0.85,0.77,0.79,1.35,0.87c5.91,0.78,11.7,2,17.18,4.43c0.85,0.38,1.7,0.78,2.89,1.33
		c-2.06,0.41-3.73-0.08-5.41-0.13c-8.95-0.24-17.77,0.98-26.61,2.15c-9.15,1.2-18.23,3.17-27.52,3.17
		C438.2,558.67,437.12,558.59,436.04,558.55z"/>
	<path class="st5" d="M446.07,345.06c4.26-0.94,8.1-2.88,11.77-5.13c9.5-5.84,17.8-13,23.85-22.52c5.27-8.3,8.22-17.45,9.92-27.07
		c1.33-7.48,2.14-15.04,2.27-22.59c0.16-9.26-0.65-18.51-3.94-27.34c7.31,6.3,13.5,13.57,18.76,21.65
		c7.86,12.07,12.16,25.52,15.26,39.42c2.21,9.92,3.33,19.99,2.8,30.16c-1.07,20.27-6.02,39.3-18.43,55.85
		c-3.61,4.81-8.21,8.57-12.98,12.13c-0.51,0.38-1.02,0.97-1.49-0.16c-3.69-8.87-9.81-16.13-15.93-23.32
		C468.26,364.81,457.67,354.41,446.07,345.06z"/>
	<path class="st3" d="M276.74,215.25c8.03-7.84,15.35-16.32,22.13-25.25c0.29-0.38,0.63-0.72,0.84-1.14
		c2.54-5.09,6.71-7.46,12.35-7.27c-2.28,1.89-4.64,3.84-7,5.79c-0.4,0.33-1.03,0.58-0.75,1.25c0.27,0.65,0.9,0.44,1.42,0.39
		c4.1-0.4,8.19-0.82,12.29-1.22c0.98-0.09,1.97-0.11,3.23-0.18c-3.78,5.01-9.06,8.31-11.99,13.65c0.48,0.41,0.79,0.05,1-0.27
		c1.42-2.16,3.46-2.87,5.98-3.06c6.85-0.52,13.68-1.26,20.51-1.91c0.13,0.2,0.26,0.4,0.39,0.59c-1.99,1.87-3.99,3.73-5.96,5.62
		c-0.46,0.44-1.19,0.84-0.84,1.67c0.31,0.73,1.04,0.74,1.72,0.83c10.74,1.47,21.4,3.45,32.09,5.39c-0.03,0.9-0.76,1.15-1.21,1.59
		c-3.27,3.22-6.54,6.45-9.86,9.62c-1.07,1.03-1.11,1.57,0.45,1.98c2.01,0.52,3.99,1.17,6.39,1.88c-2.35,0.69-4.05,2.01-6.22,2.01
		c-0.39,0-0.66,0.15-0.74,0.52c-0.08,0.38,0.15,0.65,0.47,0.81c0.42,0.21,0.86,0.38,1.29,0.57c7.59,3.34,15.15,6.76,23.05,9.32
		c0.38,0.12,0.74,0.31,1.44,0.6c-6.87,1.72-13.43,3.33-19.97,5.02c-0.91,0.23-2.32-0.03-2.54,1.18c-0.19,1.04,1.1,1.41,1.79,1.99
		c5.3,4.4,11.08,8.15,16.96,12.2c-1.97,1.06-3.73,2.07-5.76,2.53c-10.03,3.02-20.4,4.52-30.57,6.93
		c-6.11,1.44-12.28,2.58-18.41,3.93c-0.82,0.18-1.94,0.73-2.46-0.07c-0.55-0.85,0.51-1.54,1.04-2.17c3.13-3.79,6.57-7.31,9.87-11.18
		c-0.79-0.46-1.52-0.23-2.19-0.14c-6.96,0.89-13.93,1.7-20.82,3.09c-0.85,0.17-2.08,0.86-2.54-0.23c-0.37-0.9,0.9-1.32,1.54-1.86
		c0.56-0.47,1.26-0.79,1.9-1.79c-2.23,0-4.21-0.57-6.25-0.47c-2.78,0.14-5.51-0.39-8.27-0.46c-0.59-0.02-1.36,0-1.53-0.7
		c-0.14-0.55,0.46-0.93,0.87-1.27c1.31-1.06,2.66-2.08,4.04-3.04c1.01-0.71,0.96-1.18-0.19-1.59c-2.41-0.87-4.85-1.66-7.24-2.59
		c-1.38-0.54-2.66-1.27-4.02-1.86c-4.66-2.82-9.43-5.39-14.85-6.68c3.64-1.16,7.32-2.06,10.58-4.01c0.94-0.56,2.67-0.75,2.52-1.96
		c-0.18-1.48-1.92-0.8-2.91-0.92c-4.68-0.57-9.37-0.98-14-1.89c-0.96-1.24,0.33-1.29,0.88-1.44c2.08-0.56,4.22-0.88,6.33-1.34
		c0.64-0.14,1.31-0.15,1.99-0.47c-1.95-1.04-3.77-2.2-5.63-3.28c-1.81-1.05-1.84-2.07,0.03-3.03
		C272.34,219.93,274.72,217.82,276.74,215.25z"/>
	<path class="st3" d="M116.19,196.61c-1.37-3.71-1.64-7.63-2.17-11.49c-0.89-6.54-1.45-13.12-1.75-20.26
		c1.4,1.74,2.57,3.08,3.63,4.51c2.28,3.1,4.51,6.24,6.76,9.36c0.34,0.47,0.58,1.24,1.31,1.06c0.85-0.21,0.66-1.05,0.68-1.7
		c0.12-3.57-0.2-7.16,0.57-11.12c1.46,2.36,2.63,4.52,4.28,6.34c2.14,2.36,2.49,2.39,4.44,0c11.72-14.32,23.44-28.63,33.42-44.26
		c1.36-2.12,2.64-4.29,4.2-6.84c0.66,5.67,0.75,10.84,0.87,16.01c0.01,0.54-0.01,1.08,0.01,1.62c0.02,0.47-0.02,1.01,0.57,1.16
		c0.55,0.14,0.85-0.3,1.14-0.67c1.5-1.89,3.01-3.79,4.7-5.92c0.5,2.56,0.89,4.83,1.39,7.08c0.46,2.05,1.3,3.97,2.34,5.8
		c1.12,1.96,1.36,2,3.15,0.51c5.5-4.58,10.96-9.21,16.51-13.72c4.19-3.41,8.77-6.27,13.58-9c-1.2,2.12-2.42,4.23-3.57,6.37
		c-0.38,0.71-1.45,1.52-0.61,2.29c0.81,0.75,1.58-0.29,2.23-0.78c8.51-6.48,17.41-12.3,27.2-16.69c0.6-0.27,1.2-0.54,1.94-0.87
		c0.04,1.08-0.44,1.83-0.73,2.62c-3.53,9.62-6.75,19.35-9.93,29.09c-0.22,0.66-0.83,1.45-0.12,2.06c0.79,0.67,1.52-0.09,2.19-0.46
		c1.41-0.79,2.79-1.64,4.61-2.73c-0.94,2.45-1.73,4.51-2.52,6.56c-0.24,0.62-0.72,1.26-0.26,1.9c0.54,0.75,1.35,0.36,2.06,0.23
		c7.08-1.38,14.16-2.77,21.24-4.14c0.58-0.11,1.19-0.13,2.36-0.25c-2.67,2.09-5.15,3.57-7.14,5.64c-0.48,0.5-1.48,0.89-1.06,1.75
		c0.45,0.93,1.45,0.48,2.18,0.33c9.33-1.87,18.69-3.54,28.15-4.6c0.37-0.04,0.75-0.05,1.76-0.11c-2.78,1.96-5.03,3.66-7.39,5.19
		c-3.74,2.42-7.55,4.73-11.32,7.1c-0.5,0.32-1.24,0.57-1.14,1.27c0.09,0.69,0.83,0.81,1.42,0.97c1.66,0.45,3.32,0.87,4.93,1.51
		c-4.68,0.28-9.37,0.85-14.05,0.79c-8.74-0.11-15.62,3.52-21.42,9.71c-1.71,1.82-3.43,3.63-5.14,5.44c-1.22,0.51-1.62-0.5-1.9-1.23
		c-0.97-2.51-2.91-3.22-5.37-3.56c-6.89-0.96-13.79-1.69-20.74-1.99c-0.75-0.03-1.59-0.05-1.9-0.87c-0.33-0.85,0.41-1.35,0.89-1.89
		c2.44-2.71,5.5-4.77,8.03-7.72c-6.8,0.72-13.34,1.81-19.78,3.54c-4.18,1.12-8.22,2.67-12.22,4.31c-0.69,0.28-1.36,0.61-2.1,0.74
		c-1.04,0.18-1.58-0.24-1.38-1.34c0.19-1.06,0.58-2.08,0.86-3.42c-3.21,1.74-6.23,3.42-9.14,5.28c-1.65,1.05-3.25,2.19-4.9,3.24
		c-0.6,0.38-1.25,1.02-2.01,0.45c-0.62-0.47-0.38-1.23-0.31-1.89c0.37-3.36,1.25-6.63,1.89-10.43c-3.35,3.28-6.5,6.15-9.03,9.64
		c-4.53,6.25-8.67,12.72-11.71,19.84c-0.46,1.07-1.14,1.97-1.88,2.85c-0.84,0.77-1.68,1.53-2.51,2.3c-1.3-0.14-1.22-1.28-1.43-2.11
		c-1.04-4.11-1.9-8.26-1.4-12.9c-2.91,4.24-5.45,8.27-7.95,12.33c-1.63,2.66-2.46,2.83-4.94,0.96
		C118.99,200.03,117.32,198.57,116.19,196.61z"/>
	<path class="st6" d="M353.6,397.25c2.58-0.11,4.38-1.1,6.86-1.58c-4.97,3.29-9.54,6.23-14,9.3c-7.7,5.3-14.91,11.24-22.21,17.08
		c-6.1,4.88-11.95,10.03-17.74,15.26c-1.6,1.45-3.66,2.38-5.51,3.55c-0.12-0.14-0.23-0.28-0.35-0.41c2.69-2.68,5.28-5.45,8.09-8
		c3.68-3.35,7.51-6.53,11.29-9.76c1.23-1.05,2.54-1.99,3.77-3.03c0.48-0.41,1.29-0.78,0.98-1.59c-0.26-0.67-1.01-0.54-1.61-0.56
		c-6.61-0.15-13.14,0.69-19.63,1.83c-3.55,0.63-7.06,1.44-10.75,1.89c2.58-1.83,5.17-3.67,7.76-5.5c4.89-3.45,9.78-6.9,14.67-10.36
		c0.53-0.37,1.38-0.66,1.03-1.49c-0.4-0.93-1.22-0.28-1.78-0.13c-2.32,0.61-4.61,1.33-7.1,1.65c1.71-1.2,3.4-2.45,5.15-3.59
		c6.2-4.04,12.39-8.11,18.68-12.02c1.44-0.89,1.22-1.16,0.07-2.01c-6.98-5.17-14.6-9.17-22.53-12.6
		c-9.15-3.95-18.42-7.6-27.95-10.54c-5.52-1.7-11.13-3.11-16.7-4.65c-0.31-0.09-0.68-0.03-0.97-0.57c2.12-0.69,4.36,0.1,6.45-0.76
		c-11.33-5.07-23.44-7.05-35.56-9.33c3.05-1.65,5.99-3.35,8.74-5.36c0.32-0.24,0.72-0.4,1-0.68c0.39-0.4,1.13-0.71,0.75-1.47
		c-0.29-0.57-0.9-0.53-1.44-0.49c-12.61,0.81-23.79-3.27-34.16-10.04c-2.53-1.65-4.84-3.6-7.17-6.09c1.99,0.58,3.61,1.08,5.25,1.49
		c0.49,0.12,1.14,0.25,1.5-0.26c0.4-0.58-0.16-0.99-0.45-1.42c-0.81-1.21-1.61-2.42-2.29-3.8c2.85,1.94,5.91,3.39,8.96,4.88
		c5.34,2.61,10.96,4.47,16.7,5.98c0.65,0.17,1.32,0.57,1.8-0.21c0.48-0.79-0.18-1.25-0.64-1.71c-1.28-1.27-2.59-2.52-4.17-4.05
		c2.29-0.38,3.97,0.42,5.64,0.82c11.58,2.73,23.08,5.81,34.37,9.55c8.12,2.69,16.05,5.89,23.8,9.51c3.23,1.51,6.5,2.97,9.73,4.48
		c10.65,4.97,20.73,10.94,30.46,17.51c0.63,0.43,1.35,1.32,2.09,0.61c0.71-0.67-0.05-1.51-0.41-2.2c-0.83-1.6-1.7-3.17-2.56-4.75
		c0.18-0.17,0.36-0.33,0.53-0.5c0.65,0.79,1.26,1.63,1.96,2.37c6.41,6.67,13.02,13.11,21.07,17.82c3.37,1.97,6.9,3.68,10.33,5.54
		c0.51,0.27,1.44,0.13,1.45,0.87c0,0.74-0.87,0.94-1.44,1.27C361.38,391.3,357.65,394.02,353.6,397.25z"/>
	<path class="st3" d="M232.09,496.92c0.11-0.73,1.37-1.25,0.55-2.11c-0.63-0.66-1.41-0.03-2.08,0.17c-1.09,0.31-2.15,0.73-3.54,1.22
		c0.73-1.21,1.46-2.05,2.36-2.65c5.98-4.03,5.85-10.39,3.68-15.91c-1.25-3.18-3.09-6.13-4.53-9.25c-3.47-7.51-3.49-7.57,2.03-13.54
		c7.75-8.37,15.44-16.82,24.85-23.45c0.54-0.38,1.09-0.77,1.99-1.4c-0.88,2.44-1.72,4.48-2.34,6.59c-0.31,1.05-1.74,2.43-0.45,3.17
		c1.17,0.67,1.93-1.11,2.69-1.93c5.76-6.24,12.3-11.53,19.43-16.13c3.19-2.06,6.59-3.6,10.69-4.72c-1.97,2.52-3.69,4.71-5.4,6.91
		c-0.37,0.48-0.78,0.94-1.09,1.46c-0.33,0.53-1.17,1.02-0.62,1.73c0.58,0.74,1.37,0.22,2.04-0.03c2.72-1.01,5.39-2.14,8.14-3.03
		c9.88-3.22,20.05-4.79,30.43-4.98c0.24-0.01,0.55-0.1,0.74,0.36c-3.13,2.67-6.3,5.35-9.43,8.07c-5.51,4.79-10.78,9.82-15.47,15.44
		c-0.41,0.5-1.42,0.99-0.64,1.82c0.62,0.66,1.25-0.05,1.79-0.37c2.18-1.28,4.33-2.6,6.79-3.61c-3.31,5.3-6.61,10.61-9.94,15.89
		c-1.51,2.4-3.1,4.74-4.62,7.13c-0.34,0.53-1.09,1.06-0.61,1.77c0.53,0.79,1.38,0.41,2.05,0.19c5.86-1.9,11.92-2.89,17.98-3.81
		c0.72-0.11,1.44-0.19,2.52-0.33c-5.89,8.08-11.89,15.62-18.28,22.85c-3.94,2.09-8.14,3.63-12.07,5.73
		c-0.51,0.28-1.17,0.7-1.69,0.22c-0.61-0.57-0.14-1.29,0.16-1.86c1.21-2.34,2.21-4.78,3.12-7.25c0.76-2.04,0.19-3.07-1.95-3.52
		c-2.46-0.53-4.9-0.65-7.43-0.18c-10.95,2.04-20.74,6.76-29.97,12.81c-3.33,2.19-6.77,4.2-10.05,6.46
		C233.42,497.21,232.73,498.1,232.09,496.92z"/>
	<path class="st4" d="M126.38,591c-1.02-3.36-1.89-6.72-1.41-10.3c0.42-3.15,2.15-5.25,4.82-6.81c3.9-2.28,8.15-3.62,12.5-4.52
		c8.78-1.81,14.46-7.18,18.59-14.85c2.99-5.55,4.24-11.45,4.8-17.6c0.54-5.84,1.04-11.68,1.3-17.54c0.03-0.73,0.22-1.46,0.48-2.2
		c1.03,4.63,2.34,9.15,4.43,13.58c0.38-2.06,0.77-4.13,1.26-6.8c1.46,6.66,2.5,12.81,4.64,19.24c10.5-13.27,19.43-27.27,30.43-39.78
		c-1.3,3.23-2.61,6.46-3.91,9.69c4.29-2.46,8.48-5,12.15-8.67c0.47,1.22,0.19,2.11,0,3c-0.07,0.35-0.31,0.87,0.26,0.98
		c0.24,0.05,0.56-0.31,0.85-0.48c1.38,0.56,0.59,1.57,0.39,2.34c-1.56,5.87-3.35,11.68-5.15,17.48
		c-4.51,14.5-9.11,28.98-14.04,43.35c-2.19,6.38-4.22,12.82-7.22,18.9c-1.83,3.71-4.7,5.96-8.66,7.01c-6,1.59-11.99,1.69-17.99,0.05
		c-0.59-0.16-1.17-0.32-1.61-0.78c-2.01-4.48-1.51-6.99,2.02-10.31c3.27-3.07,7.35-4.72,11.36-6.48c0.37-0.16,0.75-0.29,1.12-0.46
		c0.43-0.19,0.98-0.39,0.81-0.98c-0.22-0.76-0.89-0.5-1.35-0.31c-3.12,1.29-6.25,2.54-9.13,4.33c-1.72,1.08-3.28,2.36-4.75,3.77
		c-2.3,2.21-2.95,4.9-2.51,7.95c0.42,1.17-0.14,1.91-1.21,2.08c-6.45,1.06-12.91,2.1-19.29-0.38c-0.88-0.34-1.79-0.66-2.2-1.63
		c-0.12-1.14-0.27-2.28-0.34-3.42c-0.2-3.16,0.47-5.93,3.05-8.15c3.09-2.66,6.4-4.93,10.09-6.66c0.55-0.26,1.58-0.44,1.18-1.3
		c-0.37-0.81-1.17-0.25-1.76,0.02c-3.89,1.78-7.38,4.15-10.58,7c-2.4,2.13-3.49,4.7-3.35,7.87c0.06,1.41,0.03,2.83,0.04,4.25
		c-0.89,0.91-2.02,0.99-3.18,0.83C130.67,593.92,128.28,592.97,126.38,591z"/>
	<path class="st4" d="M218.92,463.59c0.27-2.97,1.61-5.2,1.49-8.06c-2.47,2.05-4.58,4-6.89,6.41c0.56-3.18,2.23-5.52,2.51-8.36
		c-13.77,11.72-23.49,26.94-35.27,40.64c-1.79-4.71-3.52-9.23-5.23-13.76c-2.03-5.36-4.03-10.73-6.07-16.08
		c-0.36-0.96-0.58-1.91-0.57-2.95c0.03-4.25,0.01-8.49,0.01-12.68c0.74,0.51,1.03,1.73,1.76,2.6c0.53,0.64,0.66,1.85,1.75,1.74
		c1.09-0.11,1.07-1.27,1.34-2.06c3.2-9.1,5.66-18.41,7.74-27.83c0.04-0.19,0.12-0.38,0.29-0.89c1.06,2.13,1.24,4.25,1.91,6.21
		c0.17,0.51,0.27,1.04,0.45,1.55c0.16,0.45,0.38,0.91,0.98,0.84c0.58-0.07,0.71-0.54,0.8-1.02c0.42-2.39,0.84-4.77,1.25-7.16
		c0.06-0.33,0.05-0.68,0.53-0.95c1.86,2.1,3.04,4.67,4.48,7.06c0.8,1.33,1.5,2.72,2.31,4.04c0.39,0.65,0.66,1.74,1.64,1.47
		c0.81-0.23,0.64-1.23,0.66-1.95c0.1-4.87-0.42-9.7-0.91-14.53c-0.82-8.06-2.45-15.97-4.16-23.87c-0.1-0.44-0.19-1.1,0.04-1.34
		c0.45-0.48,0.99,0.08,1.44,0.28c5.93,2.66,11.35,6.23,16.85,9.64c3.39,2.09,6.66,4.37,9.99,6.56c0.61,0.4,1.26,1.02,2.02,0.57
		c0.8-0.48,0.43-1.37,0.3-2.05c-0.84-4.29-1.61-8.6-3.09-12.84c3.66,2.99,10.51,13.31,13.23,19.94c-2.97-1.66-5.73-3.2-8.87-4.95
		c0.15,1.59,0.83,2.43,1.39,3.27c5.61,8.43,11.41,16.72,16.67,25.38c0.75,1.24,0.83,1.94-0.28,3.02
		c-5.32,5.19-10.3,10.7-15.37,16.12C224.03,459.74,221.54,461.42,218.92,463.59z"/>
	<path class="st4" d="M267.03,399.69c-0.55-6.31-1.09-12.63-1.64-18.94c-0.06-0.65,0.07-1.6-0.87-1.51
		c-0.92,0.09-0.65,0.99-0.58,1.65c0.8,7.65,1.57,15.31,1.71,22.99c0.11,6.35-1.11,12.6-2.04,18.87c-0.35,2.4-0.72,4.79-1.07,7.19
		c-0.07,0.48-0.12,1.03-0.64,1.15c-0.54,0.12-0.56-0.47-0.72-0.8c-3.44-7.32-6.87-14.65-10.53-22.45c1.39,1,2,2.26,3.5,2.93
		c-0.65-3.71-1.51-7-2.88-10.15c-2.43-5.57-4.96-11.09-7.83-16.45c-0.4-0.75-0.96-1.4-0.36-2.38c0.4-0.66-0.3-1.24-0.66-1.79
		c-2.14-3.37-4.86-6.27-7.9-9.46c6.27,1.7,12.1,3.29,17.95,4.84c0.59,0.16,1.33,0.81,1.85,0.06c0.47-0.69-0.26-1.23-0.59-1.79
		c-5.66-9.4-13.28-16.79-22.82-22.21c-0.22-0.13-0.4-0.33-0.54-0.71c11.46,1.34,22.71,3.6,34.31,7.05c-2.52,0.2-4.48,0.34-6.44,0.53
		c-0.56,0.05-1.5-0.24-1.57,0.46c-0.09,0.85,0.93,0.73,1.52,0.9c8.28,2.41,16.65,4.54,24.82,7.27c14.02,4.68,27.85,9.9,40.63,17.5
		c1.74,1.03,3.35,2.28,5.09,3.31c1.42,0.84,1.01,1.32-0.11,2.02c-5.14,3.24-10.25,6.52-15.35,9.83c-3.46,2.25-6.66,4.84-9.75,7.58
		c-0.31,0.27-0.96,0.5-0.57,1.09c0.29,0.43,0.74,0.11,1.11,0.01c2.3-0.65,4.61-1.3,7-1.79c-9.25,6.25-17.82,13.47-27.6,18.89
		c-0.13-0.16-0.27-0.31-0.4-0.47c2.05-2.62,4.11-5.23,6.13-7.87c0.43-0.55,1.29-1.14,0.81-1.89c-0.53-0.83-1.37-0.08-2.01,0.1
		c-4.7,1.33-9.12,3.3-13.21,5.99c-1.06,0.03-1.05-0.91-1.28-1.53c-0.76-2.02-1.27-4.13-1.86-6.21c-0.99-3.51-1.93-7.04-3.56-10.33
		C267.5,402.05,267.38,400.84,267.03,399.69z"/>
	<path class="st5" d="M284.45,246.46c4.64,1.32,9.08,3.18,13.93,4.87c-2.61,1.96-4.88,3.66-7.43,5.58
		c5.49,0.32,10.57,0.6,15.65,0.92c0.55,0.03,1.38-0.36,1.55,0.46c0.12,0.53-0.56,0.84-1.01,1.15c-1.14,0.81-2.26,1.64-3.89,2.83
		c3.83-0.67,7.06-1.3,10.31-1.78c5.24-0.77,10.49-1.44,15.74-2.16c0.35-0.05,0.69-0.09,0.84,0.32c0.16,0.45-0.14,0.77-0.41,1.07
		c-1.49,1.64-3.01,3.27-4.49,4.93c-2.33,2.6-4.64,5.21-7.28,8.18c8.16-1.74,15.86-3.39,23.56-5.03c9.18-1.96,18.37-3.93,27.55-5.88
		c0.19-0.04,0.4,0.02,0.6,0.04c-7.66,3.67-15.58,6.74-23.4,10.06c-2.3,0.98-4.61,1.91-6.92,2.86c-0.5,0.21-1.11,0.4-1.01,1.08
		c0.1,0.73,0.78,0.62,1.3,0.66c5.58,0.47,11.18,0.72,16.74,1.48c0.86,0.12,1.73,0.24,2.6,0.36c0.07,0.63-0.45,0.64-0.73,0.81
		c-6.76,3.96-13.53,7.89-20.28,11.84c-0.73,0.43-1.76,0.77-1.67,1.82c0.08,0.95,1.15,1.04,1.83,1.4c4.41,2.33,8.85,4.63,13.27,6.96
		c0.52,0.27,1.15,0.44,1.55,1.28c-2.27,0.22-4.46,0.44-6.64,0.65c-1.54,0.15-3.09,0.28-4.64,0.41c-0.49,0.04-1,0.1-1.15,0.63
		c-0.16,0.57,0.33,0.82,0.73,1.06c1.76,1.09,3.53,2.18,5.32,3.28c-0.17,0.17-0.26,0.32-0.34,0.32c-3.94-0.31-7.32,0.97-10.54,3.25
		c-2.69,1.9-5.69,3.35-8.59,4.94c-2.46,1.35-2.51,1.42-0.6,3.37c1.94,1.99,3.57,4.23,5.14,6.51c0.26,0.38,0.64,0.72,0.57,1.54
		c-2.64-0.9-5.23-1.77-7.81-2.66c-1.02-0.35-2.03-0.73-3.05-1.08c-0.39-0.13-0.86-0.21-1.13,0.16c-0.34,0.45-0.1,0.88,0.27,1.25
		c1.5,1.46,3,2.92,4.49,4.4c2,1.98,4,3.97,5.72,6.52c-3.18-0.04-5.93-0.83-8.44-2.28c-13.98-8.1-26.88-17.6-37.88-29.52
		c-1.36-1.47-2.37-3.04-2.91-4.99c-0.67-2.44-1.54-4.83-2.44-7.58c3.07,1.03,5.78,1.95,8.5,2.85c0.61,0.2,1.32,0.68,1.85-0.05
		c0.53-0.74-0.16-1.26-0.57-1.75c-1.44-1.71-2.93-3.36-4.38-5.06c-0.32-0.38-1.01-0.68-0.73-1.29c0.22-0.48,0.84-0.31,1.3-0.33
		c6.22-0.36,12.42-0.22,18.6,0.53c1.07,0.13,2.46,0.85,3.2-0.3c0.79-1.23-0.63-2.06-1.23-2.92c-2.68-3.81-5.48-7.54-8.75-10.88
		c-3.26-3.34-6.89-6.26-10.8-9.53c1.66-0.2,3-0.36,4.33-0.53c0.59-0.08,1.3-0.06,1.44-0.83c0.11-0.65-0.47-0.9-0.91-1.2
		c-3.26-2.17-6.51-4.35-9.77-6.53c-0.26-0.18-0.6-0.31-0.6-0.94c3.66-0.2,7.34-0.38,11.02-0.6c0.56-0.03,1.37,0.38,1.61-0.39
		c0.26-0.83-0.6-1.08-1.14-1.44C289.49,249.83,286.97,248.15,284.45,246.46z"/>
	<path class="st1" d="M371,451.85c-1.09,2.36-2.65,3.6-3.81,5.13c-0.39,0.52-1.12,0.91-0.7,1.71c0.48,0.91,1.22,0.32,1.79,0.16
		c3.76-1.04,7.49-2.16,11.25-3.19c1.95-0.53,2.54-0.01,2.12,1.93c-2.13,9.72-2.44,19.57-2.4,29.47c0.02,4.27,0.55,8.44,1.41,12.58
		c0.14,0.66,0.56,1.45-0.01,1.89c-0.54,0.41-1.27-0.13-1.88-0.37c-10.82-4.29-21.59-8.72-33.02-11.22
		c-2.81-0.62-5.69-0.86-8.56-1.11c-4.17-0.37-8.34-0.43-12.51-0.36c-10.01,0.17-20,0.61-29.88,2.37c-0.46,0.08-0.94,0.07-1.41,0.05
		c-0.77-0.02-1.74,0.94-2.22,0.05c-0.51-0.94,0.54-1.72,1.11-2.38c6.22-7.15,12.32-14.38,17.97-22c0.63-0.86,1.44-1.43,2.6-1.74
		c10.18-2.75,20.42-5.26,30.75-7.38c0.64-0.13,1.45-0.57,1.81,0.15c0.31,0.63-0.36,1.22-0.82,1.71c-0.32,0.35-0.71,0.64-0.99,1.01
		c-0.36,0.49-1.41,0.81-0.84,1.56c0.41,0.53,1.25,0.18,1.89-0.07c7.92-3.03,15.84-6.04,23.77-9.06
		C369.08,452.51,369.77,452.28,371,451.85z"/>
	<path class="st5" d="M232.09,496.92c0.49,0.54,0.88,0.06,1.22-0.17c6.75-4.68,13.61-9.22,20.93-12.93
		c7.21-3.66,14.78-6.48,22.97-7.06c1.45-0.1,2.95,0.17,4.4,0.44c2.45,0.46,3.21,1.93,2.28,4.26c-1.17,2.91-2.38,5.82-4.14,9.03
		c3.62-1.69,6.75-3.18,9.91-4.6c1.33-0.6,2.62-1.38,4.15-1.45c-3.67,4.38-7.36,8.76-11.01,13.16c-0.52,0.63-1.61,1.19-1.09,2.17
		c0.51,0.97,1.66,0.65,2.58,0.66c3.43,0.01,6.86,0,10.78,0c-2.24,1.25-4.13,2.3-6.03,3.35c-1.12,0.62-2.28,1.19-3.38,1.84
		c-0.59,0.35-1.72,0.51-1.43,1.41c0.33,1.03,1.42,0.49,2.14,0.4c2.34-0.29,4.66-0.69,7.17-1.07c-0.34,0.84-1.07,1.04-1.61,1.41
		c-8.86,6.06-18.57,10.42-28.47,14.44c-0.69,0.28-1.83,0.28-1.77,1.35c0.06,1.07,1.17,0.94,1.91,1.12c1.74,0.41,3.5,0.76,5.78,1.26
		c-14.34,4.8-28.42,8.2-43.12,9.18c1.79-1.01,3.6-2.01,5.38-3.05c0.59-0.34,1.67-0.52,1.2-1.51c-0.36-0.75-1.18-0.3-1.82-0.12
		c-3.49,1-6.97,2-10.54,3.03c-0.01-0.98,0.63-1.44,1.03-2c4.15-5.75,8.33-11.48,12.49-17.22c0.32-0.44,0.66-0.86,0.91-1.34
		c0.27-0.53,0.6-1.1,0.08-1.69c-0.5-0.56-1.07-0.4-1.67-0.17c-3.39,1.34-6.78,2.67-10.17,3.99c-0.93,0.36-1.86,0.72-2.96,0.92
		C223.99,509.48,227.7,502.99,232.09,496.92z"/>
	<path class="st5" d="M120.69,412.27c2.19-6.9,5.85-12.89,11.35-18.32c-0.14,3.69,0.27,6.94,0.35,10.2
		c0.14,5.71,1.49,11.16,3.2,16.56c0.12,0.38,0.13,0.9,0.58,0.99c0.56,0.11,0.79-0.42,1.03-0.8c1.75-2.69,3.49-5.39,5.44-8.41
		c1.11,3.03,1.45,5.84,2.58,8.4c1.14,2.59,2.28,5.18,3.4,7.78c0.25,0.57,0.5,1.3,1.15,1.24c0.81-0.08,0.77-0.95,0.89-1.6
		c1.29-6.86,2.29-13.79,4.79-20.36c1.58-4.14,3.33-8.2,5.72-12.45c3.49,11.39,7.46,22.19,12.29,32.71
		c1.73-7.29,1.56-14.65,1.51-22.19c1.8,0.7,2.24,2.57,3.55,3.51c0.46,0.33,0.74,1.2,1.42,0.86c0.61-0.31,0.34-1.12,0.27-1.67
		c-0.33-2.46-0.87-4.89-0.74-7.98c5.31,8.01,10.35,15.55,12.47,24.6c-1.25-1.83-2.49-3.67-3.76-5.5c-0.3-0.43-0.58-1.02-1.23-0.88
		c-0.65,0.14-0.66,0.78-0.76,1.31c-0.41,2.19-0.82,4.37-1.26,6.78c-0.98-2.28-1.3-4.55-1.99-6.71c-0.24-0.77-0.04-2.11-1.17-2.1
		c-1.11,0.01-0.93,1.31-1.1,2.09c-2.14,9.61-4.45,19.18-7.69,28.49c-0.22,0.62-0.42,1.24-0.79,2.32c-1.63-2.64-3.06-4.96-4.5-7.28
		c-0.28-0.46-0.56-0.92-0.89-1.35c-0.22-0.29-0.58-0.4-0.9-0.23c-0.36,0.18-0.4,0.64-0.21,0.88c1.71,2.18,1.19,4.79,1.31,7.22
		c0.28,5.87,0.36,11.74,0.5,17.61c0.01,0.46-0.13,0.91-0.25,1.74c-2.67-3.2-5.13-6.18-7.63-9.12c-3.52-4.14-6.02-8.88-8.14-13.84
		c-0.25-0.58-0.6-0.91-1.21-0.79c-0.69,0.14-0.4,0.76-0.42,1.16c-0.09,3.1,0.69,6.17,0.29,9.41c-2.66-1.16-4.23-3.43-5.83-5.58
		c-1.91-2.56-3.49-5.34-4.6-8.37c-0.29-0.8-0.7-1.83-1.64-1.85c-0.94-0.01-0.96,1.12-1.28,1.82c-2.97,6.57-5.25,13.4-7.48,20.44
		c-1.42-1.46-1.28-3.31-1.65-4.87c-1.35-5.75-2.41-11.56-3.36-17.41c-0.75-4.67-1.32-9.37-1.94-14.06
		c-0.55-4.16-0.41-8.42-0.46-12.64c-0.02-1.68,1.34-2.86,1.96-4.32c0.19-0.44,0.65-1-0.08-1.36c-0.7-0.35-0.87,0.28-1.17,0.72
		C121.97,410.1,121.76,411.45,120.69,412.27z"/>
	<path class="st7" d="M533.66,535.5c-1.5-1.99-2.96-4-4.51-5.95c-0.6-0.76-0.25-1,0.38-1.31c3.34-1.62,6.79-3,10.35-4.04
		c1.8-0.53,3.63,0.14,5.4,0.43c10.03,1.63,19.97,1.32,29.88-0.85c0.11-0.03,0.24,0.06,0.55,0.14c-1.58,1.12-3.07,2.14-4.51,3.23
		c-0.62,0.47-1.75,0.88-1.45,1.73c0.36,1.04,1.56,0.57,2.34,0.43c4.23-0.79,8.44-1.67,12.66-2.52c0.59-0.12,1.19-0.18,1.79-0.28
		c5.45-0.89,5.46-0.89,7.26,4.24c1.61,4.59,3.94,8.87,5.83,13.33c1.33,3.14,2.99,6.21,3.04,9.76c0.01,0.54,0.06,1.13-0.14,1.6
		c-3.25,7.51-7.59,14.01-15.95,16.62c-2.41,0.75-4.54,0.15-6.31-1.61c-5.97-5.94-9.29-12.97-8.83-21.56
		c0.04-0.76,0.54-2.18-0.55-2.21c-1.1-0.03-0.63,1.39-0.7,2.19c-0.73,8.82,2.68,16.05,8.7,22.22c0.84,0.86,1.85,1.54,2.88,2.38
		c-7.48,4.01-15.06,4.78-22.5,0.36c-3.36-1.99-5.61-5.21-5.74-9.46c-0.11-3.51,0.02-7,0.44-10.48c0.07-0.58,0.44-1.59-0.48-1.7
		c-1.01-0.12-0.7,0.95-0.8,1.53c-0.61,3.66-0.91,7.36-0.68,11.07c0.17,2.76,1.44,5.12,3.57,7.64c-3.36-0.48-6.04-1.07-8.48-2.53
		c-0.77-0.85-0.34-1.78-0.2-2.7c0.98-6.64,3.09-12.99,4.93-19.42c0.45-1.56,0.81-3.14,1.23-4.7c0.61-2.28-0.09-4.15-1.83-5.62
		c-3.11-2.62-6.59-4.69-10.24-6.49c-1.21-0.6-2.16-0.53-2.99,0.63c-0.83,1.15-1.95,2.05-2.87,3.13
		C534.76,535.17,534.43,535.8,533.66,535.5z"/>
	<path class="st6" d="M213.08,458.03c-0.46,2.17-1.57,4.11-2.27,6.19c-0.22,0.66-0.99,1.41-0.17,2c1,0.72,1.42-0.46,1.89-0.95
		c1.89-1.99,3.68-4.07,5.94-6.59c-0.53,2.21-0.97,3.84-1.3,5.48c-0.12,0.58-0.79,1.35,0.14,1.78c0.71,0.33,1.25-0.3,1.76-0.7
		c1.37-1.08,2.76-2.14,4.09-3.28c1.06-0.92,1.56-0.59,1.68,0.65c0.13,1.31,0.59,2.53,1.22,3.61c2,3.4,1.69,6.89,0.83,10.53
		c-2.16,9.17-5.02,18.14-7.93,27.09c-0.06,0.18-0.22,0.32-0.45,0.65c-0.05-0.41-0.13-0.65-0.1-0.88c0.07-0.56,0.58-1.18-0.21-1.61
		c-0.7-0.38-1.11,0.15-1.57,0.55c-3.1,2.67-6.21,5.33-9.66,7.8c1.07-2.63,2.12-5.27,3.2-7.89c0.57-1.37,1.19-2.71,1.79-4.07
		c0.25-0.56,0.62-1.23-0.01-1.64c-0.66-0.43-1.11,0.21-1.48,0.69c-5.08,6.6-10.15,13.22-15.24,19.82
		c-5.59,7.25-10.65,14.87-15.97,22.31c-0.26,0.36-0.33,1.03-0.93,0.9c-0.55-0.13-0.45-0.75-0.54-1.2c-1.2-5.85-2.4-11.69-3.61-17.54
		c-0.05-0.26-0.07-0.55-0.19-0.78c-0.29-0.55-0.14-1.56-1.07-1.49c-0.92,0.08-0.68,0.97-0.79,1.61c-0.26,1.58-0.57,3.15-1.18,4.76
		c-0.82-3.71-1.54-7.44-2.47-11.13c-1.7-6.76-0.18-13.51-0.05-20.26c0.01-0.54,0.05-1.08,0.06-1.62c0.14-8.16,0.28-16.32,0.42-24.48
		c0-0.17,0.05-0.35,0.17-1c1.71,4.55,3.26,8.68,4.81,12.81c1.84,4.92,3.66,9.84,5.51,14.76c0.57,1.52,1.47,1.7,2.44,0.47
		c6.95-8.72,13.83-17.5,20.85-26.17c3-3.71,6.28-7.2,9.43-10.79C212.34,458.2,212.55,457.89,213.08,458.03z"/>
	<path class="st6" d="M418.32,458.57c0.44-1.24,1.6-1.89,2.4-2.83c0.44-0.52,1.05-1.01,0.44-1.73c-0.62-0.72-1.08,0.01-1.55,0.29
		c-5.17,3.14-10.47,6.03-16.33,8.15c1-0.93,2.01-1.84,2.98-2.8c3.02-3,6.02-6.02,9.02-9.03c0.53-0.53,1.25-1.14,0.74-1.89
		c-0.61-0.9-1.33-0.02-1.93,0.24c-2.14,0.95-4.26,1.96-6.64,2.65c2.14-2.15,4.12-4.5,6.46-6.4c2.95-2.39,5.5-5.17,8.27-7.72
		c7.45-6.83,15.22-13.32,22.1-20.76c2.74-2.97,5.44-5.97,8.15-8.96c0.36-0.4,0.88-0.86,0.39-1.38c-0.46-0.49-1.15-0.31-1.71-0.06
		c-2.27,1.03-4.49,2.19-6.8,3.12c-1.76,0.7-3.63,1.13-5.45,1.68c-0.07-0.16-0.14-0.31-0.21-0.47c2.17-1.87,4.32-3.77,6.51-5.61
		c5.84-4.91,11.22-10.28,16.31-15.96c4.14-4.61,8.16-9.3,11.89-14.23c0.98-1.29,1.57-0.37,1.89,0.42
		c2.66,6.61,5.53,13.17,6.95,20.19c0.66,3.28,1.47,6.55,1.28,9.96c-0.12,2.21-0.62,4.08-2.33,5.74c-2.84,2.77-5.25,5.97-8.1,8.73
		c-4.59,4.45-9.25,8.83-14.08,13.03c-6.36,5.53-13.04,10.61-20.11,15.17c-6.05,3.91-12.14,7.77-18.96,10.28
		C419.44,458.6,418.99,459.07,418.32,458.57z"/>
	<path class="st7" d="M163.28,596.27c2.88,0.24,5.62,1.21,8.53,1.34c5.24,0.24,10.33-0.3,14.98-2.86c3.42-1.89,4.73-5.47,6.01-8.84
		c5.98-15.65,11.04-31.62,16.07-47.6c2.98-9.49,6.01-18.97,8.67-28.55c0.16-0.58,0.81-1.21,0.03-1.83c0.93-1.05,1.87-2.09,2.8-3.13
		c0.1,0.05,0.21,0.1,0.31,0.15c-0.33,1.43-0.65,2.86-1.1,4.86c4.68-3.88,6.5-9.39,10.65-12.99c-2.96,4.7-5.92,9.4-8.87,14.11
		c-1.15,1.83-2.27,3.67-3.38,5.52c-0.32,0.52-0.67,1.13-0.23,1.69c0.49,0.62,1.09,0.19,1.65-0.03c4.42-1.77,8.84-3.53,13.62-5.43
		c-0.81,2.07-2.08,3.37-3.1,4.79c-3.76,5.27-7.62,10.46-11.43,15.7c-0.42,0.57-1.21,1.18-0.75,1.93c0.51,0.85,1.34,0.2,2.01,0.03
		c1.87-0.49,3.73-1.02,5.82-1.6c-0.83,1.01-1.88,1.22-2.68,1.8c-0.47,0.34-1.2,0.61-0.96,1.35c0.21,0.65,0.92,0.47,1.42,0.43
		c3.15-0.29,6.29-0.62,9.44-0.95c1.07-0.11,2.17-0.15,3.19-0.44c1.4-0.39,1.72-0.14,1.47,1.37c-1.63,10.26-4.46,20.05-9.89,29.05
		c-4.32,7.16-8.17,14.59-12.67,21.65c-2.39,3.76-5.04,7.33-7.94,10.72c-2.47,2.87-5.69,4.2-9.37,4.63
		c-7.84,0.91-15.7,1.41-23.6,1.25C167.56,604.26,166.4,604.02,163.28,596.27z"/>
	<path class="st4" d="M153.85,197.33c-0.56,0.65-0.57,1.25,0.18,1.77c0.49,0.21,0.63,0.66,0.76,1.12c0.26,1.06,0.5,2.12,1.05,3.09
		c2.08,1.31,4.52,1.21,6.77,1.3c10.84,0.46,21.32,2.82,31.77,5.47c2.54,0.65,2.66,0.57,2.53-2.06c-0.21-4.24-1.19-8.39-1.68-12.6
		c-0.52-1.97,0.88-1.79,1.98-1.62c3.59,0.54,7.18,1.07,10.77,1.63c3.72,0.58,7.48,0.96,11.17,1.71c1.93,0.39,3.3-0.86,4.99-1.02
		c1.39,0.45,1.74-0.75,2.28-1.52c4.66-6.58,9.76-12.72,16.02-17.9c3.71-3.07,7.84-4.45,12.56-4.89c6.19-0.57,12.39-0.89,18.59-0.96
		c5.79-0.06,11.59,0.45,17.38,0.78c1.88,0.11,3.74,0.45,5.61,0.68c0.2,0.95-0.51,1.35-1.13,1.66c-2.26,1.15-4.35,2.62-6.73,3.54
		c-2.56,0.29-5.12,0.36-7.66-0.05c-2.38-0.39-4.68,0.34-7.05,0.27c-6.42-0.18-12.79,0.39-19.05,1.98c-1.75,0.44-3.26,1.25-4.57,2.48
		c-5.57,5.25-10.62,10.93-14.82,17.35c-0.15,0.23-0.3,0.45-0.44,0.68c-2.21,3.5-2.14,3.9,1.06,6.26c0.25,0.42,0.13,0.84-0.19,1.08
		c-1.78,1.31-3.33,2.89-5.01,4.32c-0.34,0.29-0.83,0.47-1.3,0.15c-1.8-0.55-3.57-1.25-5.41-1.62c-5.53-1.13-10.54,0.82-15.36,3.1
		c-5.98,2.82-11.67,6.25-17.19,9.85c-7.18,4.69-14.25,4.17-21.38,0.36c-6.78-3.62-13.42-7.49-19.94-11.58
		c-4.03-2.52-8.39-4.31-12.96-5.57c-1.45-0.4-1.64-0.83-0.48-1.86c2.21-1.97,4.28-4.11,6.84-5.66c2.61-1.5,5.5-2.05,8.44-2.31
		C152.83,196.7,153.64,196.27,153.85,197.33z"/>
	<path class="st5" d="M527.98,335.98c0.37,3.47,2.49,6.21,3.91,9.24c0.59,1.27,1.49,2.4,2.14,3.65c2.89,5.57,7.86,7.75,13.71,8.71
		c3.96,0.65,7.94,0.1,12.06,0.42c-0.83,1.01-1.99,1.18-3.01,1.48c-1.73,0.52-3.51,0.89-5.27,1.3c-0.4,0.09-0.9,0.14-0.89,0.62
		c0.01,0.48,0.52,0.52,0.91,0.64c6.67,2.09,13.37,4.05,20.46,4.01c4.02-0.02,8.03-0.01,12.56-0.01c-2.15,2.02-4.02,3.59-6.05,4.98
		c-1.95,1.33-3.92,2.62-5.86,3.95c-0.26,0.18-0.53,0.45-0.61,0.73c-0.08,0.27,0.23,0.43,0.52,0.45c2.08,0.14,4.15,0.27,6.23,0.41
		c0.58,0.04,0.73-0.54,1.11-0.78c0.29,1.27,1.33,0.93,2.14,0.93c3.48,0.03,6.97,0.01,10.48,0.01c-0.08,0.82-0.7,0.73-1.07,0.88
		c-6.19,2.5-12.44,4.83-18.86,6.69c-0.71,0.21-1.88,0.16-1.8,1.24c0.08,1.06,1.26,0.83,1.97,1.02c2.25,0.58,4.58,0.92,7.18,1.99
		c-2.57,0.36-4.67,0.66-6.77,0.94c-0.33,0.04-0.92,0.09-0.97-0.04c-1.03-2.53-1.82-0.45-2.76,0.08c-1.33,0.76-2.88,0.4-4.61,0.99
		c1.45-4.06,3.74-7.38,4.51-11.41c-0.99-0.11-1.33,0.63-1.78,1.13c-2.75,3.07-5.5,6.14-8.2,9.24c-0.7,0.8-1.43,1.27-2.53,1.44
		c-6.26,0.95-12.51,2.04-18.78,2.97c-1.72,0.26-3.51,0.2-5.26,0.17c-2.68-0.05-2.95-0.38-3.09-3.03c-0.07-1.28-0.15-2.56-0.35-3.83
		c-0.2-1.29-0.9-1.43-1.78-0.51c-0.7,0.73-1.39,1.49-1.97,2.31c-0.64,0.91-1.15,0.78-1.93,0.15c-3.03-2.43-5.55-5.32-7.74-8.51
		c-0.46-0.67-0.59-1.23-0.16-2.03c7.19-13.12,10.91-27.22,11.99-42.08C527.79,336.34,527.91,336.16,527.98,335.98z"/>
	<path class="st5" d="M198.52,324.28c-3.6,1.65-6.89,3.89-10.61,5.34c-6.16,2.4-12.45,4.59-19.06,4.67
		c-7.45,0.09-14.51-1.76-20.2-7.09c2.11-3.66,4.32-7.29,5.13-11.53c0.28-1.5,0.53-3.01,0.65-4.52c0.06-0.78,0.21-1.11,1.04-0.97
		c4.51,0.79,9.07,0.96,13.62,1.38c0.8,0.07,1.4,0.08,2.08-0.8c-1.14-0.26-2.12-0.67-3.11-0.69c-6.16-0.11-12.26-0.93-18.28-2.09
		c-5.26-1.02-10.54-2.09-15.68-3.71c-2.61-0.82-5.35-1.2-7.73-2.69c6.86,0.63,13.75,0.45,20.62,0.4c7.7-0.06,15.24-1.35,22.64-3.42
		c4.06-1.13,7.97-0.69,11.91,0.52c9.07,2.8,18.18,5.45,27.03,8.9c0.19,0.07,0.43,0.07,0.58,0.18c0.72,0.57,2.04,0.75,2.03,1.76
		c-0.01,0.91-1.25,1.08-1.99,1.51c-0.81,0.48-1.58,1.09-2.46,1.39c-2.08,0.72-1.89,1.9-0.9,3.38c1.2,1.78,2.37,3.58,3.56,5.37
		c-3-1.45-5.21-4.12-8.46-5.31c1.19,3.15,3.51,5.61,5.19,8.74c-2.97-0.74-5.36-2.28-7.95-3.31c-0.52-0.21-1.17-0.92-1.59-0.39
		c-0.56,0.69,0.34,1.14,0.74,1.62C197.71,323.39,198.12,323.83,198.52,324.28z"/>
	<path class="st8" d="M324.39,327.37c2.91,1,5.82,2.02,8.73,3c0.73,0.25,1.64,0.95,2.24,0.18c0.56-0.73-0.44-1.3-0.83-1.87
		c-2.32-3.39-4.53-6.87-7.63-9.84c4.8-2.44,9.22-5.14,13.59-7.91c1.24-0.78,2.63-0.35,3.96-0.44c1.48-0.1,2.97-0.07,4.46-0.12
		c0.53-0.02,1.17,0.01,1.32-0.66c0.15-0.68-0.47-0.9-0.91-1.18c-1.82-1.12-3.65-2.22-5.95-3.62c3.5-0.33,6.47-0.61,9.45-0.89
		c0.6-0.06,1.22-0.05,1.81-0.16c0.63-0.11,1.45-0.04,1.55-0.97c0.09-0.78-0.63-0.98-1.13-1.25c-4.27-2.31-8.55-4.6-12.83-6.88
		c-1.24-0.66-2.5-1.27-4.09-2.08c2.75-1.64,5.26-3.15,7.78-4.64c2.03-1.21,4.07-2.39,6.09-3.61c0.72-0.44,1.1-0.56,1.36,0.5
		c4.84,19.75,16.21,35,32.42,46.91c0.25,0.19,0.49,0.4,1.01,0.84c-4.85,0.55-9.36,1.11-13.88,1.55c-10,0.99-19.96,2.47-30.02,2.87
		c-2.97,0.12-5.94,0.1-8.91,0.14c-0.59,0.01-1.19,0.1-1.64-0.51C329.96,333.46,327.09,330.61,324.39,327.37z"/>
	<path class="st5" d="M620.49,492.95c-3.49,2.04-6.98,4.07-10.45,6.13c-0.6,0.36-1.59,0.7-1.22,1.59c0.37,0.89,1.33,0.4,1.99,0.26
		c4.55-1.02,9.14-1.75,13.77-2.19c0.77-0.07,1.54-0.08,2.77-0.13c-4.4,3.19-8.43,6.11-12.45,9.02c-2.91,2.1-5.68,4.39-8,7.13
		c-4.85,5.74-10.89,9.03-18.38,9.95c-4.27,0.53-8.47,1.61-12.71,2.44c-0.58,0.11-1.18,0.18-1.97-0.1c1.78-1.27,3.57-2.52,5.33-3.82
		c0.55-0.4,1.6-0.72,1.1-1.63c-0.44-0.8-1.34-0.29-2.01-0.09c-10.71,3.18-24.05,3.31-33.25,1.58c0.27-0.78,1.01-0.56,1.54-0.68
		c9.92-2.37,19.87-4.52,30.16-4.28c3.18,0.08,6.33,0.32,9.46,0.9c0.65,0.12,1.44,0.53,1.76-0.33c0.31-0.84-0.59-1.09-1.1-1.47
		c-4.83-3.67-10.39-5.98-15.87-8.43c-0.71-0.32-1.4-0.67-2.02-1.31c1.11,0,2.22,0,3.34,0c0.56,0,1.16-0.03,1.33-0.65
		c0.19-0.69-0.44-0.9-0.91-1.14c-3.12-1.56-6.32-2.96-9.96-4.18c4.59-4.42,8.93-8.71,13.9-12.31c7.16-1.07,14.33-1.25,21.52-0.44
		c0.53,0.06,1.13,0.15,1.33,0.75c0.23,0.67-0.2,1.18-0.63,1.59c-1.55,1.48-3.39,2.63-5,4.29c5-0.98,9.82-1.92,14.71-2.42
		c3.14-0.32,6.31-0.51,9.46-0.62C618.88,492.32,619.8,492.2,620.49,492.95z"/>
	<path class="st6" d="M462.8,480.76c-0.71,0.78-0.47,2.16-1.22,2.69c-1.75,1.23-2.7,3.2-4.61,4.31c-6.32,3.68-13.06,6.39-19.89,8.92
		c-4.52,1.67-9.01,3.43-13.82,4.65c0.45-0.89,1.07-1.41,1.74-1.86c0.45-0.31,1.05-0.58,0.8-1.22c-0.3-0.76-1.05-0.5-1.59-0.37
		c-1.88,0.44-3.74,0.95-5.99,1.53c1.95-2.32,4.77-3.08,6.5-5.88c-8.82,2.07-17.27,3.93-26.09,2.98c1.63-0.7,3.23-1.48,4.9-2.09
		c4.64-1.71,8.92-4.15,13.34-6.31c0.51-0.25,1.38-0.38,1.21-1.13c-0.2-0.92-1.12-0.54-1.72-0.53c-3.09,0.05-6.14-0.15-9.64-1
		c5.87-1.76,11.2-3.57,16.44-5.69c9.97-4.02,19.31-9.24,28.48-14.79c7.1-4.3,13.72-9.23,19.92-14.75c0.57-0.51,0.71-1.55,1.77-1.47
		c0.65,0.74,0.31,1.56,0.07,2.3c-3.07,9.43-5.99,18.92-9.71,28.13C463.46,479.75,463.12,480.25,462.8,480.76z"/>
	<path class="st7" d="M331.46,458.42c6.81-4.4,13.07-9.46,18.54-15.46c4.85-5.32,9.69-10.64,14.62-15.89
		c5.92-6.31,12.9-11.17,20.36-15.39c2.49-1.41,4.78-3.27,7.68-3.88c-1.47,5.85-3.05,11.67-4.38,17.54c-2,8.83-3.82,17.69-5.7,26.55
		c-0.14,0.66-0.06,1.41-0.88,1.65c-4.04,1.16-8.09,2.3-12.36,3.09c1.66-1.97,3.31-3.94,4.99-5.9c0.43-0.5,1.24-0.94,0.79-1.66
		c-0.44-0.72-1.21-0.28-1.82-0.01c-5.32,2.42-10.8,4.45-16.25,6.54c-3.37,1.29-6.76,2.52-10.44,3.39c0.8-0.82,1.61-1.62,2.4-2.45
		c0.35-0.37,0.97-0.71,0.61-1.34c-0.33-0.58-0.94-0.35-1.45-0.24c-5.1,1.12-10.2,2.25-15.31,3.36
		C332.4,458.4,331.93,458.38,331.46,458.42z"/>
	<path class="st7" d="M459.15,558.19c3.25-0.53,6.49-1.09,9.74-1.58c8.95-1.37,17.94-2.07,27-1.66c1.88,0.09,3.76,0.29,5.64,0.38
		c0.56,0.03,1.35,0.28,1.51-0.57c0.11-0.62-0.53-0.85-1-1.13c-4.79-2.88-10.01-4.64-15.39-6.02c-1.35-0.35-2.83-0.22-4.2-1.04
		c8.58-1.93,17.06-3.73,25.71-4.56c3.18-0.3,3.21-0.22,2.03,2.68c-5.24,12.87-11,25.51-16.78,38.14c-2.8,6.11-7.31,8.41-13.41,8.94
		c-4.44,0.38-8.89,0.54-13.34,0.5c-1.74-0.02-2.98-0.71-3.87-2.13c-1.95-3.09-2.85-6.51-3.18-10.1c0.67-0.61,1.51-0.57,2.3-0.51
		c5.65,0.42,10.03-2.07,13.74-6.02c1.71-1.81,3.31-3.73,4.71-5.8c1.77-2.61,1.56-3.4-1.41-4.31c-5.54-1.7-11.21-2.91-16.92-3.96
		C461.02,559.27,459.65,559.63,459.15,558.19z"/>
	<path class="st4" d="M459.15,558.19c3.71,1.17,7.61,1.42,11.35,2.42c3.12,0.83,6.27,1.56,9.34,2.52c2.74,0.86,3.05,1.75,1.51,4.11
		c-2.6,3.97-5.68,7.52-9.53,10.33c-2.28,1.67-4.95,2.39-7.76,2.5c-1.48,0.06-2.97,0-4.46,0c-0.57-3.62,0.8-6.64,3.03-9.32
		c1.89-2.28,3.94-4.44,5.92-6.66c0.39-0.43,1.1-0.88,0.54-1.51c-0.62-0.69-1.1,0.05-1.47,0.46c-2.32,2.54-4.8,4.95-6.83,7.74
		c-2.01,2.77-2.98,5.87-2.87,9.3c-0.71,0.79-1.67,1.13-2.65,1.37c-5.84,1.39-11.72,2.51-17.77,1.6c-1.11-0.17-2.34-0.12-2.97-1.35
		c-1.64-4.66-0.56-8.42,3.6-11.27c1.89-1.29,3.63-2.8,5.42-4.22c0.37-0.29,0.79-0.69,0.49-1.19c-0.32-0.55-0.82-0.34-1.22-0.03
		c-2.93,2.27-5.99,4.37-8.51,7.12c-1.89,2.07-2.19,4.54-1.81,7.19c0.1,0.66,0.21,1.33,0.32,1.99c0.03,0.84-0.67,0.93-1.21,1.11
		c-4.05,1.32-8.2,1.36-12.38,0.95c-0.87-0.09-1.73-0.35-2.19-1.24c-1.86-5.73-0.85-10.56,4.23-14.3c3.09-2.27,6.01-4.78,8.99-7.19
		c0.71-0.57,1.45-0.93,2.4-0.8c8.26,1.12,16.36-0.31,24.48-1.52C457.79,558.18,458.48,558.22,459.15,558.19z"/>
	<path class="st4" d="M121.09,492.91c-5.1-3.7-8.84-8.34-10.07-14.67c-1.31-6.72-1.77-13.53-1.68-20.37
		c0.08-6.46,0.22-12.92,0.42-19.37c0.07-2.25,1.17-4.23,2.09-6.23c2.48-5.4,5.49-10.5,8.65-16.25c0.35,3,0.28,5.39,0.47,7.75
		c1.14,14,3.58,27.76,7.1,41.34c0.14,0.52,0.01,1.53,1.07,1.4c0.76-0.09,0.79-0.73,0.95-1.35c0.29-1.14,0.74-2.24,1.45-3.34
		c0,0.61,0,1.22,0,1.83c-0.05,8.56,0.06,17.11,1.24,25.6c0.11,0.8,0.06,1.62,0.08,2.43c-0.05,1.01-0.89,1.18-1.57,1.25
		c-3.21,0.33-6.43,0.22-9.65,0.24C121.44,493.18,121.27,493.02,121.09,492.91z"/>
	<path class="st6" d="M430.38,393.55c1.32-3.33,2.51-6.32,3.69-9.3c0.27-0.69,0.69-1.5-0.02-2.05c-0.9-0.69-1.27,0.37-1.77,0.8
		c-4.38,3.79-8.9,7.38-13.82,10.46c-0.33,0.21-0.72,0.33-1.4,0.26c0.79-1.32,1.56-2.64,2.36-3.95c0.84-1.38,1.74-2.72,2.53-4.13
		c0.3-0.53,0.97-1.12,0.36-1.81c-0.61-0.69-1.25-0.15-1.83,0.13c-4.45,2.1-9.04,3.84-13.65,5.53c-0.11,0.04-0.26-0.03-0.79-0.11
		c1.07-1.07,1.93-2.04,2.9-2.88c8.35-7.22,15.19-15.78,21.73-24.59c3.42-4.6,6.55-9.38,9.18-14.47c1.97-3.81,1.91-3.84,5.32-1.22
		c5.94,4.56,11.43,9.63,16.64,14.99c0.65,0.67,1.13,1.1,0.29,2.14c-5.38,6.66-11.09,13.03-17.34,18.89
		C440.4,386.32,435.72,390.04,430.38,393.55z"/>
	<path class="st6" d="M226.92,413.33c2.45,1.23,4.33,2.49,6.17,3.83c0.35,0.26,0.72,0.85,1.2,0.54c0.55-0.36,0.21-0.95,0.07-1.46
		c-1.14-4.37-3.64-8.08-5.88-11.91c-2.7-4.61-6.12-8.67-9.74-12.56c-0.87-0.93-1.22-1.99-1.58-3.65c2.51,1.31,4.63,2.41,6.75,3.51
		c0.74,0.39,1.56,1.26,2.34,0.45c0.66-0.69-0.11-1.48-0.47-2.19c-1.22-2.33-2.42-4.67-3.64-6.99c-0.5-0.95-0.5-1.53,0.81-1.44
		c4.02,0.25,8.04,0.5,12.06,0.72c1.41,0.08,2.83,0.1,4.25,0.07c0.88-0.01,1.63,0.17,2.07,0.98c4,7.46,7.64,15.07,10.61,23
		c-0.17,0.15-0.35,0.3-0.52,0.46c-1.33-1.56-2.67-3.12-4-4.68c-0.39,1.71,0.42,2.88,0.96,4.07c2.99,6.56,6.03,13.09,9.18,19.58
		c0.7,1.43,0.4,2.26-0.76,3.05c-4.22,2.89-8.34,5.9-11.94,9.58c-0.76,0.77-1.21,0.79-1.83-0.22c-4.93-8.02-9.87-16.04-15.58-23.54
		C227.27,414.3,227.21,414.02,226.92,413.33z"/>
	<path class="st6" d="M377.63,358.31c-4.04-1.13-8.07-2.26-12.1-3.39c3.04,4.61,7.57,7.33,11.58,10.74
		c-0.5,0.56-0.94,0.34-1.36,0.24c-10.77-2.52-21.16-6.22-31.48-10.11c-7.76-2.92-15.4-6.12-22.76-9.95
		c-8.93-4.64-17.28-10.14-25.04-16.56c-5.88-4.87-11.22-10.26-16.64-16.39c1.81,0.57,3.11,0.96,4.39,1.39
		c0.52,0.18,1.01,0.43,1.5-0.04c0.48-0.48,0.26-0.97,0.07-1.49c-0.62-1.68-1.21-3.37-1.85-5.19c1.02,0.11,1.35,0.77,1.79,1.22
		c10.6,10.89,22.75,19.74,35.88,27.29c2.76,1.59,5.77,2.55,9.04,2.44c2.29-0.08,4.63,0.25,6.88-0.06c4.65-0.63,8.58,1.3,12.55,3.1
		c7.8,3.53,15.55,7.18,22.52,12.24C374.42,355.1,376.38,356.28,377.63,358.31z"/>
	<path class="st9" d="M162.48,252.3c-8.31,1.62-15.03,5.57-21.32,10.4c-0.48,0.37-0.89,0.83-1.58,0.78
		c-2.77-0.2-5.48,0.48-8.25,0.45c-5.52-0.07-10.94,0.9-16.34,1.96c-1.31,0.26-2.16,0.06-3.18-0.88c-4.43-4.05-9.51-7.23-14.67-10.27
		c-1.04-0.61-2.05-1.41-3.18-1.74c-2.51-0.73-3.04-2.56-3.38-4.81c-0.19-1.29,0.25-1.35,1.2-1.33c9,0.23,17.64-1.56,25.98-4.83
		c1.69-0.66,2.19-0.1,2.68,1.43c1.01,3.14,2.38,6.16,4.22,8.92c1.2,1.8,1.94,1.77,3.01-0.06c2.02-3.43,3.92-6.94,5.27-10.68
		c0.65-1.81,1.57-1.88,3.04-1.25c3.83,1.64,7.7,3.2,11.52,4.89c4.62,2.04,9.19,4.19,13.78,6.29
		C161.58,251.73,161.85,251.93,162.48,252.3z"/>
	<path class="st5" d="M138.99,200.8c5.47-12.58,12.35-24.17,23.34-33.6c-0.69,4.83-1.97,9.02-2.27,13.84
		c5.55-3.85,10.96-7.19,16.92-10.31c-0.41,1.45-0.79,2.61-1.04,3.8c-0.11,0.54-0.78,1.16-0.16,1.65c0.48,0.38,1.01-0.16,1.49-0.36
		c5.6-2.33,11.27-4.43,17.2-5.76c5.17-1.16,10.41-1.94,15.66-2.62c0.58-0.08,1.19-0.01,2.13-0.01c-3.12,2.92-6.01,5.59-8.85,8.32
		c-0.53,0.51-1.63,0.92-1.23,1.82c0.33,0.74,1.35,0.35,2.06,0.38c7.19,0.26,14.31,1.19,21.43,2.11c2.1,0.27,3.63,1.24,4.39,3.34
		c0.28,0.76,0.46,1.77,1.61,1.85c-0.02,0.06-0.03,0.14-0.07,0.19c-1.25,1.58-2.21,3.81-3.85,4.57c-1.6,0.74-3.4-1.3-5.22-1.88
		c-12.58-3.94-25.45-5.14-38.55-4.23c-8.78,0.61-17.38,2.15-25.62,5.36C151.26,192.02,144.93,196.08,138.99,200.8z"/>
	<path class="st2" d="M132.85,465.79c0-1.82-0.01-3.64-0.01-5.47c0-0.63,0.1-1.35,0.67-1.59c0.81-0.34,0.88,0.61,1.24,1.02
		c0.61,0.71,1.17,1.47,1.78,2.18c0.21,0.24,0.47,0.53,0.86,0.35c0.38-0.18,0.32-0.57,0.3-0.89c-0.12-1.6-0.28-3.2-0.38-4.81
		c-0.03-0.43-0.15-1.23,0.45-1.14c2.49,0.35,1.35-1.16,1.24-2.21c-0.31-2.8-0.58-5.6-0.86-8.4c-0.03-0.34-0.01-0.75,0.42-0.77
		c0.47-0.02,0.63,0.42,0.83,0.78c1.36,2.47,2.57,5.06,4.45,7.19c1.78,2.02,3.73,3.9,5.66,5.77c0.45,0.43,1.12,0.88,1.83,0.45
		c0.79-0.47,0.31-1.14,0.25-1.79c-0.14-1.46-0.37-2.94-0.09-4.41c0.05-0.24,0.15-0.57,0.32-0.66c0.38-0.2,0.64,0.14,0.78,0.43
		c1.83,3.86,4.57,7.11,7.01,10.57c0.78,1.1,0.23,4.12-0.68,4.95c-0.28,0.26-0.57,0.41-0.86,0.1c-1.51-1.63-1.45,0.28-1.65,0.84
		c-1.07,3.11-1.48,6.39-2.08,9.62c-0.11,0.57,0.05,1.41-0.77,1.4c-0.73,0-0.69-0.86-0.93-1.38c-0.52-1.14-0.53-2.51-1.93-3.95
		c0,3.19-0.19,5.9,0.04,8.58c0.36,4.2,1.15,8.36,1.5,12.56c0.39,4.69,1.17,9.3,2.11,13.9c0.46,2.24,0.03,2.66-2.22,1.85
		c-3.28-1.19-6.51-2.55-9.76-3.85c-0.44-0.17-0.82-0.51-1.27-0.62c-4.89-1.22-6.05-4.97-6.22-9.3c-0.06-1.68-0.71-3.31-0.43-5.01
		c0.89-1.1,2.2-0.85,3.37-1.02c4.64-0.69,4.9-1.05,4.26-5.71c-0.83-6.01-2.12-11.92-3.65-18.05c-0.21,1.24-0.39,2.2-0.62,3.15
		c-0.15,0.6-0.33,1.25-1.01,1.39c-0.76,0.16-1.25-0.4-1.66-0.94C134.02,469.36,133.39,467.59,132.85,465.79z"/>
	<path class="st7" d="M288.9,177.18c1.9-1.09,3.79-2.2,5.7-3.28c0.75-0.43,1.6-0.72,1.99-1.59c3.52,0.1,6.92,0.94,10.34,1.64
		c1.58,0.32,0.55,1.2,0.18,1.76c-3,4.65-6.18,9.18-9.51,13.6c-5.57,7.39-11.61,14.38-17.98,21.09c-2.74,2.89-5.78,5.48-9.01,7.82
		c-1.28,0.93-2.74,1.43-4.34,1.47c-10.35,0.27-20.36-1.76-30.22-4.64c-2.23-0.65-4.25-2-6.37-3.02c1.14-0.11,1.72-1.04,2.35-1.78
		c1.19-1.41,2.92-2.14,4.15-3.47c0.71-0.62,1.42-0.18,2.09,0.04c7.3,2.29,14.79,3.6,22.37,4.67c6.43,0.91,10.84-2.02,14.97-6.21
		c6.66-6.75,12.57-14.11,18.12-21.77c0.87-1.2,1.71-2.43,2.63-3.59c0.3-0.38,0.76-0.56,1.39-1.03c-2.43-0.45-4.67-0.64-6.91-0.82
		C290.12,178.01,289.17,178.31,288.9,177.18z"/>
	<path class="st3" d="M620.49,492.95c-9.47-0.12-18.77,1.43-28.03,3.32c-0.07-0.16-0.14-0.32-0.21-0.47
		c1.96-1.57,3.93-3.14,5.87-4.73c0.46-0.37,1.21-0.76,1.06-1.36c-0.18-0.76-1.03-0.35-1.58-0.43c-3.61-0.51-7.25-0.49-10.88-0.38
		c-3.01,0.09-6.02,0.41-9.02,0.66c-0.43,0.04-0.8,0.04-1.07-0.35c5.08-4.26,10.61-7.9,16.41-11.04c2.58-1.4,5.76-1.19,8.69-1.64
		c4.6-0.71,9.23-0.65,13.97-0.28c-3.03,1.35-6.07,2.7-9.1,4.06c-0.59,0.26-1.54,0.39-1.38,1.21c0.21,1.06,1.19,0.58,1.86,0.52
		c11.81-1.01,23.58-0.81,35.3,1.15c0.59,0.1,1.17,0.25,2.26,0.49c-4.45,1.56-8.43,2.97-12.43,4.36
		C628.21,489.43,624.31,491.09,620.49,492.95z"/>
	<path class="st7" d="M151.77,480.92c1.06,0.9,0.78,2.38,2.03,3.52c0.91-4.11,1.7-8.01,2.7-11.85c0.14-0.55-0.72-2.79,1.57-1.76
		c0.08,0.03,0.5-0.55,0.67-0.9c0.61-1.19,1.31-2.37,1.75-3.63c0.64-1.86,1.29-1.16,2.06-0.15c0.45,0.59,0.86,1.23,1.4,1.73
		c2.82,2.61,3.57,5.73,3.47,9.58c-0.25,9.84-0.67,19.67-1.03,29.5c-0.08,2.15-0.34,4.3-0.32,6.45c0.01,1.19-0.41,1.34-1.44,1.03
		c-2.51-0.77-5.04-1.45-7.56-2.19c-0.59-0.17-0.95-0.46-1.12-1.21c-1.42-6.13-2.31-12.33-2.84-18.6
		C152.77,488.6,152.22,484.77,151.77,480.92z"/>
	<path class="st8" d="M514.48,381.05c2.46,3.6,5.19,6.84,8.6,9.44c0.51,0.39,0.68,0.71,0.22,1.3
		c-8.04,10.48-14.54,21.85-19.54,34.08c-0.04,0.09-0.19,0.13-0.4,0.27c0.32-5.24,0.63-10.4,0.94-15.56c0.02-0.4,0.1-0.81,0.09-1.21
		c-0.01-0.54-0.01-1.17-0.65-1.34c-0.69-0.18-0.92,0.46-1.15,0.91c-1.92,3.64-3.81,7.28-5.72,10.92c-0.15,0.29-0.35,0.56-0.8,1.29
		c0.63-5.33,0.76-10.26-0.51-14.94c-0.96-3.55,0.1-5.3,2.91-7.28c6.24-4.39,11.26-10.04,15.14-16.64
		C513.85,381.9,514.15,381.53,514.48,381.05z"/>
	<path class="st4" d="M533.66,535.5c1.39-1.53,2.86-3,4.16-4.61c0.81-1,1.55-1.31,2.76-0.72c3.95,1.9,7.73,4.09,11.09,6.91
		c1.77,1.48,2.7,3.41,1.98,5.9c-1.6,5.54-3.17,11.09-4.62,16.67c-0.87,3.36-1.62,6.77-1.91,10.25c-2.71-1.15-5.06-2.81-6.95-5.06
		c-1.66-1.97-1.55-4.4-1.4-6.75c0.27-4.03,0.6-8.06,0.29-12.11c-0.15-1.96-0.92-3.64-1.95-5.24
		C535.97,538.98,534.81,537.25,533.66,535.5z"/>
	<path class="st7" d="M474.17,445.53c2.21-8.37,4.5-16.73,6.6-25.13c0.71-2.85,1.69-5.67,1.88-8.64c2.99-3.74,5.95-7.5,8.47-11.58
		c0.21-0.34,0.37-0.81,0.82-0.79c0.59,0.03,0.61,0.66,0.77,1.06c1.09,2.84,1.68,5.83,2,8.83c0.42,3.88,0.33,7.8,0.02,11.69
		c-0.22,2.78-2.28,4.5-3.85,6.47C485.76,433.89,480.25,439.97,474.17,445.53z"/>
	<path class="st7" d="M224.15,196.12c-2.23,2.83-5.17,1.54-7.82,1.18c-6.53-0.89-13.03-2.03-19.54-3.08
		c-0.98-0.16-1.59,0.08-1.55,1.2c-0.84-3.44-1.71-6.87-3.26-10.38c2.8-0.35,5.38,0.12,7.91,0.31c7.36,0.57,14.68,1.58,21.71,4.01
		c1.27,0.44,2.47,1.06,3.71,1.57c1.12,0.46,1.45,0.98,0.55,2.07C225.12,193.91,224.19,194.8,224.15,196.12z"/>
	<path class="st1" d="M462.8,480.76c3.16-9.3,6.33-18.61,9.5-27.91c0.45-1.34,0.91-2.67,1.04-4.09c2.63-2.7,5.22-5.45,7.91-8.1
		c3.26-3.22,6.24-6.68,9.08-10.27c0.44-0.55,0.87-1.2,1.84-1.4c0.01,1.94-1.1,3.43-1.77,5.01c-3.57,8.37-6.32,17.02-9.03,25.69
		c-0.28,0.91-0.33,2.57-1.34,2.42c-1.15-0.16-0.48-1.71-0.58-2.65c-0.21-2,0.3-4.04-0.3-6.03c-0.17-0.55-0.18-1.33-1-1.29
		c-0.63,0.03-0.79,0.69-0.98,1.17c-2.13,5.4-4.62,10.63-7.32,15.75c-1.85,3.51-3.86,6.94-5.79,10.41
		C463.74,480.03,463.36,480.48,462.8,480.76z"/>
	<path class="st7" d="M434.52,581.68c3.22,0.97,6.48,1.29,9.86,0.98c4.61-0.42,9.11-1.26,13.53-2.6c0.93,3.91,1.44,7.97,4.14,11.46
		c-3.3,1.03-6.45,1.56-9.64,1.74c-3.9,0.22-7.81,0.5-11.7-0.18c-1.75-0.31-2.89-1.26-3.55-2.92
		C436.05,587.4,435.12,584.59,434.52,581.68z"/>
	<path class="st8" d="M556.82,392.36c-7.42,8.06-14.5,15.76-21.93,23.83c0.68-5.42,1.32-10.28,1.88-15.14
		c0.12-0.99,0.9-2.52-0.31-2.88c-1.3-0.39-1.35,1.38-1.79,2.24c-1.35,2.61-2.56,5.3-4.19,7.92c-0.14-4.12-0.28-8.24-0.43-12.35
		c-0.02-0.59,0.14-0.86,0.81-0.74c5.67,1.05,11.1-0.68,16.61-1.43C550.4,393.41,553.32,392.91,556.82,392.36z"/>
	<path class="st8" d="M192.83,192.15c1.55,5.12,1.99,10.43,2.72,15.7c0.13,0.93-0.28,1.05-1.03,0.84c-5.7-1.65-11.51-2.81-17.34-3.9
		c-0.6-0.11-0.96-0.14-0.72-0.97c0.94-3.27,0.93-6.66,1.03-10.03c0.56-0.66,1.32-0.84,2.13-0.99c3.56-0.65,7.16-0.81,10.75-1.2
		C191.23,191.5,192.11,191.51,192.83,192.15z"/>
	<path class="st10" d="M276.74,215.25c-1.37,3.13-3.95,4.98-6.86,6.48c-0.57,0.29-1.45,0.39-1.49,1.18
		c-0.05,0.84,0.87,0.91,1.42,1.24c2.07,1.23,4.15,2.43,6.68,3.91c-3.34,0.66-6.25,1.18-9.12,1.86c-0.55,0.13-1.77-0.26-1.57,1.1
		c-9.59-2.17-17.81-7-25.38-13.11c5.61,1.25,11.17,2.56,16.91,2.88c0.47,0.03,0.94,0.05,1.41,0.13
		C265.68,222.01,271.83,220.6,276.74,215.25z"/>
	<path class="st11" d="M150.23,258.32c4.1-2.68,8.73-3.91,13.46-4.85c0.61-0.12,1.17-0.08,1.75,0.22c7.44,3.75,14.9,7.47,22.34,11.2
		c0.09,0.05,0.13,0.21,0.28,0.48c-2.25,0.26-4.4-0.29-6.53-0.39c-3.05-0.15-6.09-0.62-9.16-0.74c-2.06-0.08-4.11-0.56-6.2-0.38
		c-0.17-0.09-0.3-0.23-0.38-0.4c-0.47-0.75-1.26-1.03-2.01-1.26c-3.8-1.15-7.61-2.27-11.59-2.66
		C151.4,259.46,150.15,259.88,150.23,258.32z"/>
	<path class="st6" d="M132.85,465.79c1.13,1.36,1.59,3.1,2.52,4.56c0.34,0.54,0.69,1.33,1.46,1.16c0.62-0.13,0.39-0.9,0.5-1.41
		c0.29-1.35,0.61-2.7,1.37-4.11c0.68,2.88,1.4,5.75,2.02,8.64c0.95,4.44,1.85,8.89,2.28,13.42c0.17,1.76-0.58,2.52-2.21,2.98
		c-2.08,0.59-4.25,0.5-6.32,1.05C133.28,483.36,132.68,474.59,132.85,465.79z"/>
	<path class="st7" d="M138.17,593.84c4.98,2.97,10.46,2.63,15.91,2.3c1.66-0.1,3.31-0.47,4.97-0.67c1.05-0.12,1.83-0.47,1.81-1.7
		c0.98,3.42,2.34,6.67,4.74,9.81c-6.17-0.06-11.99,0.33-17.81-0.25c-1.39-0.14-2.8-0.24-4.2-0.45c-2.45-0.36-3.91-1.58-4.57-3.91
		C138.56,597.3,138.07,595.62,138.17,593.84z"/>
	<path class="st5" d="M116.19,196.61c1.97,1.41,3.38,3.44,5.41,4.8c1.75,1.17,2.26,1.11,3.32-0.69c2.73-4.62,5.65-9.12,8.8-13.7
		c0.5,0.79,0.35,1.53,0.3,2.19c-0.28,4.29,0.79,8.38,1.69,12.5c0.12,0.52,0.3,1.04,0.76,1.38c-1.33,1.94-3.05,2.67-5.48,2.37
		c-3.55-0.44-7.14-0.02-10.71,0.11c-1.15,0.04-1.72-0.28-2.01-1.4C117.62,201.65,116.51,199.23,116.19,196.61z"/>
	<path class="st7" d="M417.04,582.09c5.36,1.53,10.61,1.11,15.79-0.82c0.91,3.09,1.64,6.23,2.92,9.2c0.43,1.01-0.3,1.02-0.85,1.1
		c-1.73,0.25-3.46,0.45-5.2,0.62c-0.94,0.09-1.89,0.01-2.83,0.1c-4.54,0.43-6.36-0.63-8.14-4.82
		C417.98,585.73,417.28,583.98,417.04,582.09z"/>
	<path class="st7" d="M267.03,399.69c2.89,5.37,4.46,11.2,6.08,17.03c0.43,1.54,0.74,3.13,1.65,4.5c-3.43,2.46-6.89,4.88-10.59,7.99
		C265.37,419.04,267.53,409.48,267.03,399.69z"/>
	<path class="st12" d="M192.83,192.15c-5.16,0.15-10.27,0.72-15.34,1.64c-0.08-2.16-0.37-4.3-0.91-6.39
		c-0.22-0.86-0.22-1.26,0.88-1.42c3.88-0.55,7.78-0.75,11.68-1.01c0.88-0.06,1.37,0.28,1.69,1.08
		C191.63,188.04,192.49,190.01,192.83,192.15z"/>
	<path class="st8" d="M126.06,252.29c-1.99-3.6-3.77-6.91-4.91-10.52c-0.23-0.74,0.27-1.37,0.95-1.79c2.92-1.79,6.03-2.1,9.3-1.17
		c0.73,0.21,1.09,0.43,0.69,1.39C130.39,244.24,128.53,248.19,126.06,252.29z"/>
	<path class="st8" d="M84.53,246.18c1.11,0.13,2.19,0.18,3.23,0.4c0.67,0.14,1.24,0.35,1.36,1.37c0.37,3.1,1,6.16,1.49,9.25
		c0.15,0.91,0.11,1.69-1.22,1.15c-3.66-1.47-6.69-3.79-9.1-6.89c-1.08-1.39,0.18-4.51,1.91-4.95
		C82.98,246.31,83.79,246.28,84.53,246.18z"/>
	<path class="st13" d="M150.23,258.32c0.4,1.1,1.36,0.6,2.08,0.69c4.66,0.62,9.23,1.57,13.52,3.56c0.39,0.18,1.5,0.4,0.18,0.98
		c-1.33,0.21-2.65,0.21-3.98,0.01c-6.38,0-12.75,0-19.58,0C144.94,261.05,147.63,259.75,150.23,258.32z"/>
	<path class="st7" d="M121.09,492.91c3.04-0.56,6.1-0.37,9.16-0.4c0.94-0.01,1.85-0.18,2.6-0.82c0.55,3.53,1.09,7.07,1.71,11.07
		C129.54,499.71,124.96,496.81,121.09,492.91z"/>
	<path class="st7" d="M126.38,591c2.12,0.54,3.69,2.26,6,2.6c1.45,0.21,2.75-0.04,4.12-0.15c0.27,1.65,0.54,3.3,0.79,4.96
		c0.16,1.02-0.55,1.01-1.27,1.07C130.21,599.95,127.25,597.36,126.38,591z"/>
	<path class="st14" d="M153.85,197.33c-2.73-0.21-5.31,0.54-7.91,1.22c-0.71,0.18-1.42,0.34-2.13,0.51
		c5.63-4.37,11.88-7.53,18.75-9.59C159.4,191.82,156.6,194.55,153.85,197.33z"/>
	<path class="st15" d="M93.41,212.36c0.2,0.01,0.54,0.01,0.87,0.05c0.45,0.06,1.04-0.03,1.19,0.53c0.11,0.43-0.36,0.68-0.65,0.94
		c-2.72,2.36-5.96,3.26-9.48,3.33c-0.3,0.01-0.73,0.16-0.86-0.28c-0.13-0.44,0.18-0.77,0.48-1.03
		C87.32,213.79,89.99,212.37,93.41,212.36z"/>
	<path class="st8" d="M155.85,203.3c-1.58-0.48-1.01-2.01-1.48-3.03c1.35-1.14,2.92-1.89,4.57-2.5c0.64-0.24,1.28-0.48,1.9,0.03
		c0.45,1.73,0.91,3.46,1.38,5.24C160.08,203.37,157.94,202.8,155.85,203.3z"/>
	<path class="st16" d="M342.47,275.14c3.33-1.39,6.35-2.65,9.37-3.91c0.12,0.2,0.24,0.31,0.23,0.4c-0.15,1.45,0.73,3.41-0.22,4.23
		c-0.95,0.82-2.83,0.03-4.3-0.13C345.98,275.56,344.35,275.81,342.47,275.14z"/>
	<path class="st17" d="M137.13,446.51c0.34,2.08,0.67,4.16,1.02,6.29c-0.94,0.07-1.4-1.33-2.22-0.62c-0.59,0.51-0.23,1.41-0.22,2.13
		c0.02,1.53,0.7,3.03,0.28,4.58c-2.12-1.72-2.74-3.63-1.86-5.97c0.82-2.18,1.69-4.34,2.54-6.52
		C136.82,446.43,136.97,446.47,137.13,446.51z"/>
	<path class="st18" d="M160.84,197.81c-1.56,0.18-2.94,0.84-4.26,1.63c-0.7,0.41-1.35,0.88-2.21,0.84
		c-0.11-0.39-0.23-0.79-0.34-1.18c2.31-1.8,4.02-4.27,6.81-6.24C160.84,194.77,160.84,196.29,160.84,197.81z"/>
	<path class="st19" d="M297.73,167.23c-1.21,2.62-2.63,3.97-5.45,3.14c-1.51-0.44-3.21-0.05-5.14-0.7c1.98-0.47,3.61-0.86,5.24-1.24
		C294.07,168.04,295.77,167.67,297.73,167.23z"/>
	<path class="st20" d="M168.73,199.16c-1.38-3.05-1.07-5.88-0.08-8.8C170.69,192.22,170.79,196.66,168.73,199.16z"/>
	<path class="st21" d="M563.21,395.22c0.61-3.5,0.91-3.74,4.18-3.48C566.16,393.1,565.02,394.35,563.21,395.22z"/>
	<path class="st2" d="M141.13,264.75c-2.74,0.48-5.51,0.31-8.28,0.31C135.58,264.31,138.37,264.85,141.13,264.75z"/>
	<path class="st2" d="M106.72,355.55c2.31,0.89,4.71,0.13,7.06,0.42c-2.33,0.77-4.72,0.24-7.09,0.28
		C106.14,356.25,106.17,355.77,106.72,355.55z"/>
	<path class="st2" d="M220.39,268.41c0.83,0.34,1.35,0.96,1.45,2.05c-0.67-0.54-1.35-1.09-2.03-1.63
		C220,268.69,220.19,268.55,220.39,268.41z"/>
	<path class="st2" d="M167.29,265.05c-1.68,0.03-3.36,0.13-5.01-0.3C163.95,264.84,165.65,264.33,167.29,265.05z"/>
	<path class="st2" d="M162.04,263.56c1.33,0,2.65,0,3.98-0.01c0.04,0.1,0.09,0.21,0.14,0.31
		C164.79,263.78,163.38,264.23,162.04,263.56z"/>
	<path class="st2" d="M125.91,237.13c1.4-0.57,2.8-0.56,4.21-0.03C128.72,237.11,127.32,237.12,125.91,237.13z"/>
	<path class="st2" d="M73.58,239.18c-0.01,1.34-0.01,2.68-0.02,4.02C73.06,241.86,73.04,240.52,73.58,239.18z"/>
	<path class="st22" d="M288.9,177.18c2.92,0.37,5.83,0.74,8.75,1.12c0.5,0.07,1.24-0.1,1.32,0.62c0.1,0.84-0.66,0.68-1.15,0.69
		c-1.04,0.01-1.25,0.92-1.7,1.54c-6.14,8.54-12.48,16.91-20.01,24.3c-1.3,1.27-2.74,2.4-4.02,3.69c-3.54,3.56-7.91,3.08-12.32,2.71
		c-8.08-0.7-15.86-2.74-23.58-5.06c-0.44-0.18-0.88-0.34-1.31-0.53c-2.06-0.9-2.51-1.96-1.49-4c2.16-4.31,5.2-8.02,8.26-11.7
		c1.68-2.02,3.69-3.76,5.31-5.82c3.57-4.53,8.44-6.13,13.9-6.8C270.19,176.79,279.54,176.95,288.9,177.18z"/>
	<path class="st5" d="M246.32,207.99c-3.67-0.61-7.16-1.85-10.69-2.97c-1.39-0.44-1.51-1.21-0.82-2.44
		c2.61-4.69,5.97-8.82,9.44-12.87c0.83-0.97,1.83-1.81,2.62-2.82c3.7-4.76,8.58-7.07,14.55-7.65c11.25-1.08,22.47-1.31,34.21,0.2
		c-1.78,2.37-3.4,4.52-5.03,6.67c-10.63,0.83-20.96,3-30.9,6.93c-2.65,1.04-4.86,2.56-6.47,4.97
		C250.97,201.38,248.08,204.3,246.32,207.99z"/>
	<path class="st3" d="M246.32,207.99c-0.34-0.58-0.31-1.05,0.13-1.64c2.67-3.53,5.18-7.18,7.95-10.63c1.74-2.16,4.43-3,6.95-3.91
		c8.23-2.94,16.64-5.11,25.39-5.77c1.28-0.1,2.58-0.96,3.84,0.08c-5.74,8.04-12.12,15.5-19.58,22.03c-2.33,2.03-4.87,2.91-7.98,2.57
		C257.4,210.12,251.76,209.68,246.32,207.99z"/>
</g>
</svg>
