<svg id="Layer_1" data-name="Layer 1" xmlns="http://www.w3.org/2000/svg" viewBox="0 0 1019.249 1419.975"><defs><style>.cls-1{fill:#817f82;}.cls-2{fill:#848285;}.cls-3{fill:#11161c;}.cls-4{fill:#e6d4e8;}.cls-5{fill:#9c80a7;}.cls-6{fill:#cfa6cb;}.cls-7{fill:#846c8d;}.cls-8{fill:#cfa6cc;}.cls-9{fill:#cea6cb;}.cls-10{fill:#e6d3e7;}.cls-11{fill:#836c8d;}.cls-12{fill:#f7f7f6;}.cls-13{fill:#9f82b4;}.cls-14{fill:#f9f7f9;}.cls-15{fill:#fefefe;}.cls-16{fill:#12161c;}.cls-17{fill:#151a1f;}.cls-18{fill:#191c23;}.cls-19{fill:#1d2026;}.cls-20{fill:#12171d;}.cls-21{fill:#12161d;}.cls-22{fill:#a586bc;}.cls-23{fill:#8f75a3;}.cls-24{fill:#48474a;}</style></defs><title>13</title><path class="cls-1" d="M1929.3,156.907a2.454,2.454,0,0,0,.1.648,4.058,4.058,0,0,1-3.384,1.259c-5.854.13-11.71.121-17.565.006a4.263,4.263,0,0,1-3.415-1.209.6.6,0,0,0,.052-.7Z" transform="translate(-1348.217 -156.907)"/><path class="cls-2" d="M2366.752,924.419l.714.041V939.6a4.745,4.745,0,0,0-.673.074A19.97,19.97,0,0,1,2366.752,924.419Z" transform="translate(-1348.217 -156.907)"/><path class="cls-3" d="M2250.92,948.17c-6.22,9.29-6.26,19.05-1.02,28.53,5.4,9.78,14.69,13.33,25.4,13.21,2.41-.02,3.02.43,3.79,2.61,3.05,8.65,7.84,15.54,17.77,17.59,15.69,3.23,28.89-1.56,40.05-12.27,9.94-9.54,16.19-21.72,22.22-33.9,3.8-7.66,7.16-15.53,7.66-24.27q-.015-7.62-.04-15.25c-.22-8.99-1.99-17.76-4.16-26.41-1.44-5.72-3.63-11.27-7.5-15.9a124.065,124.065,0,0,0-28.65-24.98c-11.48-7.34-24.37-11.87-36.28-18.34-6.17-3.35-12.91-5.89-18.26-10.48a235.4,235.4,0,0,1-21.04-20.63c-21.41-23.65-40.96-48.83-61.23-73.43-23.78-28.86-38.04-62.12-47.14-97.96a6.674,6.674,0,0,1,.08-3.98c3.66-11.47,6.71-23.12,9.68-34.79,6.9-27.07,2.21-52.17-13.13-75.22-9.93-14.93-20.51-20.8-39.96-15.88-11.86,2.99-22.99,7.93-34.53,11.76-1.2.4-2.37,1.08-3.62.56a20.734,20.734,0,0,1-10.81-9.17c1.49-.19,2.59-.41,3.7-.45a105.381,105.381,0,0,0,29.14-5.59c15.29-5.04,29.31-11.85,33.84-29.01,2.17-8.23,6.85-12.02,14.57-15.05,15.35-6.02,26.2-17.08,30.63-33.51,3.11-11.56,3.43-23.26,2.12-35.15a182.727,182.727,0,0,1-.09-35.08,6.9,6.9,0,0,1,2.48-4.81,93.214,93.214,0,0,0,17.56-22.1,24.191,24.191,0,0,0,3.24-10.72c.77-12.59-3.12-24.05-8.62-35.07a9.032,9.032,0,0,1-1.13-6.1c.88-4.18,1.6-8.4,2.7-12.52,4.07-15.31,11.44-29.15,19.37-42.71a13.714,13.714,0,0,0,.4-14.01,61.1,61.1,0,0,0-36.72-31.06c-7.88-2.54-13.19.27-16.08,8.06-1.57,4.22-2.86,8.56-4.07,12.91a19.5,19.5,0,0,1-6.27,9.65,44.273,44.273,0,0,1-13.24,7.79,8.546,8.546,0,0,1-7.81-.67,147.084,147.084,0,0,0-67.28-18.6c-24.71-.79-48.95,2.21-72.22,11.08-2.32.89-3.72.75-5.37-1.38a71.086,71.086,0,0,1-12.59-23.84,49.042,49.042,0,0,0-7.39-15.17,11.05,11.05,0,0,0-4.07-3.84,47.471,47.471,0,0,0-17.61-5.07l-24.36.06c-5.44.14-10.71,1.37-15.99,2.56-13.83,3.13-17.65,19.76-10.13,28.49,7.78,9.04,13.17,19.9,19.4,30.09,7.95,12.99,12.01,26.94,10.61,42.36-.99,10.99-4.4,21.35-7.29,31.88-6.42,23.33-15.49,45.99-18.07,70.3-.88,8.24-1.76,16.48-.05,24.8,3.28,15.9,12.85,27.23,25.45,36.6,7.63,5.66,16.22,9.56,24.62,13.8,2.11,1.07,3.05,1.71.94,3.84a35.889,35.889,0,0,0-4.43,6.1c-6.37,9.91-7.66,21.14-8.06,32.52-.1,2.6-.88,3.17-3.21,3a48.217,48.217,0,0,0-10.91.75,45,45,0,0,0-37.66,38.04,91.261,91.261,0,0,0,2.91,37.75c.37,1.31,1.36,2.57.37,4.27-6.63,11.4-11.39,23.86-18.78,34.79-17.61,26.08-34.86,52.41-53.83,77.54-1.18,1.56-2.31,3.16-3.82,5.21-3.22-17.11-6.43-33.49-9.36-49.92-5.76-32.28-12.39-64.34-21.03-96.02-11.76-43.2-33.65-79.74-68.38-108.17-35.16-28.78-75.61-43.65-121.05-44.9-14.67-.41-29.14,1.31-43.58,3.71-28.78,4.77-55.54,14.79-79.47,31.56-42.87,30.04-71.99,70.5-88.73,119.87-13.57,39.98-18.73,81.18-16.94,123.37a625.451,625.451,0,0,0,8.08,79.2c7.97,46.46,21.71,91.18,39.72,134.76,18.85,45.6,45.16,85.76,81.58,119.21,14.7,13.5,30.34,25.34,49.96,30.65,12.81,3.46,25.75,5.97,39.09,2.91,27.57-6.34,39.77-31.73,40.54-51.28.92-23.32-5.07-45.16-16.76-65.23-12.26-21.03-26.87-40.45-42.33-59.24a1037.729,1037.729,0,0,1-66.83-90.53c-24.77-37.82-38.17-79.75-43.34-124.42-2.34-20.19-2.2-40.48-.97-60.77,1.3-21.43,4.63-42.48,11.49-62.88,10.84-32.2,29.44-58.39,58.96-76.2,5.14-3.11,10.57-4.32,16.39-4.88,15.83-1.53,30.27,2.83,43.46,10.97,44.31,27.31,72.18,66.68,83.92,117.28,4.93,21.25,6.33,43.04,7.82,64.77a653.048,653.048,0,0,1-1.13,103.06c-2.24,25.11-3.67,50.24-3.84,75.44a849.956,849.956,0,0,0,5.45,105.2c2.15,18.24,4.22,36.48,8.15,54.44.36,1.62-.28,2.56-1.16,3.7q-9.435,12.285-18.77,24.65c-4.07,5.39-6.44,11.34-5.63,18.24a172.994,172.994,0,0,0,17.7,57.66c10.46,20.74,37.08,28.02,57.43,16.43,2.19-1.25,2.64.07,3.47,1.18a223.576,223.576,0,0,0,73.96,63.43,5.8,5.8,0,0,1,2.41,1.71c3.24,5.72,6.23,11.69,6.39,18.33.27,11.59-.75,23.16-1.85,34.7a545.8,545.8,0,0,1-8.76,56.26c-7.7,38.14-18.14,75.37-34.5,110.83-11.77,25.52-23.64,51.06-32.17,77.86a68.173,68.173,0,0,1-29.02,38.04c-10.22,6.64-16.96,16.34-21.96,27.3-7.42,16.27-4.59,35.91,7.24,46.93,13.9,12.94,30.5,17.61,49.15,14.39,14.89-2.58,27.34-9.23,35.13-22.85.82-1.45,2.09-1.57,3.44-1.89a250.964,250.964,0,0,1,28.54-5.15,8.262,8.262,0,0,1,6.61,1.65,45.189,45.189,0,0,0,14.75,7.36c12.81,4.02,25.41,2.12,37.86-1.48,8.34-2.42,15.81-6.55,21.4-13.44,15.49-19.08,8.37-48.34-14.6-59.75-2.49-1.23-3.87-2.4-3.98-5.44a53.568,53.568,0,0,0-1.82-10.76c-.68-2.76.03-4.12,2.52-5.67,13.75-8.59,19.29-21.6,18.19-37.28-1.03-14.57-8.25-25.67-21.36-32.48-2.08-1.09-2.78-2.16-2.41-4.29a21.577,21.577,0,0,0,.27-3,380.885,380.885,0,0,1,8.16-64.71c9.24-43.51,25.57-84.46,44.72-124.42,1.96-4.09,3.56-6,8.96-5.48,18.82,1.81,37.71,1.27,56.57-.37,29.04-2.52,57.52-7.66,85.1-17.28,1.77-.62,2.92-.44,4.18,1.08a75.789,75.789,0,0,1,8.95,12.6c18.53,34.98,15.72,69.51-3.07,103.22-4.59,8.25-8.67,16.04-7.81,25.76a13.031,13.031,0,0,1-2.82,9.08,35.128,35.128,0,0,0,3.42,44.96c11.7,11.83,27.7,15.14,43.76,7.63,6.16-2.88,10.15-1.33,14.53,2.17a82.365,82.365,0,0,1,7.08,6.25,510.774,510.774,0,0,1,49.92,59.17,42.425,42.425,0,0,0,21.83,16.08c23.9,7.42,48.32,9.47,73.04,5.34,10.04-1.67,19.87-4.54,28.04-11.19,3.08-2.51,5.93-5.32,6.52-9.39.31-2.12,1.12-2.04,2.66-1.8,9.25,1.46,18.07-.3,26.45-4.1,20.46-9.29,25.33-33.04,10.36-49.85-10.98-12.34-29.86-16.29-46.48-9.51a6.333,6.333,0,0,1-6.5-.42c-24.58-14.76-48.7-30.25-72.78-45.82-18.28-11.82-37.1-22.81-54.15-36.46-9.37-7.5-15.45-17.02-16.62-28.97-1.51-15.4-2.42-30.86-1.06-46.36,1.8-20.54,8.46-39.38,20.98-55.7a216.27,216.27,0,0,0,44.78-115.38c2.23-25.96,1.12-51.89-2.3-77.68a308.638,308.638,0,0,0-22.55-81.41c-10.75-25.06-24.26-48.33-43.53-67.89-4.69-4.76-10.58-8.58-14.33-13.94-9.77-13.99-19.01-28.34-25.05-44.55-6.67-17.9-8.74-35.81-2.85-54.27.58-1.82,1.19-3.42,3.14-4.09,4.64,10.84,9.05,21.64,13.86,32.26,7.19,15.88,13.7,32.1,24.88,45.9,16.03,19.77,32.17,39.46,49.02,58.52,12.85,14.54,26.45,28.4,39.73,42.55a25.566,25.566,0,0,1,6.79,15.16c1.37,12.4,4.77,23.9,14.01,32.98,2.2,2.16,2.22,6.63.37,9.35C2254.57,943.05,2252.67,945.56,2250.92,948.17ZM1960.39,491.54a44.584,44.584,0,0,1,13.05-27.57c1.59,11.96,3.5,22.85,2.05,33.98-.22,1.63-1.01,1.48-2.01,1.05-4.03-1.74-8.03-3.54-12.05-5.31A1.791,1.791,0,0,1,1960.39,491.54ZM1840.98,806.48c-8.85-9.3-13.78-20.87-18.73-32.44-.78-1.84.05-3.2.49-4.68,6.46-21.91,18.48-40.95,31.47-59.33,15.26-21.61,30.84-43.02,50.05-61.44.9-.86,1.64-1.9,2.84-3.31,4.64,13,9.07,25.25,13.38,37.55,5.27,15.03,10.98,29.98,14.34,45.56,5.79,26.82,2.9,52.49-11.78,76.26a11.441,11.441,0,0,1-4.59,4.18,159.358,159.358,0,0,0-26.17,17.83c-4.11,3.43-8.18,3.56-12.91,2.84C1863.41,827.07,1851.65,817.69,1840.98,806.48Z" transform="translate(-1348.217 -156.907)"/><path class="cls-4" d="M1766.656,1523.98c-.907-.307-1.763-1.5-2.711-.743-.856.681-.31,1.884-.131,2.841.646,3.445,1.6,6.855,1.957,10.327.874,8.463-3.883,14.523-9.738,19.444-12.6,10.593-27.232,13.345-43.167,9.651-6.794-6.506-9.98-14.733-10.825-23.86-1.352-14.609,6.005-25.313,16.238-34.527a52.389,52.389,0,0,1,19.517-11.262c4.4-1.373,6.863-4.263,8.649-8.281,6.684-15.036,11.117-30.817,15.573-46.587,9.05-32.029,17.756-64.18,29.39-95.39,6.69-17.948,14.183-35.6,20.421-53.727a665.494,665.494,0,0,0,20.5-70.805,134.625,134.625,0,0,0,2.8-27.025c.189-10.714.118-21.435.025-32.152-.1-11.743-2.049-23.322-3.344-34.959-1.573-14.14-3.119-28.285-3.446-42.527-.092-4.03-1.066-8-.772-12.059.118-1.632-.056-3.3,1.074-4.689a64.268,64.268,0,0,0,8.012-4.836c11.158-8.544,11.5-19.784,8.369-31.943a30.906,30.906,0,0,0-2.87-7.323c-4.947-8.835-6.509-18.293-6.106-28.3.323-8.012.671-16.11-2.96-23.663-.578-4.981.887-9.76,1.75-14.537a573.728,573.728,0,0,1,22.263-84.666,49.648,49.648,0,0,1,4.047-9.333c15.65-17.446,33.666-32.093,52.992-45.256,7.345-5,15.1-7.572,24.032-7.2,11.311.477,18.456,7.571,25.009,15.373,11.844,14.1,17.7,31.067,22.067,48.6,6.546,26.259,9.229,52.982,9.49,80.014a380.6,380.6,0,0,1-13.5,103.658c-5.552,20.5-17.24,37.534-30.387,53.731-19.449,23.959-37.958,48.478-52.246,76.069-21.919,42.328-37.994,86.626-46.272,133.562a411.08,411.08,0,0,0-4.98,103.848c1.268,16.2,3.309,32.262,6.2,48.562-6.963-.073-14.007-.72-20.362,4.907a50.97,50.97,0,0,0,6.254-.033c25.134-3.413,44.624,16.9,37.1,44.782-2.808,10.409-9.28,16.581-19,20.06-14.736,2.466-39.561-2.925-47.655-19.6-2.786-5.738-8.154-6.118-13.271-5.82-8.662.506-17.3,1.656-25.385,5.229C1769.8,1524.2,1768.314,1525.147,1766.656,1523.98Z" transform="translate(-1348.217 -156.907)"/><path class="cls-5" d="M1526.693,423.992c-15.861-.2-30.7,4.168-45.2,10.082-8.043,2.819-14.981,7.7-22.212,12.011-23.137,13.806-36.59,35.135-46.082,59.54-6.14,15.787-8.479,32.336-10.458,49.031-2.887,24.345-3.381,48.765-2.862,73.21a453.265,453.265,0,0,0,7.241,70.6c6.192,34.461,15.712,68.05,27,101.145,5.824,17.078,13.037,33.605,20.65,49.967a449.833,449.833,0,0,0,26.08,48.2,228.891,228.891,0,0,0,30.176,38.7c11.172,11.484,22.47,22.846,35.807,31.889,8.578,5.815,17.327,11.29,27.889,12.916a19.23,19.23,0,0,0,15.268-3.862c.97-.741,1.781-1.875,3.272-1.465-.679,19.573-13.367,39.557-37.606,42.285-20.219,2.275-38.254-4.743-54.634-15.839-14.919-10.107-26.889-23.559-38.567-37.132-23.53-27.345-41.214-58.146-54.978-91.495-10.137-24.558-20.107-49.119-27.622-74.616a564.792,564.792,0,0,1-18.288-85.588c-3.395-25.617-5.981-51.313-4.9-77.155,2.387-57.114,16.3-110.855,49.532-158.248,28.609-40.8,66.632-69.037,115.232-81.579,59.312-15.306,113.874-5.534,162.875,32.309,32.236,24.894,55.845,56.073,69.8,94.346,6.341,17.4,9.667,35.62,13.213,53.755,7.407,37.881,14.106,75.9,22.213,113.644.3,1.4.629,2.572-.3,3.9-19.6,27.863-31.3,59.538-43.785,90.832q-19.834,49.724-38.57,99.871c-.265.705-.586,1.389-.881,2.082-2-.348-1.973-2.133-2.23-3.487a224.828,224.828,0,0,1-4.035-30.342c-1.8-35.162-.144-70.36-.887-105.53-.395-18.639-.686-37.294-1.613-55.913-.39-7.818-.416-15.617-.568-23.426-.727-37.386-5.906-74.092-16.633-109.969-4.122-13.787-8.442-27.54-14.318-40.66-8.092-18.068-19.312-34.2-32.344-49.1-14.187-16.22-30.89-28.951-51-36.883a103.83,103.83,0,0,0-38.361-7.6C1538.228,424.413,1532.486,423.154,1526.693,423.992Z" transform="translate(-1348.217 -156.907)"/><path class="cls-4" d="M1902.07,163.818c11.943-1.812,23.838-1.067,35.7.781a7.842,7.842,0,0,1,5.409,3.645,52.751,52.751,0,0,1,7.112,14.06c4.111,13.192,11.486,24.513,20.258,34.961a30.1,30.1,0,0,0,14.743,10.038c.9.257,2.2,1.514,2.894-.207.535-1.326-.693-2.038-1.534-2.735-2.616-2.17-5.274-4.29-7.925-6.417-1.3-1.04-2.974-2.321-2.8-3.8.158-1.306,2.387-1.405,3.734-1.9,20.795-7.589,42.4-9.014,64.277-8.44a165.725,165.725,0,0,1,64.845,15.092c7.1,3.227,12.877,8.255,18.688,13.274a14.288,14.288,0,0,0,4.282,2.98c2.892,1.089,3.459.289,2.51-2.388-.269-1.9,1.43-2.219,2.5-2.859a53.429,53.429,0,0,0,23.134-27.5,33.77,33.77,0,0,1,6.3-10.7c1.851-2.052,3.963-3.572,6.957-2.348a75.294,75.294,0,0,1,18.135,16.886c2.866,3.844,3.851,8.193,2.182,12.825-.62,1.72-.517,4.28-3.66,4.008-.523-.045-1.24,1.456-1.77,2.3-8.907,14.238-13.938,29.947-17.643,46.452-2.82-2.985-5-6.685-9.394-8.02-.744,2.653,1.088,4.329,2.187,6.1,4.1,6.6,8.771,12.874,10.844,20.562,2.682,9.947,6.014,19.818,3.476,30.335-1.835,7.6-6.828,13.426-11.667,19.138-9.2,10.855-19.07,21.137-28.207,32.038-13.369,15.948-20.123,34.59-21.067,55.356a23.5,23.5,0,0,0,.616,7.13c.167.63.529,1.619,1.424,1.484a1.865,1.865,0,0,0,1.145-1.305c.394-2.7,2.517-3.423,4.558-4.427,7.327-3.6,13.152-8.757,16.42-16.44.271-.636.959-1.317-.239-1.746a48.585,48.585,0,0,0,5.414-11.936c.292-.885.748-1.907,2.057-1.753,1.545.726,2.266.417,2.748-1.721.965-4.283,1.762-8.605,2.581-12.92,1.251-6.594,1.281-13.267,1.172-19.943-.033-1.976.169-3.759,2.512-4.664,0,2.585.131,5.055-.023,7.508-.7,11.217.812,22.356,1.082,33.529.641,26.5-6.322,43.246-33.41,57.032-2.381,1.212-4.211,1.935-3.517-2.169a16.98,16.98,0,0,0-.769-7.756c-2.451,3.184-3.036,6.67-4.066,9.92-1.515,4.78-2.775,9.629-4.546,14.341-4.748,12.63-13.239,21.335-25.982,25.993-11.914,4.355-24.084,6.858-36.823,6.2a13.194,13.194,0,0,1-6.1-1.592,41.6,41.6,0,0,1-11.488-10.848c-11.1-14.984-25.337-26.187-41.183-35.618-17.816-10.6-34.873-22.422-49.922-36.626-14.358-13.552-22.732-30.326-23.423-50.792-.866-25.642,3-50.762,6.574-75.957,1.734-12.231,3.913-24.406,5.231-36.683.642-5.987-.421-12.051-1.759-17.967a114.725,114.725,0,0,0-14.345-35.194c-5.674-9.208-11.1-18.7-12.483-29.774C1899.623,169.482,1899.649,166.36,1902.07,163.818Z" transform="translate(-1348.217 -156.907)"/><path class="cls-5" d="M1941.192,1139.4c6.209-8.421,13.338-16.063,20.258-23.88,21.564-24.358,34.2-52.689,38.345-84.959a369.639,369.639,0,0,0,2.764-45.575c.019-4.274,1.19-8.148,2.453-12.087,4.586-14.3,6.436-29.183,9.377-43.837,4.894-24.379,13.06-47.651,23.472-70.239,5.7-12.362,13.366-22.82,24.748-30.223,20.166-13.116,40.564-11.607,60.278.745,16.91,10.6,28.8,25.531,35.675,44.505,8.015,22.124,15.16,44.49,19.171,67.7,3.187,18.438,3.311,37.038,1.5,55.7a228.85,228.85,0,0,1-21.374,76.959,69.48,69.48,0,0,1-7.473,13.046c-8.609,8.321-18.924,14.195-29.165,20.129a260.6,260.6,0,0,1-96.024,32.8c-21.3,2.935-42.722,2.892-64.141,2.424-5.257-.114-10.537-.876-15.789-1.5C1943.768,1140.928,1942.244,1140.7,1941.192,1139.4Z" transform="translate(-1348.217 -156.907)"/><path class="cls-4" d="M2306.271,1418.743c-7-12.3-18.358-17.25-31.66-19.883a57.964,57.964,0,0,0-26.709.978,16.262,16.262,0,0,0-8.8,5.2c9.97,0,19.218.072,28.465-.02a46,46,0,0,1,24.993,7.15,16.155,16.155,0,0,1,6.869,7.289c.232,2.294-1.525,3.4-2.966,4.473-15.7,11.662-33.123,16.95-52.816,15.031-8.291-.807-16.522-1.35-24.527-3.893a77.326,77.326,0,0,1-30.656-18.782c-19.709-19.117-39.872-37.77-58.987-57.495-1.894-1.954-4.807-2.952-5.628-5.923-.208-6.157-.069-12.373-2.007-18.316-5.266-16.14-17.408-23.906-33.263-27.062-1.6-.319-3.222-.568-4.833-.849-.967-7.628.824-14.975,3.9-21.662,8.811-19.135,11.776-39.506,13.968-60.11a192.284,192.284,0,0,0,1.431-26.771c-.481-14.361,3.564-27.675,9.432-40.514a194.345,194.345,0,0,1,18.868-31.828c10.354-10.348,20.1-21.209,27.632-33.844a220.078,220.078,0,0,0,28.481-80.034,208.269,208.269,0,0,0,.448-63.605c-2.752-17.876-8.06-35.211-13.807-52.368a435.524,435.524,0,0,0-29.376-67.565,5.262,5.262,0,0,1-.835-2.993c2.156,2.273,4.366,4.5,6.454,6.833q3.274,3.661,6.354,7.5t5.97,7.8c15.972,21.935,25.475,46.836,32.956,72.611,5.8,19.981,9.014,40.416,10.873,61.155,1.59,17.732,2.646,35.405,1.3,53.18-3.522,46.482-16.283,89.54-45.738,126.742-11.947,15.089-17.642,32.9-19.2,51.982a260.019,260.019,0,0,0,1,49.019c1.749,16.278,9.967,28.241,22.074,38.46,20.3,17.13,43.047,30.568,65.557,44.374,18.42,11.3,36.647,22.935,55.863,32.876,1.722.891,1.579,1.487.73,3.016-1.756,3.159-.88,4.463,2.754,3.815a43.95,43.95,0,0,0,8.124-2.786,42.342,42.342,0,0,1,25.176-1.658c12.88,2.817,24.144,18.271,21.275,30.171a4.635,4.635,0,0,1-2.754,2.407,40.489,40.489,0,0,0-5.457,2.53c-8.7,5.113-18.235,4.724-27.775,4.419A5.465,5.465,0,0,1,2306.271,1418.743Z" transform="translate(-1348.217 -156.907)"/><path class="cls-4" d="M2035.165,505.849c4.323.953,7.623,2.919,9.606,7.3a15.673,15.673,0,0,0,8.078,8.215c-1.488,1.774-4.483,1.542-5.567,4.28a32.388,32.388,0,0,0,15.592-1.446c9.726-3.34,19.426-6.756,29.144-10.119a96.14,96.14,0,0,1,15.017-3.533c6.461-1.126,11.9,1.187,16.4,5.743,10.09,10.208,15.435,23.112,19.936,36.344,5.835,17.153,4.107,34.4.1,51.716-7.289,31.487-19.874,60.733-36.435,88.366a6.714,6.714,0,0,1-.731.859c-1.45,1.12-2.9.474-4.3-.076-3.668-1.45-7.3-3.194-9.771-6.288-11.776-14.751-34.342-11.332-45.863-.136-9.991,9.709-22.441,13.031-36.31,10.623-7.06-1.226-12.238-5.43-16.347-10.8-15.04-19.67-26.3-41.216-30.895-65.784a155.549,155.549,0,0,1-2.075-19.9,142.462,142.462,0,0,0-5.805-32.687,210.625,210.625,0,0,0-10.029-27.715c-3.836-8.379-9.443-15.485-15.863-21.956a64.166,64.166,0,0,1-8.854-11.738,17.524,17.524,0,0,1-1.947-4.5c-1.535-5.481.552-8.567,6.272-9.021,7.489-.594,14.845.553,22.12,2.149a113.927,113.927,0,0,1,24.4,7.818c7.158,3.425,14.292,6.9,21.488,10.245,2.241,1.041,4.626,1.856,7.2,1.147,1.736-1.156,3.407-.114,5.056.228,5.967,1.238,11.917,1.842,17.777-.4a18.751,18.751,0,0,0,9.165-6.908C2032.5,506.739,2033.155,505.04,2035.165,505.849Z" transform="translate(-1348.217 -156.907)"/><path class="cls-6" d="M1951.846,808.2a43.617,43.617,0,0,0-21.029-3.162c2.431-5.248,4.842-10.156,7-15.172,6.72-15.622,8.071-32.034,6.985-48.792-1.223-18.856-8.74-36.026-14.4-53.684-4.86-15.175-9.974-30.27-15.141-45.345-.793-2.312-.447-3.7,1.389-5.134,2.58-2.013,4.964-4.277,7.542-6.292a8.364,8.364,0,0,0,3.656-6.682,49.618,49.618,0,0,0,7.587-17.95c2.9-14.068-3.166-27.616-15.6-34.313-6.721-3.619-15.911-2.614-21.5,2.517a297.348,297.348,0,0,0-43.46,50.219c-10.463,15.146-21.621,29.8-31.616,45.279-11.586,17.938-22.248,36.4-30.742,55.991-5.723,13.2-9.184,27.232-13.241,41.022-8.657,29.429-15.43,59.312-21.2,89.426a476.97,476.97,0,0,0-7.052,50.908c-1.308,15.988,1.231,31.152,9.95,44.982a42.476,42.476,0,0,0,10.077,11.13c6.879,5.324,14.533,9.624,20.88,15.629a84.968,84.968,0,0,1,24.442,41.031c.641,2.468.4,5.017.336,7.537a6.683,6.683,0,0,1-3.516,5.875c-2.365,1.432-4.858,2.677-6.866,4.663-3.459,3.422-5.731,7.315-5.49,12.389.063,1.337.234,2.824-1.077,3.828-6.134-8.567-6.489-18.513-.94-26.26.962-1.344,1.848-3.148,3.184-.262a2.187,2.187,0,0,0,2.8,1.322c1.387-.442,1.064-1.724,1.244-2.836.487-3.008-2.248-4.2-3.378-6.28a47.306,47.306,0,0,0-11.119-13.2c-3.727-3.19-7.856-4.864-12.789-4.325-11.155-6.59-21.479-3.242-27.153,9.139-4.281,9.344-7.094,19.116-6.736,29.566.189,5.53.016,11.058.278,16.6.411,8.65,4.78,14.937,10.929,20.308,5.208,4.549,10.314,9.217,15.9,13.333a57.6,57.6,0,0,0,17.411,8.842c1.413.433,3.02.619,3.67,2.3-8.535,4.305-16.942,1.852-25.152-.862-8-2.645-13.548-8.953-19.484-14.534a179.337,179.337,0,0,1-14.359-15,35.161,35.161,0,0,1-8.642-23.517c.021-3.779-.974-7.9.193-11.272,3.09-8.936-1.983-17.076-1.555-25.8.433-8.836-1.97-17.663-5.06-26.1a34.41,34.41,0,0,0-1.272-3.525c-.624-1.254-.644-3.459-2.538-3.205-1.506.2-1.281,2.2-1.648,3.475-9.752,2.21-16.317,9.061-22.84,15.876-5.252,5.487-7.59,11.744-5.774,19.637,1.7,7.374,2.976,14.769,6.442,21.627,1.68,3.325,3.742,5.081,7.619,4.74a48.684,48.684,0,0,1,9.058.024c5.272.523,10.157,1.961,13.085,6.971,0,6.255-.768,12.628,3.064,18.251.97,1.424-.338,2.363-1.042,3.265-6.976,8.928-16.37,12.135-27.361,11.252q-20.5-1.647-28.648-20.616a284.369,284.369,0,0,1-15.014-43.345c-2.463-9.861-.481-18.789,6.584-26.61,17.775-19.677,32.4-41.587,41.72-66.4,7.851-20.9,15.114-42.046,23.145-62.893,16.736-43.44,33.194-87,51.639-129.748,8.98-20.81,21.531-39.776,34.337-58.444,17.229-25.114,34.95-49.891,52.014-75.115,5.747-8.5,9.973-18,15.193-26.874,4.394-7.466,8.235-15.287,13.819-22.03a67.572,67.572,0,0,1,14.568-13.087c7-4.688,20.764-2.115,25.42,4.838a93.139,93.139,0,0,1,14.006,35.067c1.995,10.544,3.946,21.013,3.53,31.8a73.784,73.784,0,0,1-4.134,22.134,30.065,30.065,0,0,0,.92,22.761,111.782,111.782,0,0,0,26.234,37.378c6.67,6.363,13.2,12.631,21.186,17.432,12.121,7.288,23.649,7.228,35.768-.168,8.266-5.044,16.113-10.72,24.475-15.594a41.077,41.077,0,0,1,8.508-3.964c6.2-1.921,11.717-1.281,16.924,3.072a80.728,80.728,0,0,0,14.813,9.712c1.943,1,2.672,2.139,2.313,4.419-.742,4.719-1.135,9.493-1.672,14.245-1.326,1.083-2.631.35-3.925-.067a84.592,84.592,0,0,0-50.2-.818c-8.951,2.542-18.195,4.007-26.8,7.816-7.968,3.53-15.791,7.314-22.776,12.574-10.124,7.624-16.991,17.873-22.179,29.186a319.737,319.737,0,0,0-14.048,35.478A3.647,3.647,0,0,1,1951.846,808.2Z" transform="translate(-1348.217 -156.907)"/><path class="cls-7" d="M1593.255,975.956c-2.988,2.732-6.152,5.03-10.236,6.053-7.186,1.8-13.754-.348-20.042-3.162-11.905-5.329-22.157-13.2-32.026-21.656-7.77-6.657-14.861-13.991-21.9-21.35a238.965,238.965,0,0,1-35.979-49.064c-5.269-9.444-10.6-18.876-15.342-28.587a554.285,554.285,0,0,1-37.918-101.5c-4.429-16.723-9.056-33.383-12.3-50.379-2.435-12.776-4.166-25.661-5.8-38.575-3.119-24.663-3.194-49.407-2.824-74.165.189-12.644,1.446-25.252,2.821-37.847,1.551-14.217,3.305-28.335,7.632-42.041a161.7,161.7,0,0,1,20.061-41.17c10.4-15.593,25.4-25.507,41.334-34.253,3.3-1.81,6.668-4.1,10.75-4.19-2.918,2.18-6.7,2.919-9.335,5.551-.747.746-2.115,1.38-1.456,2.727.544,1.112,1.843.684,2.762.585a112.571,112.571,0,0,0,16.583-3.44,20.241,20.241,0,0,1,2.288-.228,158.67,158.67,0,0,0-17.052,13.628c-14.361,13.547-23.561,30.209-30.319,48.546a245.032,245.032,0,0,0-15.341,75.062c-1.908,45.837,3.319,90.588,18.169,134.17,7.995,23.465,20.458,44.527,33.3,65.442,17.58,28.624,39.5,54.108,58.994,81.35,14.648,20.475,29.314,41.015,40.016,63.946a146.72,146.72,0,0,1,13.278,48.521A50.749,50.749,0,0,1,1593.255,975.956Z" transform="translate(-1348.217 -156.907)"/><path class="cls-4" d="M1799.763,1054.1c-.484-6.865.878-13.073,6.581-17.581a34.7,34.7,0,0,1,5.98-3.887c2.636-1.31,3.366-3.308,3.532-6.082.422-7.081-2.217-13.325-4.99-19.523-7.068-15.8-17.851-28.488-32.721-37.383-15.026-8.989-23.188-22.583-26.991-39.115-2.015-8.758-1.347-17.691-.673-26.623.67-8.885,1.978-17.661,3.114-26.479,1.218-9.453,3.124-18.762,4.861-28.107q5.873-31.6,14.246-62.645c5.535-20.609,10.865-41.337,18.875-61.142,6.791-16.791,15.873-32.511,25.481-47.86,8.2-13.1,17.053-25.733,26.258-38.168,6.927-9.358,12.977-19.392,20.225-28.55,6.232-7.874,12.412-15.824,19.591-22.864,4.66-4.57,8.6-9.772,13.69-14,8.236-6.844,19.262-7.632,27.493-.807,5.6,4.64,10,10.184,11.977,17.467,2.636,9.728-1.563,28.947-8.44,33.189-2.06-1.97-4.159-.645-5.316.715-4.278,5.032-9.909,8.4-14.819,12.641-16.8,14.5-31.041,31.153-43.826,49.263-12.124,17.174-23.864,34.516-33.91,53.024-9.441,17.394-14.712,36.255-20.144,55.03-8.41,29.072-15.854,58.414-21.764,88.111a345.534,345.534,0,0,0-5.431,38.857c-.749,9.037,3.373,16.374,9.781,22.365,5.89,5.507,12.472,10.189,19.065,14.833,7.783,5.482,15.348,11.229,17.734,21.19,1.761,7.355,2.313,14.912,3.153,22.4.791,7.053,2.163,13.83,5.383,20.261,4.382,8.749,4.612,17.883,1.353,27.077-4.06,11.454-19.792,18.3-30.573,13.338A18.117,18.117,0,0,1,1799.763,1054.1Z" transform="translate(-1348.217 -156.907)"/><path class="cls-4" d="M1951.846,808.2c5.481-16.983,11.611-33.688,20.742-49.135,7.053-11.932,17.2-20.357,29.323-26.8,15.05-8.008,31.454-11.725,47.895-14.916a75.987,75.987,0,0,1,41.447,3.826,13.939,13.939,0,0,0,2.194.448c-.685,27.749,10.049,51.614,25.032,74.084a402.026,402.026,0,0,1,23.4,40.442,6.826,6.826,0,0,1,.768,2.577c-4.332-4.019-8.423-8.254-13.064-11.89-15.74-12.332-33.362-17.887-52.983-12.72-16.558,4.36-28.965,15.216-37.454,29.828-9.669,16.642-16.111,34.782-22.053,53.056-6.042,18.58-9.341,37.779-12.829,56.935A22.218,22.218,0,0,1,2003,958.2c-.141-9.761.243-19.506-.307-29.237-1.534-27.129-5.892-53.736-15.761-79.168-5.615-14.472-15.025-26.374-26.85-36.378A53.249,53.249,0,0,0,1951.846,808.2Z" transform="translate(-1348.217 -156.907)"/><path class="cls-4" d="M2300.8,894.158c-1.035-2.128-.308-4.777-2.1-6.927-4.138,3.69-5.488,8.514-6.024,13.669-1.226,11.776-.4,23.346,3.593,34.59,1.14,3.209,2.528,5.329,6.652,5.814,14.128,1.66,23.523,17.4,18.708,30.747a13.191,13.191,0,0,1-5.544,6.931c-9.7,3.32-17.789-.544-25.164-6.162a20.8,20.8,0,0,1-8.427-17.4,7.669,7.669,0,0,0-.93-4c-6.961-12.021-11.087-25.075-14.1-38.543a172.784,172.784,0,0,0-5.133-19.358c-4.673-13.367-10.571-26.128-20.715-36.469-8.031-8.187-16.707-15.69-24.737-23.882-17.548-17.9-32.457-37.8-45.936-58.884-10.394-16.255-20.455-32.659-28.844-50.074A366.793,366.793,0,0,1,2124.586,682a6.023,6.023,0,0,1-.127-4.414c5.047-10.464,10.042-20.95,13.817-32.061a405.9,405.9,0,0,0,16.068,44.383c8.332,19.243,20.733,35.84,33.765,52.034,18.072,22.455,35.793,45.2,55.058,66.665a277.45,277.45,0,0,0,24.3,23.785c3.812,3.32,8.549,5.238,12.963,7.6q17.577,9.417,35.284,18.588a111.429,111.429,0,0,1,32.734,25.115c5.131,5.836,7.105,13.191,8.71,20.566,2.875,13.208,5.154,26.567,1.914,39.979-2.842,11.765-9.659,21.689-16.215,31.666-5.089,7.742-10.856,14.814-18.669,20-4.776,3.17-9.839,5.517-15.706,5.627,1.2-5.491,5.107-9.321,8.339-13.561a7.962,7.962,0,0,0,1.392-1.753,33.226,33.226,0,0,0,11.408-14.074c2.66-5.816,5.8-11.388,8.434-17.232a30.683,30.683,0,0,0,1.7-20.225c-2.9-12.687-10.322-22.516-19.455-31.209a32.87,32.87,0,0,0-15.655-7.922C2303.309,895.258,2301.858,895.231,2300.8,894.158Z" transform="translate(-1348.217 -156.907)"/><path class="cls-7" d="M1526.693,423.992a4.61,4.61,0,0,1,1.353-.571c32.277-2.165,61.412,5.782,86.87,26.371,18.867,15.259,33.2,34.094,45.172,54.959,11.558,20.151,17.659,42.333,23.957,64.426a356.158,356.158,0,0,1,10.477,53c1.3,10.3,1.95,20.7,2.605,31.094.7,11.085.031,22.164.681,33.209.977,16.582.956,33.182,1.557,49.763,1.306,36.042.018,72.085.732,108.116a198.49,198.49,0,0,0,3.318,30.969c.72,4.027.73,8.208,2.566,12-6.852,17.122-10.539,35.431-19.364,51.808a99.167,99.167,0,0,1-11.137,17.2c-2-9.322-3.019-18.127-4.237-26.9-2.2-15.831-3.8-31.732-5.078-47.656-.917-11.421-1.3-22.884-1.913-34.329-1.2-22.175-.994-44.368-.363-66.543.576-20.256,2.275-40.455,4.014-60.654a641.314,641.314,0,0,0,1.276-84.236c-.818-18-2.656-35.893-4.79-53.768a197.231,197.231,0,0,0-83.684-139.472C1564.489,431.5,1546.86,424.032,1526.693,423.992Z" transform="translate(-1348.217 -156.907)"/><path class="cls-6" d="M1828.662,1067.65c.265,15.318,1.537,30.563,2.834,45.825,1.083,12.737,3.089,25.355,4.081,38.105,1.186,15.247.835,30.491.475,45.707-.378,15.958-3.875,31.532-8.319,46.875-4.157,14.354-8.335,28.7-13.124,42.857-6.447,19.049-13.772,37.769-21.288,56.425-6.389,15.859-11.234,32.275-16.087,48.66-5.915,19.972-11.607,40.01-17.37,60.027a283,283,0,0,1-12.175,35.239c-1.991,4.555-4.476,7.877-9.7,9.56a53.811,53.811,0,0,0-30.643,24.876c-6.012,10.347-5.917,21.314-1.032,32.242a108.373,108.373,0,0,0,6.556,11.452c-17.453-4.028-30.44-16.845-32.111-33.241-1.652-16.22,5.036-29.381,17.367-39.811,6.346-5.366,12.727-10.7,18.913-16.244,3.215-2.883,4.933-6.943,7.058-10.629,9.246-16.035,15.909-33.286,23.133-50.245,10.82-25.4,23.286-50.084,33.3-75.826,9.594-24.654,15.881-50.2,20.224-76.3,1.853-11.133,4.774-22.093,6.307-33.3,2.943-21.515,4.312-43.112,2.573-64.794-.451-5.621-2.556-10.972-4.811-16.177-5.14-11.858-10.225-23.741-15.4-35.586-1.116-2.557-1.1-3.629,2.242-4.5,15.362-3.994,23.393-17.77,19.906-33.406-.4-1.8-.869-3.584-1.388-5.716A41.355,41.355,0,0,0,1828.662,1067.65Z" transform="translate(-1348.217 -156.907)"/><path class="cls-8" d="M2035.165,505.849c-1.231.04-1.627,1.09-2.157,1.889-5.96,8.989-14.83,10.322-24.524,9.2a80.394,80.394,0,0,1-8.756-1.979c.291-2.525-1.734-3.458-3.286-4.639a91.763,91.763,0,0,0-13.946-8.225,4.234,4.234,0,0,1-2.635-4.355,219.447,219.447,0,0,0-3.64-39.04,43.088,43.088,0,0,0-1.794-6.522c-1.179-3.227-3.308-5.117-6.874-6.221-24.5-7.584-46.736-19.577-64.921-37.709-9.367-9.34-12.311-22.1-12.211-35.452.147-19.585,6.625-37.754,11.877-56.222,3.5-12.291,7.787-24.383,10.28-36.925,4.174-21,.688-40.991-8.873-60.036-5.986-11.924-13.155-23.169-20.2-34.452-5.355-8.579.345-16.62,6.8-18.967a38.172,38.172,0,0,1,11.759-2.372c-2.94,8.43.214,15.951,3.444,23.486,3.981,9.286,10.17,17.375,14.368,26.526a104.222,104.222,0,0,1,9.563,35.386c.768,9.555-1.867,18.578-2.83,27.846-1.033,9.941-2.744,19.811-4.129,29.717q-1.662,11.891-3.241,23.793a88.548,88.548,0,0,0-1.227,11.558c.028,12.2-.879,24.444.753,36.585,1.117,8.314,4.771,15.75,8.895,23.016,7.338,12.929,18.8,21.655,30.125,30.624,14.41,11.415,30.408,20.435,45.586,30.687a114.431,114.431,0,0,1,28.377,27.237c3.176,4.321,7.346,7.911,11.063,11.834-9.2-2.451-15.823-8.345-21.363-15.79-4.041-5.43-7.8-11.171-14.372-14.088a14.068,14.068,0,0,0-5.467-1.424,2.3,2.3,0,0,0,1.352,2.767c9.138,4.143,13.24,12.557,18.065,20.912-5.028-.164-8.381-2.559-11.116-6.017-5.076-6.415-10.034-12.926-15.2-19.271a55.126,55.126,0,0,0-5.945-5.776,3.078,3.078,0,0,0-3.848-.325c-1.1,1.023.3,2.328,1.091,3.123,7.893,7.889,13.408,17.58,20.145,26.339,3.094,4.022,7.158,6.769,12.638,6.18a11.894,11.894,0,0,1,9.668,2.984C2030.417,503.427,2032.914,504.5,2035.165,505.849Z" transform="translate(-1348.217 -156.907)"/><path class="cls-8" d="M1971.043,503.563c-7.74-1.613-15.022-4.822-22.774-6.442-7.633-1.595-15.26-2.941-23.1-2.615-5.928.246-7.627,2.663-5.827,8.3a27.274,27.274,0,0,0,7.234,11.8c14.926,13.6,22.638,31.1,28.232,49.882a173.787,173.787,0,0,1,7.145,40.6,119.7,119.7,0,0,0,10.857,44.685,211.562,211.562,0,0,0,20.239,34.775c10.141,14.022,23.812,15.043,38.215,10.622,7.544-2.316,13.081-7.733,19.1-12.466,10.237-8.05,30.507-10.1,41.194,2.443a23.791,23.791,0,0,0,14.747,8.431c-3.609,6.861-6.583,7.865-13.641,4.7a29.52,29.52,0,0,1-7.535-4.941c-10.668-9.459-19.9-10.658-33.978-3.733-4.826,2.374-9.192,5.675-13.8,8.5-8.608,5.284-17.545,9.716-27.774,10.921a21.809,21.809,0,0,1-13.368-2.875c-8.411-4.618-14.81-11.6-21.649-18.115-12.008-11.438-20.781-24.7-25.134-40.885-2.358-8.766-1.124-17.053.91-25.629,4.124-17.386,1.251-34.472-3.26-51.4a79.8,79.8,0,0,0-13.354-28.036c-9.745-12.892-20.877-14.895-36.031-6.184-8.028,4.615-13.449,12.015-18.74,19.661-1.511-1.061-1.163-2.843-1.681-4.243.628-1.9-.048-3.762-.252-5.605-1.956-17.734,2.687-33.119,15.926-45.516a4.21,4.21,0,0,0,.9-1.2c8.642-4.992,18.147-7.253,27.926-8.087a76.587,76.587,0,0,1,47.851,11.48A13.327,13.327,0,0,1,1971.043,503.563Z" transform="translate(-1348.217 -156.907)"/><path class="cls-7" d="M1941.192,1139.4c18.953,3.219,38.1,2.879,57.147,2.126a263.285,263.285,0,0,0,79.014-14.995,266.9,266.9,0,0,0,69.806-37.392,11.986,11.986,0,0,1,3.224-1.891c-6.937,12.32-16.141,22.827-26.7,32.054-25.141,21.964-54.365,35.954-86.757,43.6a487.948,487.948,0,0,1-57.061,10.389,420.673,420.673,0,0,1-61.907,2.347C1924.624,1162.622,1931.792,1150.31,1941.192,1139.4Z" transform="translate(-1348.217 -156.907)"/><path class="cls-6" d="M2124.459,677.588c2.055,8.851,5.625,17.178,9.085,25.517a351.323,351.323,0,0,0,20.928,42.639c11.589,19.847,23.892,39.253,37.789,57.6A313.6,313.6,0,0,0,2229.3,844c8.421,7.8,17.054,15.4,23.022,25.252a124.075,124.075,0,0,1,14.453,36.592c3.683,15.913,7.342,31.858,16.23,45.941a5.262,5.262,0,0,1,.418,3.317c-.612,10.2,7.941,18.86,15.451,21.586,5.583,2.027,11.211,3.491,17.21,2.3-6.818,5.916-14.7,6.013-22.65,3.463-7.591-2.434-12.593-7.722-13.9-15.853a11.06,11.06,0,0,0-3.261-6.474c-7.953-7.96-10.593-18.316-12.5-28.926-1.558-8.653-3.042-17.318-5.316-25.821-.652-2.439-1.516-4.791-4.414-6.549.048,6.96,1.49,13.4,2.02,20.351-3.932-3.977-5.765-8.707-7.317-13.517a39.988,39.988,0,0,1-2.169-9.52c-.465-7.19-3.861-12.723-8.4-18.023q-35.046-40.881-70.624-81.3a155.515,155.515,0,0,1-22.2-32.656c-10.658-21.052-22.078-41.715-31.215-63.518a6.3,6.3,0,0,1,.486-6.614C2118.073,688.662,2121.2,683.081,2124.459,677.588Z" transform="translate(-1348.217 -156.907)"/><path class="cls-5" d="M1855.881,859.346c-23.132,24.715-40.981,53.077-57.069,83.039-5.8-4.934-9.447-10.707-8.908-18.332A419.417,419.417,0,0,1,1800,857.758c5.561-23.705,10.062-47.673,17.278-70.977.3-.954.624-1.9,1.036-3.147l8.1,15.87a16.126,16.126,0,0,1,.953,7.415c-.511,10.911,2.582,20.871,7.62,30.422,3.618,6.859,9.691,11.137,15.536,15.7,1.389,1.084,2.931,1.979,4.238,3.167C1855.655,857.025,1856.87,857.816,1855.881,859.346Z" transform="translate(-1348.217 -156.907)"/><path class="cls-4" d="M1793.065,1102.34c-16.159-3.99-27.828-14.879-39.67-25.6a27.884,27.884,0,0,1-9.429-21.278c-.1-9.771-1.068-19.644,1.473-29.266,2.538-9.606,5.324-19.152,13.643-25.713,3.945-3.112,16.2-2.67,19.818.725.15.14-.084.689-.138,1.047a7.832,7.832,0,0,0-4.591,3.713c-5.737,11.279-9.84,22.848-6.055,35.767a39.284,39.284,0,0,0,9.771,16.3c.953.989,2.259,2.789,3.718,1.521,1.263-1.1-.395-2.426-1.04-3.557-.354-.62-.784-1.2-1.441-2.184,7.267-.658,13.737-.831,17.687,6.367a11.018,11.018,0,0,0,4.731,4.769c3.419,1.6,4.363,4.423,4.9,7.771,1.78,11.048.012,20.806-9.733,27.782A7.761,7.761,0,0,1,1793.065,1102.34Z" transform="translate(-1348.217 -156.907)"/><path class="cls-6" d="M2123.847,1352.864c5.778,4.311,10.585,9.662,15.709,14.674,11.885,11.628,23.512,23.536,35.749,34.781,7.765,7.135,14.731,15.149,23.361,21.36a73,73,0,0,0,32.1,13.159,123.361,123.361,0,0,0,24,1.54c15.368-.7,29.12-6.056,41.347-15.328a26.776,26.776,0,0,0,3.308-3.6c2.162,3.228,4.144,7.317,2.73,10.565-3.457,7.942-5.656,16.919-15.45,20.607a98.724,98.724,0,0,1-42.912,5.827c-14.222-1.078-28.155-3.683-41.393-9.091a50.668,50.668,0,0,1-22.822-18.442c-13.983-20.078-29.57-38.835-47.621-55.435a43.487,43.487,0,0,0-13.953-8.912C2121.156,1361.168,2122.657,1357.088,2123.847,1352.864Z" transform="translate(-1348.217 -156.907)"/><path class="cls-6" d="M2131.346,1125.752c-2.332,6.162-6.328,11.384-9.756,16.9a121.8,121.8,0,0,0-17.3,45.482c-.568,3.571-.168,7.3-.177,10.955a284.833,284.833,0,0,1-9.292,70.638c-1.089,4.22-3.074,8.238-4.9,12.235a64.608,64.608,0,0,0-5.528,22.142,14.387,14.387,0,0,1-.657,2.532c-4.276.219-8.558.494-12.509,2.35-2.563,1.2-2.44-.85-2.476-2.123-.224-7.831.858-15.68,5.561-21.944,13.267-17.673,16.078-37.938,15.417-59.031-.457-14.609-2.161-29.129-8.451-42.646a80.88,80.88,0,0,0-11.549-17.919C2092.85,1155.687,2112.714,1141.669,2131.346,1125.752Z" transform="translate(-1348.217 -156.907)"/><path class="cls-6" d="M1861.167,863.047c-2.587,7.983-5.255,15.941-7.746,23.954a558.215,558.215,0,0,0-16.651,65.853c-1.134,6.244-1.514,12.673-3.664,18.729-6.1-9.3-15.477-14.917-24.062-21.42-4.727-3.581-4.781-3.575-1.959-8.543,11.6-20.418,22.555-41.247,37.5-59.563C1849.9,875.538,1855.054,868.872,1861.167,863.047Z" transform="translate(-1348.217 -156.907)"/><path class="cls-4" d="M2079.931,1311.959c11.619-.946,21.638,2.641,29.484,11.245,7.521,8.249,10.036,17.969,6.86,28.9-8.66,5.493-17.624,5.427-26.609,1.085-10.715-5.178-17.69-16.923-16.743-28.189C2073.364,1319.761,2074.789,1314.793,2079.931,1311.959Z" transform="translate(-1348.217 -156.907)"/><path class="cls-6" d="M2079.931,1311.959c-9.076,10.093-7.719,21.615.34,32.477,7.128,9.607,20.8,13.349,32.09,8.854,1.278-.509,2.46-1.278,3.914-1.186-1.119,7.091-6.012,10.947-11.931,13.925-18.723,9.423-42.108-1.252-46.769-21.587-1.764-7.7-1.225-15.513,3.685-22.033C2065.822,1316.35,2071.993,1312.374,2079.931,1311.959Z" transform="translate(-1348.217 -156.907)"/><path class="cls-9" d="M1766.656,1523.98c5.333-1.357,10.18-4.243,15.735-4.926,7.053-.867,14.012-2.931,21.238-1.168,2.833.691,5.083,1.76,6.5,4.532,6.142,12.035,16.695,17.6,29.487,19.694a96.339,96.339,0,0,0,17.963,1.619c-13.969,6.217-28.005,6.935-42.079.4-6.287-2.921-9.987-8.65-14.439-13.563-1.52-1.676-3.259-5.139-5.229-3.724-2.295,1.649.32,4.49,1.535,6.526,2.857,4.787,2.931,4.774-2.557,4.967a88.868,88.868,0,0,0-20.38,3.311c-2.514.69-2.847-.119-2.619-2.168A18.334,18.334,0,0,0,1766.656,1523.98Z" transform="translate(-1348.217 -156.907)"/><path class="cls-7" d="M1855.881,859.346c-.607-2.684-3.092-3.49-5-4.718-12.454-8.032-20.09-19.292-23.339-33.718-1.6-7.1-1.057-14.256-1.135-21.4A120.786,120.786,0,0,0,1849.9,825.26a60.78,60.78,0,0,0,27.375,13.106C1870.056,845.441,1862.968,852.393,1855.881,859.346Z" transform="translate(-1348.217 -156.907)"/><path class="cls-6" d="M2300.8,894.158c10.3.694,18.445,5.711,24.934,13.29,6.706,7.832,12.6,16.182,14.9,26.658,1.655,7.539,1.505,14.568-1.94,21.622-2.756,5.642-4.968,11.546-9.085,16.422.878-4.039,1.842-8.055,1.544-12.258-.244-3.442-.72-6.991-3.092-9.467-4.634-4.836-2.9-9.591-.524-14.455.658-1.351,1.445-2.522,1.374-4.159-.076-1.716.158-3.334-2.413-2.98-1.015.14-1.487-.816-2.04-1.475a144.951,144.951,0,0,0-19.738-19.09c-3.067-2.5-4.9-5.151-4.186-9.238A39.173,39.173,0,0,0,2300.8,894.158Z" transform="translate(-1348.217 -156.907)"/><path class="cls-4" d="M1721.138,1050.879c-5.77-5.709-12.979-6.91-20.559-5.976-5.695.7-8.6-1.573-10.812-6.671a76.357,76.357,0,0,1-6.37-29.127c-.113-5.237,3.917-8.606,6.83-12.173,5.023-6.148,11.437-10.839,18.389-14.724,1.616-.9,3.234-1.432,4.932-.2.13,1.6.22,2.583-1.592,4.019-6.595,5.226-13.444,10.227-19.151,16.507-3.272,3.6-4.7,7.374-2.5,12.3a41.446,41.446,0,0,1,3.629,16.82c0,.931.108,2.039.96,2.3,1.391.417,1.337-1.173,1.856-1.9a3.655,3.655,0,0,0,.75-2.108c-.259-4.932,2.828-4.191,5.938-3.677a30.481,30.481,0,0,1,9.535,3.326c5.811,3.123,8.413,8.011,8.3,14.492Q1721.213,1047.479,1721.138,1050.879Z" transform="translate(-1348.217 -156.907)"/><path class="cls-6" d="M2173.149,189.365c-5.432.136-7.728,4.217-9.849,8.193-2.658,4.984-4.558,10.4-7.462,15.219a52.434,52.434,0,0,1-19.489,18.454,21.094,21.094,0,0,0-2.087,1.538l-11.94-12c15.847-1.8,23.225-12.446,27.8-25.957,4.713-13.908,8.65-15.334,20.715-7.313C2171.661,188.047,2172.382,188.741,2173.149,189.365Z" transform="translate(-1348.217 -156.907)"/><path class="cls-9" d="M1937.642,485.99c-2.718-.447-5.428-.966-8.16-1.31-1.418-.178-2.484-.448-2.307-2.2,1.34-13.261,4.677-25.833,12.365-36.993,1.649-2.392,3.164-2.859,5.876-1.574a98.852,98.852,0,0,0,19.637,7.355c5.241,1.225,7.028,4.32,7.172,9.19-1.3-1.3-1.061-3.509-2.78-4.485-10.268-.175-17.556,5.178-23.593,12.79-2.958,3.729-4.308,8.22-5.8,12.639C1939.5,483.054,1939.239,484.88,1937.642,485.99Z" transform="translate(-1348.217 -156.907)"/><path class="cls-10" d="M1857.783,1453.316c-3.217-19.816-1.354-39.4-1.972-59.083C1875.794,1403.548,1877,1439.393,1857.783,1453.316Z" transform="translate(-1348.217 -156.907)"/><path class="cls-11" d="M1790.151,1135.541a193.707,193.707,0,0,1-56.234-47.718c-2.3-2.832-4.454-5.778-6.736-8.623-1.034-1.289-1.345-2.7.107-3.566,1.4-.837,1.58,1.074,2.321,1.707,8.588,7.333,15.975,15.914,24.485,23.362,6.576,5.756,13.425,10.12,22.455,9.972a2.286,2.286,0,0,1,2.278,1.577C1782.569,1120.031,1786.369,1127.781,1790.151,1135.541Z" transform="translate(-1348.217 -156.907)"/><path class="cls-4" d="M1937.642,485.99c2.552-8.693,5.3-17.188,12.556-23.47,5.134-4.447,11.072-6.67,17.532-7.967,1.168-.235,1.6.4,1.715,1.424a63.719,63.719,0,0,0-13.964,27.889,17.021,17.021,0,0,0-.351,2.591c-.253,4.726-.221,4.658-4.538,3.31C1946.3,488.427,1941.961,487.243,1937.642,485.99Z" transform="translate(-1348.217 -156.907)"/><path class="cls-9" d="M2260.444,943.312a43.283,43.283,0,0,0,12.516,22.611,3.544,3.544,0,0,1,1.119,1.873c.582,4.846,2.758,9.012,5.566,12.966-10.395,2.646-19.985-1.59-24.5-10.663C2250.6,960.954,2252.669,949.655,2260.444,943.312Z" transform="translate(-1348.217 -156.907)"/><path class="cls-7" d="M1719.471,1028.208a46.877,46.877,0,0,0-18.4-6.76,2.323,2.323,0,0,1-2.086-1.257,14.056,14.056,0,0,1,2.775-16.114,82.759,82.759,0,0,1,10.425-8.065c1.955-1.3,2.738-1.471,3.236,1.3C1717.22,1007.312,1718.556,1017.362,1719.471,1028.208Z" transform="translate(-1348.217 -156.907)"/><path class="cls-9" d="M1789.545,1049.025c-2.038-.46-3.569-.92-5.133-1.137-5.853-.811-5.922-.783-5.7-6.956a206.268,206.268,0,0,1,3.953-32.787c6.106,2.577,10.72,6.72,15.071,11.241,1,1.04.148,1.461-.492,2.042C1789.1,1028.815,1786.8,1037.927,1789.545,1049.025Z" transform="translate(-1348.217 -156.907)"/><path class="cls-9" d="M2306.271,1418.743a41.571,41.571,0,0,1,6,.049c12.232,1.828,22.66-3.341,33.143-8.359-1.58,10.965-10.31,19.243-22.353,21.188a76.062,76.062,0,0,1-11.594,1.074c-1.464.01-2.377-.225-2.348-1.987C2309.192,1426.49,2307.438,1422.681,2306.271,1418.743Z" transform="translate(-1348.217 -156.907)"/><path class="cls-12" d="M2147.96,398.353c-1.836,2.045-1.96,4.8-2.956,7.191-1.043,2.5-1.84,5.145-4.516,6.5-4.612,5.6-8.674,11.786-15.755,14.748-1.156.483-2.3.987-3.895,1.672.355-2.444.633-4.576.985-6.7.159-.951.543-1.577,1.79-1.242,6.287,1.686,9.284-2.81,11.966-6.986,3.859-6.007,5.26-12.984,6.295-19.951a115.844,115.844,0,0,0,1.584-18.023c-.038-4.461,4.279-6.224,6.447-10.6C2151.3,376.973,2148.586,387.607,2147.96,398.353Z" transform="translate(-1348.217 -156.907)"/><path class="cls-9" d="M2320.31,941.991c-4.088-2.638-8.055-4.769-12.618-5.484a3.153,3.153,0,0,1-2.52-1.981c-3.3-6.913-5.151-14.094-4.426-22.046,2.429.652,4.057,2.217,5.813,3.578a100.222,100.222,0,0,1,15.03,14.825c1.79,2.119,2.335,3.859.657,6.279C2321.346,938.46,2321.019,940.154,2320.31,941.991Z" transform="translate(-1348.217 -156.907)"/><path class="cls-9" d="M2318.209,986.224c.134,2.3-1.789,3.523-2.929,5.024-2.5,3.292-4.473,6.9-6.8,10.29-12.311,1.091-21.317-4.209-24.692-14.513a2.7,2.7,0,0,1-.05-2.36C2294.87,992.884,2306.48,991.075,2318.209,986.224Z" transform="translate(-1348.217 -156.907)"/><path class="cls-13" d="M2124.739,410.159c1.17.852.782,3.322,3.028,2.761,1.752-.438,2.028-2.014,2.559-3.434,2.249-6.014,1.766-12.483,3.155-18.646.8-3.535,2.881-6.172,5.272-8.766-.722,11.437-2.76,22.484-8.83,32.427a10.9,10.9,0,0,1-2.314,2.461,3.156,3.156,0,0,1-3.567.177c-1.546-.725-.571-1.92-.338-2.931C2124.011,412.876,2124.378,411.558,2124.739,410.159Z" transform="translate(-1348.217 -156.907)"/><path class="cls-14" d="M1893.849,499c-.455,2.593-2.578,4.07-4.139,5.833-7.374,8.326-10.792,18.174-11.942,29.06a50.2,50.2,0,0,0-.011,13.457c.207,1.274.593,2.766-.485,3.972-2.834-12.672-2.944-25.165,3.007-37.08A36.5,36.5,0,0,1,1893.849,499Z" transform="translate(-1348.217 -156.907)"/><path class="cls-15" d="M2022.36,416.537c-4.1,2.358-8.414,3.552-13.156,2.4-15.7-4-30.808-9.134-41.669-22.227-.789-.952-1.883-1.7-1.927-3.109-4.63-1.184-4.162-5.44-5.268-8.746,2.068-4.11,1.1-8.664,1.869-12.981a213.752,213.752,0,0,1,9.262-34.591c1.444-4.038,2.693-4.218,5.693-1.1,1.551,1.615,3.478,2.958,4.185,5.257-.319,5.085-2.918,9.619-3.541,14.633a109.249,109.249,0,0,0-2.827,29.189,28.679,28.679,0,0,0,9.357,19.987c4.063,3.872,8.647,3.338,11.994-1.188,2.97-4.017,4.493-8.739,5.478-13.543.7-3.432,2.239-6.666,2.344-10.233a1.847,1.847,0,0,1,1.208-1.761c1.65.465,2.234,1.95,2.916,3.242a307.125,307.125,0,0,1,14,31.611C2022.672,414.389,2023.315,415.46,2022.36,416.537Z" transform="translate(-1348.217 -156.907)"/><path class="cls-16" d="M2022.36,416.537a279.016,279.016,0,0,0-16.975-37.934,4.73,4.73,0,0,1-1.245-.914c-6.877-11.414-13.764-22.823-22.143-33.233-.663-.823-.579-1.9-1.259-2.658l-6.679-7.733a86.036,86.036,0,0,0-5.9,16.673c-2.7,10.269-5.773,20.5-5.647,31.289.018,1.488-.271,2.788-2.171,2.825a3.118,3.118,0,0,1-1.29-2.976c-.026-17.21,1.922-34.115,8.491-50.186.937-2.292.814-3.605-1.119-4.99a12.332,12.332,0,0,1-3.482-4.412c-.425-.8-1.5-1.617-.625-2.686,1.038-1.269,2.146-.189,3.055.206a35.931,35.931,0,0,1,10.631,7.7,169.241,169.241,0,0,1,46.348,80.1c.749,2.908,1.832,5.81,1.505,8.873C2023.613,418.724,2022.869,416.483,2022.36,416.537Z" transform="translate(-1348.217 -156.907)"/><path class="cls-17" d="M1965.608,393.6c1.665,1.693,3.375,3.344,4.987,5.086,8.378,9.056,19.255,13.592,30.722,17.08,2.72.828,5.507,1.5,7.887,3.17-12.808.782-23.8-3.944-33.862-11.317a37.57,37.57,0,0,1-10.483-11.261C1964.248,395.311,1962.8,393.811,1965.608,393.6Z" transform="translate(-1348.217 -156.907)"/><path class="cls-18" d="M2048.678,356.276c3.008,3.386,2.589,7.382,3.043,10.909,2.068,16.082-.729,31.536-6.8,46.469-.438,1.077-1.026,2.294-2.392,1.888-1.589-.471-.892-1.783-.605-2.852a18.1,18.1,0,0,1,.779-2.881c6.484-14.078,7.928-28.958,7.288-44.222C2049.865,362.538,2046.341,360.219,2048.678,356.276Z" transform="translate(-1348.217 -156.907)"/><path class="cls-19" d="M2055.507,486.5a6.83,6.83,0,0,1,6.5,5.481c.431,2.147-.972,2.249-2.124,1.755a19.5,19.5,0,0,1-6.023-4.371,1.993,1.993,0,0,1-.364-2.1C2053.848,486.056,2054.981,486.763,2055.507,486.5Z" transform="translate(-1348.217 -156.907)"/><path class="cls-20" d="M2074.014,568.733c2.359,4.744,2.4,9.81,2.711,14.785a100.066,100.066,0,0,1-.454,16.219c-.755,7.462,1.081,14.509,4.535,21.087,4.906,9.348,9.589,18.771,11.569,29.259a91.74,91.74,0,0,1,1.87,16.85c0,.788.545,1.96-.538,2.33-1.229.42-1.769-.831-2.221-1.614a12.319,12.319,0,0,1-1.525-3.807c-2.584-14.017-6.273-27.512-14.025-39.834-6.013-9.556-5.609-20.932-6.519-31.8-.422-5.041.405-10.058.737-15.082C2070.366,573.922,2072.973,571.764,2074.014,568.733Z" transform="translate(-1348.217 -156.907)"/><path class="cls-21" d="M2030.038,672.112a71.49,71.49,0,0,1,7.058-37.064c9.088-19.262,7.868-38.179.762-57.415a40.882,40.882,0,0,1-1.786-5.73c-.3-1.463-.363-3.128,1.652-3.667,1.871-.5,2.756.719,3.526,2.1,1.342,2.4.741,5.176,1.783,7.767,3.276,8.144,6.177,16.429,6.736,25.362.743,11.882-2.31,22.909-7.228,33.5-4.193,9.028-7.7,18.244-9.567,28.049A21.839,21.839,0,0,1,2030.038,672.112Z" transform="translate(-1348.217 -156.907)"/><path class="cls-22" d="M2004.94,377.922c.15.228.3.457.447.683a87.37,87.37,0,0,1-5.759,21.7,21.916,21.916,0,0,1-2.215,3.933c-4.13,5.824-9.255,6.357-14.253,1.322-5.7-5.744-9.129-12.616-9.3-20.85-.2-9.711.383-19.349,3.139-28.742,1.846-.378,2.673,1.125,3.678,2.126a16.977,16.977,0,0,0,5.133,3.718c6.114,5.947,5.159,12.514-2.4,16.1a2.356,2.356,0,0,0-1.642,2.229,18.446,18.446,0,0,0,2.706,10.788c2.225,3.4,5.345,3.256,7.412-.249,2.164-3.671,2.488-7.849,2.986-11.959.149-1.235-.036-2.526.7-3.647,1.61-.943,2.209.517,2.96,1.347,1.892,2.092,3.962,4.033,5.43,6.75C2003.359,380.989,2002.244,379.137,2004.94,377.922Z" transform="translate(-1348.217 -156.907)"/><path class="cls-23" d="M1985.325,362.04c-2.634.206-3.714-2.02-5.324-3.411-1.01-.873-2-1.771-3-2.658.329-4.966,2.452-9.459,3.733-14.174,9.572,11.035,17.3,23.3,24.2,36.125-1.5,1.586-.194,3.665-1.134,5.763l-7.9-8.748c-1.448-.516-1.536-1.823-1.723-3.039a36.57,36.57,0,0,0-1.251-4.667C1991.81,363.377,1989.008,362.087,1985.325,362.04Z" transform="translate(-1348.217 -156.907)"/><path class="cls-24" d="M1985.325,362.04c3.186-1.827,5.435-.686,7.3,2.158,2.146,3.279,2.25,7.142,3.286,10.738-.181,4.9-.191,9.827-2.179,14.435-1.1,2.545-2.2,5.336-5.61,5.314-3.38-.022-4.622-2.809-5.631-5.345a24.184,24.184,0,0,1-1.638-12.566c6.394.281,9.924-5.272,6.994-11.061A32.4,32.4,0,0,0,1985.325,362.04Z" transform="translate(-1348.217 -156.907)"/></svg>