<svg id="Layer_1" data-name="Layer 1" xmlns="http://www.w3.org/2000/svg" viewBox="0 0 1228.168 1515.611"><defs><style>.cls-1{fill:#12161c;}.cls-2{fill:#efeeee;}.cls-3{fill:#1e5a8b;}.cls-4{fill:#54565a;}.cls-5{fill:#f6c6be;}.cls-6{fill:#00578a;}.cls-7{fill:#ed848c;}.cls-8{fill:#12446f;}.cls-9{fill:#fff;}.cls-10{fill:#c8c9ca;}.cls-11{fill:#eee;}.cls-12{fill:#ce737b;}.cls-13{fill:#eeedee;}.cls-14{fill:#d4aba4;}.cls-15{fill:#ce727b;}.cls-16{fill:#d4aaa4;}.cls-17{fill:#cd727b;}.cls-18{fill:#c7c8c9;}.cls-19{fill:#c8c8c9;}.cls-20{fill:#ecebeb;}.cls-21{fill:#cd727a;}.cls-22{fill:#1f2126;}.cls-23{fill:#11446f;}.cls-24{fill:#c3c3c4;}.cls-25{fill:#11436e;}.cls-26{fill:#12436e;}.cls-27{fill:#a88885;}.cls-28{fill:#d3d2d7;}.cls-29{fill:#191c21;}.cls-30{fill:#1e1e24;}.cls-31{fill:#1d1d22;}.cls-32{fill:#191a20;}.cls-33{fill:#15191f;}.cls-34{fill:#181b20;}.cls-35{fill:#1f1e24;}.cls-36{fill:#1f1f24;}.cls-37{fill:#e78189;}.cls-38{fill:#eb838b;}.cls-39{fill:#ec838c;}.cls-40{fill:#161b20;}.cls-41{fill:#ec8599;}.cls-42{fill:#92321e;}.cls-43{fill:#191d22;}.cls-44{fill:#e8828a;}.cls-45{fill:#e9828a;}.cls-46{fill:#ec848c;}</style></defs><title>12</title><path class="cls-1" d="M1805.833,1605.762c-24.424-3.691-47.531-13.193-72.083-16.336-7.123-.912-13.774-3.527-20.514-5.881-18.741-6.548-29.827-19.345-33.078-39.054-8.314-50.4,2.1-94.149,41.947-129.448,16.98-15.041,34.294-27.465,56.639-32.685a26.51,26.51,0,0,1,12.6-.087c29.736,6.769,38.888,21.478,31.523,50.632-1.659,6.565-2.116,14.653-8.62,17.8-10.007,4.843-20.726,8.883-32.105,9.021-6.044.073-9.228-6.418-14.577-8.793-.558,10.2,11.159,21.527,20.2,19.709,14.342-2.885,26.45-10.19,37.826-19.109,15.4-12.075,27.19-28.925,47.148-35.081,5.642-1.74.993-5.9-.019-8.3-12.91-30.689-26.108-61.256-39.206-91.866-2.268-5.3-4.813-10.534-6.514-16.02-2.57-8.292-6.93-14.629-13.674-20.564-22.744-20.011-19.354-62.492,5.5-79.973a76.988,76.988,0,0,1,38.993-13.649c5.417-.426,8.513-2.487,11.454-6.7,8.787-12.573,17.744-25.042,27.068-37.219,3.47-4.531,4.456-7.011-.867-11.262-51.374-41.022-53.244-117.471-19.535-164.231,4.02-5.576,4.628-9.77,1.933-16.166-20.132-47.789-25.191-97.888-21.141-149.112.588-7.435-1.106-11.048-7.682-15.052-104.322-63.528-112.8-196.3-31.271-274.2,30.345-29,64.455-49.756,106.07-57.312a201.389,201.389,0,0,1,39.811-3.153c-8.547-20.895-16.037-40.9-24.892-60.275-6.212-13.594-10.513-13.985-24.174-8.033-16.009,6.974-30.877,16.945-49.863,15.874-11.152-.629-18.833-4.732-24.3-13.853-5.773-9.637-11.088-19.553-17.017-29.089-6.191-9.957-10.648-11.329-21.189-6.032-23.544,11.832-41.716,30.553-60.238,48.614-21.991,21.444-43.07,43.826-65.115,65.212-5.617,5.45-10.137,14.338-20.623,12.143v-16.4c7.813-25.885,14.357-52.146,24.6-77.289,27.617-67.758,59.949-132.8,109.192-187.865,19.274-21.552,41.47-39.454,70.54-46.587,21.516-5.279,41.917-2.52,61.024,8.609,20.653,12.029,39.774,26.38,58.633,40.938,26.154,20.189,54.955,30.538,88.2,28.77,24.661-1.311,48.991.2,71.638,12.03,10.483,5.478,19.76,12.146,26.319,22.028,2.855,4.3,5.146,5.9,10.572,3.377,48.809-22.708,100.643-27.974,153.59-25.055a186.04,186.04,0,0,1,59.467,13.551c4.3,1.737,6.55,2.123,8.508-3.875,9.691-29.688,31.188-48.054,61.734-47.9,35.752.175,59.144-16.821,80.011-42.493a429.471,429.471,0,0,1,38.677-42.258c7.23-6.8,14.662-13.307,23.082-18.555,17.749-11.063,31.33-9.316,45.488,6.036,14.283,15.488,23.48,34.1,31.531,53.287a315.128,315.128,0,0,1,23.551,94.654c.563,6.375-.306,12.937-1.042,19.352-1.22,10.636-6.726,13.1-16.154,7.4-6.186-3.743-11.2-8.917-16.033-14.206-4.58-5.01-8.931-10.228-14.195-16.291-4.663,12.919-8.118,25.467-13.96,37.069-9.57,19-13.76,19.965-30.082,6.565a49.511,49.511,0,0,0-4.2-2.685c-8.963,24.7-17.67,48.906-26.536,73.057-8.193,22.316-16.3,44.668-24.936,66.814-5.7,14.63-10.649,18.406-25.777,21.964,14.308,12.645,26.57,26.569,36.056,42.985,9.528,16.49,8.582,36.206,16.76,53.99,17.453-15.1,36.151-17.185,56.573-9.909,9.779,3.484,13.376.464,12.439-9.8-1.7-18.593-3.69-37.158-5.559-55.734,5.6-.084,6.308,4.445,7.41,8.239,5.873,20.229,6.679,40.974,5.344,61.8-.644,10.047-7.3,14.2-17.178,11.59-5.264-1.391-10.194-3.866-15.482-5.233-26.041-6.734-46.831,12.306-42.274,38.707,1.73,10.024,6.982,14.771,17.2,15.546,1.362.1-.3.226,1.014,0,17.306-3,29.665,3.395,37.078,19.327,10.732,14.719,24.255,21,42.685,15.776,9.794-2.776,20.211-3.247,30.131-5.774,10.54-2.685,20.978-3.072,31.2.8,14.127,5.342,25.229,1.227,34.55-9.946a103.544,103.544,0,0,0,7.578-9.634c9.271-12.958,17.593-26.539,25.811-40.168,5.95-9.869,14.28-15.909,25.78-14.887,15.2,1.352,24.375-5.708,30.344-18.655a24.137,24.137,0,0,0,3.51-11.264,96.157,96.157,0,0,0-.218-15.353c-1.538-12.047-9.738-17.214-21.157-13.325-8.3,2.827-14.874,8.1-20.422,14.852-2.749,3.345-5.706,7.91-10.88,5.163-5.061-2.687-3.055-7.71-2.182-11.982,3.351-16.405,11-30.739,21.241-43.817,7.036-8.984,12.365-18.827,14.447-30.166,2.4-13.073-4.3-25.242-15.063-27.663-14.058-3.161-24.7,3.6-28.421,18a49.471,49.471,0,0,0-1.1,19.312c3.158,22.7-6.649,39.755-23.428,53.57-9.293,7.652-18.824,8.373-27.487,3.041-8.028-4.942-13.25-16.675-11.38-26.777a86.306,86.306,0,0,1,11.027-28.507,302.994,302.994,0,0,0,14.961-29.128c3.975-8.68,6.533-17.8-1.4-25.692-8.766-8.722-19.543-12.978-31.716-9.169-10.878,3.4-17.829,11.085-18.928,23.048-.982,10.7.766,21.149,3.387,31.417,5.279,20.679,1.618,39.9-8.675,58.195-4.172,7.415-9.272,14.3-18.689,13.712-10.136-.628-15.28-8.055-18.44-16.9-3.61-10.111-5.23-20.469-3.377-31.2a104.674,104.674,0,0,0-.783-37.639c-2.232-11.76-13.164-20.435-24.945-19.566-13.225.974-22.4,10.245-22.93,22.872-.232,5.49,1.245,10.848.866,16.326-.538,1.652-1.3,3.024-3.4,2.719-11.245-16.671-10.852-34.967,1.006-46.8,11.149-11.128,32.923-12.857,46.354-3.681,12.893,8.808,21.269,32.678,16.691,50.76-3.647,14.406-3.356,28.323,1.433,42.221,1.431,4.151,2.946,8.715,8.372,9.194,4.895.432,7.319-3.429,9.5-6.759,10.879-16.639,13.2-34.6,8.175-53.792-1.891-7.22-2.919-14.675-4.155-22.055-2.916-17.415,4.535-31.458,20.6-39.085,15.32-7.272,36.742-4.368,46.724,6.531,7.256,7.923,9.091,17.393,6.5,27.6a97.9,97.9,0,0,1-11.824,28.09c-7.282,11.625-12.217,24.26-15.762,37.437-1.654,6.15-2.083,12.611,4.171,16.558,6.708,4.233,13.1,2.034,18.561-2.933,11.34-10.305,18.592-22.633,17.793-38.529-.4-7.926.876-15.668,2.082-23.407,3.227-20.7,20.559-32.583,40.755-28.145,18.89,4.15,29.172,21.892,23.936,41.717a70.372,70.372,0,0,1-14.566,27.774,95.387,95.387,0,0,0-18.165,32.037c10.922-10.852,21.794-14.409,34.68-12.172,8.27,1.436,13.936,5.935,16.733,13.333,8.908,23.557.234,63.993-35.523,65.47-15.442.638-25.463,8.245-31.918,22.677-5.938,13.275-12.547,26.491-21.919,37.92-10.516,12.824-21.977,23.778-40.69,19.1-4.341-1.086-5.2,1.83-6.048,4.856-11.792,42.274-25.336,84.146-18.265,129.3,1.948,12.439-3.972,24.785-8.87,36.307-10.884,25.606-20.96,51.638-36.138,75.208-15.367,23.867-41.753,26.8-62.488,7.036-15.328-14.612-27.436-32.2-43.353-46.273-18.17-16.066-37.974-30.044-56.944-45.084-11.8-9.359-23.317-19.1-32.64-30.891-4.257-5.384-8.653-4.707-13.34-3.28-5.86,1.785-1.505,6.35-1.263,9.318,3.031,37.158,4.132,74.268-2.21,111.2-.92,5.357,0,8.349,4.529,11.788,44.115,33.53,56.734,93.057,29.873,141.709-3.726,6.75-3.547,10.955,1.307,16.918,13.777,16.923,26.8,34.463,40.118,51.756,2.213,2.872,3.884,6.507,8.7,3.279,12.791-8.564,26.075-5.693,37.468,1.629,27.587,17.73,43.2,43.073,42.573,76.671-.274,14.636-8.069,24.9-21.674,30.583-2.486,1.037-5.7,1.5-7.29,3.343-22.286,25.892-51.974,43.008-77.277,65.334-16.495,14.553-26.074,33.627-40.55,52.788,15.961,0,29.455.677,42.859-.138,30.164-1.833,52.88,13.542,68.384,35.775,15.616,22.393,36.645,30.835,61.472,37.961-12.048-10.9-23.083-20.99-21.56-38.036,3.517-15.808,18.659-25.929,35.92-23.9a74.966,74.966,0,0,1,48.367,24.921c26.193,35.081,21.044,87.585-10.863,112.269-6.181,4.781-12.752,7.573-20.642,7.1-48.587-2.9-96.643,2.2-144.69,8.813-15.523,2.135-27.131-7.991-37.064-18.494-9.019-9.537-19.326-17.087-30.107-24.322-18.659-12.522-38.869-19.914-61.473-17.869-29.067,2.63-47.3-12.763-62.185-35.01-5.563-8.312-4.95-15.572,1.031-23.177a257.251,257.251,0,0,1,35.078-37.136c3.8-3.238,4.919-7.238,6.713-11.719,8.178-20.435,7.518-41.04,4.184-62.08-2.255-14.236,2.627-24.893,15.807-32.043,8.37-4.541,16.359-9.892,25.338-13.1,16.06-5.743,31.008-13.8,46.337-21.094,5.785-2.752,7.362-4.177,2.8-10.467-6.228-8.594-3.848-18.252,2.32-26.544,4.187-5.628,10.051-9.1,17.437-11.21-19.44-24.879-42.366-45.537-66.95-64.529-3.277-2.532-5.851-1.814-9.251-.557-36.657,13.548-73.191,13.7-109.4-1.7-3.385-1.439-6.023-1.506-9.324.283-56.392,30.575-117.143,38.5-180.122,34.01a267.194,267.194,0,0,1-51.235-8.8c-5.409-1.474-8.551-.613-12.46,3.383-27.791,28.411-62.145,38.323-100.749,33-12.423-1.713-21.4-.718-27.072,11.491-1.695,3.647-4.643,6.711-7.025,10.036-6.561,9.156-13.881,16.688-1.264,28.5,9.724,9.1,6.235,26.718-4.86,38.9-4.476,4.915-4.692,8.662-2.321,14.307,6.874,16.364,14.526,32.167,25.418,46.378,17.753,23.161,24.937,49.581,21.975,78.565-.637,6.239.31,9.277,6.794,12.119,23.738,10.4,32.979,31.388,27.145,59.276a125.42,125.42,0,0,1-10.113,29.845c-6.843,13.87-16.733,24.311-32.242,29.347-34.323,11.146-65.109,28.955-93.556,51.133-17.618,13.735-35.649,27.091-58.067,32.375Z" transform="translate(-1656.242 -90.152)"/><path class="cls-2" d="M2623.825,440.912c-7.542-21.588-.835-36.559,18.673-41.683,14.672-3.853,29.095,5.634,32.253,20.476,3.618,17,1.072,33.988.874,50.981-.1,8.338,1.274,16.231,5.142,23.667,6.778,13.028,19.162,14.264,27.224,2.113,12.617-19.015,17.208-39.715,10.87-62.186a108.86,108.86,0,0,1-3.817-27.214c-.319-14.214,9.02-26.151,22.99-29.933,12.658-3.427,30.525,3.517,36.575,14.359,5.527,9.9,1.649,19.044-2.48,28.182-6.7,14.834-16.868,27.918-21.993,43.541-2.115,6.45-4.154,12.814-2.268,19.866,4.568,17.075,20.054,23.245,33.605,12.065,15.254-12.585,25.444-28.083,22.921-49.55-.9-7.633-1.268-15.554.982-23.334,4.724-16.328,16.2-23.462,32.528-19.729,12.323,2.817,19.392,16.859,16.233,31.891a69.275,69.275,0,0,1-14.886,30.88,99.218,99.218,0,0,0-20.927,42.6c-.746,3.341-3.358,8.508.333,10.394,3.89,1.988,5.772-3.336,8.041-5.992,5.834-6.831,12.421-12.5,21.031-15.654,14.13-5.172,24.332,1.019,25.718,16.184.493,5.4-.05,10.9-.119,16.354-5.938-.32-5.156-6.154-7.531-9.358-3.617-4.879-7.014-9.361-14.121-6.162-7.083,3.188-11.455,11.331-9.582,18.295s7.13,9.978,14.824,9.1c4.326-.5,7.677-4.632,12.412-3.077.562.185.641,1,.464,1.762-6.834,15.958-18.578,23.525-36.176,21.574-8.712-.966-14.42,3.221-19.068,10.63-8.8,14.025-16.563,28.742-27,41.707-10.706,9.09-22.663,8.79-33.088,1.236-18.623-13.5-35.365-8.763-51.821,2.954-13,9.252-26.776,14.265-43.011,13.062-8.11-.6-15.492-1.89-21.9-7.039-.3-.158-.782-.244-.88-.485-7.092-17.4-20.824-20.6-37.712-18.453-9.034,1.149-14.707-4.077-17.123-12.7-3.91-13.956-3.18-27.535,7.666-37.968,11.865-11.414,26.6-12.869,41.908-7.649,24.34,8.3,24.322,8.24,24.553-17.7a206.219,206.219,0,0,0-4.273-43.591c-.978-4.751-.907-10.362-5.9-13.522-2.354-7.717-9-11.888-14.231-17.222C2630.206,449.376,2623.7,447.065,2623.825,440.912Z" transform="translate(-1656.242 -90.152)"/><path class="cls-3" d="M2722.78,1384.483c-13.6-10.078-27.344-19.472-44.855-21.958-17.531-2.489-32.363,4.865-39.433,20.95-.12-13.456,10.8-26.025,25.278-26.609C2687.875,1355.893,2708.33,1364.122,2722.78,1384.483Z" transform="translate(-1656.242 -90.152)"/><path class="cls-4" d="M2623.825,440.912c2.832,4.44,7.871,7.6,7.9,13.663-3.871-3.3-8.094-6.282-10.155-11.222Z" transform="translate(-1656.242 -90.152)"/><path class="cls-5" d="M2131.822,447.954c24-26.011,41.639-55.539,47.917-90.756,4.507-25.281,6.517-50.831-2.245-75.738-2.44-6.939,2.316-7.308,6.066-9,41.8-18.851,85.855-25.148,131.361-24.064,41.629.991,79.853,12.8,113.807,36.654,42.809,30.079,65.646,73.4,77.887,123.081,2.359,9.576,4.225,19.322,4.343,29.265.073,6.225,2.946,10.737,7.334,15.059,14.987,14.76,31.9,27.954,40.217,48.338,2.179,5.339,4.793,10.484,5.7,16.255.729,1.9,1.856,3.98-1.751,3.964-8.275-26.178-34.395-25.6-48.6-7.856-19.113,23.868-24.779,51.338-15.881,80.783,8.473,28.04,29.351,33.361,51.875,13-1.218,7.487-5.771,12.045-9.314,16.982-19.566,27.264-48.169,41.361-78.219,53.288-41.178,16.344-84.352,23.8-128.093,28.571a704.937,704.937,0,0,1-74.516,4.562c-3.942.011-9.429,1.929-8.472-6.032,2.115-17.617-2.1-32.986-19.006-41.616-18.213-9.3-35.541-6.08-51.475,6.192-.8.643-1.752,1.33-2.718,1.055-8.224-2.344-19.853-16.324-19.79-23.668,25.85-32.8,26.068-67.186,6.158-102.672-10.761-19.18-27.741-29.275-49.127-32.568-2.83-3.084-2.977-6.871-2.361-10.623C2115.974,481.77,2120.147,463.5,2131.822,447.954Z" transform="translate(-1656.242 -90.152)"/><path class="cls-6" d="M1672.529,453.527l-5.515,6.349a359.873,359.873,0,0,1,22.114-71.095c22.652-53.128,48.358-104.568,82.381-151.543,18.388-25.389,39.78-47.651,65.891-65.026,28.519-18.977,57.4-20.569,86.873-1.22,21.1,13.856,40.75,29.7,62.006,43.4,25.917,16.695,53.971,23.448,84.235,24.039,15.661.306,31.567.118,46.9,2.807,30.914,5.424,47.969,27.083,54.267,55.853,7.777,35.53.254,69.59-17.219,101.406-21.271,19.091-47.773,25.575-74.715,30.9-11.774,2.329-23.768,1.834-35.681,2.492-13.13.724-22.877-4.648-32.029-13.13-15.146-14.037-26.17-31.49-39.678-46.869-1.125-1.28-2.09-2.7-3.2-4-18.785-21.866-32.4-25.385-59.583-15.222-9.9,3.7-19.515,8.154-29.949,10.425-8.942,1.945-15.642-.062-21.381-7.782-9.555-12.855-17.727-26.807-29.464-38-11.192-10.673-20.454-12.107-34.237-4.7-7.571,4.066-14.1,9.526-20.335,15.427-33.165,31.392-61.211,67.007-86.549,104.848C1682.9,439.987,1677.62,446.681,1672.529,453.527Z" transform="translate(-1656.242 -90.152)"/><path class="cls-7" d="M1783.553,695.561c-23.049-62.662-11.046-119.221,32.893-167.993,31.642-35.122,70.622-59.027,118.837-66.59,60.484-9.488,114.6,14.668,145.888,67.876,18.3,31.114,28.384,64.7,27.753,101.126-7.15,29.23-26.582,49.37-50.189,65.767-17.91,12.44-37.519,22.131-57.823,30.226-4.006,1.6-8.163,4.118-12.369.285-9.311-22.96-25.979-35.279-47.451-32.416-24,3.2-39.769,17.121-46.944,40.842-.559,1.848-.015,4.029.016,6.055-3.079,2.71-6.877,2.824-10.6,2.576-30.458-2.032-58.262-11.912-83.766-28.546C1792.456,709.977,1788.063,702.73,1783.553,695.561Z" transform="translate(-1656.242 -90.152)"/><path class="cls-2" d="M2149.874,943.736c-4.633-.24-8.293-2.906-12.006-5.164-11.79-7.172-23.674-8.754-36.965-3.649-12.981,4.985-25.263,11.75-38.926,15.054-12.6,3.047-20.617.148-27.745-10.774-5.49-8.413-7.5-17.473-5.038-27.3,3.712-14.819,15.311-20.875,29.6-15.492a69.474,69.474,0,0,1,7.4,3.369c13.585,7.036,20.731,6.609,28.558-1.8,9.677-10.391,11.663-24.826,3.978-35.532-7.6-10.587-17.179-18.243-31.483-17.3-7.14.468-14.336.085-21.506.08-17.177-.01-30.125-18.371-24.47-34.7,5.239-15.122,20.164-19.72,32.607-9.7,7.159,5.766,13.607,12.408,20.655,18.321,11.772,9.874,31.135,8.688,41.743-2.383,4.267-4.453,5.54-9.283,4.08-15.809-3.987-17.821-15.805-30.653-26.634-44.105-8.984-11.161-12.237-23.427-8.95-37.278,4.806-20.252,25.878-31.881,43.145-23.407,13.329,6.541,16.687,19.346,16.849,32.693.212,17.569,3.946,34.44,8.1,51.291a49.57,49.57,0,0,0,7.506,16.686c8.994,12.795,23.708,13.346,33.454,1.115,10.956-13.751,18.253-41.287,5.087-61.393-5.589-8.537-11.726-16.749-16.814-25.57-6.265-10.863-7.011-22.4,1.533-32.35,9.175-10.683,20.984-16.221,35.5-12.593,13.091,3.272,21.385,11.253,23.739,24.962,3.288,19.154-.03,38.074-1.711,57.058-.871,9.83-2.5,19.661.82,29.388,3.537,10.347,8.253,20.233,20.114,22.309,12.043,2.108,21.717-3.83,29.809-12.411,5.711-6.055,8.42-13.946,12.6-20.936,5.39-9.024,12.5-14.335,23.4-12.569,11.45,1.854,19.284,8.336,22.724,19.468,5.522,17.87-.368,34.786-16.035,45.8a276.768,276.768,0,0,1-25.715,16.616c-11.992,6.578-19.493,16.668-25.011,28.64-4.824,10.465-9.43,21.033-16.59,30.207-21.857,28.4-52.862,40.918-86.093,49.442C2170.793,946.688,2160.287,946.073,2149.874,943.736Z" transform="translate(-1656.242 -90.152)"/><path class="cls-6" d="M2619.343,283.576c-13.572-7.191-15.033-6.644-21.082,7.1-3.783,8.6-7.812,17.087-11.73,25.626-14.649,27.37-30.781,53.64-56.053,72.761-4.934,3.733-10.175,8.224-17.355,5.028-10.39-37.372-27.613-70.947-54.665-99.152-12.908-13.457-28.239-23.509-44.7-31.8-6.637-3.342-7.617-6.138-4.469-13.162,12.634-28.19,35.856-39.122,64.626-39.813,28.6-.688,48.59-15.106,65.072-36.551a478.046,478.046,0,0,1,47.244-52.317,71.561,71.561,0,0,1,11.2-8.853c24.543-15.632,41.179-12.9,55.6,12.124a325.551,325.551,0,0,1,42.265,134.164c.308,3.374,3.79,11.392-6.067,7.921-8.423-9.62-14.848-20.924-24.439-29.529-4.147-3.721-2.644-8.755-4.095-13.068-4.832-3.037-6.039.294-6.605,4a24.14,24.14,0,0,1-4.048,10.361C2641.162,254.392,2632.379,270.43,2619.343,283.576Z" transform="translate(-1656.242 -90.152)"/><path class="cls-6" d="M1787.214,1589.511c-19.416-5.015-39.1-8.755-58.724-12.841-25.657-5.343-36.967-23.007-39.3-48.165-3.39-36.52,2.109-70.374,29.121-97.432,14.616-14.641,29.274-29.212,49.418-37.238,16.661-6.638,29.729-1.7,41,9.294,10.109,9.857,6.342,22.6,3.339,34.558-6.819,6.323-15.233,8.3-24.141,8.424-4.6.063-8.546-1.808-10.53-6.448-.991-5.064.8-9.5,3.535-13.493,3.888-5.678,8.164-10.217,13.712-1.391,1.471,2.341,3.327,4.8,6.553,3.309,3.705-1.715,3.156-5.261,1.852-7.97-2.8-5.813-5.771-12.017-13.06-13.208-7.676-1.254-14.925.908-18.463,8.019-6.174,12.409-11.374,25.313-16.693,38.13-1.432,3.449.352,6.679,2.8,9.318,14.256,15.358,31.445,27.137,48.187,39.459,1.777,1.308,3.658,1.645,6.434.11-4.768-8.95-14.05-13.541-20.387-22,28.694-9.188,50.389-28.368,72.618-46.753,2.615-2.163,5.542-3.946,8.273-5.975,4.38-3.253,7.033-3.292,9.954,2.507,6.412,12.728,17.478,17.012,31.706,18.347,28.185,2.646,46.4-9.681,57.818-34.038,3.264-6.965,6.58-3.7,10.133-1.343,18.91,12.569,23.827,29.284,15.935,53.648-6.916,17.332-19.969,27.785-37.19,33.977-9.335,3.356-17.007,9.97-25.654,14.637-31.419,16.959-62.1,34.963-91.4,55.507C1827.4,1582.138,1808.711,1590.808,1787.214,1589.511Z" transform="translate(-1656.242 -90.152)"/><path class="cls-7" d="M1863.525,1048.16c-3.013-31.9,6.034-59.833,27.652-83.558,9.966-10.938,10.505-10.759,22.508-2.6,11.51,7.827,23.131,11.233,37.167,4.373,17.371-8.488,35.013-16.429,52.1-25.516,11.935-6.345,17.8-4.886,25.642,5.979,6.688,9.268,15.764,14.263,27.163,12.88,6.639-.806,10.685,1.788,15.182,5.964,31.943,29.662,37.128,79.923,23.641,115.275-8.992,15.077-22.692,24.059-38.779,29.928a157.589,157.589,0,0,1-56.02,9.591c-3.566-.037-8.513,1.3-9.511-4.64,6.936-22.579,4.888-31.932-8.908-42.911-11.829-9.414-34.87-15.532-50.183-5.415-11.262,7.441-12.465,18.647-15.01,29.787-3.058,2.6-5.992.758-8.455-.749-14.6-8.931-28.378-18.816-38.2-33.323C1866.362,1058.566,1865.139,1053.332,1863.525,1048.16Z" transform="translate(-1656.242 -90.152)"/><path class="cls-7" d="M2173.961,976.758c-2.088-1.926-.993-4.479-1.341-6.751-1.307-8.532.537-12.135,10.928-12.69,35-1.869,63.133-17.583,83.713-46.288a208.128,208.128,0,0,0,26.217-48.335,48.006,48.006,0,0,1,5.055-9.933c9.686-14.365,15.839-16.57,32.724-12.165,65.679,17.133,94.684,88,61.4,150.147-4.015,7.5-8.235,14.915-14.7,20.7-11.866,12.1-27.1,18.171-42.85,22.5-55.029,15.109-104.192,4.424-146.6-34.635C2181.635,992.979,2177.721,984.972,2173.961,976.758Z" transform="translate(-1656.242 -90.152)"/><path class="cls-6" d="M2656.046,1400.928c-6.22-4.66-10.773-11.33-7.451-18.375,3.874-8.216,10.506-14.846,21.305-14.972,37.391-.437,67.69,36.773,59.334,73.615-3.327,14.668-8.449,28.7-19.869,39.417-18.344,5.808-37.217,3.46-55.687,2.182-18.837-1.3-37.416-1.763-55.991,1.456-11.092,1.923-22.3,3.007-33.383,4.879-14.844,2.5-28.112-.958-38.652-11.491-20.614-20.6-46.505-32.05-72.81-42.457-16.193-6.406-33.956-7.4-51.121-9.713-16.613-2.242-25.3-11.64-30.371-26.336-1.516-4.392-2.05-8.552-.043-12.842,8.275-10.324,16.611-20.585,27.893-28.21,3.006,4.156,5.545,8.207,8.608,11.811,20.283,23.871,56.344,20.908,72.158-6.529,4.192-7.273,7.938-8.6,15.284-6.022,11.171,3.923,23.04,3.176,34.492,2.224,26.605-2.212,46.851,11.023,59.971,30.629,19.316,28.864,47.711,38.025,78.105,44.859,17.8,4,28.922-7.064,27.562-25.416-.448-6.052-1.361-12.084-2.357-18.077-.7-4.234-2.894-7.812-7.05-9.409-7.4-2.843-14.823-2.6-24.377.507,8.654,4.087,22.188-3.671,21.284,11.955C2674.28,1404.374,2667.169,1406.048,2656.046,1400.928Z" transform="translate(-1656.242 -90.152)"/><path class="cls-5" d="M2486.366,742.71c.127-15.123,7.257-27.448,17.651-30.515,12.9-3.806,29.876,3.383,38.091,17.754a360.5,360.5,0,0,0,35.019,50.192c8.237,10.006,16.675,19.809,26.349,28.482,8.9,7.975,18.852,15.2,20.416,29.023,1.634-15.965,1.193-31.331,5.277-46.463,6.057-22.44,16.161-40.521,41.008-45.621,4.755-.976,5.491-4.485,6.318-8.167,6.187-27.524,12.662-54.989,18.324-82.621,1.483-7.236,4.989-10.8,11.625-11.975,9.2-1.63,20.065-8.845,27.2-2,5.595,5.365-1.65,15.521-3.934,23.142-10.352,34.548-16.159,69.308-13.558,105.712,2.134,29.875-13.48,55.727-24.015,82.464-5.717,14.511-13.131,28.343-23.414,40.353-14.6,5.177-35.021-1.969-48.107-17.144-4.677-5.423-9.245-10.979-13.4-16.821-13.681-19.223-32.893-32.632-50.456-47.686-22.043-18.894-43.986-37.834-64-58.918A36.774,36.774,0,0,1,2486.366,742.71Z" transform="translate(-1656.242 -90.152)"/><path class="cls-2" d="M2377.638,1027.807c22.32-24.5,35.024-53.182,36.476-86.375,2.147-49.066-29.7-92.746-77.091-106.5-2.605-.756-5.2-1.543-7.943-2.357.376-3.29,3.54-3.572,5.478-4.936,32.067-22.568,34.22-52.674,5.523-78.516,1.366-3.837,4.926-4.387,8.147-5.305,30.337-8.652,58.424-22.242,85.226-38.69,2.821-1.731,5.466-4.256,9.288-3.262,13.386,32.743,19.624,66.914,21.081,102.167,2.316,56.082-3.568,110.62-28.8,161.749-6.447,13.063-13.005,26.064-22.282,37.443-7.987,9.241-16.7,17.722-26.81,24.61C2383.546,1029.453,2380.339,1033.983,2377.638,1027.807Z" transform="translate(-1656.242 -90.152)"/><path class="cls-5" d="M1904.016,941.663c-6.29-4.568-6.517-10.305-3.849-17.084,17.731-45.054,20.214-92.164,18.241-139.782-.427-10.293-2.882-20.536-9.932-28.441-6.532-7.324-7.015-15.043-4.364-23.694,4.93-16.093,16.434-25.708,31.879-30.286,14.053-4.166,26.106.936,36.071,11.209a29.117,29.117,0,0,1,8.568,24.191c-1.337,13.578-3.276,27.088-7.056,40.167-6.158,21.307-7.182,42.96-5.688,64.852.353,5.163.721,7.889-6.4,9.122-19.338,3.346-35.37,24.888-34.695,44.417,3.4.179,3.354-2.531,4.048-4.7,3.1-9.689,9.289-17.324,16.348-24.358,8.954-8.923,19.728-9.7,31.342-7.108,13.023,2.9,25.69,6.983,36.913,14.2,6.4,4.11,12.467,4.34,19.41,2.875,16.993-3.584,34.123-6.544,51.04-10.442,5.368-1.238,7.305.5,9.187,4.872,3.344,7.776,2.125,14.487-3.321,20.821-5.6,6.509-12.14,6.628-19.355,3.456-1.559-.685-3.089-1.434-4.624-2.173-24.957-12.01-37.351-6.992-47.044,19.053-1.451,1.456-2.939,2.945-4.942,3.538-29.672,8.781-57.6,23.29-88.8,27.047C1919.2,944.344,1911.4,945.807,1904.016,941.663Z" transform="translate(-1656.242 -90.152)"/><path class="cls-8" d="M1672.529,453.527c7.526-17.277,19.29-31.894,30.194-46.949,21.367-29.5,44.811-57.29,71.494-82.22,7.008-6.547,14.558-12.237,23.339-16.194,12.248-5.519,21.544-3.545,31.5,5.634,12.661,11.668,21.368,26.391,31.272,40.11,5.779,8,11.7,8.1,20.12,6.4,14.108-2.849,26.688-9.752,40.412-13.745,24.754-7.2,39.054,5.726,52.854,22.537,13.342,16.253,25.073,33.847,40.6,48.312,8.318,7.75,17.06,12.1,29.061,12,38.568-.343,74.874-7.717,107.193-29.982,1.024-.7,2.579-.639,3.887-.932-14.885,31.985-39.209,55.075-68.872,73.133-.29.176-.629.281-.9.482-16.723,12.415-31.919,15.3-50-.286-13.507-11.645-32.057-16.068-50.23-18.19-6.757-.788-10.726-3.593-13.276-10.388-5.974-15.921-13.056-31.422-19.566-47.145-9.659-23.328-22.47-28.557-45.957-18.76-12.784,5.332-24.948,12.323-39.786,11.232-7.9-.582-13.686-3.031-17.775-9.786-5.11-8.441-10.392-16.778-15.633-25.139-7.863-12.544-19.353-16.883-33.281-12.4-18.034,5.806-31.788,18.151-45.5,30.409a699.891,699.891,0,0,0-68.533,70.088C1681.463,446.106,1677.725,450.666,1672.529,453.527Z" transform="translate(-1656.242 -90.152)"/><path class="cls-9" d="M2686.526,649.945c-5.394,27.393-10.6,53.716-15.729,80.054-.572,2.938-.173,5.736-4.142,7.193-34.43,12.637-49.183,37.739-45.2,75.578-7.545-4.51-11.646-10.227-16.312-15.235a488.846,488.846,0,0,1-47.912-61.032c-3.254-4.846-3.046-7.408,1.033-11.882q40.552-44.473,40.671-104.946c.013-3.257-3.343-10.006,2.967-9.752,7.449.3,16.36-5,22.5,3.456,4.785,6.6,9.007,13.608,13.814,20.189,10.047,13.758,22.97,20.917,40.532,16.966C2681,650.029,2683.386,650.164,2686.526,649.945Z" transform="translate(-1656.242 -90.152)"/><path class="cls-5" d="M2490.185,1324.756c-4.661,9.4-9.049,18.942-14.043,28.157-8.47,15.629-23.146,22.065-39.535,25.644-3.766.823-6.528-1.408-9.115-3.624a107.049,107.049,0,0,1-16.429-18.092c-3.307-4.494-4.5-9.377-2-14.322,6.272-12.416,7.171-25.817,5.127-38.868-4.9-31.3,10.375-49.049,37.27-60.4,17.188-7.252,34.216-14.947,49.851-25.3,2.124-1.406,4.3-2.286,6.691-1.608,14.4,4.082,29.121,1.749,43.692,2.278,4.527.165,8.713.92,12.391,3.679,5.919,8.836,4.969,15.015-4.246,22.654-9.176,7.607-18.684,14.864-28.363,21.781C2510.934,1281.416,2498.488,1301.529,2490.185,1324.756Z" transform="translate(-1656.242 -90.152)"/><path class="cls-5" d="M1961.732,1407.223c-9.583,25.267-32.933,37.507-59.012,30.678-6.9-1.808-11.9-6.566-15.276-12.719a121.288,121.288,0,0,1-5.7-13.044c-15.984-39.6-31.934-79.218-48.911-121.354,27.553,7.353,43.174-10.975,61.4-23.169,9.81-1.962,16.5,1.048,21.576,10.435a617.536,617.536,0,0,1,44.33,103.062C1962.88,1389.54,1963.982,1398.352,1961.732,1407.223Z" transform="translate(-1656.242 -90.152)"/><path class="cls-2" d="M2104.429,1080.848c7.272-29.388,8.111-58.511-3.931-87-6.016-14.229-14.967-26.56-26.467-38.3,11.524-6.073,22.256-12.019,34.08-15.641,8.935-2.738,16.567,1.863,24.426,4.864,9.428,3.6,17.425,10.5,28.088,11.4,5.931.5,3.34,5.855,3.407,9.036.814,38.514,17.627,68.538,48.328,91.017,13.117,9.605,28.255,14.6,44.287,16.913,1.8,1.377,5.576-.5,5.881,2.638.27,2.772-2.894,3.359-5.057,3.994-9.513,2.789-19.322,3.912-29.134,5.076a508.293,508.293,0,0,1-112.029.95C2111.913,1085.346,2107.447,1084.755,2104.429,1080.848Z" transform="translate(-1656.242 -90.152)"/><path class="cls-10" d="M2104.429,1080.848c52.4,7.683,104.473,5.253,157.291-4.387l-5.073-3.323c47.528,4.116,87.27-12.567,120.991-45.331,2.5,2.985,4.1.441,5.851-.97q14.635-11.794,29.25-23.617c-24.988,39.39-58.473,69.683-99.252,91.926-56.181,30.646-116.371,37.591-179.019,29.616-15.874-2.021-31.577-4.677-47.623-9.393C2094.425,1104.376,2099.575,1092.684,2104.429,1080.848Z" transform="translate(-1656.242 -90.152)"/><path class="cls-7" d="M2346.787,1085.021c45.7-32.935,80.533-74.671,102.85-126.641a348.15,348.15,0,0,0,16.8-50.446c20.543,16.49,34.5,35.933,38.487,61.766,2.282,29.583-7.294,54.128-30.879,72.719-17.245,7.965-35.125,15.028-45.838,32.277-8.389,8.955-20.006,10.987-31.017,13.784a125.38,125.38,0,0,1-40.235,3.409C2352.528,1091.56,2346.884,1092.152,2346.787,1085.021Z" transform="translate(-1656.242 -90.152)"/><path class="cls-2" d="M1811.539,1257.47c-8.668-23.793.43-47.379,23.448-56.364,30.017-11.718,59.491-8.857,86.754,8.541,14.354,9.16,15.675,21.309,5.6,35.628-16.855,3.878-33.385,8.572-48.342,17.713a63.423,63.423,0,0,1-22.893,8.335C1839.156,1274.075,1823.721,1270.684,1811.539,1257.47Z" transform="translate(-1656.242 -90.152)"/><path class="cls-2" d="M2565.662,1210.346c-12.083-3.078-24.395-1.034-36.589-1.622-4.755-.229-9.594.058-14.251-.736-10.262-1.75-16.4-8.3-16.327-16.632.082-9.543,6.68-16.723,17.516-17.7,13.507-1.216,25.724-5.749,37.3-12.465,1.173-.681,2.369-1.326,3.515-2.05,14.206-8.975,15.736-15.248,7.647-30.175-1.322-2.441-5.182-4.6-2.531-7.9,2.035-2.531,5.572-2.278,8.621-2.016,7.185.616,14.351,2.073,20.216,6.3,21.848,15.753,35.591,36.057,34.484,64.235-14.006,23.96-31.428,28.786-48.7,23.07C2573.064,1211.5,2569.19,1211.643,2565.662,1210.346Z" transform="translate(-1656.242 -90.152)"/><path class="cls-11" d="M2075.06,744.025c4.792,11.134,11.8,19.724,19.611,27.786,6.187,6.383,11.775,13.371,15.6,21.415,2.624,5.514,7.905,11.794,1.654,17.6-6.665,6.191-15.062,8-23.609,3.566-7.3-3.786-13.389-9.341-19.264-15.058-6.7-6.522-14.257-11.489-23.474-13.8-11.092-2.788-19.393,1.255-25.316,11.175-6.272,10.5-8.8,21.176-5.572,33.172,3.886,14.422,12.8,21.527,27.7,21.486,8.172-.022,16.343-.17,24.515-.251,7.675-.075,13.239,3.906,19.14,9.562-18.934,3.758-36.818,7.263-54.678,10.887-4.315.875-7.853-.424-11.585-2.5-11.277-6.281-22.5-13.027-35.293-15.593-7.465-1.5-10.009-5.895-10.2-12.427-.341-11.6-.307-23.207-.427-34.811-.034-3.294.641-5.449,4.644-6.513C2015.45,789.9,2047.147,770.706,2075.06,744.025Z" transform="translate(-1656.242 -90.152)"/><path class="cls-12" d="M1988.543,726.258c17.331-2.163,31.6-11.82,46.63-19.426,22.392-11.329,42.2-26,57.114-46.653,6.8-9.413,11.089-20.136,16.637-30.2,1.032,13.372-.621,26.461-3.405,39.551-2.171,10.2-5.079,18.553-15.346,24.52-11.456,6.658-15.791,19.23-17.186,32.283-.4,3.762-.409,7.355-3.447,10.292-26.338,25.457-56.273,44.717-92.951,54.765C1980.017,768.9,1992.98,749.084,1988.543,726.258Z" transform="translate(-1656.242 -90.152)"/><path class="cls-7" d="M2119.563,636.083c-.616-37.03-8.456-72.219-27.225-104.469-2.921-5.019-.607-6.572,3.32-8.019,18.183-6.7,34.913-2.7,48.326,10.033,25.959,24.64,32.714,63.564,17.136,91.654-1.785,3.219-4.334,6.016-6.529,9.008C2143.2,640.532,2131.694,644.379,2119.563,636.083Z" transform="translate(-1656.242 -90.152)"/><path class="cls-10" d="M2442.742,701.861c-29.923,20.21-61.978,35.829-96.977,45.131a59.831,59.831,0,0,0-5.684,2.126c-21.141-7.537-28.4-6.07-39.987,8.08-17.681,4.967-35.426,8.187-53.519,1.976-1.216-10.978,1.632-21.664,2.328-32.5.319-4.971,2.668-6.661,7.892-6.613,59.887.552,118.575-7.965,176.174-24.166C2438.888,694.226,2441.973,695.787,2442.742,701.861Z" transform="translate(-1656.242 -90.152)"/><path class="cls-7" d="M2457.561,718.092c-.228-.254-.55-.47-.67-.767-3.156-7.85-10.14-16.732-8.4-23.289,1.914-7.2,14.138-6.757,21.9-9.227,52.136-16.587,87.059-50.077,102.708-103.141,3.692,1.4,2.5,4.961,3.446,7.521,2.128,5.734,3.465,12.612,8.969,15.62,8.49,4.639,8.049,11.448,6.96,19.011-15.6,33.68-41.21,57.642-73.2,75.388-1.409.782-3.013,1.657-4.78.729-10.226,1.065-19.284,4.761-26.81,11.91C2478.312,717.133,2468.36,719.659,2457.561,718.092Z" transform="translate(-1656.242 -90.152)"/><path class="cls-5" d="M2448.932,1065.967a58.134,58.134,0,0,1,6.241-5.117c24.584-15.137,25.373-14.921,43.265,7.35,18.749,23.338,37.394,46.767,56.575,69.747,6.895,8.261,4,12.935-3.722,17.4-6.421,3.712-12.44,8.238-20.035,9.442-10.069-5.612-16.119-15.436-23.682-23.509-16.985-18.126-33.26-36.917-50.773-54.572C2451.232,1081.094,2446.555,1074.773,2448.932,1065.967Z" transform="translate(-1656.242 -90.152)"/><path class="cls-5" d="M1912.38,1193.6c-10.979-3.334-22.027-6.4-34.357-7.709,12.728-19.894,27.512-37.239,37.965-57.5a129.941,129.941,0,0,0,12.225-36.314c3.2-17.127,18.49-24.916,34.394-18.341,6.832,2.824,13.564,6.331,17.466,13.274,2.014,3.191.2,5.847-1.267,8.487-17.844,32.085-38.376,62.44-59.487,92.423C1917.535,1190.45,1915.527,1192.722,1912.38,1193.6Z" transform="translate(-1656.242 -90.152)"/><path class="cls-12" d="M1783.553,695.561c20.351,23.942,47.67,35.05,77.273,41.885a119.586,119.586,0,0,0,33.338,3.293c1.07,9.344,4.115,17.8,10.838,24.684a14.718,14.718,0,0,1,2.755,4.266c3.9,8.748,8.542,19.436,4.147,26.936-2.751,4.7-14.469-.547-21.846-2.576C1837.631,779.623,1804.063,744.618,1783.553,695.561Z" transform="translate(-1656.242 -90.152)"/><path class="cls-12" d="M2173.961,976.758c10.332,13.8,20.725,27.531,35.815,36.7,52.936,32.158,106.312,32.732,160.143,2.295,2.644-1.5,5.355-2.875,8.034-4.309-23.384,28.387-52.946,45.417-89.479,51.659C2222,1074.459,2179.171,1019.519,2173.961,976.758Z" transform="translate(-1656.242 -90.152)"/><path class="cls-8" d="M2371.307,1386.291c.5,10.612,5.187,19.643,11.2,27.949,5.88,8.117,15.609,7.837,24.057,8.82,29.313,3.41,57.032,11.191,83.131,25.328,13.006,7.044,24.988,15.119,35.549,25.342,11.909,11.529,25.3,14.552,41.992,12.141,29.039-4.2,57.923-10.323,87.951-5.705,17.664,2.717,36.091.465,54.174.447-8.448,10.321-20.748,9.3-31.967,9.924-14.928.829-29.928-.256-44.906-.885-15.814-.665-31.791,2.345-47.686,3.859-11.5,1.1-22.991,2.32-34.476,3.582-11.767,1.292-21.321-2.934-29.332-11.347-10.4-10.919-22.388-19.673-34.906-28.147-22.7-15.368-48.156-19.891-74.408-21.839-15.549-1.153-28.622-5.164-39.1-18.031C2361.116,1403.65,2360.136,1400.826,2371.307,1386.291Z" transform="translate(-1656.242 -90.152)"/><path class="cls-12" d="M1990.273,1115.841c13.768,5.342,27.358.685,40.875-1.122,25.193-3.369,46.094-15.347,63.435-33.757-17.223,53.189-70.875,91.178-133.979,75.151Z" transform="translate(-1656.242 -90.152)"/><path class="cls-7" d="M2510.647,597.234c-15.313-25.594-6.963-66.923,16.965-83.97,9.137-6.509,18.2-4.391,23.591,6.275a66.133,66.133,0,0,1,6.792,38.7c-1.695,14.026-7.906,25.606-19.388,33.884C2530.251,598.141,2521.29,602.813,2510.647,597.234Z" transform="translate(-1656.242 -90.152)"/><path class="cls-13" d="M1865.854,795.574c7.953,2.274,15.7,4.725,23.573,6.647,4.444,1.085,4.915,3.862,4.8,7.591a416.729,416.729,0,0,0,6.038,83.546c1.611,9.329-3,17.191-5.91,25.463-2.885,8.19-5.072,16.522.309,24.469,2.218,3.276,2.4,5.988-1.144,7.44-4.122,1.69-3.9-2.889-4.724-4.81-14.2-33.2-21.23-67.982-23.411-103.978C1864.448,826.428,1862.008,811.031,1865.854,795.574Z" transform="translate(-1656.242 -90.152)"/><path class="cls-14" d="M2486.366,742.71c10.47,10.209,20.549,20.861,31.492,30.534q34.642,30.618,70.061,60.352c11.564,9.758,20.574,21.765,29.351,33.694,13.078,17.775,29.817,25.956,51.454,25.177-11.3,13.514-31.192,14.663-42.687,1.607-12.356-14.034-23.5-29.114-37.14-42.044-19.569-18.551-41.881-33.678-62.68-50.691-10.818-8.85-21.314-17.984-30.444-28.618C2488.32,764.042,2484.342,754.333,2486.366,742.71Z" transform="translate(-1656.242 -90.152)"/><path class="cls-10" d="M2637.724,623.865c23.295,7.209,44.677,6.242,65.333-9.591,15.98-12.249,34.156-16.471,52.444-1.586,9.851,8.018,21.221,4.746,32.047.964-3.578,7.576-9.6,13.118-15.837,18.328-6.876,5.749-14.622,8.644-23.55,4.576-20.01-9.116-39.33-.283-58.872,2.33-5.706.762-11.328,2.132-17,3.155C2656.057,644.968,2646.131,635.852,2637.724,623.865Z" transform="translate(-1656.242 -90.152)"/><path class="cls-8" d="M1787.214,1589.511c31.7-4.288,57.888-20.5,82.427-39.434,20.033-15.458,44.079-23.54,64.847-37.429a203.546,203.546,0,0,1,36.724-19.5c12.609-5.124,18.633-17.281,27.093-26.808-5.121,24.537-18.464,41.557-42.97,49.756-34.32,11.483-64.065,31.079-92.137,53.606-12.749,10.231-26.64,18.672-43.138,22.29C1808.644,1594.5,1798.036,1591.9,1787.214,1589.511Z" transform="translate(-1656.242 -90.152)"/><path class="cls-8" d="M2513.123,394.1c20.979-4.6,32.018-21.381,44.564-36.334,10.866-12.951,17.572-28.792,28.844-41.455-3.513,16.367-11.095,31.267-17.01,46.756-7.635,19.992-15.933,39.731-23.834,59.623-3.124,7.865-7.251,14.585-15.9,17.415-6.57,2.15-10.831,1.078-10.827-6.869C2518.968,419.891,2515.167,407.125,2513.123,394.1Z" transform="translate(-1656.242 -90.152)"/><path class="cls-12" d="M2514.5,699.937c18.1-10.691,35.24-22.623,49.577-38.218,10.742-11.685,18.991-25.222,28.4-37.9-1.029,38.52-16.522,70.558-43.427,98.421C2540.669,708.865,2528.607,702.751,2514.5,699.937Z" transform="translate(-1656.242 -90.152)"/><path class="cls-14" d="M2158.243,646.277a50.168,50.168,0,0,0,22.508,22.613c-10.224,11.048-15,23.326-7.155,39.98-12.351-2.881-23.771-1-31.822-12.188-5.323-7.392-14.373-10.2-23.459-10.442-5.882-.157-7.363-1.006-5.571-7.455,2.351-8.459,3.973-14.908,15.209-15.421C2140.217,662.8,2149.673,654.736,2158.243,646.277Z" transform="translate(-1656.242 -90.152)"/><path class="cls-14" d="M1961.732,1407.223c-2.1-29.685-15.072-55.985-26.207-82.77-6.353-15.283-14.013-30.04-21.472-44.839-3.975-7.887-11-11.653-19.816-12,2.893-1.687,5.672-3.619,8.7-5.019,11.687-5.409,13.619-4.565,18.58,7.394,6.131,14.783,14.374,28.326,23.434,41.507,19.263,28.022,28.3,58.332,18.684,92.294A17,17,0,0,1,1961.732,1407.223Z" transform="translate(-1656.242 -90.152)"/><path class="cls-14" d="M1904.016,941.663c30.994,1.1,59.394-9.012,87.521-20.279a179.245,179.245,0,0,1,29.194-8.563c1.243,7.744-1.636,12.144-9.218,15.483-16.785,7.392-33.357,15.425-49.4,24.309C1939.093,965.362,1925.252,964.751,1904.016,941.663Z" transform="translate(-1656.242 -90.152)"/><path class="cls-14" d="M2131.822,447.954c-3.348,13.08-11.162,24.554-13.394,38.087-1.37,8.307-3.877,16.434-3.154,25-6.4.821-13.773-.1-18.991,2.829-10.683,6-15.671,1.192-20.87-7.122-3.018-4.825-7.292-8.864-11.407-13.737C2089.483,481.99,2111.062,465.579,2131.822,447.954Z" transform="translate(-1656.242 -90.152)"/><path class="cls-13" d="M2196.987,753.034c6.472,17.417-1.088,31.318-11.719,43.985-5.161,6.149-13.122,4.393-18.45-4.322-8.505-13.913-11.686-29.572-12.706-45.706-2.178-5.162,1.551-6.589,4.875-5.693C2171.781,744.749,2185.535,745.242,2196.987,753.034Z" transform="translate(-1656.242 -90.152)"/><path class="cls-15" d="M1863.525,1048.16c9.184,19.664,24.6,33.467,42.484,44.845,3.06,1.947,6.759,2.89,10.163,4.3-.738,11.748-2.9,27.5-11.687,30.61-7.8,2.76-16.133-12-22.188-20.759C1870.105,1089.509,1863.046,1069.967,1863.525,1048.16Z" transform="translate(-1656.242 -90.152)"/><path class="cls-16" d="M2490.185,1324.756c3.528-25.649,18.841-43.679,38.308-58.913,9.626-7.532,19.576-14.647,29.3-22.059,7.307-5.569,10.171-12.571,6.3-21.484l28.9,7.169C2558.02,1261.906,2514.172,1282.78,2490.185,1324.756Z" transform="translate(-1656.242 -90.152)"/><path class="cls-16" d="M1912.38,1193.6c23.353-33.067,45.94-66.631,65.933-101.872a30.817,30.817,0,0,0,1.76-4.717c7.651,10.546,2.523,20.553-2.8,29.267-10.537,17.248-20.2,35.1-32.879,51.017a181.613,181.613,0,0,0-16.328,23.354C1923.531,1198.664,1918.881,1199.347,1912.38,1193.6Z" transform="translate(-1656.242 -90.152)"/><path class="cls-13" d="M2246.575,759.174c17.915,1.384,35.643-2.29,53.519-1.976-4.781,8.908-7.843,18.964-15.861,25.761-6.527,5.532-13.8,11.18-22.906,8.005-10.182-3.551-13.036-13.116-14.845-22.663C2245.926,765.37,2246.512,762.222,2246.575,759.174Z" transform="translate(-1656.242 -90.152)"/><path class="cls-17" d="M2346.787,1085.021c2.113,4.91,6.5,3.948,10.513,4.174,24.917,1.4,48.356-4.361,70.907-14.5-3.536,6.938-3.632,13.612,2.207,19.807-32.035,11.211-63.2,10.979-96.469-1.731Z" transform="translate(-1656.242 -90.152)"/><path class="cls-16" d="M2448.932,1065.967c1.731,9.849,7.427,17.072,14.3,24.112,23.538,24.1,46.561,48.7,68.021,74.71-4.376,2.93-7.217,2.324-10.889-2.189a418.284,418.284,0,0,0-72.468-69.566C2432.511,1081.388,2432.541,1077.657,2448.932,1065.967Z" transform="translate(-1656.242 -90.152)"/><path class="cls-18" d="M2196.987,753.034c-11.774-2.924-23.6-5.671-35.294-8.876-3.632-1-6.6-2.338-7.581,2.833-3.476-9.774-.821-20.1-2.74-30.1-1.173-6.111,4.208-2.442,6.2-2.385C2182.432,715.218,2191.139,732.709,2196.987,753.034Z" transform="translate(-1656.242 -90.152)"/><path class="cls-19" d="M1811.539,1257.47c22.938,15.349,45.621,15.146,69.726,1.455,13.913-7.9,28.788-15.7,46.076-13.65-1.073,3.824-3.716,5.36-7.559,5.546-17.563.852-31.463,9.115-44.16,20.777C1854.709,1290.805,1820.715,1283.064,1811.539,1257.47Z" transform="translate(-1656.242 -90.152)"/><path class="cls-19" d="M2149.874,943.736c43.776.233,81.081-15.447,112.489-45.7a37.891,37.891,0,0,1,4.9-3.45C2247.154,935.313,2188.656,959.806,2149.874,943.736Z" transform="translate(-1656.242 -90.152)"/><path class="cls-20" d="M1902.842,886.3c-3.494-24.849-4.05-49.278-3.64-73.736.049-2.872-2.428-8.9,4.412-7.12,3.915,1.016,10.947-2.754,10.254,7.666-1.489,22.387-3.148,44.667-7.666,66.672C1905.733,882.069,1905.772,884.529,1902.842,886.3Z" transform="translate(-1656.242 -90.152)"/><path class="cls-21" d="M2457.561,718.092l30.132-6.245c-10.626,13.15-14.12,28.237-11.4,44.68.617,3.728-.331,4.6-3.46,5.408-3.529.908-4.488-.182-5.285-3.685C2464.49,744.8,2460.933,731.469,2457.561,718.092Z" transform="translate(-1656.242 -90.152)"/><path class="cls-15" d="M2474.045,1042.419c8.027-10.772,17.4-20.579,22.52-33.382,5.07-12.672,8.245-25.655,8.358-39.337,5.478,24.992,2.321,48.8-9.771,71.388-1.163,2.174-2.235,4.351-5.3,2.312C2484.8,1040.037,2479.34,1042.365,2474.045,1042.419Z" transform="translate(-1656.242 -90.152)"/><path class="cls-15" d="M2510.647,597.234c23.114-.2,35.681-9.235,43.507-30.929.993-2.754,1.03-6.125,3.841-8.071,1.459,17.862-5.183,32.793-17.4,45.2C2529.775,614.431,2517.687,611.656,2510.647,597.234Z" transform="translate(-1656.242 -90.152)"/><path class="cls-22" d="M2869.794,539.741c-3.473-3.2-4.488,1.469-6.624,2.281-6.713,2.551-13.592,3.917-19.143-1.179-5.731-5.264-6.418-12.453-3.3-19.7,3.1-7.2,8.94-11.525,16.454-11.638,6.443-.1,9.657,5.5,12.136,10.924,1.335,2.919.4,6.876,4.006,8.758A20.315,20.315,0,0,1,2869.794,539.741Z" transform="translate(-1656.242 -90.152)"/><path class="cls-17" d="M2119.563,636.083c11.918,4.122,23.4-.169,35.028-1.793-6.314,12.1-16.8,18.015-29.789,20.6-6.252,1.246-7.863-.429-6.268-6.613C2119.539,644.385,2119.264,640.16,2119.563,636.083Z" transform="translate(-1656.242 -90.152)"/><path class="cls-23" d="M2619.343,283.576c9.545-15.521,18.958-31.131,30.7-45.159-3.609,17.492-11.8,33.062-21.136,47.941C2624.652,293.137,2622.048,286.372,2619.343,283.576Z" transform="translate(-1656.242 -90.152)"/><path class="cls-24" d="M2565.662,1210.346c1.346-.074,2.8-.519,4.022-.167,23.607,6.792,41.056-2.925,55.581-20.592-.6,16.645-17.252,30.168-35.632,28.218C2581.3,1216.921,2572.789,1215.59,2565.662,1210.346Z" transform="translate(-1656.242 -90.152)"/><path class="cls-25" d="M2660.693,224.06c2.345,11.589,13.3,17,18.914,26.294,3.264,5.4,7.891,9.985,9.62,16.3-12.372-6.085-19.459-17.827-28.821-27.115C2655.462,234.639,2662.151,229.28,2660.693,224.06Z" transform="translate(-1656.242 -90.152)"/><path class="cls-25" d="M1777.4,1439.663c7.732,5.836,15.774,4.62,24.047,1.275,3.42-1.382,7.075-2.184,10.623-3.251-1.585,7.844-12.6,14.394-24.865,13.661C1780.776,1450.965,1776.628,1446.949,1777.4,1439.663Z" transform="translate(-1656.242 -90.152)"/><path class="cls-26" d="M2656.046,1400.928c10.165,3.083,18.409-2,26.834-6.315.095,8.226-4.309,13.785-11.674,15.867C2663.491,1412.66,2660.278,1405.492,2656.046,1400.928Z" transform="translate(-1656.242 -90.152)"/><path class="cls-27" d="M2562.453,521.013q.875-1.981,1.751-3.964c5.129,10.769,4.512,22.062,2.9,33.463C2566.215,540.566,2565.288,530.634,2562.453,521.013Z" transform="translate(-1656.242 -90.152)"/><path class="cls-28" d="M2684.63,1416.258c-1.716,7.251-6.306,8.769-14.178,6.542C2676.174,1420.682,2680.72,1419.011,2684.63,1416.258Z" transform="translate(-1656.242 -90.152)"/><path class="cls-29" d="M2631.641,427.968c.043-12,8.752-21.593,19.735-21.746,10.486-.146,19.06,8.792,18.974,19.78-.1,12.288-9.515,23.358-19.859,23.34C2640.108,449.324,2631.6,439.675,2631.641,427.968Z" transform="translate(-1656.242 -90.152)"/><path class="cls-30" d="M2766.688,404.653c-.035,11.56-9.907,22.471-20.485,22.644s-17.6-6.983-17.608-17.981c-.011-12.3,9.984-23.445,20.9-23.295C2759.32,386.155,2766.721,394.174,2766.688,404.653Z" transform="translate(-1656.242 -90.152)"/><path class="cls-31" d="M2598.847,573.039c.087-11.907,7.637-20.778,17.634-20.719,9.466.056,16.171,8.633,16.216,20.741.041,11.086-8.343,20.76-18.036,20.809C2605.233,593.918,2598.758,585.388,2598.847,573.039Z" transform="translate(-1656.242 -90.152)"/><path class="cls-32" d="M2847.124,433.315c.03,12.1-7.651,20.255-19.195,20.381-10.294.112-16.3-6.426-16.255-17.691s7.9-19.261,19.077-19.4C2840.326,416.481,2847.1,423.394,2847.124,433.315Z" transform="translate(-1656.242 -90.152)"/><path class="cls-9" d="M2312.3,400.234c9.359,8.775,9.984,21.126,11.408,32.318a104.823,104.823,0,0,1-11.689,63.8c-.919,1.717-2.557,3.049-3.861,4.559-21.889,17.471-34.243,15.3-47.547-9.326-8.057-14.913-12.059-30.867-9.306-48.2,1.433-9.023.5-18.343,2.85-27.355,2.526-9.673,6.016-18.862,12.719-26.425,11.995-13.532,26.854-13.184,38.339.652C2307.828,393.409,2310,396.864,2312.3,400.234Z" transform="translate(-1656.242 -90.152)"/><path class="cls-1" d="M2300.036,571.655c34.954-28.069,65.91-27.574,88.251,1.158,20.669,26.581,14.7,71.037-12.519,90.629-21.891,15.758-60.028,16.014-83.391-20.3-10.417,13.5-18.342,29.791-37.712,34.564.236-6.374,4.436-8.264,7.135-11.035,16.976-17.423,24.919-38.256,25.912-62.507,1-24.315-1.784-47-20.055-65.161-2.9-2.878-5.863-5.685-8.778-8.544-1.427-1.4-3.42-2.8-2.314-5.093,1.468-3.038,4.275-1.541,6.331-.994,7.536,2.007,12.988,7.3,18.271,12.6C2290.773,546.615,2296.266,558.637,2300.036,571.655Z" transform="translate(-1656.242 -90.152)"/><path class="cls-9" d="M2410.075,488.557c-13.087-19.9-13.388-42.131-11.306-64.618a95.9,95.9,0,0,1,5.986-24.559c1.318-3.536,2.657-3.989,5.115-1.2,3.476-2.406,4.733-6.549,7.53-9.541,8.856-9.472,19.547-9.371,27.979.556a30.81,30.81,0,0,1,7.032,13.466c4.329,20.655,7.92,41.39,3.319,62.54a73.926,73.926,0,0,1-9.4,22.513c-5.664,9.364-14.311,11.194-23.462,5.2C2418.93,490.335,2415.544,486.49,2410.075,488.557Z" transform="translate(-1656.242 -90.152)"/><path class="cls-33" d="M2312.3,400.234c-5.963-.217-6.98-5.9-9.9-9.29-9.738-11.291-20.871-12.129-31.662-1.794a38.658,38.658,0,0,0-5.876,7.022c-12.987,20.376-18.214,78.363,4.248,103.815,10.526,11.926,18.536,13.471,31.056,3.148,2.433-2.006,4.543-4.272,7.995-2.228-1.392,11.156-13.58,19.053-26.528,17.127-10.9-1.621-19.1-7.362-23.866-17.2-6.562-13.553-9.916-27.913-11.811-42.991-2.889-23-.264-44.687,9.916-65.432,5.757-11.731,15.4-18.779,28.39-18.342,12.857.432,22.158,7.878,27.878,19.534C2313.235,395.849,2314.058,397.976,2312.3,400.234Z" transform="translate(-1656.242 -90.152)"/><path class="cls-33" d="M2410.075,488.557c.1-4.75.374-8.373,6.592-4.057,19.746,13.709,25.605,12.031,33.6-10.868,8.786-25.177,5.3-50.51-2.455-75.136-4.431-14.071-19.135-22.866-30.8-4.715-1.62,2.519-3.168,5.51-7.13,4.4-.6-11.568,6.548-17.011,16.147-20.631,9.69-3.655,16.532,1.087,22.227,7.916,7.4,8.871,10.4,19.783,12.031,30.907,3.487,23.858,3.368,47.58-7.294,69.882-9.575,20.029-28.2,21.6-41.82,4.015C2410.752,489.74,2410.436,489.131,2410.075,488.557Z" transform="translate(-1656.242 -90.152)"/><path class="cls-34" d="M2114.025,743.046c-14.405-.026-21.388-6.07-21.318-18.452q.106-18.545,19.991-18.527c13.994.007,22.872,6.694,23.059,17.371C2135.968,735.482,2127.558,743.07,2114.025,743.046Z" transform="translate(-1656.242 -90.152)"/><path class="cls-34" d="M2210.288,676.041c11.552.078,15.817,4.2,15.638,15.109-.2,12.437-8.635,21.119-20.236,20.838-10.956-.266-17.075-6.514-16.959-17.316C2188.867,682.058,2195.941,675.945,2210.288,676.041Z" transform="translate(-1656.242 -90.152)"/><path class="cls-35" d="M2342.745,787c.021,12.138-8.673,21.133-20.2,20.9a18.145,18.145,0,0,1-17.959-18.375c.215-11.416,9.279-19.328,21.911-19.128C2336.94,770.563,2342.727,776.475,2342.745,787Z" transform="translate(-1656.242 -90.152)"/><path class="cls-36" d="M2053.206,943.951a17.637,17.637,0,0,1-17.564-18.506c.347-9.315,10.975-18.482,21.3-18.37,8.505.092,15.49,9.245,15.094,19.778C2071.647,937.147,2064,944.093,2053.206,943.951Z" transform="translate(-1656.242 -90.152)"/><path class="cls-35" d="M2060.243,819.428c-.035,11.578-7.147,19.452-17.538,19.418-8.018-.026-13.762-7.233-13.522-16.966.243-9.846,6.971-16.108,17.089-15.9C2055.705,806.164,2060.271,810.561,2060.243,819.428Z" transform="translate(-1656.242 -90.152)"/><path class="cls-37" d="M2863.729,526.513c-.037,7.979-4.3,10.708-10.3,11.09-5.644.359-8.011-3.752-7.925-8.414.124-6.757,4.068-12.086,10.792-12.629C2863.627,515.967,2861.711,523.537,2863.729,526.513Z" transform="translate(-1656.242 -90.152)"/><path class="cls-38" d="M2662.451,422.392c.234,10.838-5.551,19.195-11.828,18.746-7.727-.552-11.05-5.426-10.98-13.023.076-8.213,3.9-14.289,11.908-15.051C2658.653,412.387,2661.932,418.013,2662.451,422.392Z" transform="translate(-1656.242 -90.152)"/><path class="cls-38" d="M2734.952,408.2c.954-8.59,7.94-15.31,14.448-14.416,6.388.878,10.844,4.452,10.731,11.373-.122,7.393-9.391,16.845-14.975,15.274C2738.714,418.616,2734.846,414.171,2734.952,408.2Z" transform="translate(-1656.242 -90.152)"/><path class="cls-39" d="M2625.541,571.473c.61,10.28-2.77,16.531-10.583,17.02-7.626.477-9.854-6.481-9.752-12.858.116-7.247,1.416-15.314,10.772-15.621C2624.807,559.724,2625.029,567.393,2625.541,571.473Z" transform="translate(-1656.242 -90.152)"/><path class="cls-38" d="M2840.833,433.979c-.228,7.326-6.686,13.89-13.686,13.635-7.793-.284-9.165-5.866-9.134-12.039a13.2,13.2,0,0,1,13.847-13.1C2837.29,422.885,2841.03,427.68,2840.833,433.979Z" transform="translate(-1656.242 -90.152)"/><path class="cls-40" d="M2304.8,444.255c1.855-5.463-.885-16.129,7.021-16.26,8.966-.148,6.454,10.731,7.938,17.149.49,2.119-.519,4.659-1.115,6.936-1.027,3.93.269,10.093-6.169,9.767-5.423-.274-5.848-5.693-6.717-9.934C2305.289,449.606,2305.162,447.229,2304.8,444.255Z" transform="translate(-1656.242 -90.152)"/><path class="cls-41" d="M2343.165,662.788c-19.649.324-33.327-9.739-43.751-25.4-1.744-2.62-3.229-5.285-2.169-8.556,3.958-12.209,2.336-25.035,4.007-37.517.818-6.111,2.873-8.149,8.661-8.552,26.7-1.861,62.6,25.454,67.572,51.668,2.969,15.664-6.287,26.168-25.118,28.307A82.07,82.07,0,0,1,2343.165,662.788Z" transform="translate(-1656.242 -90.152)"/><path class="cls-42" d="M2386.518,635.117c-5.128-32.548-35.534-57.721-72.483-61.012,12.952-16.645,39.6-18.146,57.764-4.764C2391.558,583.9,2398.507,611.472,2386.518,635.117Z" transform="translate(-1656.242 -90.152)"/><path class="cls-43" d="M2419.117,440.685c-.909,4.82-1.742,9.837-2.84,14.8-.532,2.4-1.883,4.6-4.618,4.822-3.214.265-4.744-1.842-5.76-4.686a32.813,32.813,0,0,1,.347-23.87c1.122-2.844,1.729-6.519,5.414-6.522,4.173,0,5.072,4.11,6.17,7.174C2418.725,434.9,2418.7,437.727,2419.117,440.685Z" transform="translate(-1656.242 -90.152)"/><path class="cls-44" d="M2115.461,712.445c4.562.263,10.4,3.342,11.477,11.371.842,6.261-6.318,12.355-13.447,12.359-8.446,0-13.652-5.166-13.213-13.271C2100.692,715.261,2105.132,712.133,2115.461,712.445Z" transform="translate(-1656.242 -90.152)"/><path class="cls-45" d="M2204.49,705.986c-6.388-.718-9.862-4.159-8.815-10.928.941-6.076,3.4-12.264,10.561-11.352,5.588.71,12.75,2.521,11.575,11.269C2216.8,702.543,2212.574,706.515,2204.49,705.986Z" transform="translate(-1656.242 -90.152)"/><path class="cls-46" d="M2311.414,789.13c.053-7.815,5.306-12.183,14.322-12.156,7.07.021,10.738,3.315,10.85,10.47.117,7.434-5.961,13.924-13.212,14.045C2316.506,801.6,2311.365,796.291,2311.414,789.13Z" transform="translate(-1656.242 -90.152)"/><path class="cls-38" d="M2051.121,937.523c-4.8-.3-7.944-5.051-8.622-11.213-.652-5.928,7.322-12.348,14.227-11.906,7.668.491,9.07,6.368,9.116,12.31C2065.89,933.117,2060,937.859,2051.121,937.523Z" transform="translate(-1656.242 -90.152)"/><path class="cls-45" d="M2045.733,812.2c4.565.641,9.771,1.52,9.17,7.855-.551,5.807-2.555,11.271-10.2,11.464-6.21.156-8.628-3.612-8.715-8.76C2035.885,816.8,2038.559,812.4,2045.733,812.2Z" transform="translate(-1656.242 -90.152)"/></svg>