<svg xmlns="http://www.w3.org/2000/svg" viewBox="0 0 44.68 50.11"><defs><style>.cls-1{fill:#0d131a;}.cls-1,.cls-10,.cls-11,.cls-12,.cls-13,.cls-14,.cls-15,.cls-16,.cls-17,.cls-18,.cls-2,.cls-3,.cls-4,.cls-5,.cls-6,.cls-7,.cls-8,.cls-9{fill-rule:evenodd;}.cls-2{fill:#f19963;}.cls-3{fill:#d18456;}.cls-4{fill:#c9c279;}.cls-5{fill:#e85377;}.cls-6{fill:#c94768;}.cls-7{fill:#f0e78e;}.cls-8{fill:#bf794e;}.cls-9{fill:#965e3a;}.cls-10{fill:#152139;}.cls-11{fill:#fff;}.cls-12{fill:#dbdcdc;}.cls-13{fill:#efe908;}.cls-14{fill:#cec90c;}.cls-15{fill:#922f00;}.cls-16{fill:#ed8599;}.cls-17{fill:#eeeeef;}.cls-18{fill:#c8c9ca;}</style></defs><title>Asset 5@</title><g id="Layer_2" data-name="Layer 2"><g id="Layer_1-2" data-name="Layer 1"><path class="cls-1" d="M7.34,35.68a1.37,1.37,0,0,1,.95-.36,1.88,1.88,0,0,1,1,.26,3,3,0,0,1,.91,1c.24.38.64,1.14,1.19,2.29a15.83,15.83,0,0,1,1.14,2.82l.21-.16a4.47,4.47,0,0,0,.9-.77,3.4,3.4,0,0,0,.64-1.44v-.11l2.77.29-.08.34a5.8,5.8,0,0,0-.26,1.8l0,.06-.53.6-1.4,1a11.35,11.35,0,0,0-1.42,1.24c-.06.06-.05.23,0,.5l.22.69.15.57a1.35,1.35,0,0,1-.33,1,1.49,1.49,0,0,1-1.05.59,1.28,1.28,0,0,1-.61-.11,1.53,1.53,0,0,1-.57-.35.71.71,0,0,1-.28-.45v0L11,46.4a1.41,1.41,0,0,0,0-.72,1.9,1.9,0,0,1-.8-.3,1.75,1.75,0,0,1-.59-.65A13.8,13.8,0,0,0,7.92,42a9.77,9.77,0,0,0-2.78-2.09l-.42-.09c-.88-.27-1.31-.73-1.31-1.4v-.18a1.42,1.42,0,0,1,.2-.61,1.33,1.33,0,0,1,.43-.45A1.15,1.15,0,0,1,4.89,37v0a1.64,1.64,0,0,1,.21-.84,1.47,1.47,0,0,1,.62-.56,1.7,1.7,0,0,1,.86-.16,1.41,1.41,0,0,1,.76.29Z"/><path class="cls-2" d="M7.22,35.86a1.47,1.47,0,0,0-.27.53,1.28,1.28,0,0,0,0,.61,1.24,1.24,0,0,0,.29.57,1.18,1.18,0,0,0,.49.37,5.89,5.89,0,0,1,1.5,1.58,9.7,9.7,0,0,1,1.2,1.81c.11.28.18.4.22.38s0-.18-.08-.44a8.75,8.75,0,0,0-1.19-2,5.26,5.26,0,0,0-1.51-1.57,1.06,1.06,0,0,1-.43-.33,1.3,1.3,0,0,1-.25-.53,1,1,0,0,1,0-.49A.86.86,0,0,1,7.33,36l0,0,.07-.08a1.06,1.06,0,0,1,.86-.35,1.82,1.82,0,0,1,.89.28,2.41,2.41,0,0,1,.84.84,20.2,20.2,0,0,1,2,4.19l.36,1.23a3.16,3.16,0,0,0,.16.48c.1,0,.1-.17,0-.68l.34-.22a5.22,5.22,0,0,0,.91-.79,3.46,3.46,0,0,0,.69-1.47l2.31.24v.08a7.91,7.91,0,0,0-.29,1.64v.18l-.48.33A12.75,12.75,0,0,0,14.58,43a9.2,9.2,0,0,0-1.35,1.4C13.08,44.11,13,44,13,44s0,.2.17.55l.1.47a4,4,0,0,0,.13.6l.14.53v.09a1.32,1.32,0,0,1-.29.82,1.15,1.15,0,0,1-.82.48,1.22,1.22,0,0,1-.49-.09,1.62,1.62,0,0,1-.5-.3.45.45,0,0,1-.17-.35l.06-.4a3,3,0,0,0,0-.89,3.06,3.06,0,0,0-.19-.84c-.07-.13-.12-.15-.14-.08a.47.47,0,0,0,0,.28l.08.5a1.19,1.19,0,0,1-.68-.34,1.69,1.69,0,0,1-.42-.5,13.2,13.2,0,0,0-1.84-2.78A10.92,10.92,0,0,0,5.2,39.65a.58.58,0,0,0,.21-.13c0-.07-.13-.08-.56,0a1.14,1.14,0,0,1-.79-.3,1,1,0,0,1-.42-.92,1.18,1.18,0,0,1,.53-.9.92.92,0,0,1,.73-.16,2.34,2.34,0,0,0,.32.63,1.61,1.61,0,0,0,.67.54,7.8,7.8,0,0,1,1.52,1.23A10.44,10.44,0,0,1,8.9,41.22c.21.33.33.46.37.4s0-.23-.23-.51a14,14,0,0,0-1.36-1.56A6.71,6.71,0,0,0,6,38.14a1.24,1.24,0,0,1-.81-1.25,1.14,1.14,0,0,1,.61-1.14,1.44,1.44,0,0,1,.74-.13,1.2,1.2,0,0,1,.66.24Z"/><path class="cls-3" d="M12.94,44.08a4.36,4.36,0,0,0,.18.48l.1.47a4,4,0,0,0,.13.6l.14.53v.09a1.32,1.32,0,0,1-.29.82,1.15,1.15,0,0,1-.82.48,1,1,0,0,1-.42-.07l.22-.22a1.1,1.1,0,0,1,.47-.24c.15,0,.2-.44.15-1.19a3.72,3.72,0,0,1,.14-1.75Z"/><path class="cls-3" d="M13.23,44.36A1,1,0,0,0,13,44a13.27,13.27,0,0,1,1.59-2.18c.94-1.11,1.55-1.85,1.82-2.23l.39,0v.08a7.91,7.91,0,0,0-.29,1.64v.18l-.48.33A12.75,12.75,0,0,0,14.58,43a9.2,9.2,0,0,0-1.35,1.4Z"/><path class="cls-3" d="M12.53,41.89l.18-.12a4.86,4.86,0,0,1-.1.71,3.17,3.17,0,0,0-.08-.59Zm-3-4.62a2.31,2.31,0,0,1-.29-.84,1.49,1.49,0,0,0-.29-.7,2.38,2.38,0,0,1,1,.94,20.2,20.2,0,0,1,2,4.19l.36,1.23a3.16,3.16,0,0,0,.16.48h.06l0,0c-.08.3-.15.37-.21.22-.14-.34-.48-1.07-1-2.2q-1-2.16-1.77-3.36Z"/><path class="cls-1" d="M14.06,36.51l-.1-.2,7.12,2-.07.11-.35.32c-.54.45-.94.82-1.22,1.1a5.29,5.29,0,0,0-1.13,1.63v0l-.38-.06a6.62,6.62,0,0,0-.7.24,1.86,1.86,0,0,0-.61.41l-.22.24.06-.32a5,5,0,0,1,.19-.65l.14-.46a2.73,2.73,0,0,1-.47.33,5.34,5.34,0,0,0-.71.53l-.21.19,0-.28a2.38,2.38,0,0,1,.15-.5l.11-.37a2.23,2.23,0,0,0-.44.29,1.1,1.1,0,0,0-.32.34l-.18-.06a3,3,0,0,1,.26-.8,2.14,2.14,0,0,0,.21-.64l-.38.07-.58.12.14-.35.13-.35-.26.19-.59.44.3-1a7.5,7.5,0,0,0,.31-1.29,2.13,2.13,0,0,0-.24-1.28Z"/><path class="cls-4" d="M14.63,39.16l-.46.35-.14.11.13-.48.23-.8a3.64,3.64,0,0,0,.11-.82,2.3,2.3,0,0,0-.19-.92l6.3,1.73-.21.18a13.81,13.81,0,0,0-1.19,1.1,5.37,5.37,0,0,0-1.11,1.63l-.23.07-.61.21a2.46,2.46,0,0,0-.56.3l.12-.35a4.39,4.39,0,0,0,.21-.74l0-.25-.18.17-.67.47c-.2.14-.38.26-.51.37l.06-.21a2.35,2.35,0,0,0,.16-.58l0-.16-.14.06a2.19,2.19,0,0,0-.76.48l.15-.38.17-.41.09-.41v-.11h-.11a3.45,3.45,0,0,0-.55.1l-.22.05v0a2.16,2.16,0,0,0,.21-.66l0-.24-.18.17Z"/><path class="cls-1" d="M37.65,43.82l-.1.08a5.59,5.59,0,0,1-1.56.7c-.88.3-1.42.37-1.64.21s-1.27-1.57-3.22-4.28l-3-4.26L28,36.22l.57-1,9,8.61Z"/><path class="cls-5" d="M28.66,35.57l8.64,8.22a5.49,5.49,0,0,1-1.25.49,4.54,4.54,0,0,1-1.41.24q-.45-.42-3.24-4.15L28.31,36.2l.35-.63Z"/><path class="cls-6" d="M28.66,35.57l3,2.83a10.13,10.13,0,0,1-1.83-.18l-1.49-2,.35-.63Z"/><path class="cls-1" d="M42.7,39.73c-.43.64-.75,1.07-1,1.31l-.06.06-13.36-7,.78-.85.07,0,7.29,2.55a64.78,64.78,0,0,1,6.94,2.63c0,.13-.2.57-.71,1.3Z"/><path class="cls-5" d="M41.48,40.69,28.69,34l.49-.52L36,36q6.26,2.3,6.93,2.65a6.75,6.75,0,0,1-1.49,2.06Z"/><path class="cls-6" d="M35.44,35.75a3.43,3.43,0,0,0-.58.63,2.08,2.08,0,0,1-.6.57L30.5,35l-1.81-1,.49-.52,6.26,2.26Z"/><path class="cls-1" d="M40.66,42.87v.2c-.53.33-1.06.63-1.58.91-1,.56-1.63.79-1.77.67s-3.27-3.23-9.12-9.15l-.06,0,.51-1,12,8.45Z"/><path class="cls-5" d="M37.5,44.29c-.36-.3-1.9-1.78-4.6-4.45L28.41,35.4l.33-.64,11.52,8.1a12.15,12.15,0,0,1-2.76,1.43Z"/><path class="cls-6" d="M31.55,38.51,28.41,35.4l.33-.64,4.8,3.38a12.35,12.35,0,0,1-2,.37Z"/><path class="cls-1" d="M43.51,41.24c0,.15-.46.6-1.42,1.34s-1.48,1.07-1.59,1-4.09-3-11.85-8.9l.78-.84.07,0,7.2,3.64a64.66,64.66,0,0,1,6.81,3.69Z"/><path class="cls-5" d="M42.16,42.07l-1.63,1.2L29,34.68l.49-.53,6.7,3.49q6.07,3.18,6.89,3.64a5.85,5.85,0,0,1-.9.79Z"/><path class="cls-6" d="M35.14,37.1a14.33,14.33,0,0,1-1.77.84L29,34.68l.49-.53,5.67,3Z"/><path class="cls-1" d="M9.69,10.53q.11-1.41.54-1.11a3.6,3.6,0,0,1,.77.75,3.18,3.18,0,0,1,.68,1.38,13.73,13.73,0,0,1,.2,4.15,8.93,8.93,0,0,1-.49,2.3c-.08.19-.46.33-1.13.43l-3.19.12c-1.36-.07-2.19-.3-2.5-.68a12.69,12.69,0,0,1-1.23-1.76,3.86,3.86,0,0,1-.48-1.7c0-1.32.08-2.67.15-4.06.06-1,.08-2.24.09-3.76V3.25C3,2.41,3,1.75,3,1.26,3,.35,3.06-.07,3.31,0s.38.12.64.51a4.53,4.53,0,0,1,.62,1.39c.47-.12.91.22,1.34,1a5.42,5.42,0,0,1,.65,1.91c.72-.25,1.4.67,2,2.75a35.61,35.61,0,0,1,1,4.71c0-.69,0-1.27,0-1.76Z"/><path class="cls-7" d="M10.88,10.41a3.22,3.22,0,0,1,.62,1.33,13.58,13.58,0,0,1,.21,4,7.68,7.68,0,0,1-.47,2.2c0,.05-.11.11-.26.16l-.74.17a13.62,13.62,0,0,1-3.21,0,3.73,3.73,0,0,1-2.33-.68A5.86,5.86,0,0,1,3.18,14.1c0-.45,0-1.73.08-3.85l.09-5.42c0-1.85,0-2.94,0-3.28-.06-.65,0-1,.11-1s.23.07.39.29A4.53,4.53,0,0,1,4.45,2l0,0h0c.43.07.85.47,1.24,1.2a11.23,11.23,0,0,1,.68,1.68l0,0h.06c.66,0,1.34,1.09,2,3.32a24.62,24.62,0,0,1,1,4.56l0,.22c0,.1.07,0,.1-.21l.2-1.67a7.05,7.05,0,0,1,.19-1.34s0,0,.08,0,.41.21.69.61Z"/><path class="cls-4" d="M9.92,11.19a7.05,7.05,0,0,1,.19-1.34s0,0,.08,0,.41.21.69.61a3.22,3.22,0,0,1,.62,1.33,13.58,13.58,0,0,1,.21,4,7.68,7.68,0,0,1-.47,2.2c0,.05-.11.11-.26.16l-.74.17-1.87.11a16.39,16.39,0,0,1-1.07-5L6.88,9C6.72,7.42,6.54,6,6.36,4.71L6.45,5h.06c.66,0,1.34,1.09,2,3.32a24.62,24.62,0,0,1,1,4.56l0,.22c0,.1.07,0,.1-.21l.2-1.67Z"/><path class="cls-1" d="M6.15,12.66a7.6,7.6,0,0,1,.61.88,3.91,3.91,0,0,1,.39.72,1.21,1.21,0,0,1-.14.59l-.33.5A1,1,0,0,0,6.6,16.5a10.29,10.29,0,0,1,.94,1.91l0,.11H7.46a9.82,9.82,0,0,1-1.6-.2,2.14,2.14,0,0,1-1.27-.57A9.25,9.25,0,0,1,3.41,16,3.88,3.88,0,0,1,3,14.31l.06-1,.13-.25.25-.6c.11-.24.17-.29.2-.17.07.32.15.63.24.92s.2.57.22.45a3,3,0,0,1,.52-1.23c.44-.56,1-.48,1.55.24Z"/><path class="cls-8" d="M7.49,15.5a4.36,4.36,0,0,1-.08,1.6,2.75,2.75,0,0,0-.06,1.25,9.15,9.15,0,0,1-1.73-.25,1.89,1.89,0,0,1-.92-.45A5.86,5.86,0,0,1,3.18,14.1l0-.61L3.37,13c.11-.32.16-.42.15-.29a3.22,3.22,0,0,0,.3,1c.21.52.31.71.32.57a2.7,2.7,0,0,1,.51-1.42c.32-.46.58-.62.8-.48A5.89,5.89,0,0,1,6.6,13.66a5.2,5.2,0,0,1,.89,1.84Z"/><path class="cls-9" d="M4.84,12.58c.25-.26.45-.34.61-.24A5.89,5.89,0,0,1,6.6,13.66a5.2,5.2,0,0,1,.89,1.84,4.36,4.36,0,0,1-.08,1.6,2.75,2.75,0,0,0-.06,1.25,8,8,0,0,1-2-.33l-.72-2.1a8.94,8.94,0,0,1-.35-2.36,3,3,0,0,1,.56-1Z"/><path class="cls-1" d="M6.43,4.9l.15,0c.19.87.4,2.27.62,4.19.19,1.7.3,2.87.32,3.51s0,.77-.08.74-.11-.29-.11-.79S7.23,10.8,7,9.06c-.22-1.91-.42-3.3-.61-4.16Z"/><path class="cls-1" d="M4.36,1.74c-.12-.37-.11-.42,0-.18L4.63,2a49.2,49.2,0,0,1,.65,5.49c.21,2.47.31,4,.31,4.72,0,.11,0,.14-.17.06l-.17-.14c0-.73-.08-2.46-.29-5.2a34.76,34.76,0,0,0-.6-5.22Z"/><path class="cls-1" d="M2.48,22.46l.21-.94A7.58,7.58,0,0,1,3,20.47a8.07,8.07,0,0,1,2.6-3.24,6.58,6.58,0,0,1,3.92-1.57A4.94,4.94,0,0,1,13,17.05a16.22,16.22,0,0,1,2.34,3.19c.67,1.09,1.2,1.88,1.57,2.38a11.58,11.58,0,0,0,2,2.13q2.76,2.17,10.6,8.77l1.59,1.62-2.13.45a7,7,0,0,1,.15.91,2,2,0,0,1,0,.78s-.21,0-.49-.21l-.47-.34c-.15-.12-.39-.08-.72.14s-.9.64-2.15,1.59a8.07,8.07,0,0,1-4.29,1.77A17.12,17.12,0,0,1,14.61,39,8.19,8.19,0,0,1,10,35.27,10.53,10.53,0,0,1,8.8,31.18l-.08-.64-.08-.47a7.17,7.17,0,0,0-.92-.63c-.54-.34-.91-.57-1.1-.72L5.54,28a3.55,3.55,0,0,1-.83-.76L4.65,27a18.93,18.93,0,0,1-1.27-2.25,8.24,8.24,0,0,1-.7-2,.33.33,0,0,0-.11-.17.35.35,0,0,1-.09-.17Z"/><path class="cls-7" d="M3.18,20.56a7.77,7.77,0,0,1,2.43-3,6.27,6.27,0,0,1,3.88-1.62,4.67,4.67,0,0,1,3.4,1.32,16.32,16.32,0,0,1,2.3,3.14c.67,1.09,1.2,1.89,1.59,2.41a11.35,11.35,0,0,0,2.07,2.17q2.76,2.16,10.59,8.76L30.74,35l-.91.2-1.13.25c-.28.08-.37.14-.3.18h.34l.17.74A3.43,3.43,0,0,1,29,37l-.28-.17-.32-.24a.93.93,0,0,0-.32-.2.8.8,0,0,0-.45.08,15.17,15.17,0,0,0-2.13,1.46,8.6,8.6,0,0,1-4.23,1.87,15.54,15.54,0,0,1-6.41-1.16,8,8,0,0,1-4.47-3.78A13.77,13.77,0,0,1,9.09,30.9a4.46,4.46,0,0,0-.18-.64c.52.22.52.11,0-.33L7.22,28.68a10,10,0,0,1-2.17-1.91,15.94,15.94,0,0,1-1.54-2.85A6.38,6.38,0,0,1,3,21.61a2.69,2.69,0,0,1,.19-1.05Z"/><path class="cls-4" d="M14.87,38.61A8,8,0,0,1,11,35.74a15,15,0,0,0,7.66,2.37,18.07,18.07,0,0,0,7-1.64q.63-.26,2-1a2.56,2.56,0,0,1,1.89-.25l-.88.2c-.28.08-.37.14-.3.18h.34l.17.74A3.43,3.43,0,0,1,29,37l-.28-.17-.32-.24a.93.93,0,0,0-.32-.2.8.8,0,0,0-.45.08,15.17,15.17,0,0,0-2.13,1.46,8.6,8.6,0,0,1-4.23,1.87,15.54,15.54,0,0,1-6.41-1.16Z"/><path class="cls-1" d="M8.73,21.38A6,6,0,0,0,7,21.91c-.39.18-1,.5-1.74.95s-1.46.82-1.85,1l-.07,0,0-.07A4.58,4.58,0,0,1,3,20.49a8,8,0,0,1,2.58-3.23,6.58,6.58,0,0,1,3.9-1.56,5.31,5.31,0,0,1,3.67,1.36,15.18,15.18,0,0,1,2.48,3.24c.66,1.07,1.18,1.86,1.57,2.38a11.37,11.37,0,0,0,1.93,2.12q1.84,1.53,13,8.25c.31.18.4.27.26.27l-.71-.12L30.91,33l-.63-.13.42.32c.17.13.39.29.66.47s.41.29.36.29l-.53-.09-.8-.16-.67-.13c.27.29.68.69,1.25,1.22.27.25.4.42.37.48s-.23,0-.6-.15c-.53-.32-1.12-.65-1.75-1-1.28-.73-2.57-1.4-3.85-2A50.19,50.19,0,0,0,12.69,28c-.13,0-.16-.09-.08-.2l.26-.5-.72.16,0-.16a13.66,13.66,0,0,0,.54-2.64c.11-1,.09-1.49,0-1.6a4.86,4.86,0,0,0-4-1.65Z"/><path class="cls-8" d="M3.14,20.55a7.94,7.94,0,0,1,2.53-3.17,6.4,6.4,0,0,1,3.82-1.53,4.94,4.94,0,0,1,3.57,1.43,18.5,18.5,0,0,1,2.42,3.29c.65,1.05,1.15,1.81,1.51,2.3a11.34,11.34,0,0,0,1.89,2c.7.58,2.78,2,6.22,4.12L31.46,33l-.71-.1L30,32.71c-.23-.06-.31-.05-.23,0l.17.12,1.09.79-1.69-.24c-.08,0,0,.14.37.47l.83.84a54,54,0,0,0-6.38-3.35,48.42,48.42,0,0,0-11.37-3.58l.3-.59.1-.16c0-.09,0-.11-.16,0a4.39,4.39,0,0,1-.65.24,13.54,13.54,0,0,0,.4-1.8A10.88,10.88,0,0,0,13,23.68c0-.42,0-.67-.16-.76A5,5,0,0,0,8.7,21.24a6.22,6.22,0,0,0-1.82.55c-.39.18-1,.49-1.74.94s-1.34.76-1.76.95A6,6,0,0,1,3,21.62a2.83,2.83,0,0,1,.19-1.07Z"/><path class="cls-9" d="M3,21.62a2.83,2.83,0,0,1,.19-1.07,7.94,7.94,0,0,1,2.53-3.17,6.4,6.4,0,0,1,3.82-1.53A4.87,4.87,0,0,1,13,17.2a16,16,0,0,1,2.37,3.14A10.92,10.92,0,0,0,9,19.89,11.75,11.75,0,0,0,3.16,23,5.39,5.39,0,0,1,3,21.62Z"/><path class="cls-9" d="M19.33,27.43c.71.17,1.76.49,3.14.95s2.51.81,3.18,1L29.86,32a13.48,13.48,0,0,0-4.55-.07,50.1,50.1,0,0,0-11.7-4c1.44-.9,3.35-1.06,5.72-.5Z"/><path class="cls-1" d="M2.81,21.81v0L4.06,21c1-.65,1.63-1.08,2-1.28a7.19,7.19,0,0,1,2.24-.83,6.49,6.49,0,0,1,3.1.91A24.36,24.36,0,0,1,14,21.45l.2.15c.29.21.2,1-.27,2.36a15,15,0,0,1-1.56,3.36l-.14-.05a15.29,15.29,0,0,0,.26-2.42c0-1.07-.15-1.75-.5-2.05a5.74,5.74,0,0,0-3.33-1.4c-.45.17-1,.39-1.54.66l-1.59.78L3.3,23.89l0-.07a6.61,6.61,0,0,1-.46-2Z"/><path class="cls-10" d="M4.14,21.07a21.57,21.57,0,0,1,1.93-1.2,7.06,7.06,0,0,1,2.17-.76,6.3,6.3,0,0,1,3,.87,20.58,20.58,0,0,1,2.49,1.63l.2.15c.08,0,.12.18.12.41a7.53,7.53,0,0,1-.47,2.12A14.27,14.27,0,0,1,12.4,26.9l.19-1.15a10.11,10.11,0,0,0,.1-1.21,2.7,2.7,0,0,0-.54-2,7.67,7.67,0,0,0-1.85-1,4.43,4.43,0,0,0-1.7-.29h0c-.71.27-1.77.75-3.16,1.45l-2,1A6.85,6.85,0,0,1,3,21.84l1.18-.77Z"/><path class="cls-1" d="M8.29,19.13l.06,0,.13,0a2,2,0,0,1,.24.76,7.07,7.07,0,0,1,.08,1,2.17,2.17,0,0,1,0,.47v.06h0s-.09.07-.27.15l-1.27.51c-.75.3-1.34.56-1.77.77l-1.14.57,0-.16a5.53,5.53,0,0,1,1.91-2.7,13.71,13.71,0,0,1,2-1.42Z"/><path class="cls-11" d="M8.3,19.29a3,3,0,0,1,.24.69,4.1,4.1,0,0,1,.11.9l0,.37h0c-.67.26-1.73.74-3.17,1.45l-.85.41a5.56,5.56,0,0,1,1.82-2.45A13.38,13.38,0,0,1,8.3,19.29Z"/><path class="cls-12" d="M8.62,20.4a4.65,4.65,0,0,0-3,1.06,10.76,10.76,0,0,1,1.55-1.39c.4-.29.79-.55,1.18-.78a3.6,3.6,0,0,1,.32,1.11Z"/><path class="cls-1" d="M5.91,20.78a.44.44,0,0,1,.44,0,1,1,0,0,1,.39.43.93.93,0,0,1,.11.57.48.48,0,0,1-.25.38.45.45,0,0,1-.43,0,1,1,0,0,1-.39-.43A.88.88,0,0,1,5.7,21a.4.4,0,0,1,.21-.26Z"/><path class="cls-11" d="M6.05,21.28s.11,0,.21.25.21.44.13.4a1,1,0,0,1-.26-.33c-.09-.18-.12-.29-.08-.32Z"/><path class="cls-1" d="M2.51,20.4l0-.16.11.12.61.83a6.2,6.2,0,0,1,.59.88v0l0,.08-1.15,0h0l0,0a5.88,5.88,0,0,1-.17-.71,2.58,2.58,0,0,1,.07-1Z"/><path class="cls-11" d="M2.61,20.94l0-.33c.64.87,1,1.36,1,1.49a1.15,1.15,0,0,1-.34.16.63.63,0,0,1-.6-.2,4.07,4.07,0,0,1-.14-1.12Z"/><path class="cls-1" d="M3.29,22.19a.79.79,0,0,0,.09-.56l.31.47-.4.09Z"/><path class="cls-1" d="M3.23,21.45a1.9,1.9,0,0,1-.07.68c0,.05-.1.06-.19,0a2,2,0,0,1-.11-1.3l.19.29.18.31Z"/><path class="cls-11" d="M3.08,21.54v.36l0,0A.7.7,0,0,1,3,21.66v-.3l0,.09,0,.09Z"/><path class="cls-1" d="M39.14,31.16l.37.05c.16,0,0,.1-.38.17a7.15,7.15,0,0,1-2.48-.28,21.43,21.43,0,0,1-3.08-.93,49,49,0,0,0,4.62,2.15l.31.17c.14.1,0,.11-.35,0a27.79,27.79,0,0,1-4.58-1.3c-1-.34-2.25-.86-3.92-1.57.51.33,1.25.76,2.22,1.31l2.21,1.19.71.39-.06.21A14.82,14.82,0,0,1,31,31.66a32.39,32.39,0,0,1-4.7-2.47,32.71,32.71,0,0,1-9.09-8.14,5.29,5.29,0,0,0-2.48-1.81,7.68,7.68,0,0,0-3.45-.4,8.86,8.86,0,0,0-4.06,1.45,7.5,7.5,0,0,0-2.69,3.08s-.08-.06-.2-.25a1.38,1.38,0,0,0-.23-.3c-.14,0-.43-.35-.89-1a5.94,5.94,0,0,1-.79-1.31l-.08-.24A.94.94,0,0,1,2.24,20a4.4,4.4,0,0,1,.39-1.68,3.79,3.79,0,0,1,1.12-1.59A7.4,7.4,0,0,1,5.41,15,7.45,7.45,0,0,1,8.07,13.9a7.7,7.7,0,0,1,2.14-.2,9.24,9.24,0,0,1,1.5.19l.66.11a9.17,9.17,0,0,1,4.37,1.19,24.64,24.64,0,0,1,3.82,2.32c.9.67,1.92,1.51,3,2.51l3,2.77a69,69,0,0,0,6.09,5.33,15.32,15.32,0,0,0,6.47,3Z"/><path class="cls-13" d="M23.45,20.19l3,2.76q3.69,3.51,5.63,5a17.75,17.75,0,0,0,6,3.2,16.31,16.31,0,0,1-4.61-1.26c-.56-.23-1.17-.5-1.82-.81l-1.15-.55c-.4-.18-.54-.2-.41-.06l.3.26L32.71,30c1.79.94,3.29,1.66,4.5,2.18a39.06,39.06,0,0,1-4.64-1.55c-1.44-.56-2.68-1.07-3.73-1.54l-.13.18A35.67,35.67,0,0,0,34,32.36l.12.06a17.79,17.79,0,0,1-3.76-1.28,34.62,34.62,0,0,1-4.48-2.47,32.34,32.34,0,0,1-8.5-7.75A5.49,5.49,0,0,0,14.78,19a7.74,7.74,0,0,0-3.56-.42,9,9,0,0,0-4.14,1.47,7.61,7.61,0,0,0-2.76,3.13,5.17,5.17,0,0,1-.93-1.32,8.35,8.35,0,0,1-.8-1.58,1.12,1.12,0,0,1,0-.35,4.53,4.53,0,0,1,.33-1.6,3.24,3.24,0,0,1,1-1.49l0,0a6.79,6.79,0,0,1,1.61-1.67,7.11,7.11,0,0,1,2.58-1.06,8.59,8.59,0,0,1,2.09-.2,11.49,11.49,0,0,1,1.46.19l.81.08a12,12,0,0,1,4,1.25,22.7,22.7,0,0,1,3.93,2.25c.9.67,1.91,1.5,3,2.5Z"/><path class="cls-5" d="M3.91,16.88l0,0A8.93,8.93,0,0,0,3,19.09a4.33,4.33,0,0,0,.08,1.14,7.32,7.32,0,0,0,.47,1.66l.29.74c-.25-.38-.5-.81-.76-1.29a5.89,5.89,0,0,1-.49-1,1.12,1.12,0,0,1,0-.35,4.53,4.53,0,0,1,.33-1.6,3.24,3.24,0,0,1,1-1.49Z"/><path class="cls-14" d="M5.13,19.57A4.5,4.5,0,0,1,7.3,17.35a10.58,10.58,0,0,1,6.28-.7,16,16,0,0,1,5.7,2.53,45.52,45.52,0,0,1,5.23,4.29L29.42,28a22.2,22.2,0,0,0,5,3.26c-1-.36-2.1-.78-3.33-1.28l-2.26-.95-.13.18A35.67,35.67,0,0,0,34,32.36l.12.06a17.79,17.79,0,0,1-3.76-1.28,34.62,34.62,0,0,1-4.48-2.47,32.34,32.34,0,0,1-8.5-7.75A5.49,5.49,0,0,0,14.78,19a7.74,7.74,0,0,0-3.56-.42,9,9,0,0,0-4.14,1.47,7.61,7.61,0,0,0-2.76,3.13A2.1,2.1,0,0,1,4,22.84a15,15,0,0,1,1.14-3.27Z"/><path class="cls-1" d="M5.21,20.22a6.6,6.6,0,0,1,1.52-2.06,7.42,7.42,0,0,1,5.07-1.34,8.54,8.54,0,0,1,5.67,2.94,55.45,55.45,0,0,0,9.76,8.12q3.39,2.3,6.2,3.83l2.14,1.13c.13.06.11.09,0,.08l-.82-.1A14.35,14.35,0,0,1,31,31.77a31.19,31.19,0,0,1-4.7-2.4,30.06,30.06,0,0,1-9-8.34,5.07,5.07,0,0,0-2.47-1.84,7.85,7.85,0,0,0-3.49-.38,8.72,8.72,0,0,0-4.08,1.45,7.42,7.42,0,0,0-2.7,3.09.12.12,0,0,1-.1.08c-.06,0-.16-.06-.28-.21l0,0v0a12.25,12.25,0,0,1,1.15-2.93Z"/><path class="cls-5" d="M7,18.34A7.16,7.16,0,0,1,11.86,17a8.17,8.17,0,0,1,5.49,2.85,56,56,0,0,0,9.58,8q3.67,2.52,7.63,4.72a16.75,16.75,0,0,1-3.79-1.23,35.35,35.35,0,0,1-4.64-2.5,32.67,32.67,0,0,1-8.81-7.92,5.56,5.56,0,0,0-2.66-1.88A8.27,8.27,0,0,0,11,18.65a8.33,8.33,0,0,0-4,1.47,7.83,7.83,0,0,0-2.63,3.15l-.12-.12a10.93,10.93,0,0,1,1.2-2.83,6.88,6.88,0,0,1,1.53-2Z"/><path class="cls-6" d="M17.32,20.94a5.29,5.29,0,0,0-2.06-1.63,7.7,7.7,0,0,0-2.83-.69,10.63,10.63,0,0,1,3.51,0,9.48,9.48,0,0,1,1.41,1.28,57,57,0,0,0,9.91,8.24,26.29,26.29,0,0,0,6.07,4.21,29.35,29.35,0,0,1-8.07-4,31.61,31.61,0,0,1-7.94-7.35Z"/><path class="cls-1" d="M6.06,16.56a5.31,5.31,0,0,1,.58-.39c.16-.08.14,0,0,.12l-.55.51-.54.53a7,7,0,0,0-.82,1.1A3.71,3.71,0,0,0,4.06,20a13,13,0,0,0,0,1.55q0,1,0,1.47H3.9a11.48,11.48,0,0,0,0-1.45,13,13,0,0,1,0-1.57,4.31,4.31,0,0,1,.65-1.62,8.31,8.31,0,0,1,.73-1L5.58,17a2.54,2.54,0,0,1,.48-.4Z"/><path class="cls-1" d="M4.16,16.33,4.58,16a7.66,7.66,0,0,0-.7,1.14,11.53,11.53,0,0,0-.67,1.55,3.47,3.47,0,0,0,0,1.72,7.53,7.53,0,0,0,.52,1.71L3.56,22A10.49,10.49,0,0,1,3,20.38a2.86,2.86,0,0,1,0-1.61,14.08,14.08,0,0,1,.6-1.42,7.15,7.15,0,0,1,.62-1Z"/><path class="cls-1" d="M8.06,15.38a1.51,1.51,0,0,1-.42.23c-.08,0,0-.1.33-.35a5.28,5.28,0,0,1,2.38-1,10.74,10.74,0,0,1,2.52-.2h.25l.54.22-1-.09a7.45,7.45,0,0,0-1.86.15,7.24,7.24,0,0,0-2.78,1.06Z"/><path class="cls-1" d="M7.06,24.53v.12a6.9,6.9,0,0,1-.26,2,3.41,3.41,0,0,1-.75,1.65,5.41,5.41,0,0,1-1.35.58,10.55,10.55,0,0,1-1.33.41c-.08,0-.13,0-.16,0s0-.07,0-.13a2.21,2.21,0,0,0,.2-1.57,4.53,4.53,0,0,0-.84-2.32L2.44,25l4.62-.43Z"/><path class="cls-15" d="M5.91,28.13a4.7,4.7,0,0,1-1,.46A9.41,9.41,0,0,1,3.56,29a3.08,3.08,0,0,0,.28-1.28,4.42,4.42,0,0,0-1-2.59l4-.37v0a7.37,7.37,0,0,1-.29,1.88,3.05,3.05,0,0,1-.65,1.42Z"/><path class="cls-1" d="M5.54,24.71,7,24.57v.08a6.55,6.55,0,0,1-.26,2A3.43,3.43,0,0,1,6,28.27a4.64,4.64,0,0,1-1.08.5l0,0,0,0a2.34,2.34,0,0,1-.65-1.29,2.59,2.59,0,0,1,.25-1.55,2.54,2.54,0,0,1,.35-.55,2,2,0,0,1,.45-.46l.26-.19Z"/><path class="cls-16" d="M6.88,24.74v.08a7.43,7.43,0,0,1-.28,1.87,3.25,3.25,0,0,1-.66,1.47,4.37,4.37,0,0,1-1,.45,2.2,2.2,0,0,1-.56-1.5A2.8,2.8,0,0,1,4.66,26a3.61,3.61,0,0,1,.27-.5A2,2,0,0,1,5.37,25l.23-.16,1.28-.12Z"/><path class="cls-1" d="M5,24.73l2.09-.2v.12a8.07,8.07,0,0,1-.2,2,3.21,3.21,0,0,1-.69,1.65,4.63,4.63,0,0,1-1.27.55,7.23,7.23,0,0,1-1.49.42l-.06-.21a2.85,2.85,0,0,0,1.57-1.67A3.72,3.72,0,0,0,5,24.86l0-.13Z"/><path class="cls-2" d="M6.85,24.78v0a7.37,7.37,0,0,1-.29,1.88,3.05,3.05,0,0,1-.65,1.42,3.11,3.11,0,0,1-.69.33l-1.12.41a3.07,3.07,0,0,0,1-1.23A3.74,3.74,0,0,0,5.41,26a4.38,4.38,0,0,0-.16-1.11l1.6-.15Z"/><path class="cls-1" d="M3.29,21.78a1.62,1.62,0,0,1,1,0,2.49,2.49,0,0,1,.65.22,12.41,12.41,0,0,1,2.21,2.54.43.43,0,0,1,.08.17s-.06.05-.14.07l-2,.41c-1.25.26-1.91.41-2,.44a7.09,7.09,0,0,0-1,1.14c-.59.72-1,1.22-1.15,1.5-.08.12-.14.12-.19,0a9.9,9.9,0,0,1-.52-1.65,3.1,3.1,0,0,1-.11-2,8.17,8.17,0,0,1,1.66-1.76,8.21,8.21,0,0,1,1.51-1.09Z"/><path class="cls-2" d="M4.17,22a2.83,2.83,0,0,1,.65.15,7.34,7.34,0,0,1,1.23,1.29,6,6,0,0,1,.84,1.1L5,24.92a13.05,13.05,0,0,0-2.08.46,5.28,5.28,0,0,0-.93,1A9.5,9.5,0,0,0,.86,28a7.5,7.5,0,0,1-.33-1.21,7.37,7.37,0,0,1-.18-1.44,1.39,1.39,0,0,1,.11-.63A7.83,7.83,0,0,1,2,23a6.87,6.87,0,0,1,1.3-1l.88,0Z"/><path class="cls-1" d="M14.57,37.5a2.25,2.25,0,0,1,.54-.37,1.63,1.63,0,0,1,.6-.16,1.61,1.61,0,0,1,1.17.48,9.51,9.51,0,0,1,1.22,2.32,17.63,17.63,0,0,1,1,2.87l.22-.15a5.56,5.56,0,0,0,.9-.78,3.17,3.17,0,0,0,.63-1.44l0-.1,2.77.29-.08.33c0,.14-.07.49-.12,1a2.93,2.93,0,0,1-.14.87,1.1,1.1,0,0,1-.36.35l-.23.13-1.43,1A6.39,6.39,0,0,0,20,45.37a1.52,1.52,0,0,0-.05.81l.11,1,.05.35a2,2,0,0,1-.29,1.14,1.35,1.35,0,0,1-1,.74,1.22,1.22,0,0,1-.63-.16,2.67,2.67,0,0,1-.6-.42.82.82,0,0,1-.33-.64,2.1,2.1,0,0,1,.24-.61l.21-.4a.41.41,0,0,0,0-.33.27.27,0,0,0-.18-.16,2.09,2.09,0,0,1-.62-.61,2.53,2.53,0,0,1-.48-.75A5.9,5.9,0,0,0,16,44.2a3.62,3.62,0,0,0-.8-1A10.42,10.42,0,0,0,13.52,42c-.27-.16-.86-.47-1.76-.93L11.53,41a1.24,1.24,0,0,1-.94-.46,1.35,1.35,0,0,1-.26-1.22,1.1,1.1,0,0,1,.24-.45,1.57,1.57,0,0,1,.42-.34,1.61,1.61,0,0,1,.49-.19l.51,0,0-.16a1.15,1.15,0,0,1,.18-.65,1,1,0,0,1,.5-.43,1.6,1.6,0,0,1,1-.09,1.67,1.67,0,0,1,.9.5Z"/><path class="cls-2" d="M14.45,37.69a1.47,1.47,0,0,0-.08.9,1,1,0,0,0,.62.74,4.06,4.06,0,0,1,1.25,1.49,11.22,11.22,0,0,1,.93,1.71c.1.28.19.43.25.43s.06-.14,0-.42a8.94,8.94,0,0,0-.86-1.77,3.83,3.83,0,0,0-1.27-1.57,1,1,0,0,1-.58-.66,1.36,1.36,0,0,1,0-.82,1.4,1.4,0,0,1,1-.45,1.25,1.25,0,0,1,.55.09.93.93,0,0,1,.45.32,13.89,13.89,0,0,1,1.83,3.71c.28.79.51,1.52.69,2.17,0,0,.07,0,.08-.14a2.52,2.52,0,0,0,0-.53l.28-.22a5.18,5.18,0,0,0,.91-.79,3.46,3.46,0,0,0,.69-1.47l2.31.25v.08a8.63,8.63,0,0,0-.18.95,7,7,0,0,0-.09.76c0,.08-.08.18-.25.29l-.24.14c-.63.42-1.12.76-1.45,1a7.48,7.48,0,0,0-1.36,1.32c-.07-.3-.12-.44-.16-.41a3.42,3.42,0,0,0,.05,1l.06.69.07.69.05.43a1.77,1.77,0,0,1-.3,1,1.07,1.07,0,0,1-.82.59.92.92,0,0,1-.5-.13,2.07,2.07,0,0,1-.56-.39.65.65,0,0,1-.26-.46,2,2,0,0,1,.22-.51,2,2,0,0,0,.28-1c0-.45,0-.68-.08-.69s-.08.14-.09.48a2.77,2.77,0,0,1-.63-.54,2.14,2.14,0,0,1-.49-.67,6.18,6.18,0,0,0-.51-1.18A3.84,3.84,0,0,0,15.31,43a13.72,13.72,0,0,0-1.63-1.21c-.47-.3-1-.62-1.74-1l.27-.12-.53,0a.86.86,0,0,1-.76-.32,1.08,1.08,0,0,1-.3-1,1,1,0,0,1,.48-.63,1,1,0,0,1,.82-.17,1.68,1.68,0,0,0,1.43,1.27c.16,0,.59.42,1.3,1.21.46.52.91,1.05,1.33,1.58q.3.38.36.33s0-.15-.13-.36A11.15,11.15,0,0,0,14.94,41q-1.14-1.32-1.47-1.35a1.32,1.32,0,0,1-.8-.37,1.49,1.49,0,0,1-.42-.62h0l0-.18a1.18,1.18,0,0,1,.07-.71.88.88,0,0,1,.45-.44,1.43,1.43,0,0,1,.92-.06,1.46,1.46,0,0,1,.79.46Z"/><path class="cls-3" d="M15.7,37.27a1.15,1.15,0,0,1,.94.41A13.05,13.05,0,0,1,18.34,41c.13.33.38,1.14.77,2.41v.25s-.05,0-.13,0q-.52-1.36-1.14-2.79a10.5,10.5,0,0,0-2.13-3.59Z"/><path class="cls-3" d="M21.22,42q-.39.1-.42.06s-.06-.11-.08-.23a.51.51,0,0,0-.09-.3,3.7,3.7,0,0,0,.46-1.16l2.31.25v.08a8.63,8.63,0,0,0-.18.95,7,7,0,0,0-.09.76c0,.08-.08.18-.25.29l-.24.14c-.63.42-1.12.76-1.45,1a7.48,7.48,0,0,0-1.36,1.32L19.74,45a4.33,4.33,0,0,1,.61-.79l.69-.73c.51-.57.71-1,.58-1.35,0-.08-.16-.09-.4,0Z"/><path class="cls-3" d="M19.84,47.21l.05.43a1.77,1.77,0,0,1-.3,1,1.07,1.07,0,0,1-.82.59,1.19,1.19,0,0,1-.65-.21l.81-.42a.77.77,0,0,0,.41-.68c0-.74.05-1.31.08-1.72,0-.76.13-1.1.22-1l.07.7.06.69.07.69Z"/><path class="cls-1" d="M42.38,7.28A1.77,1.77,0,0,1,43.46,8a1,1,0,0,1,.22.76c0,.2-1.84.64-5.37,1.3l-6.24,1.11L39,10.73a33.08,33.08,0,0,1,4.45,0,1.42,1.42,0,0,1,1,.63,1.57,1.57,0,0,1,.27.88,1.16,1.16,0,0,1-.3.83,1.14,1.14,0,0,1-.57.31l-3.48.44-5.74.7,5.29-.32L43.22,14c.47,0,.67.07.61.26l-.33,1.18c-.26.72-.52,1.13-.8,1.23s-1.51.27-4,.61l-5.83.83c1.7,0,3.1,0,4.18,0,1.41.06,2.15.17,2.22.35a1.31,1.31,0,0,1,.1.58,2.17,2.17,0,0,1-.14.7,2.56,2.56,0,0,1-.26.58.52.52,0,0,1-.37.29l-6.95.86a17.23,17.23,0,0,1,3.89.26.42.42,0,0,1,.22.38v0a1.26,1.26,0,0,1-.42.74,2.28,2.28,0,0,1-.68.51,11.86,11.86,0,0,1-2.07.21l-2.95.12a23,23,0,0,1,3.33.94.24.24,0,0,1,.08.19,1.4,1.4,0,0,1-.34.69l-.6.72,0,0-3.2-.07a5.37,5.37,0,0,1,1.65.49l.12.09a.21.21,0,0,1,.09.16v.12a1.66,1.66,0,0,1-.66.8,2.38,2.38,0,0,1-1,.53,18,18,0,0,1-3,0c1.59.58,2.4,1,2.43,1.3v0c0,.26-.2.47-.6.66a4,4,0,0,1-1.24.29,5.87,5.87,0,0,1-1.4-.13c.39.21.58.4.58.57v0a.34.34,0,0,1-.15.22,3.31,3.31,0,0,1-1.49.41A7.94,7.94,0,0,1,22,31.82l-.12,0,6.58-24h.08l3.24-.15,7-.34a29.41,29.41,0,0,1,3.53,0Z"/><path class="cls-7" d="M43.3,8.53a32.64,32.64,0,0,1-4.85,1.15q-3.68.73-8.29,1.57l0,.22,6.2-.35c4.17-.19,6.52-.19,7,0a1.2,1.2,0,0,1,.72.65,1.29,1.29,0,0,1,.1.59,1.16,1.16,0,0,1-.12.47.45.45,0,0,1-.25.23q-.55.13-11.95,1.61l0,.23,11.48-.53A7.93,7.93,0,0,1,43,15.48c-.23.46-.44.73-.63.79q-.62.21-11.1,1.86l0,.23c1.91-.05,3.6-.05,5.07,0a8.42,8.42,0,0,1,2.64.25,1.24,1.24,0,0,1,.07.49,3.34,3.34,0,0,1-.06.62,1.7,1.7,0,0,1-.19.53c-.07.12-.13.18-.2.18l-8.68,1.08v.23c1.22,0,2.32,0,3.32,0a8.33,8.33,0,0,1,2.09.2.2.2,0,0,1,.11.18h0a1.14,1.14,0,0,1-.31.6,1.63,1.63,0,0,1-.55.45,13.18,13.18,0,0,1-2.21.2l-3.57.14,0,.22,2.44.62a8,8,0,0,1,1.51.47v0a1.2,1.2,0,0,1-.21.48L32,26.1,27.5,26l0,.23,1.76.32a4,4,0,0,1,1.17.36.16.16,0,0,1,0,.14,1.55,1.55,0,0,1-.53.69,1.93,1.93,0,0,1-.86.48,13.54,13.54,0,0,1-2.1.05l-1.61-.05,0,.22a19.75,19.75,0,0,1,1.95.74c.62.28.93.49.94.61s-.13.34-.45.49a3.24,3.24,0,0,1-1.07.25,5.71,5.71,0,0,1-1.58-.18l-1-.23-.06.22a6.34,6.34,0,0,1,1.16.48c.32.17.48.3.47.38l-.06.08a4.26,4.26,0,0,1-1.63.37,3.86,3.86,0,0,1-1.74,0Q20.3,30.18,24.27,19q2-5.58,4.39-11l3.16-.15,6.35-.31a39.11,39.11,0,0,1,4-.07,1.76,1.76,0,0,1,.83.44.86.86,0,0,1,.33.58Z"/><path class="cls-4" d="M37,11.1l.07.06A1.69,1.69,0,0,1,36.59,13a6.78,6.78,0,0,1-.86.68c-.42.27-.72.48-.91.62l-2.9.37,1.12.07c.92,0,1.81,0,2.67,0,.33.52-.32,1.25-1.93,2.18-.51.29-1.08.58-1.72.88l-.81.35,0,.23,1.95,0c.46.36.06,1-1.22,1.9q-.6.44-1.38.9l-.7.37v.23h1.49c0,.43-.37.91-1.23,1.43s-1.29.64-1.28.64l.83.21c.2.53-.12,1.06-1,1.6a6.36,6.36,0,0,1-1.31.64l.82.14a1.78,1.78,0,0,1-1.14,1.18l-.74.28a1.75,1.75,0,0,0-.61.41l-.47,0,0,.22.75.26c0,.13-.2.29-.56.49a2.81,2.81,0,0,1-.93.34,3.88,3.88,0,0,1-.4.62l-.09,0,0,.19a3.91,3.91,0,0,1-2,1.09q-1.48-1.95,2.43-12.8,2-5.43,4.24-10.58l3.16-.15,4.92-.24a1,1,0,0,1,.49,1.18,2.53,2.53,0,0,1-.9,1.27l-6.17,1.16,0,.22,2.18-.14L37,11.1Z"/><path class="cls-7" d="M35.79,9.11c-.24.55-1.57,1.27-4,2.15-.77.27-1.6.54-2.49.82l-1.11.32,1.28-.17L32.24,12c2.69-.13,4,.16,4,.88s-1.31,1.5-3.78,2.32c-.78.26-1.62.5-2.55.74l-1.15.27,1.16-.09Q31.27,16,32.35,16c2.31.05,3.19.48,2.65,1.29s-1.92,1.4-4.15,1.81c-.69.13-1.42.23-2.2.3l-1,.07,1.05-.05c.82,0,1.54,0,2.17,0,2,.11,2.64.51,1.93,1.2a7.45,7.45,0,0,1-3.73,1.56l-1.72.26-.72.06.75,0,1.59.14c1.5.2,2.09.49,1.76.88s-1.32.73-3,1l-2.39.3,1.85.21c1.16.21,1.53.5,1.13.86a4.28,4.28,0,0,1-2.09.77l-1.37.13,1.16.62c.71.46.91.83.59,1.09a3,3,0,0,1-2,.25l-1.39-.22.88.67c.55.49.7.83.47,1s-.75.22-1.54.06L22,30.07l.69.86c.41.6.5.94.25,1a1.61,1.61,0,0,1-1.15-.22l-.71-.39v.88q-.06.84-.33.75l-.65-.23a.71.71,0,0,1-.3-.26,15,15,0,0,1-.36-1.56,3.22,3.22,0,0,0-.32-.57,7,7,0,0,1-.55-1,2.44,2.44,0,0,1,.07-2.5q1.32-2,1.26-6a39.22,39.22,0,0,0-1-7.52,2.41,2.41,0,0,1,.46-2,5.77,5.77,0,0,1,1.88-1.61,11.8,11.8,0,0,1,5.65-1.5c1,0,2.27,0,3.84-.07s2.42,0,2.92,0a6,6,0,0,1,1.75.2c.37.14.49.37.35.69Z"/><path class="cls-7" d="M35.79,9.11c-.24.55-1.57,1.27-4,2.15-.77.27-1.6.54-2.49.82l-1.11.32,1.28-.17L32.24,12c2.69-.13,4,.16,4,.88s-1.31,1.5-3.78,2.32c-.78.26-1.62.5-2.55.74l-1.15.27,1.16-.09Q31.27,16,32.35,16c2.31.05,3.19.48,2.65,1.29s-1.92,1.4-4.15,1.81c-.69.13-1.42.23-2.2.3l-1,.07,1.05-.05c.82,0,1.54,0,2.17,0,2,.11,2.64.51,1.93,1.2a7.45,7.45,0,0,1-3.73,1.56l-1.72.26-.72.06.75,0,1.59.14c1.5.2,2.09.49,1.76.88s-1.32.73-3,1l-2.39.3,1.85.21c1.16.21,1.53.5,1.13.86a4.28,4.28,0,0,1-2.09.77l-1.37.13,1.16.62c.71.46.91.83.59,1.09a3,3,0,0,1-2,.25l-1.39-.22.88.67c.55.49.7.83.47,1s-.75.22-1.54.06L22,30.07l.69.86c.41.6.5.94.25,1a1.61,1.61,0,0,1-1.15-.22l-.71-.39v.88q-.06.84-.33.75l-.65-.23a.71.71,0,0,1-.3-.26,15,15,0,0,1-.36-1.56,3.22,3.22,0,0,0-.32-.57,7,7,0,0,1-.55-1,2.44,2.44,0,0,1,.07-2.5q1.32-2,1.26-6a39.22,39.22,0,0,0-1-7.52,2.41,2.41,0,0,1,.46-2,5.77,5.77,0,0,1,1.88-1.61,11.8,11.8,0,0,1,5.65-1.5c1,0,2.27,0,3.84-.07s2.42,0,2.92,0a6,6,0,0,1,1.75.2c.37.14.49.37.35.69Z"/><path class="cls-4" d="M31.72,9.67c-1.59.56-2.77,1-3.54,1.36a11.31,11.31,0,0,0-3,1.85,5.75,5.75,0,0,0-1.77,2.79,33.4,33.4,0,0,0-.77,3.73q-.51,3.06-.69,3.93A18.88,18.88,0,0,1,20.86,27a8.26,8.26,0,0,1-2,2.88,4,4,0,0,1-.53-1.39,2.15,2.15,0,0,1,.35-1.59q1.32-2,1.26-6a39.22,39.22,0,0,0-1-7.52,2.41,2.41,0,0,1,.46-2,5.77,5.77,0,0,1,1.88-1.61,11.8,11.8,0,0,1,5.65-1.5l5.15-.1a16,16,0,0,1,3.13.12c-.7.32-1.86.75-3.49,1.32Z"/><path class="cls-1" d="M33.7,8a7.41,7.41,0,0,1,1.83.4c.42.17.64.35.64.54a1.06,1.06,0,0,1-.22.67,2.58,2.58,0,0,1-.93.64,53.36,53.36,0,0,1-5.83,2,26.69,26.69,0,0,1,5.93-.31c.92.12,1.39.45,1.39,1S36,14,34.94,14.46A36.16,36.16,0,0,1,29.73,16a19,19,0,0,1,4.69.08c.72.16,1.07.43,1.07.82a1.48,1.48,0,0,1-.94,1.28A15.13,15.13,0,0,1,30,19.36a10.69,10.69,0,0,1,2.85.28c.37.12.55.31.55.56,0,.49-.36.91-1.07,1.26a15.65,15.65,0,0,1-4.6,1.06,13.26,13.26,0,0,1,2.8.39q.6.19.6.51c0,.31-.29.57-.87.77a21.53,21.53,0,0,1-4,.69l1.58.23q.91.2,1,.48t-.66.78a8.62,8.62,0,0,1-2.94.57,4.48,4.48,0,0,1,1.66,1.13c.18.26.17.48,0,.65a2.31,2.31,0,0,1-1.54.26,12.2,12.2,0,0,1-1.65-.22,4.35,4.35,0,0,1,1.15,1.07c.18.28.18.48,0,.62q-.49.42-2.58-.24a5.16,5.16,0,0,1,.93,1.42c.09.28.06.45-.1.51a1.43,1.43,0,0,1-.95,0,2.4,2.4,0,0,1-1-.61,5.76,5.76,0,0,1-.07,1.56c-.07.23-.2.31-.41.23a1.94,1.94,0,0,1-1.1-1.3,4.92,4.92,0,0,1-.17-.71l0-.33a.53.53,0,0,1,0-.2c0-.08.07,0,.12.19l.26,1a1.59,1.59,0,0,0,1,.94h.06c.08-.06.14-.29.17-.69a5.83,5.83,0,0,0,0-.94c0-.2,0-.28.07-.24a.66.66,0,0,1,.17.24,1.41,1.41,0,0,0,.67.46,1.39,1.39,0,0,0,1,.17s.08,0,.08-.09-.08-.44-.37-.85a7.45,7.45,0,0,0-.68-.85l-.1-.09c-.05-.05,0-.06.18,0l1.28.3c.69.13,1.12.11,1.3,0a.22.22,0,0,0,.08-.18c0-.18-.21-.44-.58-.76a6.57,6.57,0,0,0-.84-.63l-.16-.11q-.09-.11.21,0c1.72.38,2.82.37,3.3,0a.25.25,0,0,0,.11-.25c0-.2-.28-.46-.76-.76a9.21,9.21,0,0,0-1.08-.57l-.11-.05c-.05,0,0-.07.14-.09l1.49-.15a3.84,3.84,0,0,0,1.92-.74q.15-.14.12-.24-.09-.27-1.17-.48A13.26,13.26,0,0,0,25.39,25l-.23,0c-.1,0,0-.07.23-.1L28,24.5a5.16,5.16,0,0,0,2.71-.94c.07-.08.09-.15.06-.2-.1-.22-.61-.39-1.55-.53a19.64,19.64,0,0,0-2.56-.21l-.28-.06c-.12,0,0-.07.28-.09a22.09,22.09,0,0,0,2.71-.34,7,7,0,0,0,3.42-1.52c.22-.21.29-.38.23-.52s-.77-.46-1.94-.54a25.78,25.78,0,0,0-2.91,0l-.47,0-.25,0c-.14,0-.14-.05,0-.07l.65-.06a23.32,23.32,0,0,0,3.53-.52c1.75-.39,2.85-.94,3.31-1.62a.59.59,0,0,0,.14-.36.41.41,0,0,0,0-.19c-.23-.37-1.14-.58-2.75-.62l-3.53.16-.32,0c-.13,0,0-.09.46-.2l1.56-.38c.92-.23,1.72-.46,2.42-.69,2.14-.72,3.23-1.42,3.27-2.12A.46.46,0,0,0,36,12.5c-.48-.44-1.92-.57-4.34-.41l-2.43.24-1.09.15h-.3c-.13,0,0-.07.27-.15,1.32-.36,2.61-.76,3.89-1.22,2.27-.81,3.52-1.49,3.75-2a.21.21,0,0,0,0-.24c-.31-.4-1.7-.61-4.19-.63a31.2,31.2,0,0,0-4.56.19l0-.15A26.1,26.1,0,0,1,33.7,8Z"/><path class="cls-1" d="M38.55,6.84a2.7,2.7,0,0,1,.61.18c.06.05-.13.11-.56.17a52.49,52.49,0,0,0-7.67,1.64,54.51,54.51,0,0,0-7,2.49l-.09,0,0-.08a12.16,12.16,0,0,1-.41-1.54c-.06-.32-.15-.82-.25-1.51V8.15l.41-.2a31.55,31.55,0,0,1,7-1.52,25.24,25.24,0,0,1,8.07.41Z"/><path class="cls-7" d="M23.31,8.28a33.08,33.08,0,0,1,7-1.55A21.45,21.45,0,0,1,38,7.06c-1.27.17-2.82.47-4.66.89a43.66,43.66,0,0,0-9.45,3.17,18.23,18.23,0,0,1-.62-2.84Z"/><path class="cls-8" d="M19.58,9.7A26,26,0,0,1,22.3,8.54a36.37,36.37,0,0,1,4.79-1.42,1.77,1.77,0,0,1,.79.38,5.93,5.93,0,0,1-1.33.6l-.86.25.89.11A5,5,0,0,1,28,8.82c-.43.14-1,.36-1.71.65l-1,.38h.75q.86,0,1.35,0c-1.42.49-2.64,1-3.66,1.42a10.84,10.84,0,0,0-2.34,1.3,2.44,2.44,0,0,0-.95,1.65,7.05,7.05,0,0,0,.11,1.53l.57,4c.26,2.37.25,3.9,0,4.6s-.65,1.65-1.27,3.31a5.16,5.16,0,0,1-1.74,2.54c-.68.33-1.36.08-2.05-.74a6.55,6.55,0,0,1-1.31-3c-.19-1,.09-1.28.84-.93a5,5,0,0,1,1.17.8,19.16,19.16,0,0,0,1.46-1.93,4.14,4.14,0,0,0,.84-2.32,41.92,41.92,0,0,0-.84-4.64c-.49-2.28-.83-3.71-1-4.3a2.06,2.06,0,0,1,.4-1.75,4.88,4.88,0,0,1,2-1.74Z"/><path class="cls-9" d="M25.33,9.85h.75q.86,0,1.35,0c-1.42.49-2.64,1-3.66,1.42a10.84,10.84,0,0,0-2.34,1.3,2.44,2.44,0,0,0-.95,1.65,7.05,7.05,0,0,0,.11,1.53l.57,4c.26,2.37.25,3.9,0,4.6s-.65,1.65-1.27,3.31a5.16,5.16,0,0,1-1.74,2.54,1.26,1.26,0,0,1-1.15,0,2.85,2.85,0,0,1-1.06-.94,2,2,0,0,0,.51.18l.39,0a5.26,5.26,0,0,0,2.53-2.73,9.73,9.73,0,0,0,.6-3.82,36.19,36.19,0,0,0-.42-4.25c-.31-2.08-.48-3.41-.53-4a3.44,3.44,0,0,1,2-3.6,11.2,11.2,0,0,1,2.24-.77l2.5-.63-.44.18Z"/><path class="cls-1" d="M28,8.74l.09.06s0,.08-.1.11-.91.32-2.22.84h.93l1,0-.23.18a40.35,40.35,0,0,0-3.77,1.48,11.21,11.21,0,0,0-2.2,1.25,2.4,2.4,0,0,0-.94,1.94c0,.39.16,1.65.45,3.77a38.27,38.27,0,0,1,.44,4.26l0,1a2.25,2.25,0,0,1-.15.76l-.46,1.25q-.75,2.07-1.08,2.76a4,4,0,0,1-1.37,1.85,1.67,1.67,0,0,1-1.53.2,4.07,4.07,0,0,1-1.49-1.79,6,6,0,0,1-.75-2c0-.41,0-.62,0-.63s.12.16.22.51a8.87,8.87,0,0,0,1,2.4A3.17,3.17,0,0,0,17,30.11a1.25,1.25,0,0,0,1.21-.06,3.86,3.86,0,0,0,1.33-1.78c.27-.56.63-1.44,1.06-2.64L21,24.37a5.11,5.11,0,0,0,.21-1.72,29.16,29.16,0,0,0-.47-3.94,37.29,37.29,0,0,1-.53-4.14,2.6,2.6,0,0,1,.19-1.18,3.12,3.12,0,0,1,.81-.9A22.11,22.11,0,0,1,26.83,10l-.77,0-.73,0c-.29,0-.38,0-.28-.07a1.42,1.42,0,0,1,.24-.11l.85-.33c.64-.26,1.17-.46,1.59-.61a6.36,6.36,0,0,0-1.29-.28l-.76-.1-.22,0c-.1,0,0-.08.21-.16a7.87,7.87,0,0,0,2-.77s-.05-.12-.22-.19a2.42,2.42,0,0,0-.43-.13,32.9,32.9,0,0,0-4.57,1.37,30.07,30.07,0,0,0-2.86,1.24,5.67,5.67,0,0,0-1.78,1.32,2.49,2.49,0,0,0-.59,1.68,6.24,6.24,0,0,0,.29,1.41c.23.81.37,1.37.42,1.66s.28,1.36.65,3a28,28,0,0,1,.56,3.27v.11a5.21,5.21,0,0,1-1,2.49,7.27,7.27,0,0,1-1.36,1.72q-.35.28-.36.21s.07-.16.22-.33A12.5,12.5,0,0,0,18,24.63a4.72,4.72,0,0,0,1-2.5,37.81,37.81,0,0,0-1-4.64c-.69-2.57-1.06-4-1.13-4.34a2.47,2.47,0,0,1,.27-1.85A4.3,4.3,0,0,1,19,9.66,29.34,29.34,0,0,1,22,8.35a38.55,38.55,0,0,1,4.78-1.42l.53.12a1.45,1.45,0,0,1,.69.33c.15.21-.47.52-1.85.93A6.18,6.18,0,0,1,28,8.74Z"/><path class="cls-7" d="M25.51,35.45c.73.15.89.56.5,1.24a12.46,12.46,0,0,0-.85,1.7,5.29,5.29,0,0,0-.34,2.14l-.68.6a2,2,0,0,0-.5.75,3.88,3.88,0,0,1-.09-.7,3.32,3.32,0,0,0-.1-.71,5.61,5.61,0,0,1-.44.75,5.06,5.06,0,0,0-.43.75,3.25,3.25,0,0,1-.07-.55,2.6,2.6,0,0,0-.08-.54,2.6,2.6,0,0,0-.38.51,1.53,1.53,0,0,0-.22.57,3.18,3.18,0,0,1-.08-.82,2.64,2.64,0,0,0-.09-.81,1,1,0,0,0-.34.38,1.29,1.29,0,0,1-.34.41,3.88,3.88,0,0,0-.15-1l-.18.36-.18.36a4.82,4.82,0,0,0-.27-1.65,4.54,4.54,0,0,0-1-1.53c-.24-.25.05-.59.88-1a11.88,11.88,0,0,1,2.79-1,6.66,6.66,0,0,1,2.66-.23Z"/><path class="cls-1" d="M25.65,37.12c.21-.4.36-.68.47-.85s.12-.11.17-.05,0,.14,0,.26l-.34.66a8.45,8.45,0,0,0-.64,2c-.09.41-.16.83-.23,1.26a1.86,1.86,0,0,1-.51.58,5.47,5.47,0,0,0-.7.7c-.18.25-.28.25-.31,0l-.11-1-.26.4-.36.61c-.11.19-.18.29-.21.29s-.09-.11-.11-.34l-.09-.62-.23.3a1.27,1.27,0,0,0-.17.35c-.07.23-.13.33-.18.31s-.08-.12-.1-.3L21.65,41l0-.53-.28.33L21,41.2l-.11.15s0-.06,0-.23a1.73,1.73,0,0,0,0-.41l-.07-.29-.11.24c-.09.2-.16.28-.21.25s-.1-.16-.14-.4a8.44,8.44,0,0,0-.44-1.45,3.46,3.46,0,0,0-.77-1.29c-.34-.3-.46-.44-.36-.44a1.18,1.18,0,0,1,.47.29,3.36,3.36,0,0,1,.93,1.31,4.74,4.74,0,0,1,.38,1.58l.24-.46c.09-.19.14-.25.16-.16l.11,1a6.87,6.87,0,0,1,.56-.68c.08-.06.12-.08.13-.07v.12l.11,1.27a2.47,2.47,0,0,1,.5-.74l.06-.11s.08,0,.09.15l.12.82.36-.61.38-.64a.23.23,0,0,1,.06-.12c0-.05.08,0,.11.14a8.93,8.93,0,0,1,.14,1.12,4.28,4.28,0,0,1,.86-.93l.18-.23a7.7,7.7,0,0,1,.93-3.29Z"/><path class="cls-1" d="M2.32,38.75a2,2,0,0,1,1-.79q.62-.28.87-.15a.74.74,0,0,1,.34.64c0,.31,0,.5-.21.55-.34.12-.59.21-.73.28A4.87,4.87,0,0,0,2.47,40l-.32.3c-.06,0-.1-.06-.13-.24a1.47,1.47,0,0,1,0-.69,2.77,2.77,0,0,1,.29-.66Z"/><path class="cls-17" d="M3,39.41a3.5,3.5,0,0,0-.8.72h0a1.82,1.82,0,0,1,.22-1.07A2.13,2.13,0,0,1,4,38c.13,0,.23.14.32.33a.43.43,0,0,1-.12.55A3.46,3.46,0,0,0,3,39.41Z"/><path class="cls-18" d="M4.31,38.39a.43.43,0,0,1-.15.47,3.55,3.55,0,0,0-1.46.74,2.67,2.67,0,0,1,1.61-1.21Z"/><path class="cls-1" d="M5.07,35.59c.46,0,.74.15.84.31a.72.72,0,0,1,0,.72c-.14.29-.29.41-.46.38l-.77-.12A4.27,4.27,0,0,0,3.33,37l-.43.09q-.09,0,0-.27a1.45,1.45,0,0,1,.36-.59,2.49,2.49,0,0,1,.57-.43,2.13,2.13,0,0,1,1.24-.2Z"/><path class="cls-17" d="M5.38,36.81a3.72,3.72,0,0,0-1.31-.13,3.69,3.69,0,0,0-1,.23,1.71,1.71,0,0,1,.72-.82A2.11,2.11,0,0,1,5.65,36a.53.53,0,0,1,.1.44.42.42,0,0,1-.37.42Z"/><path class="cls-18" d="M5.74,36.46a.42.42,0,0,1-.36.35,3.42,3.42,0,0,0-1.17-.13,4.1,4.1,0,0,0-1,.16,3.91,3.91,0,0,1,1.22-.44,3.16,3.16,0,0,1,1.3.06Z"/><path class="cls-1" d="M8.23,35.94a.74.74,0,0,1,0,.73c-.12.29-.26.43-.43.41l-.77,0a4.69,4.69,0,0,0-1.31.23l-.42.13c-.06,0-.07-.09,0-.27a1.49,1.49,0,0,1,.3-.62A2.54,2.54,0,0,1,6.15,36a2.09,2.09,0,0,1,1.22-.32c.46,0,.74.08.86.23Z"/><path class="cls-17" d="M5.45,37.21a1.8,1.8,0,0,1,.65-.89A2.13,2.13,0,0,1,8,36a.52.52,0,0,1,.14.43.41.41,0,0,1-.33.44,3.66,3.66,0,0,0-1.32,0,4.21,4.21,0,0,0-1,.32Z"/><path class="cls-18" d="M6.06,37a6.22,6.22,0,0,1,2-.32.4.4,0,0,1-.28.22,3.81,3.81,0,0,0-1.73.1Z"/><path class="cls-1" d="M11.74,46.54a1.32,1.32,0,0,1,.7.1.65.65,0,0,1,.36.75,1.12,1.12,0,0,1-.55.69,2.85,2.85,0,0,1-1,.41,2.16,2.16,0,0,1-.72,0,1.94,1.94,0,0,1-.5-.15.49.49,0,0,1-.18-.1l.17-.12.92-.56a1.28,1.28,0,0,0,.56-.81.23.23,0,0,1,.08-.14.18.18,0,0,1,.15-.09Z"/><path class="cls-17" d="M12.42,46.93a.62.62,0,0,1,.19.43,2,2,0,0,1-1.39,1,1.72,1.72,0,0,1-1-.06,3.08,3.08,0,0,0,1-.63,1.43,1.43,0,0,0,.51-.89,1,1,0,0,1,.72.2Z"/><path class="cls-18" d="M12.61,47.36a2,2,0,0,1-1.27.92,2.88,2.88,0,0,0,1-1.44l.12.09a.62.62,0,0,1,.19.43Z"/><path class="cls-1" d="M9.17,41.58a1.61,1.61,0,0,1,0-.69,2.61,2.61,0,0,1,.29-.66,2,2,0,0,1,1-.79q.62-.28.87-.15a.7.7,0,0,1,.34.64c0,.31-.05.49-.21.55a5,5,0,0,0-.72.29,4.13,4.13,0,0,0-1.1.75l-.32.29c-.05,0-.1-.05-.14-.23Z"/><path class="cls-17" d="M9.33,41.6a1.76,1.76,0,0,1,.22-1.07,2.09,2.09,0,0,1,1.57-1.06c.13,0,.23.13.32.32a.44.44,0,0,1-.12.55,3.63,3.63,0,0,0-1.19.54,4,4,0,0,0-.8.72Z"/><path class="cls-18" d="M11.38,39.69a.57.57,0,0,1,.1.32.44.44,0,0,1-.16.33,3.63,3.63,0,0,0-1.19.54,4,4,0,0,0-.8.72v-.28a6.17,6.17,0,0,1,1-.86l1.08-.77Z"/><path class="cls-1" d="M10.48,37.94a2.29,2.29,0,0,1,.58-.42,2,2,0,0,1,1.23-.21c.45,0,.73.15.83.31a.69.69,0,0,1,0,.72c-.14.28-.29.41-.46.37l-.77-.12a4.6,4.6,0,0,0-1.32.11l-.43.1q-.09,0,0-.27a1.45,1.45,0,0,1,.36-.59Z"/><path class="cls-17" d="M10.25,38.63A1.73,1.73,0,0,1,11,37.8a2.11,2.11,0,0,1,1.9-.13.52.52,0,0,1,.11.44.45.45,0,0,1-.37.42,3.38,3.38,0,0,0-1.32-.13,3.69,3.69,0,0,0-1,.23Z"/><path class="cls-18" d="M10.27,38.56A3.73,3.73,0,0,1,11.56,38,3.06,3.06,0,0,1,13,38a.58.58,0,0,1-.05.35.46.46,0,0,1-.31.23,3.38,3.38,0,0,0-1.32-.13,3.69,3.69,0,0,0-1,.23l0-.07Z"/><path class="cls-1" d="M15,37.37c.46,0,.75.08.86.23a.72.72,0,0,1,0,.72c-.11.3-.26.43-.43.42l-.77-.05a4.73,4.73,0,0,0-1.31.22l-.41.14q-.09,0,0-.27a1.35,1.35,0,0,1,.31-.62,2.27,2.27,0,0,1,.53-.47A2,2,0,0,1,15,37.37Z"/><path class="cls-17" d="M14.11,38.55a3.65,3.65,0,0,0-1,.32,1.86,1.86,0,0,1,.65-.89,2.11,2.11,0,0,1,1.88-.3.51.51,0,0,1,.15.42.44.44,0,0,1-.33.45,3.66,3.66,0,0,0-1.32,0Z"/><path class="cls-18" d="M14.46,38.14A3.16,3.16,0,0,1,15.74,38a.67.67,0,0,1,0,.35.4.4,0,0,1-.28.24l-1.14,0a3.78,3.78,0,0,0-.95.24,3.34,3.34,0,0,1,1.12-.62Z"/><path class="cls-1" d="M18.57,48.12c.4.1.57.39.5.86a1,1,0,0,1-.55.69,2.69,2.69,0,0,1-1,.42l-.72,0a1.76,1.76,0,0,1-.49-.15l-.19-.11s.06-.06.18-.12a5.64,5.64,0,0,0,1-.6,1.12,1.12,0,0,0,.51-.89.64.64,0,0,1,.32-.13Z"/><path class="cls-17" d="M18.88,49a2,2,0,0,1-1.38.95,1.72,1.72,0,0,1-1-.06,3,3,0,0,0,1-.63,1.47,1.47,0,0,0,.52-.9,1,1,0,0,1,.71.2.59.59,0,0,1,.19.44Z"/><path class="cls-18" d="M18.69,48.52a.59.59,0,0,1,.19.44,2,2,0,0,1-1.38.95l-.11,0a6,6,0,0,0,1.24-1.45l.06,0Z"/></g></g></svg>