<?xml version="1.0" encoding="utf-8"?>
<!-- Generator: Adobe Illustrator 24.3.0, SVG Export Plug-In . SVG Version: 6.00 Build 0)  -->
<svg version="1.1" id="Layer_1" xmlns="http://www.w3.org/2000/svg" xmlns:xlink="http://www.w3.org/1999/xlink" x="0px" y="0px"
	 viewBox="0 0 720 720" style="enable-background:new 0 0 720 720;" xml:space="preserve">
<style type="text/css">
	.st0{fill-rule:evenodd;clip-rule:evenodd;fill:#221714;}
	.st1{fill-rule:evenodd;clip-rule:evenodd;fill:#EEB432;}
	.st2{fill-rule:evenodd;clip-rule:evenodd;fill:#F0DEB8;}
	.st3{fill-rule:evenodd;clip-rule:evenodd;fill:#CD982C;}
	.st4{fill-rule:evenodd;clip-rule:evenodd;fill:#FFFFFF;}
	.st5{fill-rule:evenodd;clip-rule:evenodd;fill:#49403B;}
	.st6{fill-rule:evenodd;clip-rule:evenodd;fill:#CDAF97;}
	.st7{fill-rule:evenodd;clip-rule:evenodd;fill:#2B201C;}
	.st8{fill-rule:evenodd;clip-rule:evenodd;fill:#2C221D;}
	.st9{fill-rule:evenodd;clip-rule:evenodd;fill:#221814;}
	.st10{fill-rule:evenodd;clip-rule:evenodd;fill:#291F1C;}
	.st11{fill-rule:evenodd;clip-rule:evenodd;fill:#281D1A;}
</style>
<g>
	<path class="st0" d="M456.16,596.25c8.95,5.79,17.58,11.43,26.28,16.98c8.31,5.3,16.14,11.16,22.96,18.31
		c3.53,3.7,6.58,7.74,8.96,12.26c0.56,1.05,1.07,2.19,1.29,3.35c0.74,3.93-1.12,5.93-5.08,5.51c-13.53-1.41-27.05-2.86-40.57-4.26
		c-2.14-0.22-4.35-0.01-6.43-0.44c-5.21-1.07-9.28,0.83-13.27,4.01c-5.92,4.72-12.23,8.94-18.18,13.62
		c-3.26,2.56-6.28,2.61-9.71,0.61c-6.99-4.07-14.05-8.01-21.04-12.07c-1.4-0.81-2.69-1.2-4.37-0.99
		c-13.93,1.74-27.89,3.11-41.92,3.71c-5.08,0.22-5.89-1.05-4.08-5.94c3.3-8.91,8.64-16.6,14.51-23.96c0.31-0.39,0.65-0.76,1.29-1.52
		c-5.5,0.42-10.58,0.8-15.65,1.19c-19.76,1.52-39.54,2.26-59.35,1.02c-13.06-0.82-26.14-1.33-39.04-3.68
		c-1.06-0.2-1.52,0.4-2.21,0.89c-13.22,9.33-26.34,18.82-41.19,25.5c-3.13,1.41-6.37,2.58-9.51,3.96c-2.24,0.99-3.7,0.25-5.01-1.65
		c-2.79-4.03-5.81-7.91-8.53-11.99c-1.54-2.31-3.49-2.72-5.99-2.34c-10.89,1.65-21.79,3.16-32.67,4.86c-6.37,1-6.36,1.11-7.56-5.14
		c-0.42-2.2-0.95-4.37-1.31-6.58c-0.24-1.49-0.79-1.87-2.39-1.68c-7.1,0.82-14.21,1.51-21.33,2.08c-1.93,0.15-4.59,1.27-5.66-1.01
		c-1.1-2.34,1.11-4.11,2.6-5.7c10.78-11.57,24.02-19.73,37.8-27.11c6.44-3.45,13.09-6.49,20.34-8.48c-1.04-1.49-2.52-2.25-3.78-3.22
		c-21.1-16.18-36.11-37.04-47.5-60.88c-8.94-18.71-11.74-38.36-10.56-58.76c1.47-25.41,10.54-48.55,21.79-70.99
		c3.04-6.07,6.18-12.11,9.78-17.87c0.59-0.95,0.75-1.48-0.39-2.21c-6.47-4.13-10.94-10.15-15.08-16.43
		c-7.92-12.01-11.79-25.44-14.1-39.52c-3.55-21.59-2.13-42.79,5.04-63.4c6.15-17.67,15.93-33.3,28.71-47.03
		c6.33-6.81,12.43-13.83,18.69-20.71c1.12-1.23,1.58-2.5,1.55-4.17c-0.15-8.81,1.4-17.31,5.26-25.28
		c4.37-9.02,11.13-15.87,19.8-20.8c1.49-0.85,2.18-1.79,2.48-3.51c1.66-9.51,10.32-17.92,21.02-19.97
		c9.42-1.81,18.86-1.51,28.03,1.63c1.41,0.48,2.11-0.18,3-0.75c12.71-8.08,26.24-14.35,40.8-18.26c11.86-3.19,24.03-4.39,36.26-4.81
		c13.53-0.46,27.04-0.12,40.47,1.78c1.9,0.27,1.88-0.84,2.25-1.94c3.87-11.5,8.23-22.8,14.7-33.15c0.5-0.8,1.03-1.59,1.58-2.36
		c4.01-5.74,7.96-6.88,14.5-4.2c0.24,0.1,0.46,0.23,0.69,0.34c5.09,2.33,5.14,2.43,2.17,7.13c-7.05,11.13-13.78,22.43-18.05,34.99
		c-0.25,0.73-0.51,1.45-0.76,2.16c0.23,0.12,0.38,0.2,0.53,0.27c3.72,1.65,6.16,0.94,9.25-2.38c14.14-15.19,29.95-28.43,48.49-38.1
		c2.35-1.23,4.83-2.27,7.35-3.12c4.38-1.47,7.96,0,10.34,3.99c1.51,2.54,2.41,5.3,2.94,8.2c0.36,1.96-0.2,3.07-2.05,4.1
		c-11.57,6.45-23.09,12.99-34.55,19.63c-7.07,4.1-13.64,8.95-20.42,13.88c1.22,1.03,2.23,1.17,3.56,0.59
		c14.05-6.13,28.92-9.34,43.88-12.17c3.37-0.64,6.83-0.81,10.25-1.2c1.53-0.17,2.42,0.45,2.75,2.01c0.99,4.73,0.42,9.42-0.27,14.12
		c-0.2,1.35-1.23,1.48-2.31,1.55c-5.58,0.39-11.17,0.72-16.74,1.21c-7.46,0.66-14.9,1.46-22.51,2.21c0.33,1.23,1.36,1.36,2.1,1.75
		c15.9,8.41,30.02,19.16,42.2,32.39c16.05,17.42,25.16,38.15,28.99,61.44c3.06-2.69,6.17-5.48,9.33-8.19
		c2.1-1.8,2.55-1.64,2.98,1.05c1.74,10.78,3.55,21.54,6.19,32.16c3.42,13.73,11.29,24.98,19.75,35.9
		c8.44,10.89,17.38,21.38,25.52,32.51c10.02,13.7,19.99,27.55,25.56,43.73c9.72,28.21,4.27,53.78-16.61,74.98
		c-12.61,12.8-28.63,19.48-47.13,18.46c-1.77-0.1-2.18,0.33-2.07,2.05c0.24,3.51,0.14,3.47,3.43,2.58
		c22.52-6.08,45.18-11.45,68.44-13.88c6.94-0.72,13.91-1.17,20.88-0.32c3.44,0.42,4.11,1.51,3.05,4.88
		c-3.11,9.85-8.26,18.71-13.82,27.31c-9.72,15.01-21.54,28.39-33.37,41.71c-15.28,17.2-31.02,33.96-49.16,48.26
		c-10.43,8.22-21.3,15.77-33.34,21.49c-0.65,0.31-1.16,0.71-1.62,1.22C472.88,581.79,465.04,589.39,456.16,596.25z"/>
	<path class="st1" d="M315.75,626.33c-11.64,0.44-23.24-0.45-34.84-1.11c-14.88-0.84-29.61-2.73-44.08-6.55
		c-22.35-5.91-43.04-15.46-62.11-28.44c-24.56-16.72-41.95-39.33-54.53-66.09c-9.32-19.83-11.68-40.56-9.74-61.95
		c2.26-24.85,11.78-47.41,23.05-69.34c5.17-10.05,11-19.68,17.76-28.74c0.1-0.14,0.22-0.27,0.3-0.42c0.32-0.63,1.4-1.27,0.57-1.95
		c-0.88-0.72-1.31,0.45-1.72,0.99c-2.34,3.09-4.65,6.2-6.9,9.35c-2.05,2.85-2.05,2.93-4.91,0.77c-5.37-4.06-9.33-9.38-12.95-14.96
		c-7.54-11.62-11.52-24.53-13.51-38.13c-1.46-9.98-2.44-19.96-1.72-30.09c1.57-22.02,8.41-42.16,20.42-60.7
		c7.18-11.08,16.41-20.34,25.09-30.12c0.69-0.77,1.36-1.56,2.12-2.26c5.39-5.02,8.06-10.74,8.48-18.57
		c1.27-23.96,18.48-40.89,41.73-44.04c3.94-0.53,7.91-0.3,11.95,0.51c-0.21,1.11-1.14,1.65-1.81,2.33
		c-18.81,19.13-31.03,41.98-37.55,67.83c-3.24,12.84-3.39,26.09-2.93,39.28c0.48,13.75,3.8,26.88,9.37,39.42
		c5.11,11.51,12.57,21.11,23.47,27.75c1.11,0.68,1.41,1.66,1.6,2.77c0.93,5.43-0.55,10.35-3.81,14.56
		c-7.06,9.13-14.45,17.99-21.53,27.1c-7.18,9.24-14.47,18.46-19.9,28.89c-6.18,11.86-9.73,24.42-9.05,37.95
		c0.63,12.5,5.74,23,14.77,31.43c21.08,19.68,46.28,31.02,74.56,35.64c15.89,2.59,31.9,1.97,47.92,1.19
		c23.87-1.16,46.23-7.74,67.46-18.39c14.85-7.44,27.21-17.79,35.48-32.47c5.67-10.06,8.33-21.04,9.5-32.44
		c1.99-19.42-1.16-38.45-4.42-57.46c-0.9-5.26-1.7-10.52-2.26-15.83c-0.18-1.72,0.1-2.49,2.09-2.91
		c11.14-2.36,21.94-5.77,32.21-10.77c5.04-2.45,9.7-5.46,14.25-9.45c0.53,6.67,1,12.83,1.52,18.99
		c1.87,22.38,5.53,44.38,14.47,65.19c4.48,10.42,9.85,20.27,18.29,28.16c2.85,2.66,6,4.87,9.16,7.1c1.14,2.47,0.67,5.1,0.5,7.62
		c-0.8,12.22-2.98,24.22-5.96,36.1c-2.89,11.49-7.15,22.47-12.15,33.16c-6.16,13.2-13.11,25.98-21.68,37.79
		c-8.66,11.92-18.98,22.22-30.84,30.96c-14.52,10.7-29.78,20.18-46.14,27.82c-17.24,8.05-34.6,15.8-53.02,20.85
		C321.14,625.41,318.43,625.77,315.75,626.33z"/>
	<path class="st2" d="M313.16,486.81c-5.04,1.23-10.21,1.52-15.35,1.86c-17.55,1.14-35.14,1.81-52.54-1.37
		c-27.44-5.01-52-16.24-72.2-35.81c-9.99-9.68-14.14-21.87-13.17-35.86c1.04-15.05,6.67-28.31,15.03-40.62
		c9.98-14.7,21.53-28.17,32.56-42.05c4.82-6.06,8.43-12.48,6.35-20.6c-1.31-5.12-3.56-9.86-6.74-14.11
		c-1.75-2.34-3.58-4.64-5.35-6.96c-2-2.62-3.49-5.52-4.55-8.64c-2.13-6.23-0.56-11.37,4.79-15.2c5.75-4.11,12.46-6.16,18.99-8.53
		c7.59-2.75,15.48-4.61,22.96-7.71c6.34-2.63,12.04-6.18,17.33-10.56c6.35-5.26,12.2-11.19,19.62-15.06
		c10.04-5.22,20.67-6.77,31.79-4.94c3.86,0.64,7.39,2.31,10.58,4.57c4,2.84,8.2,5.5,11.76,8.83c6.6,6.17,14.57,9.22,23.04,11.52
		c10.32,2.8,20.94,3.98,31.38,6.1c9.55,1.94,18.79,4.88,27.79,8.58c2.16,0.89,4.18,2.04,6.05,3.42c2.9,2.14,4.45,4.95,3.97,8.67
		c-0.68,2.59-2.47,4.17-4.69,5.51c-8.72,5.25-16.99,11.11-24.13,18.44c-2.35,2.42-4.43,5.08-5.86,8.14
		c-2.05,4.4-2.28,8.96-0.69,13.57c2.02,5.86,3.55,11.87,6,17.58c1.32,3.09,1.6,6.46,2.63,9.63c1.73,7.52,2.9,15.14,3.86,22.79
		c1.2,9.52,2.64,19.04,2.2,28.69c-0.05,1.11-0.22,2.21-0.33,3.32c-1.75,8.66-5.81,16.2-10.98,23.28
		c-7.44,10.17-15.63,19.68-24.96,28.13c-7.4,6.7-15.59,12.44-23.81,18.1c-9.82,6.76-20.31,12.24-31.4,16.6
		C314.45,486.39,313.75,486.45,313.16,486.81z"/>
	<path class="st1" d="M411.27,300.66c4.48-6.63,10.06-12.45,14.37-19.22c1.73-2.72,3.19-5.47,3.45-8.78
		c0.36-4.65-1.37-8.19-5.2-10.8c-3.16-2.15-6.63-3.62-10.16-5c-12.9-5.06-26.39-7.67-39.99-9.84c-6.89-1.1-13.68-2.6-20.34-4.7
		c-5.98-1.88-11.41-4.6-16.16-8.82c-3.78-3.36-8.03-6.21-12.12-9.22c-7.48-5.5-15.97-6.78-25.01-6.03
		c-12.23,1.01-22.61,5.91-31.73,14.02c-8.56,7.61-17.29,15.08-28.54,18.62c-5.08,1.6-10.14,3.31-15.22,4.9
		c-6.41,2.01-12.7,4.34-18.76,7.24c-11.52,5.51-14.17,13.53-8.36,24.91c1.74,3.4,4.22,6.28,6.56,9.26c1.81,2.31,3.51,4.69,4.82,7.32
		c0.64,1.3,1.23,2.62,2.09,4.46c-3.22-1.71-5.46-3.78-7.67-5.84c-9.99-9.27-15.32-21.18-19.28-33.92
		c-4.74-15.26-4.8-30.85-3.83-46.55c0.22-3.48,0.36-6.97,1.24-10.76c5.52,14.68,17.43,20.14,31.09,22.5
		c12.42,2.15,24.71,0.77,36.49-4.05c4.01-1.64,7.66-3.85,10.74-6.98c5.45-5.54,7.02-12.1,4.46-19.24
		c-5.15-14.38-15.72-23.35-30.43-26.2c-17.23-3.33-33.06,0.79-46.82,12.64c4.04-10.12,8.31-19.85,14.07-28.85
		c20.28-31.64,48.48-52.64,84.71-62.71c9.65-2.68,19.59-3.79,29.56-4.35c15.24-0.84,30.5-0.77,45.62,1.45
		c43.24,6.36,79.81,25.11,107.57,59.4c11.42,14.11,17.79,30.74,21.25,48.46c1.58,8.07,0.44,9.05-7.52,7.45
		c-7.08-1.42-14.18-2.78-21.27-4.09c-4.58-0.85-5-0.56-6.75,3.76c-2.33,5.74-4.41,11.57-6.07,17.54c-0.39,1.38-1.1,2.18-2.38,2.77
		c-4.84,2.24-9.8,4.24-14.32,7.11c-2.49,1.58-2.5,1.96-0.26,3.86c5.39,4.55,9.35,10.1,11.4,16.88c2.87,9.49,4.82,19.17,5.44,29.08
		c-1.47,3-4.58,3.83-7.21,5c-8.39,3.76-17.18,6.39-26.19,8.21C413.46,301.82,411.86,302.8,411.27,300.66z"/>
	<path class="st1" d="M502.78,200.97c1.54,10.06,3.28,19.61,5.37,29.11c3.11,14.14,10.38,26.11,19.09,37.38
		c9.58,12.4,19.79,24.32,28.95,37.04c9.12,12.65,17.87,25.57,23.46,40.26c10.96,28.78,1.61,59.01-18.56,76.35
		c-11.36,9.77-24.7,15.72-40.05,15.59c-16.33-0.15-29.51-7.24-40.12-19.32c-8.4-9.55-13.22-21.07-17.39-32.88
		c-5.99-16.99-8.66-34.65-10.37-52.51c-1.63-17.05-1.94-34.2-4.1-51.2c-1-7.86-2.65-15.6-5.13-23.13
		c-2.02-6.1-5.55-11.28-10.37-15.49c-1.84-1.61-1.34-2.23,0.43-3.08c4.35-2.06,8.61-4.33,13.05-6.19c1.51-0.63,2.15-1.4,2.53-2.8
		c1.8-6.56,4.12-12.94,6.65-19.25c0.66-1.65,1.49-2.2,3.3-1.89c8.99,1.53,17.93,3.31,26.82,5.3c2.07,0.46,3.33,0.07,4.56-1.68
		C494.05,208.1,498.26,204.68,502.78,200.97z"/>
	<path class="st3" d="M315.75,626.33c4.11-1.74,8.52-2.46,12.78-3.71c9.32-2.74,18.31-6.35,27.25-10.08
		c9.91-4.13,19.65-8.65,29.22-13.54c15.55-7.96,30.1-17.47,43.69-28.44c13.57-10.95,24.47-24.19,33.29-39.19
		c9.13-15.51,17.01-31.6,22.52-48.77c3.25-10.11,5.37-20.5,6.98-31c1.08-7.04,1.54-14.12,1.61-21.23
		c6.25,3.28,12.49,6.57,19.65,7.45c1.38,0.17,1.16,1.4,1.21,2.24c0.58,9.28,1.06,18.57,0.58,27.87c-0.52,10.14-1.18,20.26-2.9,30.29
		c-3.21,18.75-8.01,37.01-17.58,53.64c-8.16,14.18-19.19,26.07-31.49,36.7c-20.8,17.98-45.03,28.45-72.25,32.21
		c-19.53,2.69-39.16,4.23-58.84,5.21C326.24,626.25,321,626.48,315.75,626.33z"/>
	<path class="st1" d="M510.62,513.2c1.59-8.26,3.31-16.49,4.21-24.88c1.42-13.2,1.93-26.43,1.36-39.68
		c-0.1-2.37,0.65-3.17,2.88-3.77c20.43-5.49,40.96-10.47,61.97-13.16c8.87-1.13,17.77-2.08,26.75-1.26c2.14,0.19,2.69,0.9,2,2.9
		c-1.74,5.06-3.98,9.87-6.47,14.6c-7.03,13.33-16.12,25.19-25.8,36.64c-0.94,1.11-1.94,2.17-2.91,3.26
		c-13.38,11.4-28.31,20.14-44.58,26.79c-6.4,2.61-12.26,1.04-18.33-0.42C511.18,514.1,510.81,513.73,510.62,513.2z"/>
	<path class="st2" d="M447.04,602.65c0.06-0.07,0.1-0.15,0.17-0.19c2.43-1.62,4.81-4.4,7.3-4.52c2.34-0.11,4.86,2.55,7.22,4.1
		c11.36,7.43,23.17,14.21,33.75,22.79c6.64,5.4,12.63,11.43,16.86,18.99c0.85,1.52,1.64,3.05,1.59,4.83
		c-0.03,1.34-0.49,2.35-2.16,2.2c-3.68-0.34-7.38-0.5-11.01-1.21c-7.53-1.29-14.8-3.69-22.27-5.26c-6.74-1.42-13.54-2.4-20.38-3.2
		c-1.97-0.23-3.47,0.59-4.86,1.89c-3.21,3.01-6.01,6.39-8.91,9.67c-1.61,1.82-3.56,3.23-5.12,5.06c-2.87,2.18-5.83,4.26-8.6,6.57
		c-2.37,1.99-4.64,1.74-7.09,0.34c-6.63-3.79-13.36-7.44-19.88-11.41c-2.82-1.71-5.47-2.23-8.75-1.8
		c-13.38,1.75-26.81,2.97-40.3,3.51c-2.84,0.12-3.11-0.14-2.13-2.83c3.58-9.83,9.39-18.28,16.25-26.08c1.5-1.7,3.47-1.12,5.29-1.34
		c3.1-0.32,6.12-0.26,9.17,0.67c7.58,2.29,15.35,3.88,23.06,5.72c9.01,2.15,16.49-0.56,23.48-6.22c6.52-5.28,11.1-11.93,15.11-19.11
		C445.48,604.68,446.2,603.63,447.04,602.65z"/>
	<path class="st2" d="M221.22,642.01c-6.86,4.13-14.03,7.62-21.55,10.42c-1.7,0.63-2.66,0.31-3.63-1.19
		c-2.76-4.27-5.77-8.35-8.9-12.36c-1.67-2.14-3.65-2.83-6.32-2.42c-11.9,1.82-23.83,3.5-35.72,5.34c-1.98,0.31-2.6-0.42-2.9-2.14
		c-0.53-3.05-1.23-6.07-1.76-9.12c-0.36-2.06-1.31-2.88-3.52-2.65c-7.7,0.81-15.42,1.47-23.13,2.16c-0.85,0.08-1.7,0.01-2.68,0.01
		c0.15-1.8,1.35-2.82,2.38-3.92c10.71-11.38,23.82-19.42,37.46-26.69c6.15-3.28,12.52-6.09,19.21-8.12
		c1.43-0.43,2.51-0.29,3.79,0.58c4.12,2.8,8.37,5.42,12.57,8.11c13.02,10.37,27.22,18.69,42.88,24.42c0.65,0.24,1.29,0.49,1.91,0.79
		c2.14,1.05,2.47,1.92,1.46,4.11c-2.27,4.95-6.61,8.05-10.4,11.65C222.01,641.36,221.5,641.55,221.22,642.01z"/>
	<path class="st4" d="M224.01,178.8c18.38-0.96,33.13,12.49,37.49,23.06c4.05,9.81,1.72,17.89-7.22,23.69
		c-6.55,4.25-13.92,6.26-21.58,7.26c-11.19,1.47-22.17,0.84-32.61-3.93c-4.74-2.17-9.11-4.93-12.41-9.05
		c-7.62-9.49-6.84-22.92,4.3-31C201.59,181.87,212.38,178.75,224.01,178.8z"/>
	<path class="st3" d="M510.62,513.2c9.24,3.8,17.73,1.85,26.53-2.26c13.06-6.09,24.86-14.01,36.32-22.58
		c0.33-0.24,0.76-0.35,1.15-0.51c-5.5,7.05-11.53,13.66-17.57,20.25c-16.14,17.57-32.74,34.65-52.37,48.47
		c-6.38,4.49-12.81,8.87-20.38,12.48c4.45-5.79,8.59-11.14,11.86-17.08c6.42-11.68,10.81-24.12,13.93-37.04
		C510.23,514.34,510.44,513.77,510.62,513.2z"/>
	<path class="st3" d="M411.27,300.66c1.61,1.53,3.34,0.26,4.83-0.07c8.35-1.88,16.56-4.34,24.41-7.78c2.62-1.15,5.3-2.44,7.48-4.43
		c1.01,6.3,0.84,12.69,1.52,19.02c0.13,1.24-0.72,1.83-1.49,2.53c-6.89,6.26-15.24,9.91-23.76,13.24
		c-6.98,2.74-14.23,4.56-21.52,6.27c-1.73,0.41-2.1-0.12-2.16-1.69c-0.1-2.95,0.12-5.87,1.04-8.67
		C403.82,312.42,407.14,306.33,411.27,300.66z"/>
	<path class="st5" d="M455.3,66.41c0.27,1.29-0.49,2-1.67,2.67c-13.06,7.41-26.35,14.44-38.99,22.58
		c-5.19,3.34-10.22,6.93-15.19,10.58c-1.17,0.86-2.04,0.9-3.24,0.49c-2.51-0.87-5.03-1.73-7.59-2.44c-1.67-0.46-1.68-1.03-0.64-2.26
		c5.69-6.71,12.2-12.53,18.98-18.1c6.49-5.34,12.97-10.7,20.07-15.21c5.57-3.54,11.23-7.02,17.64-8.91
		c3.94-1.16,6.44-0.04,8.42,3.41C454.27,61.26,455.31,64.58,455.3,66.41z"/>
	<path class="st6" d="M313.16,486.81c1.72-1.32,3.75-2.01,5.72-2.85c13.09-5.6,25.09-13.04,36.54-21.47
		c9.23-6.8,18.02-14.09,25.6-22.67c7.71-8.73,15.44-17.54,20.58-28.15c1.82-3.75,3.11-7.75,4.65-11.64
		c-0.3,29.72-12.89,52.55-38.68,67.55c-16.56,9.63-34.54,15.72-53.38,19.21C313.85,486.84,313.5,486.8,313.16,486.81z"/>
	<path class="st6" d="M447.04,602.65c-3.71,8.09-8.32,15.53-15.25,21.33c-2.44,2.04-4.87,4.02-7.64,5.62
		c-5.68,3.29-11.66,3.62-17.89,2.24c-8.51-1.9-17.04-3.72-25.35-6.39c-2.26-0.73-4.58-0.51-6.88-0.68c4.76-0.63,9.5-1.34,14.27-1.87
		c20.14-2.23,38.76-8.89,56.22-18.99C445.33,603.43,446.2,603.06,447.04,602.65z"/>
	<path class="st6" d="M400.52,345.23c-1.79-3.25-2.15-6.99-3.61-10.37c-2.52-5.82-4.23-11.95-6.05-18.01
		c-1.94-6.49,0.1-12.27,4.12-17.53c4.81-6.3,11.11-10.88,17.35-15.56c3.3-2.47,6.72-4.74,10.34-6.71c2.05-1.11,3.3-2.9,4.59-4.7
		c-0.03,2.78-1.19,5.15-2.68,7.38c-3.05,4.57-6.3,9-9.81,13.24c-5.34,6.44-9.77,13.44-13.23,21.09c-2.64,5.85-3.05,11.89-2.36,18.13
		C399.64,336.53,400.07,340.88,400.52,345.23z"/>
	<path class="st5" d="M387.61,53.24c2.82,0.22,5.54,0.74,8.09,2.16c1.38,0.77,1.59,1.32,0.73,2.71c-4.87,7.88-9.91,15.67-13.82,24.1
		c-1.99,4.28-3.92,8.58-5.35,13.09c-0.39,1.23-0.81,1.81-2.35,1.42c-2.89-0.73-5.85-1.21-8.81-1.62c-1.55-0.21-0.96-1.04-0.78-1.81
		c1.08-4.53,2.93-8.77,4.7-13.04c3.18-7.69,6.33-15.4,11.28-22.19c0.86-1.18,1.78-2.3,2.64-3.48
		C384.87,53.3,386.15,53.06,387.61,53.24z"/>
	<path class="st5" d="M405.03,105.99c4.78-2.13,9.24-3.85,13.83-5.16c8.97-2.56,18.05-4.7,27.21-6.49
		c3.43-0.67,6.95-0.85,10.42-1.33c1.89-0.26,2.74,0.64,2.87,2.35c0.26,3.52,0.02,7.03-0.47,10.52c-0.13,0.91-0.69,1.04-1.44,1.1
		c-4.53,0.33-9.04,0.76-13.57,1.01c-8.12,0.44-16.18,1.39-24.23,2.49c-2.6,0.36-5.16,0.61-7.63-1.02
		C410.04,108.13,407.74,107.3,405.03,105.99z"/>
	<path class="st1" d="M239.82,117.62c-0.39,1.32-1.2,1.57-1.81,1.99c-5.14,3.63-10.09,7.48-14.47,12.02
		c-0.85,0.87-1.68,1.34-2.94,1.08c-8.62-1.81-16.91-0.36-25.04,2.62c-0.6,0.22-1.28,0.96-1.87,0.39c-0.54-0.51-0.02-1.32,0.14-1.93
		c1.29-5.03,4.19-9.04,8.34-12.06C213.93,113.17,226.77,115.23,239.82,117.62z"/>
	<path class="st6" d="M221.22,642.01c2.09-2.98,4.95-5.23,7.45-7.81c1.46-1.51,2.58-3.16,3.56-5c0.95-1.79,0.76-2.69-1.28-3.43
		c-6.85-2.5-13.57-5.33-19.98-8.85c-7.9-4.35-15.67-8.89-22.55-14.79c-0.71-0.6-1.26-1.38-1.89-2.08
		c7.09,3.46,14.01,7.27,21.24,10.47c12.54,5.55,25.57,9.52,38.98,12.33c0.67,0.14,1.33,0.34,2.08,0.53
		c-0.11,0.26-0.15,0.54-0.3,0.65c-8.66,6.07-17.22,12.28-26.37,17.62C221.88,641.8,221.54,641.88,221.22,642.01z"/>
	<path class="st6" d="M439.24,657.81c1.04-2.43,3.29-3.88,4.89-5.86c2.79-3.46,6.05-6.54,9.09-9.8c1.27-1.35,2.85-1.94,4.63-1.75
		c14.49,1.49,28.59,4.87,42.54,8.92c0.15,0.04,0.25,0.22,0.38,0.33c-7.42-0.75-14.86-1.43-22.27-2.26
		c-6.15-0.68-12.31-1.08-18.48-1.44c-3.03-0.18-5.53,0.73-7.89,2.48C447.86,651.59,443.54,654.68,439.24,657.81z"/>
	<path class="st7" d="M329.22,257.8c-0.33,0.39-0.56,0.74-0.86,1.02c-2.69,2.5-5.39,4.99-8.1,7.46c-0.41,0.37-0.9,1.01-1.52,0.42
		c-0.66-0.62,0.05-1.08,0.4-1.48c2.5-2.83,5.43-5.18,8.38-7.51c0.33-0.26,0.66-0.59,1.13-0.43
		C328.84,257.35,328.98,257.57,329.22,257.8z"/>
	<path class="st8" d="M269.26,257.71c2.31,0.47,2.92,1.91,3.9,2.86c1.98,1.92,3.56,4.16,5.03,6.48c0.28,0.45,0.57,0.94,0.06,1.35
		c-0.15,0.12-0.7-0.03-0.88-0.22C274.53,265.07,272.04,261.69,269.26,257.71z"/>
	<path class="st9" d="M383.32,234.6c-6.46,0.07-15.56-1.56-24.4-4.66c-3.68-1.3-7.03-3.21-10.04-5.7
		c-11.55-9.56-12.58-24.72-2.28-35.67c8.77-9.33,19.8-14.38,32.28-16.41c11.09-1.8,22.16-1.78,32.87,2.05
		c10.04,3.59,18.68,9.28,24.28,18.64c5.78,9.66,5.95,23.18-6.18,31.76c-6.99,4.94-14.89,7.02-23.06,8.33
		C400.01,234.01,393.14,234.6,383.32,234.6z"/>
	<path class="st10" d="M227.21,203c1.43,0.05,2.32,0.72,2.32,2.16c0,1.57-1.09,2.31-2.47,2.38c-1.36,0.08-2.3-0.71-2.29-2.15
		C224.78,203.85,225.81,203.18,227.21,203z"/>
	<path class="st4" d="M386.08,232.62c-8.84,0.37-17.58-1.37-26.12-4.24c-3.71-1.24-7.04-3.18-10.06-5.67
		c-10.33-8.52-11.43-22.1-2.6-32.21c4.14-4.74,9.1-8.48,14.76-11.11c15.68-7.27,31.98-8.72,48.51-3.61
		c10.11,3.13,18.66,8.96,24.1,18.36c5.39,9.33,4.94,21.71-6.34,29.3c-7.25,4.88-15.38,6.72-23.74,7.94
		C398.53,232.27,392.43,232.83,386.08,232.62z"/>
	<path class="st11" d="M387.05,201.47c-0.2,1.41-1.06,2.2-2.54,2.22c-1.41,0.02-2.31-0.7-2.32-2.12c-0.01-1.56,1.06-2.28,2.49-2.31
		C386.04,199.23,386.89,199.97,387.05,201.47z"/>
</g>
</svg>
