<svg id="Layer_1" data-name="Layer 1" xmlns="http://www.w3.org/2000/svg" viewBox="0 0 1086.06 1022.313"><defs><style>.cls-1{fill:#11161c;}.cls-2{fill:#fdf6b2;}.cls-3{fill:#fdf7b2;}.cls-4{fill:#ded798;}.cls-5{fill:#ed8323;}.cls-6{fill:#ddd698;}.cls-7{fill:#cd7329;}.cls-8{fill:#ded698;}.cls-9{fill:#faf2af;}.cls-10{fill:#dcd597;}.cls-11{fill:#cd7229;}.cls-12{fill:#ec8323;}.cls-13{fill:#dad396;}.cls-14{fill:#f6eead;}.cls-15{fill:#d7d194;}.cls-16{fill:#f8f0ae;}.cls-17{fill:#d5cf93;}.cls-18{fill:#d2d2d3;}.cls-19{fill:#161b1f;}.cls-20{fill:#e11f47;}.cls-21{fill:#281f23;}.cls-22{fill:#fbf4b0;}.cls-23{fill:#f8f4f5;}</style></defs><title>11</title><path class="cls-1" d="M2649.95,992.3c-12.21-25.36-29.16-43.1-49.7-57.49-20.58-14.42-43.87-23.11-67.71-30.72,84.5-10.11,164.5-.83,234.1,54.86-5.03-18.5-14.36-34.25-25.18-48.94-56.17-76.28-132.35-115.79-226.4-121.86-11.53-.74-11.13-.46-9.56-11.76,2.55-18.21,6.61-36.11,10.91-53.94,3.58-14.89,7.42-29.77,14.78-45.95.32,6.39.52,10.24.8,15.75,25.97-29.9,25.88-64.85,27.98-99.75,4.91,9.81,9.81,19.63,15.5,31.01,0-4.44.21-6.97-.03-9.47-2.55-27.14-7.12-54.27-7.33-81.43-.34-43.38-4.41-86.08-13.86-128.35-9.41-42.09-20.27-83.67-43.37-120.81-5.18-8.34-11.35-16.08-18.6-26.25,50.14,25.3,66.84,68.93,75.82,118.82,6.98-9.85,6.18-20,9.02-29.33.66,14.25,1.33,28.49,2.08,44.56,22.56-28.54,25.39-59.43,21.43-92.04,33.07,40.16,27.22,87.37,25.87,134.12,50.38-55.19,52.79-117.97,29.14-185.12,9.49,12.08,11.4,27.19,17.34,40.69,8.3-30.04,4.9-58.83-7.76-86.75-12.62-27.82-32.6-49.28-57.86-66.45,14.15.95,28.06,1.18,41.71,4.01,13.49,2.81,25.8,9,38.99,13.55-16.89-33.55-44.02-55.09-78.78-66.83-34.52-11.67-69.67-9.88-106.11-.08,2.22-3.39,3.4-5.2,4.59-7.01A86.754,86.754,0,0,0,2520.9,48c.6-3.11,2.9-7.58-.61-9.48-3.45-1.86-6.16,2.35-8.76,4.41-3.23,2.54-5.94,5.73-8.94,8.57-17.85,16.88-37.88,29.1-62.8,33.16-34.38,5.6-68.57,12.69-100.47,27.31-27.55,12.63-51.24,29.57-58.19,61.86-1.09,5.1-3.71,3.99-7.37,2.58-16.68-6.42-33.85-10.59-51.89-8.68a21.639,21.639,0,0,1-16.59-4.6c-66.44-50.48-161.68-35.12-208.66,13.47-2.89,2.99-5.76,4-10.09,3.55-16.55-1.72-33.04.02-49.16,3.63-92.3,20.72-137.67,99.1-140.38,164.02-.28,6.85-2.97,10.18-9.17,13.23-51.15,25.2-84.51,65.45-100.57,120.19-2.52,8.61-2.31,17.89-6.67,25.99v53.41c2.03,8.25,1.32,16.86,4.01,25.1,8.89,27.28,23.98,50.39,45.81,68.92a149.186,149.186,0,0,0,29.56,19.08,139.8,139.8,0,0,0,32.57,11.74c-28,15.44-51.81,35.97-69.6,63.13-32.63,49.8-42.16,103.53-22.32,159.91,14.31,40.64,44.39,70.06,80.23,92.8,44.02,27.94,92.95,40.1,144.88,40.58,29.02.27,58.06-2.45,86.2,9.12,18.81,7.74,39.59,7.6,59.74,9.37h61.04c6.35-3.65,13.42-1.73,20.13-2.48,44.57-4.92,87.83-15.8,130.36-29.44,25.6-8.21,51.14-14.44,78.26-11.98,23.78,2.15,46.84,7.71,69.72,14.18,18.35,5.18,36.03,12.35,54.28,20.26-.25-13.35-6.56-23.43-11.43-35.16,9.01,2.3,15.87-3.5,23.85-3.24,8.36.28,16.07-3,23.97-4.89,7.87-1.88,10.57-8.14,10.34-16.04-.28-9.85-7.21-15.49-14.76-22.42C2563.65,967.09,2606.45,975.64,2649.95,992.3ZM2418.94,791.74c2.04-10.83,4.28-21.62,6.43-32.42,1.24-6.25,6.84-8.31,12.07-14.51-.21,16.86.75,30.45-1.27,43.95-.56,3.78-13.54,10.28-16.53,8.21C2417.7,795.64,2418.63,793.42,2418.94,791.74Z" transform="translate(-1680.58 -38.057)"/><path class="cls-2" d="M2123.369,707.4c-37.4-32.793-82.46-46.874-130.6-53.458-.56-.077-1.055-.625-1.58-.952-12.859-8.9-25.186-18.488-37.515-28.1-4.037-3.146-6.541-7.53-10.517-10.562-16.647-27.95-38.422-50.422-69.269-62.378-20.8-8.06-42.2-11.342-63.927-2.9a38.5,38.5,0,0,0-5.973,2.889c-1.773,1.072-4.572,1.961-3.316,4.824,1.358,3.1,3.684,1.064,5.668.486,37.756-11.006,69.6.219,97.59,25.949,3.015,5.639.232,10.529-2.271,15.25-12.479,23.53-40.192,36.652-66.579,32.611-26.04-3.989-45.335-19.049-62.442-37.317-28.349-30.272-39.418-68.071-44.891-107.991-2.5-18.271-3.19-36.583-.282-54.933a63.918,63.918,0,0,1,2.385-10.124c19.817-28.309,47.626-46.26,79.152-58.127,75.17-28.3,146.615-16.112,213.618,24.582,75.746,46.005,118.5,115.808,138.608,200.691a375.922,375.922,0,0,1,9.978,89.552c-.054,7.985-.626,14.783-8.777,19.062-4.109,2.157-7.369,5.929-11.014,8.971C2142.313,709.555,2133.165,713.1,2123.369,707.4Z" transform="translate(-1680.58 -38.057)"/><path class="cls-2" d="M2371.46,591.117c-2.762-12.382-2.065-24.993-2.488-37.53-1.709-3.963-3.483-6.693-7.651-1.92a133.726,133.726,0,0,0-13.341,17.948c-1.387,2.256-2.675,7.625-7.04,2.429-2.013-25.274-.75-49.53,16.053-70.867,6.069-7.706,9.269-17.67,13.777-26.6a3.112,3.112,0,0,1,3.572.156c9.562,8.586,18.127,4.587,26.187-2.262,25.276-21.476,39.7-47.49,32.722-81.79-3.846-18.918-12.628-22.768-29.981-13.756-3.923,2.038-7.709,4.357-11.675,6.3-3.757,1.842-6.715,1.39-7.012-3.7.208-.239.421-.475.623-.719,3.094-3.74,12.447-6.262,9.913-9.285-4.064-4.849-8.913,2.608-12.872,5.316-12.539,8.576-23.762,18.967-36.744,26.989-15.671,9.684-31.1,11.723-46.481,5.682,5.237-6.327,15.2-12.038,10.455-20.992-5.5-10.378-16.944-3.876-26.831-4.7,3.4-5.477,6.175-10.763,9.7-15.485,16.618-22.235,18.882-47.1,13.268-73.188-2.3-10.681-.2-19.815,6.212-28.293,20.534-2.661,36.543-13.881,51.447-27.19,2.258-1.72,4.509-3.449,6.776-5.157,3.956-2.981,3.96-2.976,8.22,3.5-2.145-24.614-4.183-47.392-6.081-70.182a139.476,139.476,0,0,1-.64-17.077c.355-8.842,3.308-10.351,10.388-5.113,15.666,11.592,28.654,26.013,41,40.91,22.847,27.57,45.983,54.95,67.644,83.438,30.3,39.845,45.113,86.56,55.971,134.664,7.613,33.73,12.675,67.841,13.561,102.483,1.7,6.549.872,13.207.568,19.793-.193,4.188-1.788,9.52-5.69,10.286-7.939,1.56-7.07,7.168-7.926,12.5-3.072,19.1-3.832,38.508-7.721,57.5-.51,2.487-.975,4.987-1.6,7.446-.776,3.045-1.232,6.961-5.19,6.977-3.819.015-4.495-3.949-5.6-6.817a94.428,94.428,0,0,1-3.508-13.151c-3.525,24.056-13.425,44.793-22.843,65.667-2.275,5.043-4.349,11.883-10.769,12.218-7.014.365-8-7.17-10.605-11.95-4.42-8.11-8.747-16.37-15.338-22.843-16.317-16.024-31.773-32.629-41.772-55.305-2.914,7-4.7,12.691-7.175,18.075-2.065,4.493-3.189,10.955-9.208,10.861-6-.093-7-6.682-8.924-11.143-3.727-8.664-5.991-17.915-10.18-26.775-3.26,3.5-3.984,8.233-7.063,11.377C2377.325,592.124,2374.976,595.949,2371.46,591.117Z" transform="translate(-1680.58 -38.057)"/><path class="cls-2" d="M1831,270.1c26.551-40.934,64.1-66.49,111.667-75.389,57.635-10.782,108.215,7.918,153.652,42.524,55.568,42.322,89.121,98.426,103.126,166.658,11.152,54.328,13.189,108.792,4.261,163.621-.964,5.92-.708,12.042-2.579,17.854-11.047,4.554-21.857,4.929-32.264-1.827-7.9-26.967-15.535-54.034-28.278-79.269-45.662-90.422-117.729-145.666-218.064-162.546-28.347-4.769-56.914-3.345-85.252,1.571-6.94,1.694-6.865-4.154-7.765-7.9C1824.243,313.543,1822.806,291.687,1831,270.1Z" transform="translate(-1680.58 -38.057)"/><path class="cls-2" d="M1707.116,886.855c-10.065-31.815-4.772-62.564,6.9-92.69,21.528-55.574,63.521-90.3,116.794-113.074,56.185-24.019,114.223-28.761,174.061-16.743a387.765,387.765,0,0,1,82.868,26.469c15.046,6.755,28.543,17.048,35.088,27.139a158.125,158.125,0,0,0-50,16.964c-5.335,2.856-11.238,1.09-16.858.944-51.753-1.341-98.067,13.792-138.4,46.236-47.081,37.871-64.607,99.592-45.086,156.7,1.013,2.966,1.758,6.023,2.628,9.038-8.992,7.12-20.057,7.2-30.527,8.037-54.215,4.325-95.825-20.138-131.132-58.495C1710.605,894.287,1709.7,890.074,1707.116,886.855Z" transform="translate(-1680.58 -38.057)"/><path class="cls-2" d="M2310.43,770.388c-8.624-32.919-29.65-57.91-50.072-57.994,8.121,6.332,16.741,10.813,21.386,19.409,11.006,33.667,10.288,66.486-7.219,98.039-2.467,4.447-5.4,8.593-10.207,10.91-29.883,7.094-60.292,10.449-90.575,5.385-38.3-6.4-58.819-41.9-49.621-81.263,6.361-27.218,23.377-46.511,44.391-63.286,15.136-12.083,30.619-23.707,47.684-32.882,30.432-16.363,55.087-39.308,76.956-65.635,4.036-4.859,8.5-9.362,12.767-14.029,5.642-4.369,10.687-9.507,16.889-13.151,2.553-1.5,4.8-4.472,8.3-1.909,3.83,13.6,6.514,27.655,16.909,40.649.248-16.87,3.139-31.58,14.379-45.129,2.909,28.882,2.2,57.434,20.07,81.124,6.89,10.149,11.381,21.668,17.972,32.65,1.3-3.507.488-6.407.977-9.2.507-2.891,1.11-5.915,4.4-6.658s5.366,1.709,6.844,4.138a74.016,74.016,0,0,1,10.2,31.37,132.794,132.794,0,0,0,3.78,21.994c-6.791,22.742-13.062,45.6-15.751,69.277-.382,3.356-1.485,5.733-5.382,6.763-18.564,4.9-37.043,10.129-56.927,15.62,10.066-65.863-2.094-130.034-6.255-194.63-5.257,8.122-4.367,17.141-4.275,25.972.275,26.368,3.582,52.5,6.228,78.687a91.281,91.281,0,0,1,.007,9.489c-4.634,13.917-14.751,23.637-25.445,32.824C2316.612,770.841,2313.743,772.908,2310.43,770.388Z" transform="translate(-1680.58 -38.057)"/><path class="cls-3" d="M2113.237,793.336c5.465,38.281,32.064,59.993,70.91,61.621,53.031,2.224,102.746-12.008,152.727-26.373,37.057-10.651,73.8-22.734,112.083-28.548,10.324-1.567,20.681-3.414,31.227-2.757-.838,4.794-5.154,3.966-8.207,4.836-13.378,3.813-27.444,4.963-40.426,10.316-4.893,2.018-12.028,3.346-12.038,9.232-.011,7.052,7.923,7,13.04,8.641,7.823,2.516,15.99,3.875,23.876,6.239,2.091.627,4.521,1.284,4.886,3.895.469,3.351-2.415,4.053-4.673,5.039-5.964,2.6-12.465,4.1-18.978,8.737,14.917,6.086,29.485,8.844,43.393,13.611,4.854,1.664,10.863,2.091,12.657,8.518-1.908,3.591-5.62,3.977-8.929,4.748-41.238,9.608-80.9,24.492-121.48,36.289-45.328,13.178-91.485,21.4-138.467,25.757-14.235,1.321-28.568,2.573-42.721,2.831-47.027.859-91.818-8.667-130.769-36.578-21.452-15.372-34.186-37.246-39.656-63.151-1.727-8.181-.226-16.3.77-24.42,4.143-23.355,17.107-41.543,33.752-57.566,14.921-14.362,31.588-25.956,51.505-32.378,3.748-.9,4.478,2.085,4.631,4.361C2103.658,755.725,2113.5,773.573,2113.237,793.336Z" transform="translate(-1680.58 -38.057)"/><path class="cls-2" d="M2217.039,480.5c-2.21-51.655-10.258-102.09-33.049-149.105-30.829-63.6-76.747-111.958-143-139.319-12.26-5.063-25.2-7.784-40-10.717a148.7,148.7,0,0,1,47.506-29.071c59.419-22.731,113.083-10.281,162.7,26.783q71.955,53.753,90.695,141.553c2.378,11.064-1.935,21.3-7.738,30.591-5.878,9.4-12.582,18.295-18.446,27.709-7.771,12.475-5.776,19.775,6.848,27.521,1.887,1.158,3.751,2.373,5.724,3.367,14.371,7.24,14.648,7.268,12.163,22.366A482.738,482.738,0,0,1,2264.1,552.658a11.9,11.9,0,0,1-1.714,2.216c-5.179,2.911-9.184-.079-12.769-3.035-12.851-10.6-22.15-24.053-29.745-38.693-3.476-6.7-2.012-14.2-2.271-21.4C2217.469,488,2218.224,484.2,2217.039,480.5Z" transform="translate(-1680.58 -38.057)"/><path class="cls-2" d="M2491.369,96.989c43.332-10.156,86.544-15.551,128.856,4.2,14.076,6.57,27.2,14.689,37.873,26.244-3.932,3.615-7.809,1.291-11.416-.414-28.695-13.563-58.714-14.092-89.271-9.182-7.486,1.2-8.94,2.216-14.31,7.839,14.977,2.614,30.21.862,43.784,7.607,35.823,19.807,62.727,47.468,76.331,86.794.918,2.653,1.344,5.477,2,8.221-.142,4.974-2.713,1.95-3.732.849-2.791-3.018-4.863-6.641-7.488-9.82-6.279-7.605-14.056-12.492-24.419-13.638-1.489,6.1,6.984,9.859,3.194,15.9,20.865,32.867,30.842,68.877,30.178,107.685-.426,24.87-5.773,48.747-17.371,70.989-5.3-1.673-3.531-5.876-3.136-9.338,4.925-43.171-2.176-83.476-28.653-119.018-16.625-22.317-37.174-39.782-63.706-49.4-2.532-.918-5.522-3.331-7.853-.586-1.742,2.052.054,4.855.864,7.216,1.029,3,2.389,5.889,3,9.016.56,2.86,1,6.05-1.756,7.843-2.919,1.9-5.521-.206-7.622-2.125a184.14,184.14,0,0,0-19.419-15.283c-23.083-16.005-47.764-28.785-74.634-37.174a17.722,17.722,0,0,1-5.039-2.612c-15.133-16.15-28.621-33.876-45.961-47.908-2.463-1.993-4.832-4.121-7.417-5.941-10.859-7.646-15.218-5.48-17.074,7.55-1.9,13.36.4,26.568.47,39.847,1.78,4.848-1.605,6.349-5.092,7.227-9.84,2.477-19.393,5.958-29.248,8.332a41.357,41.357,0,0,1-19.8-.09c-15.429-3.831-23.046-10.948-20.543-28.224,4.928-17.734,16.4-30.449,31.5-40.063,27.144-17.274,57.746-25.355,88.641-32.461,13.262-3.051,26.765-5.121,39.92-8.549,20.979-5.465,38.846-16.706,54.421-31.748,2.143,2.579.142,4.2-.967,5.984-12.01,18.647-29.726,30.009-50.229,39,6.517,1.519,12.131-.178,17.578-1.584C2479.627,98.686,2485.793,99.468,2491.369,96.989Z" transform="translate(-1680.58 -38.057)"/><path class="cls-4" d="M2161.241,986.284c21.508,1.237,42.974,2.291,64.558.6,32.62-2.562,64.356-9.443,95.85-17.834,16.941-1.841,33.635-5.337,50.54-7.472,18.254-2.3,36.538-4.356,54.794-6.637a31.4,31.4,0,0,1,12.28.523c5.6,2.522,2.331,5.784.16,8.06-3.611,3.788-5.343,8.459-7.5,12.973-26.467,7.423-53.341,13.385-79.346,22.463a1333.037,1333.037,0,0,1-150.373,43.2c-81.428,18.083-161.33,14.164-238.8-18.262-83.6-34.993-114.424-141.082-62.146-212.339,1.851-2.523,3.3-5.428,6.278-6.942,3.182,3.68.932,7.175-.445,10.63-18.818,47.228-8.078,84.92,32.32,115.637,31.637,24.056,66.734,40.261,105.642,48.065,20.239,4.06,40.943,4.531,61.44,6,14.5,1.042,29.033,2.556,43.615,2.776C2153.919,987.779,2157.725,988.309,2161.241,986.284Z" transform="translate(-1680.58 -38.057)"/><path class="cls-2" d="M2161.241,986.284c-8.984,7.379-19.7,3.9-29.058,2.86-15.4-1.706-30.878-1.942-46.232-2.789-62.26-3.436-117.4-23.9-163.055-66.635-18.252-17.086-28.479-39.521-28.462-65.169.009-13.993,4.35-27.346,10.219-40.077,1.456-3.157,3.4-6.144,2.881-9.864,22.936-27.52,53.024-43.481,86.826-53.126,20.156-5.751,40.725-9.114,63.329-7.636-8.852,8.125-17.669,14.632-24.774,22.936-55.923,65.355-38.147,154.949,38.448,194.626C2099.642,976.059,2129.782,983.413,2161.241,986.284Z" transform="translate(-1680.58 -38.057)"/><path class="cls-4" d="M1729.854,420.7c1.648,13.037-2.433,25.785-1.686,38.853,2.227,38.963,8.387,77.016,29.858,110.455,18.542,28.877,42.085,51.958,77.949,58.764,29.372,5.573,62.935-16.439,67.959-45.568,20.407,17.74,33.52,39.98,41.609,66.733a319.036,319.036,0,0,0-66.85,5.6c-20.62,3.955-40.722,9.659-59.425,19.082-9.429,4.751-17.948,4.213-27.321,1.358-67.707-20.624-106.957-79.627-100.872-150.074,3.038-35.169,13.087-67.585,32.235-97.179C1725.174,425.842,1727.658,423.361,1729.854,420.7Z" transform="translate(-1680.58 -38.057)"/><path class="cls-5" d="M2493.18,875.521c-19.18-9.294-40.471-12.2-61.554-20.148,8.48-7.847,18.855-9.754,29.011-14.256-6.093-3.743-12.644-3.928-18.633-5.605-7.612-2.132-15.39-3.706-22.306-7.758-6-3.516-6.364-7.471-.642-11.687,8.65-6.37,18.845-8.795,29.015-11.18,10.708-2.511,21.7-3.809,32.11-7.609,103.453-2.862,189.7,32.531,254.854,114.695,3.129,3.946,5.6,8.418,8.371,12.644-3,6.779-6.643,1.727-9.287.056-14.775-9.335-29.535-18.833-45.707-25.445-38.106-15.579-77.342-26.353-118.973-27.118a363.859,363.859,0,0,0-70.983,6.1A4.909,4.909,0,0,1,2493.18,875.521Z" transform="translate(-1680.58 -38.057)"/><path class="cls-4" d="M2493.18,875.521l3.966,1.517c5.176.286,4.8,3.091,2.736,6.367-1.386,2.205-3.714,3.424-5.958,4.633-17.606,9.489-34.765,19.784-52.486,29.065-48.7,14.861-93.882,39.531-143.9,50.815-58.531,13.205-117.323,18.922-176.211,4.3-37.261-9.251-71.651-25.165-92.782-59.7-17.036-27.845-25.253-57.892-16.083-90.7-1.979,49.385,29.764,89.373,80.76,107.05,26.908,9.327,54.447,15.5,82.623,14.7a781.648,781.648,0,0,0,115.713-12.009c47.815-8.569,93.764-23.538,139.818-38.389C2451.756,886.6,2472.566,881.364,2493.18,875.521Z" transform="translate(-1680.58 -38.057)"/><path class="cls-4" d="M2437.624,188.806c10.268-.512,19.143,4.369,27.944,8.278,26.108,11.6,51.133,25.189,72.372,44.779,1.531,1.412,2.979,4.322,5.357,2.91,2.718-1.613,1.175-4.459.359-6.814-1.547-4.47-3.033-8.963-4.655-13.4-2.664-7.292.842-8.747,6.739-6.547,16.391,6.116,31.99,13.8,45.249,25.49,30.407,26.808,49.241,60.273,54.308,100.425,2,15.826,2.161,32.245-.853,48.3-.52,2.771-1.3,5.658,1.132,8.049a47.953,47.953,0,0,1-10.4,17.154c8.45-87.106-23.747-134.284-57.532-142.7-.231,2.752,2.039,3.8,3.518,4.8,13.62,9.214,16.825,23.067,16.974,38.131.225,22.935-3.267,40.634-11.015,55.791-2.648-23.872-2.535-47.314-18.137-66.42,1.207,13.533,3.654,26.863,1.5,41.176-3.94-2.573-3.084-6.578-3.955-9.5-12.843-43.081-37.49-75.585-80.731-92.1-9.834-3.754-15.471-13.063-21.8-20.685C2454.334,214.272,2446.332,201.245,2437.624,188.806Z" transform="translate(-1680.58 -38.057)"/><path class="cls-4" d="M1707.116,886.855c13.258,13.895,26.256,27.967,42.038,39.275,38.583,27.642,80.6,34.023,125.955,21.7,13.59,28.605,32.158,53,59.493,69.879,6.414,3.96,13.111,7.462,21.362,12.126-18.249,3.258-35.179,3.039-51.855,1.436-55.888-5.369-105.723-25.438-146.96-64.276-21.918-20.643-39.874-44.267-48.82-73.665A57.636,57.636,0,0,1,1707.116,886.855Z" transform="translate(-1680.58 -38.057)"/><path class="cls-2" d="M2285.234,526.106c10.178-30.908,19.237-62.1,23.991-94.387.046-.312.173-.611.229-.923,2.718-15.058,2.714-15.046,17.146-10.263,5.742,1.9,11.191.732,16.592-1.54,11.644-4.9,21.979-12.2,33.878-18.859,1.049,13.586-1.713,25.81-4.6,37.839-6.385,26.593-15.819,51.985-31.838,74.547-2.349,3.308-4.765,7.1-5.459,10.964-3.828,21.34-18.169,36.32-30.81,52.367-3.8.916-6.464-1.417-7.783-4.118C2289.565,557.37,2281.286,543.224,2285.234,526.106Z" transform="translate(-1680.58 -38.057)"/><path class="cls-6" d="M2371.46,591.117c4.895,2.492,6.012-1.655,7.616-4.517,2.446-4.364,4.616-8.884,7.8-15.082,4.88,13.094,8.913,24.526,13.475,35.743,1.193,2.933,1.709,8.007,5.847,7.66,3.662-.307,4.378-5.088,5.677-8.192,3.281-7.845,6.154-15.862,9.982-25.882a177.884,177.884,0,0,0,19.3,33.8c10.126,14.3,25.848,23.633,34.189,39.4,3.111,5.883,6.516,11.614,9.5,17.558,2.836,5.644,5.428,6.834,8.975.536,11.718-20.805,20.74-42.66,26.087-65.972.843-3.677,1.519-7.393,2.467-12.046,6.22,7.442,4.417,17.375,10.84,25.652,8.629-29.582,7.844-59.378,14.269-88.95,3.745,5.084,6.393,4.513,9.549-.559,5.044-8.108,1.392-16.874,3.08-25.148,2.8,14.121,1.2,28.4,1.425,42.608.228,14.546,2.38,28.9,4.06,43.539-8.442-9.562-12.376-20.936-16.177-32.573,1.725,38.454,5.421,76.769-11.644,113.282-.194-16.65-13.074-28.744-15.26-45.187-2.547,38.007-18.153,68.56-47.82,92.178,7.261-31.074-9.021-53.323-26.547-75.128-2.984-3.713-5.962-7.432-8.994-11.107-7.41-8.983-15.222-17.773-13.87-31.083-8.1,18.713-5.7,37.548-2.746,56.437-7.285-3.877-12.272-10.384-18.837-24.274-4.4-9.31-6.6-19.621-13.165-28.251,2.657,13.122-1.478,25.925.256,41.615C2377.505,628.795,2372.927,610.492,2371.46,591.117Z" transform="translate(-1680.58 -38.057)"/><path class="cls-5" d="M2472.149,915.087c18.587-6.6,37.028-8.151,56.545-2.551,35.373,10.149,67.983,24.568,93.27,52.352a88.452,88.452,0,0,1,10,12.985c-15.728-4.819-31.471-8.739-47.239-12.562-15.263-4.517-31.038-4.77-46.715-5-25.981-.387-51.972.072-77.958-.023-4.428-.017-8.882.268-13.228-.765-7.131-3.573-2.12-6.395.857-8.73,8.994-7.054,18.843-12.864,28.521-18.916,4.268-2.669,8.832-4.88,13.345-8.449C2484.6,918.331,2476.342,920.661,2472.149,915.087Z" transform="translate(-1680.58 -38.057)"/><path class="cls-7" d="M2441.438,917.1c15.928-13.677,35.521-21.285,53.145-32.15,2.8-1.726,9.484-2.795,2.563-7.915,12.685-5.415,26.457-6.032,39.73-7.077,51.065-4.018,100.239,5.494,147.562,24.473,18.78,7.533,36.087,18.113,52.862,29.443,1.976,1.334,3.6,4.281,6.106.741,4.282,3.945,6.433,9.2,9.105,14.312-2.864,1.587-4.19-.795-5.841-1.85-58.774-37.538-122.478-50.6-191.751-41.862C2516.494,900.066,2478.723,906.991,2441.438,917.1Z" transform="translate(-1680.58 -38.057)"/><path class="cls-8" d="M2384.583,379.52c1.8,4.159,4.647,3.486,7.761,1.7,4.394-2.514,8.755-5.094,13.212-7.492,15.291-8.225,23.464-5.032,28.766,11.253,8.117,24.93,1.538,47.331-12.211,68.3a80.438,80.438,0,0,1-20.156,21.283c-15.395,11.1-16.75,10.954-31.185,0,8.071-24.99,15.068-50.211,15.609-76.717.082-4.034,2.919-5.359,5.547-6.937,7.8-4.688,15.7-9.219,24.605-14.419-6.52-2.008-10.659,1.1-14.854,3.191-19.528,9.724-36.575,23.762-56.6,32.649-3.668,1.628-7.045,4.43-12.457,2.47C2352.316,405.706,2367.874,391.787,2384.583,379.52Z" transform="translate(-1680.58 -38.057)"/><path class="cls-6" d="M2217.039,480.5c2.156,2,1.873,4.716,1.525,7.1-3.184,21.821,9.764,36.917,22.112,51.936,5.639,6.858,11.461,14.529,21.713,15.341-17.509,42.407-41.325,81.106-69.223,117.38-3.69,4.8-8.84,7.888-14.446,10.5-1.533-4.086-.292-7.149,1.45-10.321,19.684-35.854,28.572-74.659,33-115.042C2215.985,531.767,2216.736,506.178,2217.039,480.5Z" transform="translate(-1680.58 -38.057)"/><path class="cls-6" d="M2292.961,169.6c6.3,23.8,18.784,31.014,43.42,24.806,9.1-2.292,18.028-5.244,27.114-7.584,2.662-.685,3.51-2.289,4.147-4.466,1.8,11.828,3.566,23.663,5.431,35.483.54,3.423-.363,5.686-3.227,8.085-13.257,11.107-28.919,15.867-45.595,15.554-21.664-.406-38.09-22.587-36.548-48.147C2288.19,185.266,2288.635,176.932,2292.961,169.6Z" transform="translate(-1680.58 -38.057)"/><path class="cls-2" d="M2472.149,915.087c7.61,1.743,15.44,2.8,23.385,7.477-17.8,11.8-36.469,21.025-52.134,34.625a1.006,1.006,0,0,1-1.736.178c-27.067.379-53.645,5.291-80.38,8.727-10.562,1.358-21.065,3.184-31.63,4.518-2.662.336-5.745.983-8.005-1.566,44.147-12.68,84.511-35.4,128.525-48.437C2457.427,918.46,2464.5,915.648,2472.149,915.087Z" transform="translate(-1680.58 -38.057)"/><path class="cls-6" d="M2285.234,526.106c2.235,18.174,4.9,36.182,19.128,49.745-26.191,33.753-52.82,67.032-92.64,86.737-.4-1.519-.844-2.279-.64-2.547C2242.316,619,2266.307,573.956,2285.234,526.106Z" transform="translate(-1680.58 -38.057)"/><path class="cls-6" d="M2445.65,791.681c-1.87,1.13-3.8,1.955-3.265-1.539a265.325,265.325,0,0,0,2.984-47.3c-.061-2.262.128-4.424,1.951-6.107,8.611-7.952,15.172-17.625,22.869-28.206-.587,9.632-5.933,15.769-9.485,23.125,33.2-10.966,56.222-40.428,64.206-81.866,3.267,3.437,4.553,6.979,2.886,11.247-11.987,30.7-18.911,62.815-26.56,94.727-5.008-1.786-9.374.246-13.582,2.506-12.918,6.939-25.062,14.935-33.995,26.882C2451.478,788.068,2448.208,789.377,2445.65,791.681Z" transform="translate(-1680.58 -38.057)"/><path class="cls-6" d="M2310.43,770.388c13.359-4.23,19.549-16.2,27.837-25.879,2.233-2.607,4.024-5.594,6.018-8.407a328.862,328.862,0,0,1-3.3,78.746c-.521,3.243-1.545,5.076-4.74,6.044-9.6,2.906-19.131,6.035-30.275,9.582A126.246,126.246,0,0,0,2310.43,770.388Z" transform="translate(-1680.58 -38.057)"/><path class="cls-6" d="M2426.64,724.924c-6.325-4.679-5.335-11.817-5.781-18.259-.844-12.17-4.64-23.379-10.023-34.15-.963-1.929-2.4-4.386-4.859-3.714-2.442.668-2.365,3.42-2.366,5.665a70.713,70.713,0,0,1-1.027,14.459c-8.74-11.766-16.014-24.172-20.118-38.3,5.248,4.218,9.038,10.57,17.367,11.719-2.244-9.276-5.433-18.02-3.423-28.19,4.609,8.14,7.523,16.612,13.7,22.91a71.969,71.969,0,0,0,10.96,9.062c3.623,2.457,8.894,6.592,11.84,4.432,4.228-3.1-1.273-7.708-2.253-11.729-2.674-10.973-5.068-21.936-3.692-34.458,6.087,7.84,11.4,14.816,16.875,21.66a9.284,9.284,0,0,1,2.041,7.057C2443.7,678.17,2438.371,702.4,2426.64,724.924Z" transform="translate(-1680.58 -38.057)"/><path class="cls-7" d="M2422.739,1020.019c-23.781-7.086-48-11.359-73.065-11.709,16.788-7.22,34.942-10.529,51.581-17.409,26.217-10.839,42.918.389,57.7,19.862-2.708,2.918-6.351,2.429-9.763,2.571C2439.9,1013.721,2431.2,1016.364,2422.739,1020.019Z" transform="translate(-1680.58 -38.057)"/><path class="cls-6" d="M2586.885,133.285c-14.814-.665-29.312-4.957-44.294-3.837-1.9.142-4.031-.537-4.188-2.9a6.493,6.493,0,0,1,3.024-5.655c5.293-3.784,11.525-5.553,17.735-6.352,31.484-4.051,62.519-3.776,91.562,11.636a12.451,12.451,0,0,0,7.374,1.256,49.148,49.148,0,0,1,12.876,14.463c-15.028-5.613-28.66-10.445-43.352-10.825-14.475-.374-29.151,1.978-43.173-3.35C2582.736,131.078,2586.6,131.281,2586.885,133.285Z" transform="translate(-1680.58 -38.057)"/><path class="cls-6" d="M2264.318,840.752c8.535-12.223,16.145-24.957,19.057-39.8,3.977-20.27,3.255-40.576-.883-60.747a27.7,27.7,0,0,1-.748-8.4c19.494,21.7,22.238,48.161,19.8,75.313-2.337,26.074-3.209,26.008-28.953,32.089C2269.866,839.849,2267.078,840.242,2264.318,840.752Z" transform="translate(-1680.58 -38.057)"/><path class="cls-9" d="M2297.388,282.731c-16.842-41.17-40.021-75.742-73.377-104.919,19.165-2.2,36.1.631,52.372,8.142,4.392,2.027,2.877,5.921,2.823,9.139-.081,4.8-4.023,2.753-6.457,3.014-6.451.69-15.961-2.991-18.6,2.647-2.944,6.285,6.66,10.212,10.7,15.062,11.567,13.876,23.326,27.461,30.518,44.361C2298.182,266.79,2300.078,273.275,2297.388,282.731Z" transform="translate(-1680.58 -38.057)"/><path class="cls-10" d="M2168.861,583.541c10.648,2.5,21.47,1.925,32.264,1.827-3.138,25.836-11.029,50.249-22.221,73.915C2177.056,633.717,2173.189,608.6,2168.861,583.541Z" transform="translate(-1680.58 -38.057)"/><path class="cls-6" d="M1831,270.1c-.725,8.111-.923,16.311-2.286,24.314-2.726,16,1.923,31.093,4.842,46.419.345,1.814,2.235,1.992,3.713,2.464-8.7,2.589-17.6,4.678-26.041,7.944-5.625,2.177-7.34,1.575-6.767-4.607C1807.03,318.928,1814.62,293,1831,270.1Z" transform="translate(-1680.58 -38.057)"/><path class="cls-11" d="M2441.664,957.367q.868-.08,1.735-.178c31.767.064,63.552-.5,95.291.461,15.5.47,31.412.854,46.038,7.661-18.622-2.132-37.306-3.33-56.037-2.422-29.812,1.446-59.117,6.684-88.336,12.452-2.778.549-5.621.774-8.434,1.151C2428.314,966.626,2438.1,963.582,2441.664,957.367Z" transform="translate(-1680.58 -38.057)"/><path class="cls-6" d="M2487.668,989.4l-8.71-3.338c-.057,4.18,3.5,5.071,5.022,7.433-5.729,4.157-9.729,10.939-17.716,11.666-8.684-8.142-16.586-17.252-30.082-22.727,23.387-4.9,44.372-10.624,66.152-11.621,7.165-.327,13.236,3.374,17.461,9.482-3.131,3.088-7.441,2.337-11.185,3.434-1.35.447-3.429-.336-3.589,2.124C2499.4,987.817,2493.845,990.138,2487.668,989.4Z" transform="translate(-1680.58 -38.057)"/><path class="cls-2" d="M2445.65,791.681c11.932-17.862,28.286-30.2,47.882-38.591,3.676-1.574,6.688-2.722,7.7,2.674-.54,3.719-.98,7.455-1.642,11.151-1.243,6.948.9,16.326-4.578,20.156-4.873,3.406-13.366,1.6-20.256,2.159C2465.054,790.016,2455.353,790.861,2445.65,791.681Z" transform="translate(-1680.58 -38.057)"/><path class="cls-10" d="M2453.391,660.139c9.258,9.773,13.359,19.057,16.522,28.918,1.07,3.338-.965,5.435-2.522,7.724a252.886,252.886,0,0,1-36.805,43.567C2439.443,714.655,2453.676,690.657,2453.391,660.139Z" transform="translate(-1680.58 -38.057)"/><path class="cls-10" d="M2113.237,793.336c-2.736-19.573-13.417-37.336-13.164-57.623.016-1.269-1.533-2.558-2.354-3.838,11.132-5.5,23.212-6.86,37.227-9.082C2117.253,744.355,2112.279,768,2113.237,793.336Z" transform="translate(-1680.58 -38.057)"/><path class="cls-6" d="M2632.769,221.6c-.531-4.644-3.584-8.022-5.83-11.827-1.091-1.847-2.75-4.013-1.286-6.179,1.638-2.426,3.9-.66,6.018-.269,13.813,2.552,23.069,11,30.047,22.625.632,1.054.383,4.566,3.5,2.355,4.61,9.939,3.837,20.76,5.72,31.929-3.907-2.136-4.491-5.535-5.84-8.293C2658.137,237.722,2646.433,228.629,2632.769,221.6Z" transform="translate(-1680.58 -38.057)"/><path class="cls-12" d="M2422.739,1020.019c5.392-8.82,15.1-7.022,23.118-9.05,4.12-1.043,8.718-.2,13.1-.206,7.81,7.841,12.89,17.332,18.254,28.558Z" transform="translate(-1680.58 -38.057)"/><path class="cls-10" d="M1943.161,614.327q23.3,17.626,46.545,35.315c.85.651,1.007,2.208,1.487,3.343-9.75-.9-19.486-2.161-29.257-2.556-4.533-.183-6.989-1.415-7.894-5.916C1951.913,633.924,1946.963,624.327,1943.161,614.327Z" transform="translate(-1680.58 -38.057)"/><path class="cls-13" d="M2261.82,205.82c5.322,0,9.034.211,12.712-.056,4.192-.3,5.99,1.248,7.152,5.472,4.821,17.522,13.959,31.6,33.022,37.242L2303.1,263.864C2293.636,241.908,2277.337,225.379,2261.82,205.82Z" transform="translate(-1680.58 -38.057)"/><path class="cls-4" d="M2491.369,96.989a76.047,76.047,0,0,1-40.846,7.38c.155-4.244,3.178-3.815,4.859-4.475,20.267-7.966,35.985-22.117,51.1-37.132-3.909,13.069-9.7,24.866-22.386,31.888C2486.336,97.537,2489.349,95.5,2491.369,96.989Z" transform="translate(-1680.58 -38.057)"/><path class="cls-10" d="M2363.278,237.655c-10.962,16.673-28.074,23.606-46.15,28.855-1.48.43-3.518-1.064-5.3-1.665,6.3-9.368,13.556-16.81,25.969-17.892C2346.884,246.162,2354.965,241.287,2363.278,237.655Z" transform="translate(-1680.58 -38.057)"/><path class="cls-10" d="M2340.94,572.044c3.8,2.328,4.139-1.3,5.1-3.2a71.15,71.15,0,0,1,14.607-19.526c2.1-2,3.881-6.387,7.267-4.524,2.918,1.605,1,5.751,1.06,8.789a18.925,18.925,0,0,0-2.684-.225c-3.122,14.394-18.008,22.193-20.606,37.136A41.664,41.664,0,0,1,2340.94,572.044Z" transform="translate(-1680.58 -38.057)"/><path class="cls-14" d="M2487.668,989.4c5.787-1.168,10.75-6.368,17.353-3.548,7.892,6.765,8.425,15.852.676,20.008-4.07,2.184-10.96,7.8-9.759-4.408C2496.481,995.938,2491.628,992.623,2487.668,989.4Z" transform="translate(-1680.58 -38.057)"/><path class="cls-14" d="M2466.264,1005.16c6.266-3.341,9.592-11.145,17.716-11.666,4.094,3.119,8.125,7.5,6.5,12.217-1.4,4.057-6.737,6.228-11.688,6.657C2472.971,1012.873,2468.177,1011.5,2466.264,1005.16Z" transform="translate(-1680.58 -38.057)"/><path class="cls-15" d="M2331.108,573.982c-7.222,2.447-12.352,8.149-18.633,12.069-2.106,1.315-3.719,3.383-6.555,2.991l25.188-34.639Z" transform="translate(-1680.58 -38.057)"/><path class="cls-16" d="M2508.61,983.728c2.592-4.846,7.189-3.161,11.185-3.434,6.6,9.961,6.045,15.586-3.067,23.273C2516.265,995.688,2515.9,988.084,2508.61,983.728Z" transform="translate(-1680.58 -38.057)"/><path class="cls-17" d="M2123.369,707.4c9.476,1.141,18.715-1.1,28.05-1.97-1.061,1.112-2.191,2.167-3.172,3.345C2139.086,719.765,2132.82,720.576,2123.369,707.4Z" transform="translate(-1680.58 -38.057)"/><path class="cls-18" d="M2285.817,390.385c1.992.43,5.137-.95,5.327,2.284.218,3.736-3.158,3.2-5.511,3.232-2.4.031-5.929.344-5.819-2.986C2279.931,389.319,2283.63,390.884,2285.817,390.385Z" transform="translate(-1680.58 -38.057)"/><path class="cls-19" d="M2382.623,156.374a37.024,37.024,0,0,1,3.5,2.524c20.675,18.485,38.591,39.2,51.195,64.108,1.338,2.645,4.206,5.924,1.766,8.707-2.366,2.7-4.066-2.063-6.257-2.037-3.751.043-7.724.162-11.2,1.391-10.347,3.659-21.6-.02-31.959,4.641-3.464,1.559-4.269-3.914-5-6.547a148.973,148.973,0,0,1-5.657-36.439c-.251-10.44.08-20.9.407-31.342C2379.469,159.6,2378.584,156.578,2382.623,156.374Z" transform="translate(-1680.58 -38.057)"/><path class="cls-20" d="M2358.1,331.611c-3.708-3.683-2.186-7.594-.5-11.512,1.828-3.938,1.93-8.362,3.387-12.373,2.214-6.092,4.021-12.639,11.335-14.924,11.735,5.072,12.394,4.783,17.725-7.79,5.456-2.92,6.286,1.445,6.086,4.68-.732,11.878-3.159,23.068-14.426,30.145C2374.2,324.553,2365.732,327.213,2358.1,331.611Z" transform="translate(-1680.58 -38.057)"/><path class="cls-21" d="M2373.366,293.914c-10.666,6.159-12.176,16.925-13.91,27.589a12.353,12.353,0,0,1-.69,2.014L2357.6,320.1c1.011-22.234,13.55-36.186,35.6-39.68,4.472-.708,6.8-.781,6.847,5.619.18,26.209-11.132,37.889-41.948,45.573.329-5.444,5.327-4.614,8.425-5.9,14.616-6.055,25.475-15.118,27.391-31.961.546-4.8.006-6.008-3.458-7.735C2385.036,289.239,2379.906,293.1,2373.366,293.914Z" transform="translate(-1680.58 -38.057)"/><path class="cls-10" d="M2401.737,226.507c-7.17,2.2-11.168.34-11.812-7.9-.586-7.488-2.843-14.853-3.329-22.339-.626-9.638-2.826-19.243-1.242-30.067a87.721,87.721,0,0,1,20.249,22.2C2404.373,201.114,2404.721,213.98,2401.737,226.507Z" transform="translate(-1680.58 -38.057)"/><path class="cls-22" d="M2401.737,226.507c-1.284-12.96-1.726-25.835,3.866-38.1,10.224,10.29,18.852,21.782,27.208,35.407Z" transform="translate(-1680.58 -38.057)"/><path class="cls-23" d="M2373.366,293.914c4.855-4.458,10.259-7.727,17.1-7.9.2,4.716.645,9.538-5.275,11.448C2380.418,299.005,2375.982,299.505,2373.366,293.914Z" transform="translate(-1680.58 -38.057)"/></svg>